%FSTAX23Y23*%
%MOIN*%
%SFA1B1*%

%IPPOS*%
%AMD22*
4,1,8,0.028500,0.011800,-0.028500,0.011800,-0.030500,0.009800,-0.030500,-0.009800,-0.028500,-0.011800,0.028500,-0.011800,0.030500,-0.009800,0.030500,0.009800,0.028500,0.011800,0.0*
1,1,0.004020,0.028500,0.009800*
1,1,0.004020,-0.028500,0.009800*
1,1,0.004020,-0.028500,-0.009800*
1,1,0.004020,0.028500,-0.009800*
%
%AMD32*
4,1,8,-0.068900,0.005100,-0.068900,-0.005100,-0.034600,-0.039400,0.034600,-0.039400,0.068900,-0.005100,0.068900,0.005100,0.034600,0.039400,-0.034600,0.039400,-0.068900,0.005100,0.0*
1,1,0.068500,-0.034600,0.005100*
1,1,0.068500,-0.034600,-0.005100*
1,1,0.068500,0.034600,-0.005100*
1,1,0.068500,0.034600,0.005100*
%
%AMD33*
4,1,8,-0.023600,0.005900,-0.023600,-0.005900,0.000000,-0.029500,0.000000,-0.029500,0.023600,-0.005900,0.023600,0.005900,0.000000,0.029500,0.000000,0.029500,-0.023600,0.005900,0.0*
1,1,0.047240,0.000000,0.005900*
1,1,0.047240,0.000000,-0.005900*
1,1,0.047240,0.000000,-0.005900*
1,1,0.047240,0.000000,0.005900*
%
%AMD65*
4,1,8,-0.028500,0.009800,-0.028500,-0.009800,-0.026500,-0.011800,0.026500,-0.011800,0.028500,-0.009800,0.028500,0.009800,0.026500,0.011800,-0.026500,0.011800,-0.028500,0.009800,0.0*
1,1,0.004020,-0.026500,0.009800*
1,1,0.004020,-0.026500,-0.009800*
1,1,0.004020,0.026500,-0.009800*
1,1,0.004020,0.026500,0.009800*
%
%AMD70*
4,1,8,0.015700,0.039400,-0.015700,0.039400,-0.031500,0.023600,-0.031500,-0.023600,-0.015700,-0.039400,0.015700,-0.039400,0.031500,-0.023600,0.031500,0.023600,0.015700,0.039400,0.0*
1,1,0.031500,0.015700,0.023600*
1,1,0.031500,-0.015700,0.023600*
1,1,0.031500,-0.015700,-0.023600*
1,1,0.031500,0.015700,-0.023600*
%
%AMD72*
4,1,8,-0.039400,0.015700,-0.039400,-0.015700,-0.023600,-0.031500,0.023600,-0.031500,0.039400,-0.015700,0.039400,0.015700,0.023600,0.031500,-0.023600,0.031500,-0.039400,0.015700,0.0*
1,1,0.031500,-0.023600,0.015700*
1,1,0.031500,-0.023600,-0.015700*
1,1,0.031500,0.023600,-0.015700*
1,1,0.031500,0.023600,0.015700*
%
%AMD74*
4,1,8,-0.049200,0.024600,-0.049200,-0.024600,-0.024600,-0.049200,0.024600,-0.049200,0.049200,-0.024600,0.049200,0.024600,0.024600,0.049200,-0.024600,0.049200,-0.049200,0.024600,0.0*
1,1,0.049220,-0.024600,0.024600*
1,1,0.049220,-0.024600,-0.024600*
1,1,0.049220,0.024600,-0.024600*
1,1,0.049220,0.024600,0.024600*
%
%AMD77*
4,1,8,0.024600,0.049200,-0.024600,0.049200,-0.049200,0.024600,-0.049200,-0.024600,-0.024600,-0.049200,0.024600,-0.049200,0.049200,-0.024600,0.049200,0.024600,0.024600,0.049200,0.0*
1,1,0.049220,0.024600,0.024600*
1,1,0.049220,-0.024600,0.024600*
1,1,0.049220,-0.024600,-0.024600*
1,1,0.049220,0.024600,-0.024600*
%
%ADD11C,0.019680*%
G04~CAMADD=22~8~0.0~0.0~610.2~236.2~20.1~0.0~15~0.0~0.0~0.0~0.0~0~0.0~0.0~0.0~0.0~0~0.0~0.0~0.0~0.0~610.2~236.2*
%ADD22D22*%
%ADD24R,0.051360X0.057330*%
%ADD25R,0.055910X0.044490*%
%ADD28R,0.057330X0.051360*%
G04~CAMADD=32~8~0.0~0.0~787.4~1378.0~342.5~0.0~15~0.0~0.0~0.0~0.0~0~0.0~0.0~0.0~0.0~0~0.0~0.0~0.0~90.0~1379.0~788.0*
%ADD32D32*%
G04~CAMADD=33~8~0.0~0.0~590.6~472.4~236.2~0.0~15~0.0~0.0~0.0~0.0~0~0.0~0.0~0.0~0.0~0~0.0~0.0~0.0~90.0~472.0~589.0*
%ADD33D33*%
%ADD34R,0.047240X0.059060*%
%ADD37R,0.066930X0.078740*%
%ADD38R,0.078740X0.078740*%
%ADD39R,0.059060X0.078740*%
%ADD40O,0.066930X0.078740*%
%ADD41O,0.059060X0.078740*%
%ADD44O,0.078740X0.051180*%
%ADD45R,0.078740X0.059060*%
%ADD48O,0.078740X0.059060*%
%ADD49O,0.078740X0.059060*%
%ADD50R,0.078740X0.059060*%
%ADD51C,0.078740*%
%ADD52O,0.051180X0.078740*%
%ADD53R,0.059060X0.078740*%
%ADD59R,0.033470X0.053150*%
%ADD60R,0.053150X0.033470*%
%ADD61R,0.057090X0.041340*%
%ADD62R,0.047240X0.057090*%
%ADD63R,0.086610X0.023620*%
%ADD64R,0.059840X0.023620*%
G04~CAMADD=65~8~0.0~0.0~236.2~570.9~20.1~0.0~15~0.0~0.0~0.0~0.0~0~0.0~0.0~0.0~0.0~0~0.0~0.0~0.0~90.0~570.0~236.0*
%ADD65D65*%
%ADD66R,0.102360X0.062990*%
%ADD67R,0.023620X0.029530*%
%ADD68R,0.023620X0.053150*%
%ADD69R,0.098430X0.059060*%
G04~CAMADD=70~8~0.0~0.0~629.9~787.4~157.5~0.0~15~0.0~0.0~0.0~0.0~0~0.0~0.0~0.0~0.0~0~0.0~0.0~0.0~0.0~629.9~787.4*
%ADD70D70*%
%ADD71O,0.062990X0.078740*%
G04~CAMADD=72~8~0.0~0.0~629.9~787.4~157.5~0.0~15~0.0~0.0~0.0~0.0~0~0.0~0.0~0.0~0.0~0~0.0~0.0~0.0~90.0~788.0~631.0*
%ADD72D72*%
%ADD73O,0.078740X0.062990*%
G04~CAMADD=74~8~0.0~0.0~984.3~984.3~246.1~0.0~15~0.0~0.0~0.0~0.0~0~0.0~0.0~0.0~0.0~0~0.0~0.0~0.0~90.0~984.0~984.0*
%ADD74D74*%
%ADD75C,0.098430*%
%ADD76C,0.157480*%
G04~CAMADD=77~8~0.0~0.0~984.3~984.3~246.1~0.0~15~0.0~0.0~0.0~0.0~0~0.0~0.0~0.0~0.0~0~0.0~0.0~0.0~0.0~984.3~984.3*
%ADD77D77*%
%ADD78C,0.027560*%
%LNpcb_awg-1*%
%LPD*%
G36*
X03543Y03572D02*
X03538Y0357D01*
X03487Y03621*
Y03661*
X03494Y03666*
X03502Y03676*
X03507Y03689*
X03509Y03702*
Y03718*
X03507Y03731*
X03502Y03744*
X03494Y03755*
X03483Y03763*
X03471Y03768*
X03457Y0377*
X03444Y03768*
X03432Y03763*
X03421Y03755*
X03413Y03744*
X0341Y03738*
X03405*
X03402Y03744*
X03394Y03755*
X03383Y03763*
X03371Y03768*
X03357Y0377*
X03344Y03768*
X03332Y03763*
X03321Y03755*
X03313Y03744*
X03312Y03743*
X03307Y03744*
X03304Y03752*
X03298Y03759*
X03291Y03765*
X03282Y03768*
X03273Y03769*
X03242*
X03232Y03768*
X03224Y03765*
X03216Y03759*
X03211Y03752*
X03207Y03743*
X03206Y03734*
Y03687*
X03207Y03677*
X03211Y03669*
X03216Y03661*
X03224Y03656*
X03228Y03654*
Y03541*
X03177Y0349*
X03172Y03492*
Y03545*
X03171Y03553*
X03168Y0356*
X03163Y03566*
X03075Y03654*
X03069Y03659*
X03062Y03662*
X03054Y03663*
X02993*
X02986Y0367*
X02992Y03677*
X02997Y0369*
X02999Y03704*
Y03716*
X02997Y0373*
X02992Y03743*
X02983Y03754*
X02975Y0376*
Y03807*
X02974Y03815*
X02971Y03822*
X02967Y03828*
X02955Y03839*
X02949Y03844*
X02942Y03847*
X02934Y03848*
X02434*
X02427Y03847*
X0242Y03844*
X02413Y03839*
X02402Y03828*
X02397Y03822*
X02394Y03815*
X02393Y03807*
Y03801*
X02314*
Y03704*
X0233*
Y03704*
X02331Y03697*
X02334Y03689*
X02335Y03688*
X02332Y03683*
X02314*
Y03586*
X02332*
X02334Y03581*
X02338Y03575*
X02382Y03532*
X02386Y03528*
X02385Y03523*
X02381*
X02378Y03523*
X02374Y03522*
X0237Y03521*
X023Y03591*
Y03746*
X02299Y03754*
X02296Y03761*
X02291Y03767*
X02291*
X02249Y0381*
X02243Y03815*
X02236Y03818*
X02228Y03819*
X02133*
X02125Y03818*
X02118Y03815*
X02112Y0381*
X02083Y03781*
X02078Y03775*
X02075Y03767*
X02074Y03764*
X02071Y03762*
X0206Y03754*
X02056Y03749*
X02051Y03751*
Y03769*
X01944*
Y03651*
X02051*
Y0367*
X02056Y03671*
X0206Y03666*
X02071Y03658*
X02084Y03652*
X02098Y03651*
X02111Y03652*
X02124Y03658*
X02135Y03666*
X02144Y03677*
X02145Y0368*
X0215*
X02151Y03677*
X0216Y03666*
X02168Y0366*
Y03569*
X02169Y03561*
X02172Y03554*
X02176Y03548*
X02256Y03469*
X02253Y03464*
X02252Y03464*
X02057*
X02049Y03463*
X02042Y0346*
X02036Y03456*
X01995Y03415*
X01977*
X01975Y03418*
X01965Y03425*
X01954Y03429*
X01942Y03431*
X01915*
X01903Y03429*
X01892Y03425*
X01883Y03418*
X01876Y0341*
X01873Y03409*
X01866Y03406*
X0186Y03402*
X01854Y03395*
X01849Y03397*
Y03406*
X01852Y03413*
X01853Y03421*
X01852Y0343*
X01849Y03438*
X01843Y03445*
X01836Y03451*
X01828Y03454*
X01819Y03455*
X01811Y03454*
X01803Y03451*
X01796Y03445*
X0179Y03438*
X01787Y0343*
X01786Y03421*
X01787Y03413*
X0179Y03406*
Y03222*
X01791Y03215*
X01794Y03207*
X01798Y03201*
X01875Y03124*
Y03121*
X01874Y03117*
X0187*
X01852*
Y0308*
Y03044*
X0187*
X01874*
X01875Y03039*
Y03034*
X01891*
X01893Y03029*
X01888Y03025*
X01883Y03018*
X01879Y0301*
X01878Y03001*
X01879Y02993*
X01882Y02986*
Y02969*
X01875*
Y02964*
X01874Y02959*
X0187*
X01852*
Y02923*
Y02886*
X0187*
X01874*
X01875Y02882*
Y02876*
X01929*
Y02812*
X01874*
X01873Y02814*
X01868Y0282*
X01764Y02924*
Y03138*
X01769Y03139*
X01774Y03132*
X01782Y03127*
X01786Y03126*
Y03149*
Y03172*
X01782Y03172*
X01774Y03166*
X01769Y0316*
X01764Y03161*
Y03639*
X01763Y03646*
X0176Y03654*
X01755Y0366*
X01724Y03691*
X01718Y03696*
X0171Y03699*
X01703Y037*
X01446*
X01438Y03699*
X01431Y03696*
X01425Y03691*
X01396Y03662*
X01391Y03656*
X01388Y03649*
X01387Y03641*
Y02047*
X01388Y02039*
X01391Y02032*
X01396Y02026*
X01432Y0199*
X01438Y01985*
X01445Y01982*
X01453Y01981*
X01453*
X01456Y01978*
Y01962*
Y01957*
Y01865*
Y01862*
Y01857*
Y01765*
Y01762*
Y01757*
Y01662*
X01594*
Y01757*
Y0176*
Y01765*
Y01857*
Y0186*
Y01865*
Y01957*
Y0196*
Y01965*
Y02057*
Y0206*
Y02065*
Y02157*
Y0216*
Y02165*
Y02257*
Y0226*
Y02265*
Y02357*
Y0236*
Y02365*
Y02457*
Y0246*
Y02465*
Y02557*
Y0256*
Y02565*
Y02657*
Y0266*
Y02665*
Y02757*
Y0276*
Y02765*
Y02857*
Y0286*
Y02865*
Y02957*
Y0296*
Y02965*
Y03057*
Y0306*
Y03065*
Y03157*
Y0316*
Y03165*
Y03257*
Y0326*
Y03265*
Y03281*
X0163*
X01648Y03264*
Y01781*
X01618Y01751*
X01614Y01745*
X01611Y01738*
X0161Y0173*
Y01456*
X01289*
Y0205*
X01351Y02112*
X01356Y02118*
X01359Y02126*
X0136Y02133*
Y02495*
X01363Y02502*
X01364Y02511*
X01363Y0252*
X0136Y02528*
X01354Y02535*
X01347Y0254*
X01339Y02544*
X0133Y02545*
X01322Y02544*
X01314Y0254*
X01307Y02535*
X01301Y02528*
X01298Y0252*
X01297Y02511*
X01298Y02502*
X01301Y02495*
Y02146*
X01238Y02083*
X01234Y02077*
X01231Y0207*
X0123Y02062*
Y01456*
X01052*
Y02694*
X01051Y02702*
X01048Y02709*
X01043Y02715*
X00926Y02832*
X0092Y02837*
X00913Y0284*
X00905Y02841*
X00894*
Y0286*
Y02862*
Y0296*
Y02962*
Y02965*
Y0306*
Y03062*
Y0316*
Y03162*
Y03257*
Y0326*
Y03265*
Y03281*
X00936*
X00944Y03282*
X00951Y03285*
X00957Y0329*
X01424Y03757*
X01431Y0376*
X01438Y03765*
X01444Y03772*
X01447Y03781*
X01448Y03789*
X01447Y03798*
X01444Y03806*
X01438Y03813*
X01431Y03819*
X01423Y03822*
X01414Y03823*
X01406Y03822*
X01398Y03819*
X01391Y03813*
X01385Y03806*
X01382Y03799*
X00924Y03341*
X00898*
X00894Y03344*
Y0336*
Y03365*
Y03457*
Y0346*
Y03465*
Y03557*
Y0356*
Y03565*
Y0366*
X00756*
Y03565*
Y03562*
Y03557*
Y03541*
X00703*
X00572Y03671*
X00566Y03676*
X00559Y03679*
X00551Y0368*
X00284*
X00277Y03679*
X00269Y03676*
X00263Y03671*
X00224Y03633*
X0022Y03626*
X00217Y03619*
X00216Y03612*
Y01625*
X00063Y01472*
X00059Y01466*
X00056Y01459*
X00055Y01456*
X0*
Y03779*
Y03789*
X00002Y0381*
X00008Y0383*
X00015Y03849*
X00026Y03867*
X00038Y03883*
X00053Y03898*
X00069Y0391*
X00087Y03921*
X00106Y03928*
X00126Y03934*
X00147Y03937*
X00157*
X03543*
Y03572*
G37*
G36*
X00573Y03587D02*
X00571Y03582D01*
X00536*
Y03538*
X0058*
Y03573*
X00585Y03575*
X0067Y0349*
X00676Y03485*
X00683Y03482*
X00691Y03481*
X00753*
X00756Y03478*
Y03462*
Y03457*
Y03365*
Y03362*
Y03357*
Y03265*
Y03262*
Y03257*
Y03245*
X00754Y03241*
X00746Y0324*
X00739Y03237*
X00733Y03232*
X00717Y03216*
X00712Y0321*
X0071Y03204*
X00705Y03203*
X00704Y03203*
X00702Y03204*
X00695Y03207*
X00687Y03208*
X0059*
Y03238*
Y03356*
Y03474*
X00472*
Y03356*
Y03238*
Y03125*
Y0312*
Y03001*
Y02972*
X00462*
X00454Y02971*
X00447Y02968*
X00441Y02963*
X004Y02923*
X00396Y02917*
X00393Y02909*
X00392Y02902*
Y01456*
X00391Y01456*
X00376*
Y03492*
X00379Y03499*
X0038Y03507*
X00379Y03516*
X00376Y03524*
X0037Y03531*
X00363Y03537*
X00355Y0354*
X00346Y03541*
X00338Y0354*
X0033Y03537*
X00323Y03531*
X00317Y03524*
X00314Y03516*
X00313Y03507*
X00314Y03499*
X00317Y03492*
Y01456*
X00138*
X00136Y01461*
X00266Y01591*
X00271Y01597*
X00274Y01605*
X00275Y01612*
Y03599*
X00297Y03621*
X00539*
X00573Y03587*
G37*
G36*
X02155Y034D02*
X02152Y03398D01*
X02145Y03389*
X0214Y03379*
X02136Y03367*
X02135Y03356*
X02136Y03344*
X02137Y0334*
X02136Y03338*
X02133Y03331*
X02132Y03323*
Y0313*
X02125*
Y03037*
X02263*
Y03054*
X0234*
X02345Y03051*
X02353Y0305*
X0244*
Y03034*
X02512*
Y02972*
X0244*
Y02956*
X02263*
Y02972*
X02125*
Y0288*
X02123Y02875*
X02094Y02846*
X0209Y0284*
X02087Y02833*
X02086Y02825*
Y02571*
X02081Y0257*
X0205Y026*
X02044Y02605*
X02037Y02608*
X02029Y02609*
X01825*
X01818Y02608*
X01811Y02605*
X01804Y026*
X01723Y02519*
X01719Y02513*
X01716Y02506*
X01715Y02498*
Y01813*
X01716Y01806*
X01719Y01798*
X01723Y01792*
X01775Y0174*
X01782Y01736*
X01789Y01733*
X01796Y01732*
X01912*
X01919Y01733*
X01927Y01736*
X01933Y0174*
X01968Y01775*
X01973Y01781*
X01976Y01789*
X01977Y01796*
Y01801*
X01982Y01805*
X01989Y01814*
X01994Y01812*
Y01791*
X021*
Y01909*
X01994*
Y01888*
X01989Y01886*
X01982Y01895*
X01972Y01903*
X0196Y01908*
X01947Y01909*
X01934Y01908*
X01922Y01903*
X01912Y01895*
X01904Y01885*
X01899Y01874*
X01899*
X01894*
X01894*
X0189Y01885*
X01882Y01895*
X01877Y01899*
Y0197*
X0191Y02004*
X01915Y0201*
X01918Y02018*
X01919Y02025*
Y02194*
X01943*
Y02221*
X01953*
Y02194*
X01978*
Y02*
X01979Y01992*
X01982Y01985*
X01986Y01979*
X02004Y01961*
X02004Y01959*
X02008Y01951*
X02013Y01944*
X0202Y01939*
X02028Y01935*
X02037Y01934*
X02046Y01935*
X02054Y01939*
X02061Y01944*
X02066Y01951*
X0207Y01959*
X02071Y01968*
X0207Y01977*
X02066Y01985*
X02061Y01992*
X02054Y01997*
X02051Y01999*
X02037Y02012*
Y02055*
X02041Y02058*
X02042Y02058*
X02051Y02057*
X02059Y02058*
X02068Y02061*
X02075Y02066*
X0208Y02073*
X02083Y02082*
X02084Y0209*
X02083Y02099*
X02082Y02102*
Y02185*
X02093*
Y02178*
X02094Y0217*
X02097Y02163*
X02101Y02157*
X02154Y02104*
X0216Y021*
X02167Y02097*
X02174Y02096*
X02175Y02094*
X02176Y02091*
X02172Y02088*
X02167Y02081*
X02166Y02076*
X02213*
X02212Y02081*
X02207Y02088*
X02203Y02091*
X02205Y02096*
X02232*
X0224Y02097*
X02247Y021*
X02253Y02104*
X02258Y02109*
X02273*
Y02108*
X02282*
X02285Y02103*
X0222Y02005*
X0222Y02005*
X0222Y02005*
X02217Y02*
X02216Y01999*
X02216Y01998*
X02215Y01996*
X02213Y01993*
X02213Y01992*
X02213Y01991*
X02212Y01988*
X02212Y01985*
X02212Y01984*
X02212Y01983*
Y01754*
Y01692*
X02204*
Y01456*
X02032*
X01707Y01781*
Y02891*
X01712Y02892*
X01713Y02891*
X01811Y02794*
Y02719*
X01948*
Y02744*
X01951Y02746*
X01979Y02774*
X01984Y0278*
X01987Y02788*
X01988Y02795*
Y03159*
X01988Y03163*
X01987Y03166*
X01984Y03174*
X01979Y0318*
X01969Y0319*
X01971Y03195*
X01973Y03195*
Y03213*
X01955*
X01955Y03211*
X0195Y03209*
X01897Y03262*
X01899Y03267*
X01924*
Y03307*
X01929*
Y03312*
X01978*
Y03346*
X01973*
X01972Y03351*
X01975Y03353*
X01977Y03356*
X02007*
X02015Y03357*
X02022Y0336*
X02028Y03364*
X02069Y03405*
X02154*
X02155Y034*
G37*
G36*
X0331Y03284D02*
Y03154D01*
X0331Y03153*
X03305Y03151*
X03247Y03209*
X03249Y03214*
X03257Y03215*
X03265Y03221*
X0327Y03228*
X03271Y03233*
X03248*
Y03243*
X03271*
X0327Y03247*
X03265Y03254*
X03267Y03259*
X03273*
X03278Y0326*
X03282Y03262*
X03284Y03266*
X03285Y03271*
Y03276*
X03247*
Y03286*
X03285*
Y03291*
X03284Y03295*
X03284Y03296*
X03287Y03301*
X03293*
X0331Y03284*
G37*
G36*
X03267Y03067D02*
X03272Y03068D01*
X03279Y03073*
X03284Y0308*
X03286Y03081*
X03289Y03082*
X03395Y02977*
Y02503*
X03396Y02495*
X03399Y02488*
X03404Y02482*
X03454Y02432*
Y02244*
X03423*
Y02357*
X03422Y02365*
X03419Y02372*
X03414Y02378*
X03393Y02399*
X03394Y02402*
X03395Y02414*
X03394Y02426*
X03391Y02437*
X03385Y02447*
X03378Y02456*
X03369Y02463*
X03359Y02469*
X03348Y02472*
X03336Y02473*
X03325Y02472*
X03313Y02469*
X03303Y02463*
X03301Y02461*
X03296Y02464*
Y02633*
X03295Y02641*
X03292Y02648*
X03287Y02654*
X03104Y02838*
Y02845*
X03109Y02847*
X03113Y02844*
X03121Y02841*
X03129Y0284*
X03138Y02841*
X03146Y02844*
X03153Y0285*
X03159Y02857*
X03162Y02865*
X03163Y02874*
X03162Y02879*
X03166Y02884*
X03179*
Y02968*
X03161*
Y02984*
X03168Y02991*
X03173Y02997*
X03176Y03004*
X03177Y03012*
Y03035*
X03192*
Y03045*
X03205*
Y03083*
X03215*
Y03045*
X03246*
Y03067*
X0325Y03069*
X03253Y03068*
X03257Y03067*
Y0309*
X03267*
Y03067*
G37*
G36*
X02814Y03273D02*
X02815Y03268D01*
Y03184*
X02816Y03176*
X02819Y03169*
X02823Y03163*
X02835Y03151*
X02841Y03147*
X02848Y03144*
X02852Y03143*
X02853Y03143*
X02855Y03138*
X02853Y03132*
X02852Y03129*
X0284*
Y03119*
X02827*
Y0308*
X02822*
X02827*
Y03042*
X0284*
Y03032*
X02856*
Y03011*
X02857Y03003*
X0286Y02996*
X02865Y0299*
X02873Y02981*
Y02968*
X02855*
Y02884*
X02873*
Y02607*
X02852Y02587*
X0266Y02395*
X02655Y02397*
Y02406*
X0262*
Y02411*
X02615*
Y0245*
X02602*
Y02459*
X02569*
X02567Y02464*
X02571Y02471*
X02572Y02475*
X02525*
X02526Y02471*
X02531Y02464*
X02528Y02459*
X02511*
Y02363*
X02527*
Y02321*
X02489*
Y02297*
X02484Y02295*
X02424Y02356*
X02424Y02361*
X02425Y02362*
X02433Y02369*
X02441Y02378*
X02446Y02388*
X02449Y02399*
X02451Y02411*
X02449Y02423*
X02446Y02434*
X02441Y02444*
X02433Y02453*
X02424Y0246*
X02414Y02466*
X02403Y02469*
X02391Y0247*
X0238Y02469*
X02376Y02468*
X02192Y02653*
Y02722*
X02263*
Y02739*
X0244*
Y02722*
X02578*
Y02815*
X02572*
Y0288*
X02578*
Y02972*
X02572*
Y03019*
X02576Y0302*
X02635Y02962*
X02638Y02955*
X02643Y02948*
X0265Y02943*
X02658Y02939*
X02667Y02938*
X02676Y02939*
X02684Y02943*
X02691Y02948*
X02696Y02955*
X02699Y02963*
X02701Y02972*
X02699Y02981*
X02696Y02989*
X02691Y02996*
X02684Y03001*
X02677Y03004*
X02596Y03085*
X0259Y03089*
X02583Y03092*
X02578Y03093*
Y03109*
X02639*
X02647Y03111*
X02654Y03113*
X0266Y03118*
X02799Y03257*
X02804Y03263*
X02807Y0327*
X02807Y03273*
X02814*
G37*
G36*
X03483Y03119D02*
Y0282D01*
X03479Y02818*
X03478Y02817*
X03474Y02818*
Y02795*
Y02772*
X03478Y02772*
X03479Y02772*
X03483Y0277*
Y02558*
X03484Y02551*
X03487Y02543*
X03491Y02537*
X03543Y02486*
Y02071*
X03519Y02047*
X03208*
Y02223*
X03213Y02228*
X03218Y02226*
Y02208*
X03228*
Y02194*
X03281*
Y02184*
X03228*
Y02171*
X03218*
Y02108*
X03344*
Y02109*
X03345*
X03353Y0211*
X03358Y02112*
X03369*
Y02106*
X03461*
Y02113*
X03465Y02113*
X03472Y02116*
X03478Y02121*
X03505Y02148*
X0351Y02154*
X03513Y02161*
X03513Y02165*
X03514Y02169*
Y02444*
X03513Y02452*
X0351Y02459*
X03505Y02465*
X03454Y02515*
Y02771*
X03459Y02773*
X0346Y02772*
X03464Y02772*
Y02795*
Y02818*
X0346Y02817*
X03459Y02817*
X03454Y02819*
Y02989*
X03454Y02993*
X03453Y02997*
X0345Y03004*
X03446Y0301*
X03371Y03085*
X03373Y0309*
X03379Y03091*
X03387Y03094*
X03394Y03099*
X034Y03106*
X03403Y03115*
X03404Y03123*
X03403Y03132*
X034Y0314*
X03394Y03147*
X03387Y03153*
X0338Y03155*
X03369Y03167*
Y03226*
X03374Y03228*
X03483Y03119*
G37*
G36*
X02951Y02884D02*
X02952Y0288D01*
Y02511*
X02947Y02509*
X02942Y02512*
X02938Y02513*
Y0249*
Y02466*
X02942Y02467*
X02947Y02471*
X02952Y02468*
Y02462*
X02949Y0246*
X0294Y02453*
X02932Y02444*
X02927Y02434*
X02924Y02423*
X02922Y02411*
X02924Y02399*
X02927Y02388*
X02932Y02378*
X0294Y02369*
X02949Y02362*
X02952Y0236*
Y02221*
X02953Y02214*
X02956Y02206*
X02961Y022*
X02993Y02168*
X02999Y02163*
X03006Y0216*
X03013Y02159*
Y02158*
X03023*
Y02144*
X0313*
Y02158*
X03139*
Y02214*
X03143Y02215*
X03144Y02216*
X03149Y02214*
Y02047*
X03053*
X02913Y02187*
Y02386*
X02912Y02394*
X02909Y02401*
X02904Y02407*
X02903Y02408*
Y02554*
X02923Y02574*
X02928Y0258*
X02931Y02587*
X02932Y02595*
Y02884*
X02951*
G37*
G36*
X02107Y02327D02*
X02105Y02322D01*
X0202*
Y02316*
X02019*
X02011Y02315*
X02004Y02312*
X02Y02308*
X01995Y02311*
Y02322*
X01902*
Y02316*
X01901*
X01893Y02315*
X01886Y02312*
X0188Y02307*
X01868Y02295*
X01863Y02289*
X01861Y02282*
X01859Y02274*
Y02038*
X01835Y02013*
X0183Y02015*
Y02185*
X01847*
Y0225*
Y02322*
X0183*
Y0246*
X01871*
X01873Y02457*
X01876Y02455*
X01874Y0245*
X01869*
Y02416*
X01919*
X01968*
Y0245*
X01964*
X01962Y02455*
X01965Y02457*
X01967Y0246*
X01974*
X02107Y02327*
G37*
G36*
X02844Y02488D02*
Y02409D01*
X02839Y02405*
X02834Y02405*
X02825Y02404*
X02817Y02401*
X0281Y02395*
X02805Y02388*
X02802Y0238*
X028Y02372*
X02802Y02363*
X02804Y02356*
Y02328*
X02805Y02321*
X02808Y02313*
X02813Y02307*
X02814Y02306*
Y02158*
X02815Y0215*
X02818Y02143*
X02822Y02139*
Y02072*
X02797Y02047*
X02677*
Y01927*
X02579Y01829*
X02574Y01831*
X02576Y01844*
Y01856*
X02574Y0187*
X02569Y01883*
X0256Y01894*
X02552Y019*
Y01918*
X02551Y01926*
X02548Y01933*
X02543Y01939*
X02508Y01975*
Y02117*
X02533*
Y02139*
X02538*
Y02144*
X02578*
Y02158*
X02588*
Y02159*
X02622*
X02628Y02154*
X02634Y02149*
X02641Y02146*
X02649Y02145*
X02687*
Y02125*
X02805*
Y02224*
X02799*
X02797Y02228*
X02799Y02231*
X02803Y02242*
X02805Y02253*
X02803Y02265*
X02799Y02276*
X02792Y02286*
X02782Y02293*
X02771Y02298*
X02759Y02299*
X02732*
X0272Y02298*
X02709Y02293*
X02699Y02286*
X02698Y02283*
X02649*
X02641Y02282*
X02637Y02281*
X02634Y02285*
X02727Y02378*
X0273Y02377*
X0275*
Y02397*
X02749Y024*
X02839Y0249*
X02844Y02488*
G37*
G36*
X0381Y03934D02*
X0383Y03928D01*
X03849Y03921*
X03867Y0391*
X03883Y03898*
X03898Y03883*
X0391Y03867*
X03921Y03849*
X03928Y0383*
X03934Y0381*
X03937Y03789*
Y03779*
Y01141*
X03657*
X03656Y01146*
X03664Y01151*
X03673Y01158*
X03681Y01167*
X03686Y01178*
X0369Y01189*
X03691Y012*
X0369Y01212*
X03686Y01223*
X03681Y01233*
X03673Y01242*
X03664Y0125*
X03661Y01251*
Y01338*
X03691Y01368*
X03693Y01367*
X03743*
X03754Y01369*
X03765Y01373*
X03774Y0138*
X03781Y0139*
X03786Y014*
X03787Y01412*
Y01461*
X03786Y01473*
X03781Y01483*
X03774Y01493*
X03765Y015*
X03754Y01504*
X03743Y01506*
X03693*
X03682Y01504*
X03671Y015*
X03662Y01493*
X03655Y01483*
X0365Y01473*
X03649Y01461*
Y01412*
X03649Y0141*
X0361Y01371*
X03606Y01365*
X03603Y01358*
X03602Y0135*
Y01251*
X03598Y0125*
X03589Y01242*
X03582Y01233*
X03577Y01223*
X03573Y01212*
X03572Y012*
X03573Y01189*
X03577Y01178*
X03582Y01167*
X03589Y01158*
X03598Y01151*
X03607Y01146*
X03606Y01141*
X03513*
Y0122*
X03415*
Y01141*
X03367*
X03364Y01145*
X03365Y01149*
X03366Y01161*
X03365Y01172*
X03361Y01184*
X03356Y01194*
X03349Y01203*
X0334Y0121*
X03329Y01216*
X03318Y01219*
X03307Y0122*
X03295Y01219*
X03284Y01216*
X03274Y0121*
X03265Y01203*
X03257Y01194*
X03253Y01186*
X03248Y01188*
Y01918*
X03247Y01926*
X03244Y01933*
X03239Y01939*
X03208Y0197*
Y02007*
X03473*
X03475Y02003*
X03354Y01882*
X03347Y01879*
X0334Y01874*
X03335Y01867*
X03332Y01859*
X0333Y0185*
X03332Y01841*
X03335Y01833*
X0334Y01826*
X03347Y01821*
X03356Y01817*
X03364Y01816*
X03373Y01817*
X03381Y01821*
X03388Y01826*
X03393Y01833*
X03396Y0184*
X03564Y02007*
X03622*
Y02065*
X03643Y02086*
X03647Y02092*
X0365Y021*
X03651Y02107*
Y02313*
X03664*
X03666Y02309*
X03665Y02308*
X03661Y02302*
X03658Y02295*
X03657Y02287*
Y02149*
X03658Y02142*
X03661Y02134*
X03665Y02128*
X03666Y02127*
X03667Y02126*
X0367Y02118*
X03675Y02111*
X03682Y02105*
X03691Y02102*
X03699Y02101*
X037Y021*
Y02076*
X03701Y02069*
X03704Y02061*
X03709Y02055*
X03767Y01997*
X03769Y01991*
X03775Y01984*
X03782Y01978*
X0379Y01975*
X03799Y01974*
X03807Y01975*
X03816Y01978*
X03816Y01978*
X0382Y01976*
Y01953*
X03777Y01909*
X03682*
X03681Y01912*
X03673Y01921*
X03664Y01929*
X03654Y01934*
X03643Y01938*
X03631Y01939*
X0362Y01938*
X03609Y01934*
X03598Y01929*
X03589Y01921*
X03582Y01912*
X03577Y01902*
X03573Y01891*
X03572Y01879*
X03573Y01868*
X03577Y01857*
X03582Y01846*
X03589Y01837*
X03598Y0183*
X03602Y01828*
Y01774*
X03479Y01651*
X03476Y01652*
X03464Y01653*
X03452Y01652*
X03441Y01649*
X03431Y01643*
X03422Y01636*
X03415Y01627*
X03409Y01617*
X03406Y01606*
X03405Y01594*
X03406Y01582*
X03409Y01571*
X03415Y01561*
X03422Y01552*
X03431Y01545*
X03441Y01539*
X03452Y01536*
X03464Y01535*
X03476Y01536*
X03487Y01539*
X03497Y01545*
X03506Y01552*
X03513Y01561*
X03519Y01571*
X03522Y01582*
X03523Y01594*
X03522Y01606*
X03521Y01609*
X03652Y0174*
X03657Y01746*
X0366Y01754*
X03661Y01761*
Y01828*
X03664Y0183*
X03673Y01837*
X03681Y01846*
X03682Y0185*
X03789*
X03797Y01851*
X03804Y01854*
X0381Y01858*
X03871Y0192*
X03876Y01926*
X03879Y01933*
X0388Y01941*
Y02038*
X03895*
Y02134*
X03772*
Y02152*
X03771Y0216*
X03771Y02161*
X03774Y02166*
X03782*
Y02204*
X03792*
Y02166*
X03805*
Y02156*
X03895*
Y02253*
X0388*
Y02279*
X03879Y02286*
X03876Y02294*
X03871Y023*
X03871Y023*
X03871Y02302*
X03867Y0231*
X03862Y02317*
X03855Y02322*
X03847Y02325*
X03838Y02327*
X03834Y02326*
X03832Y02331*
X03908Y02407*
X03908*
X03913Y02413*
X03916Y02421*
X03917Y02428*
Y02876*
X03916Y02884*
X03913Y02891*
X03908Y02897*
X03908*
X03872Y02934*
X03866Y02939*
X03859Y02942*
X03851Y02943*
X0384*
Y02951*
X03838*
Y03157*
X03881*
Y03259*
X03622*
Y03937*
X03789*
X0381Y03934*
G37*
G36*
X00911Y02262D02*
Y01672D01*
X00906Y01671*
X00905Y01672*
X00898Y01678*
X00894Y01679*
Y0176*
Y01762*
Y0186*
X00776*
Y01871*
X0082*
Y01911*
Y0195*
X00776*
Y01962*
X00894*
Y0206*
Y02062*
Y0216*
Y02162*
Y0226*
Y02262*
Y02273*
X00899Y02275*
X00911Y02262*
G37*
G36*
X0123Y01212D02*
X01231Y01204D01*
X01234Y01197*
X01238Y01191*
X0125Y01179*
X01256Y01174*
X01263Y01172*
X0127Y01171*
Y0116*
X01348*
Y01149*
X01295Y01096*
X01155*
X01153Y01101*
X01158Y01104*
X01164Y01112*
X01164Y01117*
X01118*
X01119Y01112*
X01124Y01104*
X01129Y01101*
X01127Y01096*
X01067*
X01055Y01109*
Y01119*
X01057*
Y01208*
Y01211*
X01061Y01213*
X01094*
Y01245*
X01102*
X01109Y01242*
X01117Y01241*
X01126Y01242*
X01134Y01245*
X01141Y0125*
X01147Y01257*
X0115Y01266*
X01151Y01274*
X0115Y01283*
X01147Y01291*
X01141Y01298*
X01134Y01304*
X01126Y01307*
X01117Y01308*
X01109Y01307*
X01102Y01304*
X01094*
Y01306*
X01036*
X01034Y01311*
X01043Y0132*
X01048Y01326*
X01051Y01334*
X01052Y01341*
Y01417*
X0123*
Y01212*
G37*
G36*
X03937Y00162D02*
Y00157D01*
X03936Y00147*
X03933Y00126*
X03932Y00119*
X03928Y00106*
X0392Y00087*
X0391Y00069*
X03897Y00053*
X03883Y00039*
X03867Y00026*
X03849Y00016*
X0383Y00008*
X03817Y00005*
X0381Y00003*
X03789Y0*
X03779Y0*
X03774*
X0244*
Y01102*
X02826*
X02863Y01065*
Y00867*
X02864Y00859*
X02867Y00852*
X02871Y00846*
X02962Y00755*
Y00734*
X02961Y00733*
X02954Y00724*
X02949Y00714*
X02948Y00702*
Y00691*
X02949Y00679*
X02954Y00669*
X02961Y0066*
X0297Y00653*
X0298Y00648*
X02992Y00647*
X03003Y00648*
X03013Y00653*
X03023Y0066*
X03029Y00669*
X03034Y00679*
X03034Y00682*
X03039*
X0304Y00679*
X03044Y00669*
X0305Y0066*
Y00575*
X02909Y00433*
X02706*
Y00472*
X02705Y0048*
X02702Y00487*
X02698Y00493*
X02698*
X02657Y00533*
Y0067*
X0266Y00672*
X02662Y00675*
X02667Y00673*
Y00669*
X02701*
Y00718*
Y00767*
X02667*
Y00763*
X02662Y00761*
X0266Y00764*
X02657Y00766*
Y00946*
X0266Y00948*
X02662Y0095*
X02667Y00949*
Y00944*
X02701*
Y00994*
Y01043*
X02667*
Y01038*
X02662Y01037*
X0266Y0104*
X0265Y01047*
X02639Y01051*
X02627Y01053*
X02616Y01051*
X02605Y01047*
X02595Y0104*
X02588Y0103*
X02583Y01019*
X02582Y01007*
Y0098*
X02583Y00968*
X02588Y00957*
X02595Y00948*
X02598Y00946*
Y00766*
X02595Y00764*
X02588Y00755*
X02583Y00744*
X02582Y00732*
Y00704*
X02583Y00692*
X02588Y00681*
X02595Y00672*
X02598Y0067*
Y00521*
X02599Y00513*
X02602Y00506*
X02606Y005*
X02647Y0046*
Y00403*
Y00344*
X02641Y00343*
X0263Y00338*
X0262Y00331*
X02613Y00322*
X02609Y00311*
X02607Y003*
Y0025*
X02609Y00239*
X02613Y00228*
X0262Y00219*
X0263Y00212*
X02641Y00207*
X02652Y00206*
X02701*
X02713Y00207*
X02724Y00212*
X02733Y00219*
X0274Y00228*
X02744Y00239*
X02746Y0025*
Y003*
X02744Y00311*
X0274Y00322*
X02733Y00331*
X02724Y00338*
X02713Y00343*
X02706Y00344*
Y00373*
X02921*
X02929Y00374*
X02936Y00377*
X02942Y00382*
X03101Y00541*
X03106Y00547*
X03109Y00555*
X0311Y00562*
Y00658*
X03113Y0066*
X03118Y00667*
X03189*
X03197Y00668*
X03204Y00671*
X0321Y00675*
X03239Y00704*
X03244Y0071*
X03247Y00718*
X03248Y00725*
Y01102*
X03304*
X03307Y01102*
X03309Y01102*
X03937*
Y00162*
G37*
G36*
X0161Y01285D02*
X01251Y00926D01*
X0106*
X01055Y00928*
X01055Y00931*
X01054Y00937*
X01051Y00945*
X01045Y00952*
X01038Y00958*
X0103Y00961*
X01021Y00962*
X0102Y00963*
Y01051*
X0102Y01052*
X01025Y01054*
X01034Y01045*
X0104Y01041*
X01047Y01038*
X01055Y01037*
X01307*
X01315Y01038*
X01322Y01041*
X01328Y01045*
X01398Y01115*
X01398*
X01403Y01121*
X01406Y01129*
X01407Y01136*
Y01169*
X01432*
Y01205*
X01437*
Y0121*
X01475*
Y01223*
X01485*
Y01314*
X01388*
Y0129*
X01383*
X0138Y01291*
X01373Y01292*
X01367*
Y01313*
X01289*
Y01417*
X0161*
Y01285*
G37*
G36*
X02204Y01199D02*
Y01102D01*
X02401*
Y0*
X00147*
X00126Y00002*
X00106Y00008*
X00087Y00015*
X00069Y00026*
X00053Y00038*
X00038Y00053*
X00026Y00069*
X00015Y00087*
X00008Y00106*
X00002Y00126*
X0Y00147*
Y00157*
Y01417*
X00055*
Y01133*
X00056Y01126*
X00059Y01119*
X00063Y01112*
X00134Y01041*
X00141Y01037*
X00145Y01035*
X00152Y01026*
X00163Y01018*
X00175Y01013*
X00188Y01011*
X00204*
X00218Y01013*
X0023Y01018*
X00241Y01026*
X00249Y01037*
X00254Y01049*
X00256Y01062*
X00254Y01076*
X00249Y01088*
X00241Y01099*
X0023Y01107*
X00224Y0111*
Y01115*
X0023Y01118*
X00241Y01126*
X00246Y01133*
X00299*
X00307Y01134*
X00314Y01137*
X0032Y01141*
X00367Y01188*
X00367*
X00372Y01195*
X00373Y01196*
X00378Y01195*
Y00932*
X00363Y00917*
X00216*
X00215Y00922*
X00225Y00926*
X00234Y00933*
X0024Y00942*
X00245Y00952*
X00245Y00957*
X00196*
X00147*
X00148Y00952*
X00152Y00942*
X00159Y00933*
X00168Y00926*
X00178Y00922*
X00178Y00922*
Y00917*
X00171Y00916*
X00164Y00913*
X00158Y00908*
X00057Y00808*
X00052Y00802*
X00049Y00795*
X00048Y00787*
Y00527*
X00046Y0052*
X00044Y00511*
X00046Y00503*
X00049Y00494*
X00054Y00487*
X00061Y00482*
X0007Y00479*
X00078Y00478*
X00087Y00479*
X00093Y00481*
X00098Y00478*
Y00438*
X00099Y00431*
X00102Y00423*
X00106Y00417*
X00134Y00389*
X00141Y00385*
X00148Y00382*
X00155Y00381*
X00155*
X00366*
X00374Y00382*
X00381Y00385*
X00387Y00389*
X00683Y00685*
X00688Y00691*
X00691Y00698*
X00691Y00701*
X0103*
X01038Y00702*
X01045Y00705*
X01051Y00709*
X01077Y00734*
X01081Y00741*
X01092*
Y00833*
Y00867*
X01263*
X01271Y00868*
X01278Y00871*
X01284Y00875*
X0166Y01251*
X01665Y01257*
X01668Y01265*
X01669Y01272*
Y01417*
X01987*
X02204Y01199*
G37*
G36*
X00561Y00819D02*
Y00754D01*
X00348Y00541*
X00253*
X00251Y00545*
X00245Y00552*
X00238Y00558*
X00229Y00562*
X0022Y00563*
X00173*
X00163Y00562*
X00161Y00561*
X00157Y00563*
Y00577*
X00162Y00579*
X00168Y00575*
X00178Y00571*
X00188Y00569*
X00191*
Y00611*
Y00653*
X00188*
X00178Y00652*
X00168Y00648*
X00162Y00643*
X00157Y00646*
Y00665*
X00162Y00667*
X00163Y00667*
X00175Y00661*
X00188Y0066*
X00204*
X00218Y00661*
X0023Y00667*
X00241Y00675*
X00249Y00686*
X00254Y00698*
X00256Y00711*
X00254Y00725*
X00249Y00737*
X00241Y00748*
X0023Y00756*
X00218Y00761*
X00204Y00763*
X00188*
X00178Y00762*
X00175Y00766*
X00186Y00777*
X00482*
X00489Y00778*
X00497Y00781*
X00503Y00786*
X00553Y00836*
X00561*
Y00819*
G37*
%LNpcb_awg-2*%
%LPC*%
G36*
X00157Y03878D02*
X00138Y03876D01*
X00119Y0387*
X00102Y03861*
X00087Y03849*
X00075Y03834*
X00066Y03817*
X0006Y03798*
X00058Y03779*
X0006Y0376*
X00066Y03741*
X00075Y03724*
X00087Y03709*
X00102Y03697*
X00119Y03688*
X00138Y03682*
X00157Y0368*
X00176Y03682*
X00195Y03688*
X00212Y03697*
X00227Y03709*
X00239Y03724*
X00248Y03741*
X00254Y0376*
X00256Y03779*
X00254Y03798*
X00248Y03817*
X00239Y03834*
X00227Y03849*
X00212Y03861*
X00195Y0387*
X00176Y03876*
X00157Y03878*
G37*
G36*
X00147Y03583D02*
X00127D01*
X00115Y03581*
X00103Y03576*
X00092Y03568*
X00084Y03558*
X0008Y03546*
X00078Y03533*
X0008Y0352*
X00084Y03508*
X00092Y03498*
X00103Y0349*
X00108Y03488*
Y0346*
X00103Y03458*
X00092Y0345*
X00084Y0344*
X0008Y03428*
X00078Y03415*
X0008Y03402*
X00084Y0339*
X00092Y0338*
X00103Y03372*
X00115Y03367*
X00127Y03365*
X00147*
X0016Y03367*
X00172Y03372*
X00182Y0338*
X0019Y0339*
X00195Y03402*
X00197Y03415*
X00195Y03428*
X0019Y0344*
X00182Y0345*
X00172Y03458*
X00167Y0346*
Y03488*
X00172Y0349*
X00182Y03498*
X0019Y03508*
X00195Y0352*
X00197Y03533*
X00195Y03546*
X0019Y03558*
X00182Y03568*
X00172Y03576*
X0016Y03581*
X00147Y03583*
G37*
G36*
X01796Y03172D02*
Y03154D01*
X01814*
X01813Y03158*
X01808Y03166*
X018Y03172*
X01796Y03172*
G37*
G36*
X00147Y03346D02*
X00127D01*
X00115Y03345*
X00103Y0334*
X00092Y03332*
X00084Y03322*
X0008Y0331*
X00078Y03297*
X0008Y03284*
X00084Y03272*
X00092Y03262*
X00103Y03254*
X00108Y03252*
Y03224*
X00103Y03222*
X00092Y03214*
X00084Y03203*
X0008Y03191*
X00078Y03179*
X0008Y03166*
X00084Y03154*
X00092Y03144*
X00103Y03136*
X00115Y03131*
X00127Y03129*
X00147*
X0016Y03131*
X00172Y03136*
X00182Y03144*
X0019Y03154*
X00195Y03166*
X00197Y03179*
X00195Y03191*
X0019Y03203*
X00182Y03214*
X00172Y03222*
X00167Y03224*
Y03252*
X00172Y03254*
X00182Y03262*
X0019Y03272*
X00195Y03284*
X00197Y03297*
X00195Y0331*
X0019Y03322*
X00182Y03332*
X00172Y0334*
X0016Y03345*
X00147Y03346*
G37*
G36*
X01814Y03144D02*
X01796D01*
Y03126*
X018Y03127*
X01808Y03132*
X01813Y0314*
X01814Y03144*
G37*
G36*
X01842Y03117D02*
X0182D01*
Y03085*
X01842*
Y03117*
G37*
G36*
Y03075D02*
X0182D01*
Y03044*
X01842*
Y03075*
G37*
G36*
Y02959D02*
X0182D01*
Y02928*
X01842*
Y02959*
G37*
G36*
Y02918D02*
X0182D01*
Y02886*
X01842*
Y02918*
G37*
G36*
X00147Y0311D02*
X00127D01*
X00115Y03108*
X00103Y03104*
X00092Y03096*
X00084Y03085*
X0008Y03073*
X00078Y03061*
X0008Y03048*
X00084Y03036*
X00092Y03025*
X00103Y03018*
X00108Y03016*
Y02987*
X00103Y02985*
X00092Y02978*
X00084Y02967*
X0008Y02955*
X00078Y02942*
X0008Y0293*
X00084Y02918*
X00092Y02907*
X00103Y02899*
X00108Y02897*
Y02883*
X00078*
Y02765*
X00196*
Y02883*
X00167*
Y02897*
X00172Y02899*
X00182Y02907*
X0019Y02918*
X00195Y0293*
X00197Y02942*
X00195Y02955*
X0019Y02967*
X00182Y02978*
X00172Y02985*
X00167Y02987*
Y03016*
X00172Y03018*
X00182Y03025*
X0019Y03036*
X00195Y03048*
X00197Y03061*
X00195Y03073*
X0019Y03085*
X00182Y03096*
X00172Y03104*
X0016Y03108*
X00147Y0311*
G37*
G36*
Y02756D02*
X00127D01*
X00115Y02754*
X00103Y02749*
X00092Y02741*
X00084Y02731*
X0008Y02719*
X00078Y02706*
X0008Y02693*
X00084Y02681*
X00092Y02671*
X00103Y02663*
X00108Y02661*
Y02647*
X00078*
Y02529*
X00196*
Y02647*
X00167*
Y02661*
X00172Y02663*
X00182Y02671*
X0019Y02681*
X00195Y02693*
X00197Y02706*
X00195Y02719*
X0019Y02731*
X00182Y02741*
X00172Y02749*
X0016Y02754*
X00147Y02756*
G37*
G36*
Y0252D02*
X00127D01*
X00115Y02518*
X00103Y02513*
X00092Y02505*
X00084Y02495*
X0008Y02483*
X00078Y0247*
X0008Y02457*
X00084Y02445*
X00092Y02435*
X00103Y02427*
X00108Y02425*
Y02411*
X00078*
Y02293*
X00196*
Y02411*
X00167*
Y02425*
X00172Y02427*
X00182Y02435*
X0019Y02445*
X00195Y02457*
X00197Y0247*
X00195Y02483*
X0019Y02495*
X00182Y02505*
X00172Y02513*
X0016Y02518*
X00147Y0252*
G37*
G36*
Y02283D02*
X00127D01*
X00115Y02282*
X00103Y02277*
X00092Y02269*
X00084Y02259*
X0008Y02247*
X00078Y02234*
X0008Y02221*
X00084Y02209*
X00092Y02199*
X00103Y02191*
X00108Y02189*
Y02175*
X00078*
Y02057*
X00196*
Y02175*
X00167*
Y02189*
X00172Y02191*
X00182Y02199*
X0019Y02209*
X00195Y02221*
X00197Y02234*
X00195Y02247*
X0019Y02259*
X00182Y02269*
X00172Y02277*
X0016Y02282*
X00147Y02283*
G37*
G36*
Y02047D02*
X00127D01*
X00115Y02045*
X00103Y02041*
X00092Y02033*
X00084Y02022*
X0008Y0201*
X00078Y01998*
X0008Y01985*
X00084Y01973*
X00092Y01962*
X00103Y01955*
X00115Y0195*
X00127Y01948*
X00147*
X0016Y0195*
X00172Y01955*
X00182Y01962*
X0019Y01973*
X00195Y01985*
X00197Y01998*
X00195Y0201*
X0019Y02022*
X00182Y02033*
X00172Y02041*
X0016Y02045*
X00147Y02047*
G37*
G36*
Y01929D02*
X00127D01*
X00115Y01927*
X00103Y01922*
X00092Y01915*
X00084Y01904*
X0008Y01892*
X00078Y01879*
X0008Y01867*
X00084Y01855*
X00092Y01844*
X00103Y01836*
X00108Y01834*
Y01806*
X00103Y01804*
X00092Y01796*
X00084Y01786*
X0008Y01774*
X00078Y01761*
X0008Y01748*
X00084Y01736*
X00092Y01726*
X00103Y01718*
X00115Y01713*
X00127Y01712*
X00147*
X0016Y01713*
X00172Y01718*
X00182Y01726*
X0019Y01736*
X00195Y01748*
X00197Y01761*
X00195Y01774*
X0019Y01786*
X00182Y01796*
X00172Y01804*
X00167Y01806*
Y01834*
X00172Y01836*
X00182Y01844*
X0019Y01855*
X00195Y01867*
X00197Y01879*
X00195Y01892*
X0019Y01904*
X00182Y01915*
X00172Y01922*
X0016Y01927*
X00147Y01929*
G37*
G36*
X00526Y03582D02*
X00482D01*
Y03538*
X00526*
Y03582*
G37*
G36*
X0058Y03528D02*
X00536D01*
Y03484*
X0058*
Y03528*
G37*
G36*
X00526D02*
X00482D01*
Y03484*
X00526*
Y03528*
G37*
G36*
X01978Y03302D02*
X01934D01*
Y03267*
X01978*
Y03302*
G37*
G36*
X01983Y03241D02*
Y03223D01*
X02001*
X02Y03227*
X01995Y03235*
X01987Y0324*
X01983Y03241*
G37*
G36*
X01973D02*
X01969Y0324D01*
X01961Y03235*
X01955Y03227*
X01955Y03223*
X01973*
Y03241*
G37*
G36*
X02001Y03213D02*
X01983D01*
Y03195*
X01987Y03196*
X01995Y03201*
X02Y03209*
X02001Y03213*
G37*
G36*
X02213Y02066D02*
X02194D01*
Y02048*
X02199Y02049*
X02207Y02054*
X02212Y02062*
X02213Y02066*
G37*
G36*
X02184D02*
X02166D01*
X02167Y02062*
X02172Y02054*
X0218Y02049*
X02184Y02048*
Y02066*
G37*
G36*
X02111Y01509D02*
Y01491D01*
X02129*
X02128Y01495*
X02123Y01503*
X02115Y01508*
X02111Y01509*
G37*
G36*
X02101D02*
X02097Y01508D01*
X02089Y01503*
X02083Y01495*
X02083Y01491*
X02101*
Y01509*
G37*
G36*
X02129Y01481D02*
X02111D01*
Y01462*
X02115Y01463*
X02123Y01469*
X02128Y01476*
X02129Y01481*
G37*
G36*
X02101D02*
X02083D01*
X02083Y01476*
X02089Y01469*
X02097Y01463*
X02101Y01462*
Y01481*
G37*
G36*
X03264Y02958D02*
X03231D01*
Y02931*
X03264*
Y02958*
G37*
G36*
X03221D02*
X03188D01*
Y02931*
X03221*
Y02958*
G37*
G36*
X03264Y02921D02*
X03231D01*
Y02894*
X03264*
Y02921*
G37*
G36*
X03221D02*
X03188D01*
Y02894*
X03221*
Y02921*
G37*
G36*
X0276Y03103D02*
Y03085D01*
X02779*
X02778Y03089*
X02773Y03097*
X02765Y03103*
X0276Y03103*
G37*
G36*
X0275D02*
X02746Y03103D01*
X02738Y03097*
X02733Y03089*
X02732Y03085*
X0275*
Y03103*
G37*
G36*
X02817Y03119D02*
X02786D01*
Y03085*
X02817*
Y03119*
G37*
G36*
X02779Y03075D02*
X0276D01*
Y03057*
X02765Y03058*
X02773Y03063*
X02778Y03071*
X02779Y03075*
G37*
G36*
X0275D02*
X02732D01*
X02733Y03071*
X02738Y03063*
X02746Y03058*
X0275Y03057*
Y03075*
G37*
G36*
X02817D02*
X02786D01*
Y03042*
X02817*
Y03075*
G37*
G36*
X02847Y02958D02*
X02814D01*
Y02931*
X02847*
Y02958*
G37*
G36*
X02804D02*
X02771D01*
Y02931*
X02804*
Y02958*
G37*
G36*
X02847Y02921D02*
X02814D01*
Y02894*
X02847*
Y02921*
G37*
G36*
X02804D02*
X02771D01*
Y02894*
X02804*
Y02921*
G37*
G36*
X02554Y02503D02*
Y02485D01*
X02572*
X02571Y02489*
X02566Y02497*
X02558Y02502*
X02554Y02503*
G37*
G36*
X02544D02*
X02539Y02502D01*
X02532Y02497*
X02526Y02489*
X02525Y02485*
X02544*
Y02503*
G37*
G36*
X02655Y0245D02*
X02625D01*
Y02416*
X02655*
Y0245*
G37*
G36*
X02928Y02513D02*
X02923Y02512D01*
X02915Y02507*
X0291Y02499*
X02909Y02495*
X02928*
Y02513*
G37*
G36*
Y02485D02*
X02909D01*
X0291Y0248*
X02915Y02473*
X02923Y02467*
X02928Y02466*
Y02485*
G37*
G36*
X0313Y02134D02*
X03081D01*
Y02117*
X0313*
Y02134*
G37*
G36*
X03071D02*
X03023D01*
Y02117*
X03071*
Y02134*
G37*
G36*
X01968Y02406D02*
X01924D01*
Y02371*
X01968*
Y02406*
G37*
G36*
X01914D02*
X01869D01*
Y02371*
X01914*
Y02406*
G37*
G36*
X0276Y02395D02*
Y02377D01*
X02779*
X02778Y02381*
X02773Y02389*
X02765Y02394*
X0276Y02395*
G37*
G36*
X02779Y02367D02*
X0276D01*
Y02348*
X02765Y02349*
X02773Y02354*
X02778Y02362*
X02779Y02367*
G37*
G36*
X0275D02*
X02732D01*
X02733Y02362*
X02738Y02354*
X02746Y02349*
X0275Y02348*
Y02367*
G37*
G36*
X02578Y02134D02*
X02543D01*
Y02117*
X02578*
Y02134*
G37*
G36*
X03779Y03878D02*
X0376Y03876D01*
X03741Y0387*
X03724Y03861*
X03709Y03849*
X03697Y03834*
X03688Y03817*
X03682Y03798*
X0368Y03779*
X03682Y0376*
X03688Y03741*
X03697Y03724*
X03709Y03709*
X03724Y03697*
X03741Y03688*
X0376Y03682*
X03779Y0368*
X03798Y03682*
X03817Y03688*
X03834Y03697*
X03849Y03709*
X03861Y03724*
X0387Y03741*
X03876Y0376*
X03878Y03779*
X03876Y03798*
X0387Y03817*
X03861Y03834*
X03849Y03849*
X03834Y03861*
X03817Y0387*
X03798Y03876*
X03779Y03878*
G37*
G36*
X03723Y01692D02*
Y01638D01*
X03777*
X03776Y01645*
X03773Y01656*
X03767Y01666*
X0376Y01675*
X03751Y01683*
X03741Y01688*
X0373Y01692*
X03723Y01692*
G37*
G36*
X03713D02*
X03706Y01692D01*
X03695Y01688*
X03685Y01683*
X03676Y01675*
X03669Y01666*
X03663Y01656*
X0366Y01645*
X03659Y01638*
X03713*
Y01692*
G37*
G36*
X03777Y01628D02*
X03723D01*
Y01574*
X0373Y01575*
X03741Y01578*
X03751Y01584*
X0376Y01591*
X03767Y016*
X03773Y01611*
X03776Y01622*
X03777Y01628*
G37*
G36*
X03713D02*
X03659D01*
X0366Y01622*
X03663Y01611*
X03669Y016*
X03676Y01591*
X03685Y01584*
X03695Y01578*
X03706Y01575*
X03713Y01574*
Y01628*
G37*
G36*
X03356Y01653D02*
X03257D01*
Y01535*
X03356*
Y01653*
G37*
G36*
X00884Y0195D02*
X0083D01*
Y01916*
X00884*
Y0195*
G37*
G36*
Y01906D02*
X0083D01*
Y01871*
X00884*
Y01906*
G37*
G36*
X01122Y01201D02*
X01105D01*
Y0117*
X01122*
Y01201*
G37*
G36*
X01095D02*
X01078D01*
Y0117*
X01095*
Y01201*
G37*
G36*
Y0116D02*
X01078D01*
Y01128*
X01095*
Y0116*
G37*
G36*
X01146Y01145D02*
Y01127D01*
X01164*
X01164Y01131*
X01158Y01139*
X01151Y01144*
X01146Y01145*
G37*
G36*
X01122Y0116D02*
X01105D01*
Y01128*
X01114*
X01116Y01127*
X01136*
Y01145*
X01132Y01144*
X01127Y0114*
X01122Y01143*
Y0116*
G37*
G36*
X03779Y01053D02*
X03681D01*
Y01035*
X03676Y01033*
X03669Y01038*
X0366Y01042*
X03656Y01043*
Y00994*
X03651*
X03656*
Y00945*
X0366Y00945*
X03669Y00949*
X03676Y00954*
X03681Y00952*
Y00935*
X037*
Y00777*
X03681*
Y00759*
X03676Y00758*
X03669Y00763*
X0366Y00766*
X03656Y00767*
Y00718*
Y00669*
X0366Y0067*
X03669Y00673*
X03676Y00678*
X03681Y00677*
Y00659*
X037*
Y00502*
X03566Y00368*
X03556Y00371*
X03543Y00372*
X03529Y00371*
X03516Y00367*
X03504Y0036*
X03494Y00352*
X03485Y00341*
X03479Y00329*
X03475Y00316*
X03474Y00303*
X03475Y00289*
X03479Y00276*
X03485Y00264*
X03494Y00254*
X03504Y00245*
X03516Y00239*
X03529Y00235*
X03543Y00233*
X03556Y00235*
X03569Y00239*
X03581Y00245*
X03592Y00254*
X036Y00264*
X03607Y00276*
X03611Y00289*
X03612Y00303*
X03611Y00316*
X03608Y00326*
X03751Y00469*
X03756Y00475*
X03759Y00482*
X0376Y0049*
Y00659*
X03779*
Y00777*
X0376*
Y00935*
X03779*
Y01053*
G37*
G36*
X03494Y01043D02*
X03459D01*
Y00999*
X03494*
Y01043*
G37*
G36*
X02746D02*
X02711D01*
Y00999*
X02746*
Y01043*
G37*
G36*
X03646Y01043D02*
X03642Y01042D01*
X03633Y01038*
X03626Y01033*
X0362Y01025*
X03616Y01017*
X03615Y01007*
Y00999*
X03646*
Y01043*
G37*
G36*
Y00989D02*
X03615D01*
Y0098*
X03616Y00971*
X0362Y00962*
X03626Y00954*
X03633Y00949*
X03642Y00945*
X03646Y00945*
Y00989*
G37*
G36*
X03494D02*
X03459D01*
Y00944*
X03494*
Y00989*
G37*
G36*
X03375Y01053D02*
X03364Y01051D01*
X03353Y01047*
X03343Y0104*
X03336Y0103*
X03331Y01019*
X0333Y01007*
Y0098*
X03331Y00968*
X03336Y00957*
X03343Y00948*
X03346Y00946*
Y00766*
X03343Y00764*
X03336Y00755*
X03331Y00744*
X0333Y00732*
Y00704*
X03331Y00692*
X03336Y00681*
X03343Y00672*
X03346Y0067*
Y00541*
X03176Y00372*
X03174Y00372*
X03125*
X03113Y0037*
X03102Y00366*
X03093Y00359*
X03086Y0035*
X03081Y00339*
X0308Y00327*
Y00278*
X03081Y00266*
X03086Y00256*
X03093Y00246*
X03102Y00239*
X03113Y00235*
X03125Y00233*
X03174*
X03185Y00235*
X03196Y00239*
X03205Y00246*
X03212Y00256*
X03217Y00266*
X03218Y00278*
Y00327*
X03218Y0033*
X03397Y00508*
X03401Y00514*
X03404Y00521*
X03405Y00529*
Y0067*
X03408Y00672*
X0341Y00675*
X03415Y00673*
Y00669*
X03449*
Y00718*
Y00767*
X03415*
Y00763*
X0341Y00761*
X03408Y00764*
X03405Y00766*
Y00946*
X03408Y00948*
X0341Y0095*
X03415Y00949*
Y00944*
X03449*
Y00994*
Y01043*
X03415*
Y01038*
X0341Y01037*
X03408Y0104*
X03398Y01047*
X03387Y01051*
X03375Y01053*
G37*
G36*
X02746Y00989D02*
X02711D01*
Y00944*
X02746*
Y00989*
G37*
G36*
X03494Y00767D02*
X03459D01*
Y00723*
X03494*
Y00767*
G37*
G36*
X02746D02*
X02711D01*
Y00723*
X02746*
Y00767*
G37*
G36*
X03646Y00767D02*
X03642Y00766D01*
X03633Y00763*
X03626Y00757*
X0362Y0075*
X03616Y00741*
X03615Y00732*
Y00723*
X03646*
Y00767*
G37*
G36*
X02935Y00736D02*
X02906D01*
Y00702*
X02935*
Y00736*
G37*
G36*
X02896D02*
X02868D01*
Y00702*
X02896*
Y00736*
G37*
G36*
X03646Y00713D02*
X03615D01*
Y00704*
X03616Y00695*
X0362Y00686*
X03626Y00679*
X03633Y00673*
X03642Y0067*
X03646Y00669*
Y00713*
G37*
G36*
X03494D02*
X03459D01*
Y00669*
X03494*
Y00713*
G37*
G36*
X02746D02*
X02711D01*
Y00669*
X02746*
Y00713*
G37*
G36*
X02935Y00692D02*
X02906D01*
Y00657*
X02935*
Y00692*
G37*
G36*
X02896D02*
X02868D01*
Y00657*
X02896*
Y00692*
G37*
G36*
X03351Y00362D02*
Y00308D01*
X03405*
X03404Y00314*
X03401Y00325*
X03395Y00336*
X03388Y00345*
X03379Y00352*
X03369Y00358*
X03358Y00361*
X03351Y00362*
G37*
G36*
X03341D02*
X03334Y00361D01*
X03323Y00358*
X03313Y00352*
X03304Y00345*
X03296Y00336*
X03291Y00325*
X03288Y00314*
X03287Y00308*
X03341*
Y00362*
G37*
G36*
X02879Y00334D02*
Y0028D01*
X02933*
X02932Y00287*
X02928Y00298*
X02923Y00308*
X02916Y00317*
X02907Y00325*
X02896Y0033*
X02885Y00333*
X02879Y00334*
G37*
G36*
X02869D02*
X02862Y00333D01*
X02851Y0033*
X0284Y00325*
X02831Y00317*
X02824Y00308*
X02819Y00298*
X02815Y00287*
X02815Y0028*
X02869*
Y00334*
G37*
G36*
X03405Y00298D02*
X03351D01*
Y00244*
X03358Y00244*
X03369Y00248*
X03379Y00253*
X03388Y00261*
X03395Y0027*
X03401Y0028*
X03404Y00291*
X03405Y00298*
G37*
G36*
X03341D02*
X03287D01*
X03288Y00291*
X03291Y0028*
X03296Y0027*
X03304Y00261*
X03313Y00253*
X03323Y00248*
X03334Y00244*
X03341Y00244*
Y00298*
G37*
G36*
X02933Y0027D02*
X02879D01*
Y00216*
X02885Y00217*
X02896Y0022*
X02907Y00226*
X02916Y00233*
X02923Y00242*
X02928Y00252*
X02932Y00263*
X02933Y0027*
G37*
G36*
X02869D02*
X02815D01*
X02815Y00263*
X02819Y00252*
X02824Y00242*
X02831Y00233*
X0284Y00226*
X02851Y0022*
X02862Y00217*
X02869Y00216*
Y0027*
G37*
G36*
X03779Y00256D02*
X0376Y00254D01*
X03741Y00248*
X03724Y00239*
X03709Y00227*
X03697Y00212*
X03688Y00195*
X03682Y00176*
X0368Y00157*
X03682Y00138*
X03688Y00119*
X03697Y00102*
X03709Y00087*
X03724Y00075*
X03741Y00066*
X0376Y0006*
X03779Y00058*
X03798Y0006*
X03817Y00066*
X03834Y00075*
X03849Y00087*
X03861Y00102*
X0387Y00119*
X03876Y00138*
X03878Y00157*
X03876Y00176*
X0387Y00195*
X03861Y00212*
X03849Y00227*
X03834Y00239*
X03817Y00248*
X03798Y00254*
X03779Y00256*
G37*
G36*
X0152Y01273D02*
Y01255D01*
X01539*
X01538Y01259*
X01532Y01267*
X01525Y01272*
X0152Y01273*
G37*
G36*
X0151D02*
X01506Y01272D01*
X01498Y01267*
X01493Y01259*
X01492Y01255*
X0151*
Y01273*
G37*
G36*
X01539Y01245D02*
X0152D01*
Y01226*
X01525Y01227*
X01532Y01232*
X01538Y0124*
X01539Y01245*
G37*
G36*
X0151D02*
X01492D01*
X01493Y0124*
X01498Y01232*
X01506Y01227*
X0151Y01226*
Y01245*
G37*
G36*
X01475Y012D02*
X01442D01*
Y01169*
X01475*
Y012*
G37*
G36*
X00204Y01004D02*
X00201D01*
Y00967*
X00245*
X00245Y00973*
X0024Y00983*
X00234Y00992*
X00225Y00999*
X00215Y01003*
X00204Y01004*
G37*
G36*
X00191D02*
X00188D01*
X00178Y01003*
X00168Y00999*
X00159Y00992*
X00152Y00983*
X00148Y00973*
X00147Y00967*
X00191*
Y01004*
G37*
G36*
X0183Y01082D02*
X01712D01*
Y00964*
X0183*
Y01082*
G37*
G36*
X01968Y01082D02*
X01956Y01081D01*
X01945Y01078*
X01935Y01072*
X01926Y01065*
X01919Y01056*
X01913Y01046*
X0191Y01035*
X01909Y01023*
X0191Y01012*
X01913Y01*
X01919Y0099*
X01926Y00981*
X01935Y00974*
X01945Y00968*
X01956Y00965*
X01968Y00964*
X0198Y00965*
X01991Y00968*
X02001Y00974*
X0201Y00981*
X02017Y0099*
X02023Y01*
X02026Y01012*
X02027Y01023*
X02026Y01035*
X02023Y01046*
X02017Y01056*
X0201Y01065*
X02001Y01072*
X01991Y01078*
X0198Y01081*
X01968Y01082*
G37*
G36*
X01407Y00479D02*
X01363D01*
Y00435*
X01407*
Y00479*
G37*
G36*
X01353D02*
X01308D01*
Y00435*
X01353*
Y00479*
G37*
G36*
X02135Y00499D02*
X02017D01*
Y0038*
X02135*
Y00499*
G37*
G36*
X01407Y00425D02*
X01363D01*
Y0038*
X01407*
Y00425*
G37*
G36*
X01353D02*
X01308D01*
Y0038*
X01353*
Y00425*
G37*
G36*
X02332Y00499D02*
X02321Y00498D01*
X02309Y00494*
X02299Y00489*
X0229Y00481*
X02283Y00472*
X02277Y00462*
X02274Y00451*
X02273Y00439*
X02274Y00428*
X02277Y00417*
X02283Y00406*
X0229Y00398*
X02299Y0039*
X02309Y00385*
X02321Y00381*
X02332Y0038*
X02344Y00381*
X02355Y00385*
X02365Y0039*
X02374Y00398*
X02382Y00406*
X02387Y00417*
X0239Y00428*
X02392Y00439*
X0239Y00451*
X02387Y00462*
X02382Y00472*
X02374Y00481*
X02365Y00489*
X02355Y00494*
X02344Y00498*
X02332Y00499*
G37*
G36*
X00708Y00489D02*
X0059D01*
Y00371*
X00708*
Y00489*
G37*
G36*
X01614Y00489D02*
X01602Y00488D01*
X01591Y00484*
X01581Y00479*
X01572Y00472*
X01564Y00463*
X01559Y00452*
X01555Y00441*
X01554Y0043*
X01555Y00418*
X01559Y00407*
X01564Y00397*
X01572Y00388*
X01581Y0038*
X01591Y00375*
X01602Y00371*
X01614Y0037*
X01625Y00371*
X01636Y00375*
X01647Y0038*
X01656Y00388*
X01663Y00397*
X01669Y00407*
X01672Y00418*
X01673Y0043*
X01672Y00441*
X01669Y00452*
X01663Y00463*
X01656Y00472*
X01647Y00479*
X01636Y00484*
X01625Y00488*
X01614Y00489*
G37*
G36*
X00905D02*
X00893Y00488D01*
X00882Y00484*
X00872Y00479*
X00863Y00472*
X00856Y00463*
X0085Y00452*
X00847Y00441*
X00846Y0043*
X00847Y00418*
X0085Y00407*
X00856Y00397*
X00863Y00388*
X00872Y0038*
X00882Y00375*
X00893Y00371*
X00905Y0037*
X00917Y00371*
X00928Y00375*
X00938Y0038*
X00947Y00388*
X00954Y00397*
X0096Y00407*
X00963Y00418*
X00964Y0043*
X00963Y00441*
X0096Y00452*
X00954Y00463*
X00947Y00472*
X00938Y00479*
X00928Y00484*
X00917Y00488*
X00905Y00489*
G37*
G36*
Y00312D02*
X00893Y00311D01*
X00882Y00307*
X00872Y00302*
X00863Y00294*
X00856Y00285*
X00854Y00282*
X00833*
X00825Y00281*
X00818Y00278*
X00812Y00274*
X00788Y00249*
X00783Y00243*
X0078Y00236*
X00779Y00228*
Y00193*
X00763*
Y00183*
X0075*
Y00144*
Y00106*
X00763*
Y00096*
X00854*
Y00193*
X00839*
Y00216*
X00846Y00223*
X00854*
X00856Y00219*
X00863Y0021*
X00872Y00203*
X00882Y00198*
X00893Y00194*
X00905Y00193*
X00917Y00194*
X00928Y00198*
X00938Y00203*
X00947Y0021*
X00954Y00219*
X0096Y0023*
X00963Y00241*
X00964Y00252*
X00963Y00264*
X0096Y00275*
X00954Y00285*
X00947Y00294*
X00938Y00302*
X00928Y00307*
X00917Y00311*
X00905Y00312*
G37*
G36*
X00654Y00302D02*
Y00257D01*
X00698*
X00697Y00265*
X00692Y00277*
X00684Y00288*
X00674Y00296*
X00662Y00301*
X00654Y00302*
G37*
G36*
X00644D02*
X00636Y00301D01*
X00624Y00296*
X00614Y00288*
X00606Y00277*
X00601Y00265*
X006Y00257*
X00644*
Y00302*
G37*
G36*
X01614Y00312D02*
X01602Y00311D01*
X01591Y00307*
X01581Y00302*
X01572Y00294*
X01564Y00285*
X01563Y00282*
X01529*
X01521Y00281*
X01514Y00278*
X01508Y00274*
X01496Y00262*
X01492Y00256*
X01489Y00249*
X01488Y00245*
X01483*
X01483Y00249*
X0148Y00256*
X01475Y00262*
X01464Y00274*
X01457Y00278*
X0145Y00281*
X01442Y00282*
X01409*
X01407Y00285*
X014Y00294*
X01391Y00302*
X0138Y00307*
X01369Y00311*
X01358Y00312*
X01346Y00311*
X01335Y00307*
X01325Y00302*
X01316Y00294*
X01308Y00285*
X01303Y00275*
X013Y00264*
X01298Y00252*
X013Y00241*
X01303Y0023*
X01308Y00219*
X01316Y0021*
X01325Y00203*
X01335Y00198*
X01346Y00194*
X01358Y00193*
X01369Y00194*
X0138Y00198*
X01391Y00203*
X014Y0021*
X01407Y00219*
X01409Y00223*
X01424*
Y00193*
X01409*
Y00096*
X01563*
Y00193*
X01547*
Y00223*
X01563*
X01564Y00219*
X01572Y0021*
X01581Y00203*
X01591Y00198*
X01602Y00194*
X01614Y00193*
X01625Y00194*
X01636Y00198*
X01647Y00203*
X01656Y0021*
X01663Y00219*
X01669Y0023*
X01672Y00241*
X01673Y00252*
X01672Y00264*
X01669Y00275*
X01663Y00285*
X01656Y00294*
X01647Y00302*
X01636Y00307*
X01625Y00311*
X01614Y00312*
G37*
G36*
X02332Y00322D02*
X02321Y00321D01*
X02309Y00317*
X02299Y00312*
X0229Y00304*
X02283Y00295*
X02281Y00292*
X0225*
X02243Y00291*
X02236Y00288*
X02229Y00283*
X02205Y00259*
X022Y00253*
X02197Y00246*
X02197Y00242*
X02192Y00242*
X02191Y00246*
X02188Y00253*
X02184Y00259*
X02159Y00283*
X02153Y00288*
X02146Y00291*
X02138Y00292*
X02127*
X02126Y00295*
X02118Y00304*
X02109Y00312*
X02099Y00317*
X02088Y00321*
X02076Y00322*
X02065Y00321*
X02054Y00317*
X02043Y00312*
X02034Y00304*
X02027Y00295*
X02021Y00285*
X02018Y00274*
X02017Y00262*
X02018Y00251*
X02021Y0024*
X02027Y00229*
X02034Y0022*
X02043Y00213*
X02054Y00207*
X02065Y00204*
X02076Y00203*
X02088Y00204*
X02099Y00207*
X02109Y00213*
X02118Y0022*
X02124Y00227*
X02129Y00228*
X02133Y00225*
Y00193*
X02117*
Y00096*
X02271*
Y00193*
X02256*
Y00226*
X02263Y00233*
X02281*
X02283Y00229*
X0229Y0022*
X02299Y00213*
X02309Y00207*
X02321Y00204*
X02332Y00203*
X02344Y00204*
X02355Y00207*
X02365Y00213*
X02374Y0022*
X02382Y00229*
X02387Y0024*
X0239Y00251*
X02392Y00262*
X0239Y00274*
X02387Y00285*
X02382Y00295*
X02374Y00304*
X02365Y00312*
X02355Y00317*
X02344Y00321*
X02332Y00322*
G37*
G36*
X00698Y00247D02*
X00654D01*
Y00203*
X00662Y00204*
X00674Y00209*
X00684Y00217*
X00692Y00228*
X00697Y0024*
X00698Y00247*
G37*
G36*
X00644D02*
X006D01*
X00601Y0024*
X00606Y00228*
X00614Y00217*
X00624Y00209*
X00636Y00204*
X00644Y00203*
Y00247*
G37*
G36*
X0074Y00183D02*
X0071D01*
Y00149*
X0074*
Y00183*
G37*
G36*
Y00139D02*
X0071D01*
Y00106*
X0074*
Y00139*
G37*
G36*
X00157Y00256D02*
X00138Y00254D01*
X00119Y00248*
X00102Y00239*
X00087Y00227*
X00075Y00212*
X00066Y00195*
X0006Y00176*
X00058Y00157*
X0006Y00138*
X00066Y00119*
X00075Y00102*
X00087Y00087*
X00102Y00075*
X00119Y00066*
X00138Y0006*
X00157Y00058*
X00176Y0006*
X00195Y00066*
X00212Y00075*
X00227Y00087*
X00239Y00102*
X00248Y00119*
X00254Y00138*
X00256Y00157*
X00254Y00176*
X00248Y00195*
X00239Y00212*
X00227Y00227*
X00212Y00239*
X00195Y00248*
X00176Y00254*
X00157Y00256*
G37*
G36*
X00204Y00653D02*
X00201D01*
Y00616*
X00245*
X00245Y00622*
X0024Y00632*
X00234Y00641*
X00225Y00648*
X00215Y00652*
X00204Y00653*
G37*
G36*
X00245Y00606D02*
X00201D01*
Y00569*
X00204*
X00215Y00571*
X00225Y00575*
X00234Y00582*
X0024Y0059*
X00245Y006*
X00245Y00606*
G37*
%LNpcb_awg-3*%
%LPD*%
G54D11*
X02245Y01988D02*
X02245Y01988D01*
X03838Y02291D02*
Y02293D01*
Y02291D02*
X0385Y02279D01*
Y02204D02*
Y02279D01*
X0373Y02076D02*
Y02104D01*
X0375Y02263D02*
X03766D01*
X03699Y02134D02*
Y02137D01*
X03731Y02163D02*
Y02245D01*
X03687Y02149D02*
Y02287D01*
X0373Y02104D02*
X03743Y02116D01*
X03687Y02149D02*
X03699Y02137D01*
X03731Y02245D02*
X0375Y02263D01*
X03731Y02163D02*
X03743Y02152D01*
Y02116D02*
Y02152D01*
X03687Y02287D02*
X03703Y02304D01*
X03736*
X03078Y02241D02*
X03128D01*
X03169Y02282*
Y02657*
X03074Y02826D02*
Y02911D01*
Y02826D02*
X03266Y02633D01*
Y02371D02*
Y02633D01*
X031Y03314D02*
X03425Y02989D01*
Y02503D02*
X03484Y02444D01*
X03425Y02503D02*
Y02989D01*
X03622Y02473D02*
X03628Y0248D01*
X03512Y02558D02*
Y03131D01*
Y02558D02*
X03574Y02496D01*
X03382Y03261D02*
X03512Y03131D01*
X0313Y02875D02*
Y02925D01*
X03131Y02926*
X03129Y02874D02*
X0313Y02875D01*
X03059Y02925D02*
X03074Y02911D01*
X03021Y02786D02*
Y02833D01*
X03031Y02843D02*
Y02893D01*
X03021Y02833D02*
X03031Y02843D01*
X03059Y02925D02*
Y03104D01*
X02982Y02411D02*
Y03131D01*
X0294Y03172D02*
X02982Y03131D01*
Y02221D02*
Y02411D01*
X02834Y02328D02*
Y02372D01*
X02844Y02158D02*
Y02318D01*
X02834Y02328D02*
X02844Y02318D01*
X02874Y02396D02*
Y02566D01*
Y02396D02*
X02883Y02386D01*
Y02174D02*
Y02386D01*
X02952Y03218D02*
X03013Y03279D01*
X02893Y03218D02*
X02952D01*
X02844Y03184D02*
Y03415D01*
X02856Y03172D02*
X0294D01*
X02844Y03415D02*
X02854Y03425D01*
X02844Y03184D02*
X02856Y03172D01*
X02854Y03425D02*
X0286Y03431D01*
X02489Y03218D02*
X02549D01*
X02426Y03281D02*
X02489Y03218D01*
X0245Y03336D02*
X02506Y03281D01*
X02576*
X02298Y01643D02*
X02578D01*
X02281Y01626D02*
X02298Y01643D01*
X02412Y01599D02*
X02619D01*
X02322Y01509D02*
X02412Y01599D01*
X02619D02*
X0266Y0164D01*
X02362Y02027D02*
Y02077D01*
X02381Y02097*
X02194Y02175D02*
Y02222D01*
D01*
Y02175D02*
D01*
X02123Y02178D02*
X02175Y02125D01*
X02232*
X02123Y02178D02*
Y02271D01*
X02037Y01968D02*
Y0197D01*
X02052Y02092D02*
Y02219D01*
X0205Y02221D02*
X02052Y02219D01*
X02007Y02D02*
X02037Y0197D01*
X02007Y02D02*
Y02274D01*
X02051Y0209D02*
X02052Y02092D01*
X02542Y0307D02*
X02549Y03063D01*
X02575*
X02667Y02972*
X02542Y0307D02*
Y03128D01*
X00078Y00787D02*
X00179Y00887D01*
X00078Y00511D02*
Y00787D01*
X00947Y00807D02*
X00949Y00804D01*
X00984D02*
X00991Y00797D01*
X00807Y00944D02*
Y01141D01*
X00944Y00807D02*
X00947D01*
X00991Y00787D02*
Y00797D01*
X00949Y00804D02*
X00984D01*
X00807Y00944D02*
X00944Y00807D01*
X0068Y03036D02*
X00698Y03055D01*
X00678Y03002D02*
X0068Y03003D01*
X00698Y03055D02*
Y03167D01*
X0068Y03003D02*
Y03036D01*
X00634Y01449D02*
Y03019D01*
X00639Y03024D02*
Y0308D01*
X00634Y03019D02*
X00639Y03024D01*
X00764Y0297D02*
X00764D01*
X00407Y01222D02*
X00634Y01449D01*
X00707Y01042D02*
Y02969D01*
X00764Y0297D02*
X00805Y03011D01*
X00746Y01669D02*
Y02953D01*
X00764Y0297*
X00738Y03D02*
Y03195D01*
X00707Y02969D02*
X00738Y03D01*
X00831Y01429D02*
Y01475D01*
X00827Y01479D02*
Y01522D01*
X00787Y01555D02*
X00881Y01649D01*
X00787Y01357D02*
Y01555D01*
X00827Y01479D02*
X00831Y01475D01*
X006Y01004D02*
X00601Y01003D01*
X00669*
X03613Y02541D02*
Y0259D01*
X03622Y02598*
X03612Y0254D02*
X03613Y02541D01*
X03661Y02421D02*
X03661D01*
X03681Y02401*
X037*
X03687Y0238D02*
X037Y02367D01*
X03686Y0238D02*
X03687D01*
X037Y02716D02*
D01*
Y02785D01*
X02883Y02174D02*
X03137Y0192D01*
X02844Y02158D02*
X02851Y02151D01*
Y02059D02*
Y02151D01*
X02874Y02566D02*
X02902Y02595D01*
X02596Y02289D02*
X02874Y02566D01*
X02902Y02926D02*
X02903D01*
X02902Y02595D02*
Y02926D01*
X01677Y01768D02*
X02227Y01218D01*
X02751*
X02892Y01077*
X03457Y02142D02*
X03484Y02169D01*
Y02444*
X03179Y02236D02*
X03232Y02289D01*
X03179Y01958D02*
X03218Y01918D01*
X03076Y02239D02*
X03078Y02241D01*
X03179Y01958D02*
Y02236D01*
X03792Y02289D02*
Y02304D01*
X03793Y02334D02*
X03887Y02428D01*
X03793Y02305D02*
Y02334D01*
X03792Y02304D02*
X03793Y02305D01*
X03753Y02381D02*
X03846Y02474D01*
Y0283*
X03753Y02321D02*
Y02381D01*
X03766Y02263D02*
X03792Y02289D01*
X03736Y02304D02*
X03753Y02321D01*
X0373Y02076D02*
X03799Y02007D01*
X03731Y02086D02*
X03787D01*
X0303Y03279D02*
X03032Y03281D01*
X03013Y03279D02*
X0303D01*
X03032Y03281D02*
X03068D01*
X02985Y03333D02*
X0303D01*
X03032Y03331*
X02962Y03356D02*
X02985Y03333D01*
X02232Y02125D02*
X02246Y02139D01*
X02323*
X02192Y02283D02*
X02194Y02285D01*
X02134Y02283D02*
X02192D01*
X02123Y02271D02*
X02134Y02283D01*
X02253Y02225D02*
Y02341D01*
Y02225D02*
X02287Y02191D01*
X02321*
X02323Y02189*
X02422Y0185D02*
Y02222D01*
X02434Y02233*
X02323Y02239D02*
X0237D01*
X02382Y02227*
Y02115D02*
Y02227D01*
X0244Y02239D02*
X02499D01*
X02434Y02233D02*
X0244Y02239D01*
X02381Y02114D02*
X02382Y02115D01*
X02381Y02097D02*
Y02114D01*
X02478Y02189D02*
X02538D01*
X02478Y01962D02*
Y02189D01*
Y01962D02*
X02522Y01918D01*
X00667Y01001D02*
X00707Y01042D01*
X00687Y03179D02*
X00698Y03167D01*
X00531Y03179D02*
X00687D01*
X00738Y03195D02*
X00754Y03211D01*
X00746Y01669D02*
X00748Y01668D01*
X00725Y00865D02*
X00748Y00887D01*
Y01668*
X00805Y03011D02*
X00825D01*
X0133Y02133D02*
Y02511D01*
X01259Y02062D02*
X0133Y02133D01*
X03188Y03381D02*
X03247D01*
X03142Y03365D02*
X03176Y03331D01*
X02946Y03668D02*
Y03807D01*
X031Y03314D02*
Y03381D01*
X03176Y03331D02*
X03247D01*
X03142Y03365D02*
Y03545D01*
X03188Y03381D02*
Y03459D01*
X03247Y03331D02*
X03305D01*
X03068Y03281D02*
X03147Y03202D01*
Y03012D02*
Y03083D01*
Y03202*
X02886Y0308D02*
Y03123D01*
Y03044D02*
Y0308D01*
X01377Y01258D02*
X0138Y0126D01*
X01377Y01136D02*
Y01258D01*
X0138Y0126D02*
X01428D01*
X01437Y01268*
X01318Y01273D02*
X01329Y01262D01*
X01373*
X01377Y01258*
X01271Y012D02*
X01318D01*
X01259Y01212D02*
X01271Y012D01*
X01259Y01212D02*
Y02062D01*
X01639Y01272D02*
Y0173D01*
X01677Y01768*
X01417Y03641D02*
X01446Y0367D01*
X01703*
X01417Y02047D02*
Y03641D01*
X01734Y02912D02*
Y03639D01*
X01703Y0367D02*
X01734Y03639D01*
X01453Y02011D02*
X01525D01*
X01417Y02047D02*
X01453Y02011D01*
X00691Y03511D02*
X00825D01*
X00551Y0365D02*
X00691Y03511D01*
X00284Y0365D02*
X00551D01*
X00245Y01612D02*
Y03612D01*
X00284Y0365*
X00462Y02942D02*
X00531D01*
X00421Y02902D02*
X00462Y02942D01*
X00421Y01456D02*
Y02902D01*
X00137Y01761D02*
Y01879D01*
X00523Y01888D02*
X00531Y01879D01*
X00474Y01888D02*
X00523D01*
X00461Y019D02*
Y02104D01*
Y019D02*
X00474Y01888D01*
X00461Y02104D02*
X00473Y02116D01*
X00531*
X00984Y01204D02*
Y01303D01*
X01022Y01341*
X00944Y0151D02*
X00983Y01548D01*
X00944Y0126D02*
Y0151D01*
Y0126D02*
D01*
X00984Y01204D02*
D01*
Y01058D02*
Y01204D01*
Y01058D02*
X00991Y01051D01*
X00944Y01196D02*
Y0126D01*
X00846Y01181D02*
X00929D01*
X00905Y02711D02*
X00983Y02634D01*
X00929Y01181D02*
X00944Y01196D01*
X00983Y01548D02*
Y02634D01*
X01025Y01096D02*
X01055Y01066D01*
X01025Y01096D02*
Y01165D01*
X00991Y00898D02*
Y01051D01*
X00807Y01141D02*
X00846Y01181D01*
X00179Y00887D02*
X00376D01*
X00407Y00919*
Y01222*
X00662Y00944D02*
Y00997D01*
X00667Y01001*
X00174Y00807D02*
X00482D01*
X00541Y00866*
X00597*
Y00944*
X00127Y0076D02*
X00174Y00807D01*
X00833Y00252D02*
X00905D01*
X00809Y00144D02*
Y00228D01*
X00833Y00252*
X01517Y00241D02*
X01529Y00252D01*
X01517Y00144D02*
Y00241D01*
X01529Y00252D02*
X01614D01*
X01358D02*
X01442D01*
X01454Y00241*
Y00144D02*
Y00241D01*
X02226Y00238D02*
X0225Y00262D01*
X02226Y00144D02*
Y00238D01*
X0225Y00262D02*
X02332D01*
X02163Y00144D02*
Y00238D01*
X02138Y00262D02*
X02163Y00238D01*
X02076Y00262D02*
X02138D01*
X0308Y00695D02*
X03082Y00697D01*
X02921Y00403D02*
X0308Y00562D01*
Y00695*
X02677Y00403D02*
X02921D01*
X02677D02*
Y00472D01*
Y00275D02*
Y00403D01*
X02627Y00718D02*
D01*
Y00521D02*
Y00718D01*
Y00521D02*
X02677Y00472D01*
X02281Y01473D02*
X02285Y01469D01*
X02281Y01473D02*
Y01626D01*
X02811Y0164D02*
X02874Y01702D01*
X02749Y01578D02*
X02811Y0164D01*
X0266D02*
X02811D01*
X02322Y0185D02*
X02422D01*
X01901Y02286D02*
X01948D01*
X01889Y02274D02*
X01901Y02286D01*
X01847Y01983D02*
X01889Y02025D01*
Y02274*
X02019Y02286D02*
X02066D01*
X02007Y02274D02*
X02019Y02286D01*
X0205Y02221D02*
X02066D01*
X01812Y0249D02*
X01919D01*
X01801Y02478D02*
X01812Y0249D01*
X01801Y02286D02*
Y02478D01*
X01919Y0249D02*
X01986D01*
X0186Y03257D02*
X01958Y03159D01*
X0186Y03257D02*
Y03359D01*
X01958Y02795D02*
Y03159D01*
X01881Y0338D02*
X01924D01*
X01929Y03385*
X02007*
X0186Y03359D02*
X01881Y0338D01*
X02057Y03435D02*
X02252D01*
X02007Y03385D02*
X02057Y03435D01*
X02252D02*
X02263Y03423D01*
Y03379D02*
Y03423D01*
Y03379D02*
X02312Y03331D01*
X02303Y03405D02*
X02326Y03381D01*
X02364*
X02303Y03405D02*
Y03464D01*
X02198Y03569D02*
X02303Y03464D01*
X02434Y03818D02*
X02934D01*
X02423Y03753D02*
Y03807D01*
X02434Y03818*
X02934D02*
X02946Y03807D01*
X02467Y03693D02*
X02484Y0371D01*
X0236Y03704D02*
X02371Y03693D01*
X0236Y03704D02*
Y03753D01*
X02371Y03693D02*
X02467D01*
X02364Y03477D02*
X02381Y03494D01*
X02421*
X02364Y03442D02*
Y03485D01*
X02542Y03128D02*
X02553Y03139D01*
X02639*
X02778Y03278*
X02785Y03466D02*
X02813D01*
X02848Y03431D02*
X0286D01*
X02778Y03473D02*
Y03542D01*
Y03473D02*
X02785Y03466D01*
X02813D02*
X02848Y03431D01*
X0286D02*
X03032D01*
X02423Y03635D02*
X02742D01*
X031Y03381D02*
Y03473D01*
X02742Y03635D02*
X02893Y03484D01*
X03088*
X031Y03473*
X03809Y02917D02*
Y03206D01*
X03811Y03208*
X03809Y02917D02*
D01*
X03753Y02914D02*
X03809D01*
X0381Y02913*
X03851D02*
X03887Y02876D01*
X0381Y02913D02*
X03851D01*
X03887Y02428D02*
Y02876D01*
X03671Y02835D02*
X03674D01*
X03669Y0283D02*
Y02833D01*
X03674Y02835D02*
X03753Y02914D01*
X03669Y02833D02*
X03671Y02835D01*
X037Y02598D02*
Y02645D01*
X03712Y02657D02*
X0376D01*
X037Y02645D02*
X03712Y02657D01*
X0376D02*
X03771Y02669D01*
Y0283*
X037Y02401D02*
Y02416D01*
Y02367D02*
Y02401D01*
Y02362D02*
Y02367D01*
X03574Y02496D02*
X03628D01*
X03631Y01879D02*
X03789D01*
X0385Y01941*
Y02086*
X02242Y0136D02*
X02287Y01314D01*
X02519*
X02242Y0136D02*
Y01754D01*
X02285Y01413D02*
Y01469D01*
X02322Y015D02*
Y01509D01*
X02242Y01754D02*
X02546D01*
X02767Y03553D02*
X02778Y03542D01*
X02403Y03553D02*
X02767D01*
X0236Y03596D02*
X02403Y03553D01*
X0236Y03596D02*
Y03635D01*
X0227Y03579D02*
X02351Y03498D01*
X02364Y03431D02*
Y03442D01*
X02364Y03431D02*
X02368Y03442D01*
X02351Y03498D02*
X02364Y03485D01*
X02198Y03569D02*
Y0371D01*
X02228Y03789D02*
X0227Y03746D01*
X02098Y0371D02*
X02104Y03716D01*
Y0376D02*
X02133Y03789D01*
X02228*
X02104Y03716D02*
Y0376D01*
X02319Y02101D02*
Y02137D01*
X02242Y01983D02*
X02245Y01988D01*
X02242Y01754D02*
Y01983D01*
X02245Y01988D02*
X02319Y02101D01*
Y02137D02*
X02323Y02139D01*
X01056Y00896D02*
X01263D01*
X00662Y00706D02*
Y0073D01*
X03082Y00696D02*
X03189D01*
X02886Y03011D02*
Y03044D01*
X0312Y02289D02*
Y02686D01*
X01062Y01274D02*
X01117D01*
X00662Y00865D02*
X00725D01*
X02874Y01702D02*
Y0185D01*
X018Y01946D02*
Y02221D01*
X0309Y03381D02*
X03096D01*
X01912Y02767D02*
X0193D01*
X02029Y02579D02*
X02115Y02493D01*
X02321Y02289D02*
Y02348D01*
X00991Y00866D02*
Y00898D01*
X03393Y02207D02*
Y02357D01*
X03257Y03528D02*
Y03653D01*
X01525Y03311D02*
X01642D01*
X01263Y00896D02*
X01639Y01272D01*
X01056Y00866D02*
Y00896D01*
X00366Y0041D02*
X00662Y00706D01*
X00155Y0041D02*
X00366D01*
X00127Y00438D02*
X00155Y0041D01*
X00127Y00438D02*
Y0076D01*
X02886Y03044D02*
X02892Y03037D01*
X03247Y03431D02*
X0332D01*
X02576D02*
X02643D01*
X02643Y0343*
X02538Y02289D02*
X02596D01*
X02992Y01545D02*
Y01636D01*
X03137Y01781*
Y0192*
X03375Y00529D02*
Y00718D01*
X03149Y00303D02*
X03375Y00529D01*
X0373Y0049D02*
Y00718D01*
X03543Y00303D02*
X0373Y0049D01*
X02546Y01754D02*
X02851Y02059D01*
X03281Y02239D02*
X03354D01*
Y0234*
X03297D02*
X03354D01*
X03266Y02371D02*
X03297Y0234D01*
X00936Y03311D02*
X01414Y03789D01*
X00825Y03311D02*
X00936D01*
X01062Y01259D02*
Y01274D01*
X00662Y00865D02*
Y00866D01*
X03364Y0185D02*
X03622Y02107D01*
Y02362*
X00787Y01357D02*
X00875Y01269D01*
X03339Y03154D02*
X0337Y03123D01*
X03339Y03154D02*
Y03297D01*
X03305Y03331D02*
X03339Y03297D01*
X02778Y03278D02*
Y0332D01*
X03457Y03608D02*
Y0371D01*
Y03608D02*
X03567Y03498D01*
Y03246D02*
Y03498D01*
Y03246D02*
X03605Y03208D01*
X03669*
X02162Y03083D02*
Y03323D01*
X02194Y03356*
X00754Y03211D02*
X00825D01*
Y02711D02*
X00905D01*
X00991Y00898D02*
X01021Y00928D01*
X03188Y03459D02*
X03257Y03528D01*
X01819Y03222D02*
Y03421D01*
Y03222D02*
X01912Y0313D01*
Y0308D02*
Y0313D01*
X03631Y012D02*
Y0135D01*
X03718Y01437*
X018Y02221D02*
X01801D01*
X00421Y01456D02*
X00448Y01429D01*
X00827Y01522D02*
X00941Y01636D01*
Y02275*
X00904Y02311D02*
X00941Y02275D01*
X00825Y02311D02*
X00904D01*
X02556Y02307D02*
Y02411D01*
X02538Y02289D02*
X02556Y02307D01*
X02364Y03431D02*
X02364D01*
X0227Y03579D02*
Y03746D01*
X02312Y03331D02*
X02364D01*
X03065Y01115D02*
Y01393D01*
X02992Y01466D02*
X03065Y01393D01*
X02992Y01466D02*
Y01545D01*
X01307Y01066D02*
X01377Y01136D01*
X01055Y01066D02*
X01307D01*
X00825Y02811D02*
X00905D01*
X01022Y02694*
Y01341D02*
Y02694D01*
X03021Y02786D02*
X0312Y02686D01*
X03076Y02289D02*
X0312D01*
X03415Y02142D02*
X03457D01*
X01947Y01796D02*
Y0185D01*
X01912Y01761D02*
X01947Y01796D01*
X01796Y01761D02*
X01912D01*
X01744Y01813D02*
X01796Y01761D01*
X01744Y01813D02*
Y02498D01*
X01825Y02579*
X02029*
X03631Y01761D02*
Y01879D01*
X03464Y01594D02*
X03631Y01761D01*
X01986Y0249D02*
X02134Y02341D01*
X02253*
X03257Y03653D02*
Y0371D01*
Y03653D02*
X03382Y03528D01*
Y03261D02*
Y03528D01*
X03628Y0248D02*
Y02496D01*
X00597Y00748D02*
Y00787D01*
X0036Y00511D02*
X00597Y00748D01*
X00196Y00511D02*
X0036D01*
X02364Y03281D02*
X02426D01*
X01912Y02923D02*
Y03001D01*
Y02765D02*
Y02767D01*
X0193D02*
X01958Y02795D01*
X02162Y02872D02*
Y02926D01*
X02115Y02825D02*
X02162Y02872D01*
X02115Y02493D02*
Y02825D01*
Y02493D02*
X02194Y02414D01*
X01734Y02912D02*
X01847Y02799D01*
Y02765D02*
Y02799D01*
X02946Y03668D02*
X0298Y03633D01*
X03054*
X03142Y03545*
X03032Y03381D02*
X0309D01*
X01847Y0185D02*
Y01983D01*
X02649Y02253D02*
X02746D01*
X02634Y02239D02*
X02649Y02253D01*
X02538Y02239D02*
X02634D01*
X02992Y00697D02*
Y00767D01*
X02892Y00867D02*
X02992Y00767D01*
X02892Y00867D02*
Y01077D01*
X01677Y01768D02*
Y03276D01*
X01642Y03311D02*
X01677Y03276D01*
X02522Y0185D02*
Y01918D01*
X00196Y01162D02*
X00299D01*
X00346Y01209*
Y03507*
X00155Y01062D02*
X00196D01*
X00084Y01133D02*
X00155Y01062D01*
X00084Y01133D02*
Y01451D01*
X00245Y01612*
X03393Y02207D02*
X03415D01*
X03336Y02414D02*
X03393Y02357D01*
X02194Y02414D02*
X02255D01*
X02321Y02348*
Y02289D02*
X02323D01*
X02391Y02346D02*
Y02411D01*
Y02346D02*
X02499Y02239D01*
X02538*
X02162Y0264D02*
Y02768D01*
Y0264D02*
X02391Y02411D01*
X02982Y02221D02*
X03014Y02189D01*
X03076*
X02779Y01417D02*
X02819D01*
X02749Y01446D02*
X02779Y01417D01*
X02749Y01446D02*
Y01578D01*
X03232Y02289D02*
X03281D01*
X03218Y00725D02*
Y01918D01*
X03189Y00696D02*
X03218Y00725D01*
X02484Y0371D02*
X02746D01*
X01056Y00756D02*
Y00787D01*
X0103Y0073D02*
X01056Y00756D01*
X00662Y0073D02*
X0103D01*
X00662D02*
Y00787D01*
X01056Y00825D02*
Y00866D01*
Y00825D02*
D01*
Y00787D02*
Y00825D01*
X02627Y00718D02*
Y00994D01*
X02886Y03011D02*
X02903Y02993D01*
Y02926D02*
Y02993D01*
X03375Y00718D02*
Y00994D01*
X0373Y00718D02*
Y00994D01*
X03131Y02996D02*
X03147Y03012D01*
X03131Y02926D02*
Y02996D01*
X02649Y02175D02*
X02746D01*
X02634Y02189D02*
X02649Y02175D01*
X02538Y02189D02*
X02634D01*
X03594Y02786D02*
Y0283D01*
Y02786D02*
X03622Y02758D01*
Y02716D02*
Y02758D01*
X03693Y02423D02*
Y0248D01*
Y02423D02*
X037Y02416D01*
X02441Y01417D02*
X02519D01*
X02437Y01413D02*
X02441Y01417D01*
X0236Y01413D02*
X02437D01*
X02713Y0332D02*
Y03474D01*
X02227Y02926D02*
X02477D01*
X02227Y02768D02*
X02477D01*
X03349Y02142D02*
X03415D01*
X03345Y02139D02*
X03349Y02142D01*
X03281Y02139D02*
X03345D01*
X02542Y02768D02*
Y02926D01*
Y0308*
X03357Y0362D02*
Y0371D01*
Y0362D02*
X03454Y03523D01*
Y03435D02*
Y03523D01*
X03669Y03081D02*
Y03208D01*
X03631Y03043D02*
X03669Y03081D01*
X03631Y02917D02*
Y03043D01*
X02353Y0308D02*
X02477D01*
X02349Y03083D02*
X02353Y0308D01*
X02227Y03083D02*
X02349D01*
X00137Y03415D02*
Y03533D01*
Y03179D02*
Y03297D01*
Y02824D02*
Y02942D01*
Y03061*
Y02588D02*
Y02706D01*
Y02352D02*
Y0247D01*
Y02116D02*
Y02234D01*
X02576Y03331D02*
Y03381D01*
G54D22*
X02576Y03431D03*
Y03381D03*
Y03331D03*
Y03281D03*
X02364D03*
Y03331D03*
Y03381D03*
Y03431D03*
G54D24*
X0236Y03753D03*
X02423D03*
X02822Y0308D03*
X02886D03*
X0262Y02411D03*
X02556D03*
X0321Y03083D03*
X03147D03*
X0236Y03635D03*
X02423D03*
X03787Y02086D03*
X0385D03*
X03787Y02204D03*
X0385D03*
X01454Y00144D03*
X01517D03*
X00745D03*
X00809D03*
X02163D03*
X02226D03*
G54D25*
X02903Y02926D03*
X02809D03*
X03226D03*
X03131D03*
G54D28*
X02194Y02222D03*
Y02285D03*
X01437Y01205D03*
Y01268D03*
G54D32*
X02992Y00956D03*
G54D33*
X03082Y00697D03*
X02992D03*
G54D34*
X02901Y00697D03*
G54D37*
X02047Y0185D03*
X02746Y0371D03*
X01998D03*
X02322Y0185D03*
X02874D03*
G54D38*
X00137Y02116D03*
X00531Y01998D03*
Y01879D03*
Y01761D03*
Y03415D03*
Y03297D03*
Y03061D03*
X00137Y02824D03*
Y02588D03*
X00531Y03533D03*
Y03179D03*
Y02942D03*
Y02706D03*
Y0247D03*
X00137Y02352D03*
X00531Y02234D03*
X01771Y01023D03*
X02076Y00439D03*
X01358Y0043D03*
X00649D03*
X0062Y01269D03*
G54D39*
X03149Y01161D03*
X03307Y01594D03*
X03464Y01161D03*
X02677Y01545D03*
X02992D03*
G54D40*
X02522Y0185D03*
X02422D03*
X02198Y0371D03*
X02098D03*
X02946D03*
X02846D03*
X03074Y0185D03*
X02974D03*
G54D41*
X01847Y0185D03*
X01947D03*
G54D44*
X02746Y02253D03*
X01919Y0249D03*
X01929Y03385D03*
G54D45*
X02746Y02175D03*
X01919Y02411D03*
X01929Y03307D03*
G54D48*
X02677Y01289D03*
X02992D03*
G54D49*
X02519Y01519D03*
Y01417D03*
X02819Y01314D03*
Y01417D03*
X00137Y03415D03*
Y01761D03*
Y01879D03*
Y01998D03*
X00531Y02116D03*
X00137Y02234D03*
X00531Y02352D03*
X00137Y0247D03*
Y02706D03*
Y02942D03*
Y03179D03*
Y03533D03*
X00531Y02588D03*
Y02824D03*
X00137Y03061D03*
Y03297D03*
G54D50*
X02519Y01314D03*
X02819Y01519D03*
G54D51*
X03631Y012D03*
Y01879D03*
X02391Y02411D03*
X03454Y03435D03*
X02194Y03356D03*
Y02414D03*
X02982Y02411D03*
X03336Y02414D03*
X03464Y01594D03*
X03307Y01161D03*
X03149Y01594D03*
X01968Y01023D03*
X02332Y00262D03*
X02076D03*
X02332Y00439D03*
X01614Y00252D03*
X01358D03*
X01614Y0043D03*
X00905Y00252D03*
X00649D03*
X00905Y0043D03*
X00875Y01092D03*
X0062D03*
X00875Y01269D03*
G54D52*
X03375Y00994D03*
X03651D03*
Y00718D03*
X02627D03*
Y00994D03*
X03375Y00718D03*
G54D53*
X03454Y00994D03*
X0373D03*
Y00718D03*
X02706D03*
Y00994D03*
X03454Y00718D03*
G54D59*
X01847Y02923D03*
X00991Y00866D03*
X00662Y00944D03*
X00991Y00787D03*
X00597D03*
X00662Y00866D03*
X02778Y03474D03*
X02713Y0332D03*
X01847Y02765D03*
X02162Y02926D03*
X01847Y0308D03*
X02162Y03083D03*
X02477Y0308D03*
Y02926D03*
Y02768D03*
X02162D03*
X03628Y0248D03*
X01912Y02923D03*
X02227Y02768D03*
X02542D03*
Y02926D03*
Y0308D03*
X02227Y03083D03*
X01912Y0308D03*
X02227Y02926D03*
X01912Y02765D03*
X02778Y0332D03*
X02713Y03474D03*
X00597Y00866D03*
X00662Y00787D03*
X01056D03*
X00597Y00944D03*
X01056Y00866D03*
X03693Y0248D03*
G54D60*
X03415Y02207D03*
X01948Y02221D03*
X01801D03*
X02066D03*
Y02286D03*
X01801D03*
X01948D03*
X03415Y02142D03*
G54D61*
X01318Y012D03*
Y01273D03*
G54D62*
X03622Y02716D03*
X037Y02598D03*
Y02362D03*
X03622D03*
Y02598D03*
X037Y02716D03*
G54D63*
X03281Y02289D03*
Y02239D03*
Y02189D03*
Y02139D03*
X03076D03*
Y02189D03*
Y02239D03*
Y02289D03*
G54D64*
X02538Y02139D03*
Y02189D03*
Y02239D03*
Y02289D03*
X02323Y02139D03*
Y02189D03*
Y02239D03*
Y02289D03*
G54D65*
X03247Y03281D03*
Y03331D03*
Y03381D03*
Y03431D03*
X03032Y03281D03*
Y03331D03*
Y03381D03*
Y03431D03*
G54D66*
X03669Y03208D03*
X03811D03*
G54D67*
X02322Y015D03*
X0236Y01413D03*
X02285D03*
X03809Y02917D03*
X03846Y0283D03*
X03771D03*
X03631Y02917D03*
X03669Y0283D03*
X03594D03*
G54D68*
X01062Y01259D03*
X011Y01165D03*
X01025D03*
G54D69*
X00825Y03611D03*
Y03511D03*
Y03411D03*
Y03311D03*
Y03211D03*
Y03111D03*
Y03011D03*
Y02911D03*
Y02811D03*
Y02711D03*
Y02611D03*
Y02511D03*
Y02411D03*
Y02311D03*
Y02211D03*
Y02111D03*
Y02011D03*
Y01911D03*
Y01811D03*
Y01711D03*
X01525Y03611D03*
Y03511D03*
Y03411D03*
Y03311D03*
Y03211D03*
Y03111D03*
Y03011D03*
Y02911D03*
Y02811D03*
Y02711D03*
Y02611D03*
Y02511D03*
Y02411D03*
Y02311D03*
Y02211D03*
Y02111D03*
Y02011D03*
Y01911D03*
Y01811D03*
Y01711D03*
G54D70*
X03257Y0371D03*
G54D71*
X03357Y0371D03*
X03457D03*
G54D72*
X00196Y00511D03*
Y01262D03*
G54D73*
X00196Y00611D03*
Y00711D03*
Y01162D03*
Y01062D03*
Y00962D03*
G54D74*
X03718Y01437D03*
G54D75*
X03718Y01633D03*
X03346Y00303D03*
X03543D03*
X02874Y00275D03*
G54D76*
X03779Y00157D03*
Y03779D03*
X00157Y00157D03*
Y03779D03*
G54D77*
X03149Y00303D03*
X02677Y00275D03*
G54D78*
X03838Y02293D03*
X03699Y02134D03*
X03169Y02657D03*
X03469Y02795D03*
X03129Y02874D03*
X03031Y02893D03*
X02834Y02372D03*
X02893Y03218D03*
X02549D03*
X02578Y01643D03*
X02362Y02027D03*
X02194Y02175D03*
X02189Y02071D03*
X02051Y0209D03*
X02037Y01968D03*
X02667Y02972D03*
X00078Y00511D03*
X00944Y00807D03*
X00678Y03002D03*
X00639Y0308D03*
X00831Y01429D03*
X00881Y01649D03*
X006Y01004D03*
X03612Y0254D03*
X03661Y02421D03*
X037Y02785D03*
X02755Y02372D03*
X02933Y0249D03*
X02106Y01486D03*
X03799Y02007D03*
X01978Y03218D03*
X01791Y03149D03*
X02549Y0248D03*
X01141Y01122D03*
X01515Y0125D03*
X0133Y02511D03*
X02755Y0308D03*
X03262Y0309D03*
X02962Y03356D03*
X03248Y03238D03*
X02886Y03123D03*
X0245Y03336D03*
X02421Y03494D03*
X02892Y03037D03*
X0332Y03431D03*
X02643Y0343D03*
X03059Y03104D03*
X01414Y03789D03*
X01117Y01274D03*
X00725Y00865D03*
X03364Y0185D03*
X0337Y03123D03*
X01021Y00928D03*
X01819Y03421D03*
X018Y01946D03*
X00448Y01429D03*
X03065Y01115D03*
X01912Y03001D03*
X00346Y03507D03*
M02*