%FSTAX23Y23*%
%MOIN*%
%SFA1B1*%

%IPPOS*%
%ADD10C,0.007870*%
%ADD17C,0.010000*%
%LNpcb_awg-1*%
%LPD*%
G36*
X02234Y00129D02*
Y00047D01*
X00954*
Y00129*
X02234*
G37*
%LNpcb_awg-2*%
%LPC*%
G36*
X01048Y00114D02*
D01*
Y00101*
X01048*
X01048Y00101*
X01048Y00101*
X01047Y00101*
X01047Y00102*
X01046Y00102*
X01045Y00102*
X01044Y00103*
X01042Y00104*
X01041Y00105*
X01039Y00107*
X01039Y00107*
X01039Y00107*
X01039Y00107*
X01038Y00108*
X01037Y00109*
X01036Y0011*
X01035Y00111*
X01034Y00112*
X01034Y00114*
X0103*
Y00063*
X01048*
Y00114*
G37*
G36*
X01305Y00112D02*
D01*
Y00099*
X01301*
Y00108*
X01295Y00112*
Y00099*
X01288*
Y00095*
X01295*
Y00073*
Y00073*
Y00073*
Y00072*
X01294Y00072*
X01294Y00071*
X01294Y0007*
X01294Y0007*
X01294Y0007*
X01294Y00069*
X01294Y00069*
X01293Y00069*
X01293Y00068*
X01293Y00068*
X01292Y00068*
X01291Y00068*
X0129*
X0129Y00068*
X01289*
X01288Y00068*
X01287Y00063*
X01288*
X01288Y00063*
X01288Y00063*
X01289Y00063*
X0129Y00063*
X01291Y00062*
X01292Y00062*
X01287*
X01293*
X01293Y00062*
X01294Y00063*
X01295Y00063*
X01296Y00063*
X01297Y00063*
X01297Y00063*
X01298Y00063*
X01298Y00064*
X01298Y00064*
X01298Y00064*
X01299Y00065*
X01299Y00065*
X013Y00066*
X013Y00066*
Y00066*
X013Y00067*
X013Y00067*
X013Y00068*
X01301Y00069*
X01301Y00069*
X01301Y0007*
Y00071*
X01301Y00072*
Y00073*
Y00074*
Y00095*
X01305*
Y00062*
Y00112*
G37*
G36*
X01357Y00113D02*
X01325D01*
X0135*
Y00095*
X0135Y00095*
X0135Y00096*
X0135Y00096*
X0135Y00096*
X01349Y00096*
X01349Y00097*
X01348Y00098*
X01346Y00099*
X01345Y00099*
X01344Y001*
X01343Y001*
X01342Y001*
X01341Y001*
X0134*
X01339Y001*
X01339Y001*
X01338Y001*
X01336Y001*
X01335Y00099*
X01334Y00099*
X01334Y00099*
X01334Y00099*
X01333Y00098*
X01332Y00098*
X01332Y00097*
X01331Y00097*
X0133Y00096*
X01329Y00095*
X01329Y00095*
X01329Y00095*
X01329Y00094*
X01328Y00093*
X01328Y00093*
X01327Y00092*
X01327Y0009*
X01326Y00089*
X01326Y00089*
X01326Y00088*
X01326Y00088*
X01326Y00087*
X01325Y00086*
X01325Y00085*
X01325Y00083*
X01325Y00082*
Y00081*
X01325Y0008*
X01325Y00079*
X01325Y00078*
X01325Y00077*
X01326Y00076*
X01326Y00074*
X01327Y00073*
X01327Y00072*
X01328Y0007*
X01328Y00069*
X01329Y00068*
X0133Y00067*
X0133Y00067*
X0133Y00067*
X0133Y00067*
X01331Y00066*
X01331Y00066*
X01332Y00065*
X01332Y00065*
X01333Y00065*
X01335Y00064*
X01336Y00063*
X01337Y00062*
X01339Y00062*
X0134Y00062*
X01341Y00062*
X01342*
X01342Y00062*
X01343Y00062*
X01343Y00062*
X01345Y00063*
X01345Y00063*
X01346Y00063*
X01347Y00064*
X01348Y00064*
X01349Y00065*
X0135Y00066*
X0135Y00066*
X01351Y00067*
Y00063*
X01357*
Y00062*
Y00113*
G37*
G36*
X01689Y001D02*
D01*
Y00099*
X01684*
Y00094*
X01684Y00094*
X01684Y00094*
X01684Y00095*
X01683Y00095*
X01683Y00096*
X01682Y00096*
X01682Y00097*
X01681Y00097*
X0168Y00098*
X01679Y00098*
X01678Y00099*
X01677Y00099*
X01676Y001*
X01675Y001*
X01674Y001*
X01672Y001*
X01689*
X0166*
X01672*
X01671Y001*
X0167Y001*
X01669Y001*
X01668Y001*
X01667Y00099*
X01666Y00099*
X01666Y00099*
X01666Y00099*
X01665Y00099*
X01665Y00098*
X01664Y00098*
X01663Y00097*
X01663Y00097*
X01662Y00096*
X01662Y00096*
X01662Y00096*
X01662Y00095*
X01661Y00095*
X01661Y00094*
X01661Y00093*
X0166Y00092*
X0166Y00091*
Y00091*
X0166Y00091*
X0166Y00091*
X0166Y0009*
Y00089*
X0166Y00088*
X0166Y00087*
Y00063*
X01666*
Y00085*
Y00085*
Y00085*
Y00086*
Y00086*
X01666Y00087*
X01666Y00088*
X01666Y00089*
X01667Y0009*
X01667Y00091*
Y00091*
X01667Y00091*
X01667Y00091*
X01667Y00092*
X01668Y00092*
X01668Y00093*
X01669Y00093*
X01669Y00094*
X01669Y00094*
X0167Y00094*
X0167Y00094*
X01671Y00094*
X01671Y00094*
X01672Y00095*
X01673Y00095*
X01674Y00095*
X01674*
X01675Y00095*
X01676Y00095*
X01677Y00094*
X01678Y00094*
X01679Y00093*
X0168Y00092*
X01681Y00092*
X01681Y00092*
X01681Y00091*
X01682Y00091*
X01682Y0009*
X01682Y0009*
X01682Y00089*
X01683Y00088*
X01683Y00087*
X01683Y00086*
X01683Y00085*
X01683Y00084*
Y00083*
Y00063*
X01689*
Y001*
G37*
G36*
X0156D02*
D01*
Y00099*
X01555*
Y00094*
X01555Y00094*
X01554Y00094*
X01554Y00095*
X01554Y00095*
X01553Y00096*
X01553Y00096*
X01552Y00097*
X01552Y00097*
X01551Y00098*
X0155Y00098*
X01549Y00099*
X01548Y00099*
X01547Y001*
X01546Y001*
X01544Y001*
X01543Y001*
X0156*
X01531*
X01542*
X01542Y001*
X01541Y001*
X0154Y001*
X01539Y001*
X01538Y00099*
X01537Y00099*
X01537Y00099*
X01537Y00099*
X01536Y00099*
X01535Y00098*
X01535Y00098*
X01534Y00097*
X01533Y00097*
X01533Y00096*
X01533Y00096*
X01533Y00096*
X01532Y00095*
X01532Y00095*
X01532Y00094*
X01531Y00093*
X01531Y00092*
X01531Y00091*
Y00091*
X01531Y00091*
X01531Y00091*
X01531Y0009*
Y00089*
X01531Y00088*
X01531Y00087*
Y00063*
X01537*
Y00085*
Y00085*
Y00085*
Y00086*
Y00086*
X01537Y00087*
X01537Y00088*
X01537Y00089*
X01537Y0009*
X01538Y00091*
Y00091*
X01538Y00091*
X01538Y00091*
X01538Y00092*
X01538Y00092*
X01539Y00093*
X01539Y00093*
X0154Y00094*
X0154Y00094*
X0154Y00094*
X01541Y00094*
X01541Y00094*
X01542Y00094*
X01543Y00095*
X01543Y00095*
X01544Y00095*
X01545*
X01546Y00095*
X01547Y00095*
X01548Y00094*
X01549Y00094*
X0155Y00093*
X01551Y00092*
X01551Y00092*
X01552Y00092*
X01552Y00091*
X01552Y00091*
X01553Y0009*
X01553Y0009*
X01553Y00089*
X01553Y00088*
X01554Y00087*
X01554Y00086*
X01554Y00085*
X01554Y00084*
Y00083*
Y00063*
X0156*
Y001*
G37*
G36*
X02054D02*
D01*
Y00099*
X02048*
Y00094*
X02048Y00094*
X02048Y00095*
X02047Y00095*
X02047Y00096*
X02046Y00097*
X02045Y00098*
X02045Y00098*
X02044Y00099*
X02044Y00099*
X02044Y00099*
X02043Y00099*
X02043Y001*
X02042Y001*
X02042Y001*
X02041Y001*
X0204Y001*
X02054*
X0204*
X02039Y001*
X02038Y001*
X02037Y001*
X02036Y00099*
X02035Y00099*
X02034Y00098*
X02036Y00093*
X02036Y00093*
X02036Y00093*
X02037Y00093*
X02037Y00093*
X02038Y00093*
X02039Y00094*
X0204Y00094*
X0204Y00094*
X02041*
X02041Y00094*
X02042Y00094*
X02042Y00094*
X02043Y00093*
X02043Y00093*
X02044Y00093*
X02044Y00093*
X02044Y00092*
X02045Y00092*
X02045Y00092*
X02045Y00091*
X02046Y00091*
X02046Y0009*
X02046Y00089*
X02046Y00089*
X02046Y00089*
X02047Y00088*
X02047Y00087*
X02047Y00086*
X02047Y00085*
X02047Y00083*
X02047Y00082*
Y00063*
X02054*
Y001*
G37*
G36*
X01913D02*
D01*
Y00099*
X01907*
Y00094*
X01907Y00094*
X01907Y00094*
X01906Y00095*
X01906Y00096*
X01905Y00097*
X01904Y00098*
X01904Y00098*
X01903Y00099*
X01903Y00099*
X01903Y00099*
X01902Y00099*
X01902Y001*
X01901Y001*
X01901Y001*
X019Y001*
X01899Y001*
X01913*
X01899*
X01898Y001*
X01897Y001*
X01896Y001*
X01895Y00099*
X01894Y00099*
X01893Y00098*
X01895Y00093*
X01895Y00093*
X01895Y00093*
X01896Y00093*
X01896Y00093*
X01897Y00093*
X01898Y00094*
X01899Y00094*
X019Y00094*
X019*
X019Y00094*
X01901Y00094*
X01901Y00094*
X01902Y00093*
X01903Y00093*
X01903Y00093*
X01903Y00093*
X01903Y00092*
X01904Y00092*
X01904Y00092*
X01904Y00091*
X01905Y00091*
X01905Y0009*
X01905Y00089*
X01905Y00089*
X01906Y00089*
X01906Y00088*
X01906Y00087*
X01906Y00086*
X01906Y00085*
X01906Y00083*
X01906Y00082*
Y00063*
X01913*
Y001*
G37*
G36*
X0138D02*
D01*
Y00099*
X01374*
Y00094*
X01374Y00094*
X01374Y00094*
X01374Y00095*
X01373Y00096*
X01373Y00097*
X01372Y00098*
X01371Y00098*
X01371Y00099*
X01371Y00099*
X0137Y00099*
X0137Y00099*
X01369Y001*
X01369Y001*
X01368Y001*
X01367Y001*
X01367Y001*
X0138*
X01366*
X01365Y001*
X01365Y001*
X01364Y001*
X01363Y00099*
X01361Y00099*
X0136Y00098*
X01362Y00093*
X01363Y00093*
X01363Y00093*
X01363Y00093*
X01364Y00093*
X01365Y00093*
X01365Y00094*
X01366Y00094*
X01367Y00094*
X01367*
X01368Y00094*
X01368Y00094*
X01369Y00094*
X01369Y00093*
X0137Y00093*
X01371Y00093*
X01371Y00093*
X01371Y00092*
X01371Y00092*
X01371Y00092*
X01372Y00091*
X01372Y00091*
X01373Y0009*
X01373Y00089*
X01373Y00089*
X01373Y00089*
X01373Y00088*
X01373Y00087*
X01374Y00086*
X01374Y00085*
X01374Y00083*
X01374Y00082*
Y00063*
X0138*
Y001*
G37*
G36*
X01282D02*
D01*
Y00099*
X01277*
Y00094*
X01277Y00094*
X01276Y00094*
X01276Y00095*
X01275Y00096*
X01275Y00097*
X01274Y00098*
X01273Y00098*
X01273Y00099*
X01273Y00099*
X01272Y00099*
X01272Y00099*
X01272Y001*
X01271Y001*
X0127Y001*
X0127Y001*
X01269Y001*
X01268*
X01268Y001*
X01267Y001*
X01266Y001*
X01265Y00099*
X01264Y00099*
X01262Y00098*
X01265Y00093*
X01265Y00093*
X01265Y00093*
X01265Y00093*
X01266Y00093*
X01267Y00093*
X01267Y00094*
X01268Y00094*
X01269Y00094*
X01269*
X0127Y00094*
X0127Y00094*
X01271Y00094*
X01272Y00093*
X01272Y00093*
X01273Y00093*
X01273Y00093*
X01273Y00092*
X01273Y00092*
X01274Y00092*
X01274Y00091*
X01274Y00091*
X01275Y0009*
X01275Y00089*
X01275Y00089*
X01275Y00089*
X01275Y00088*
X01275Y00087*
X01276Y00086*
X01276Y00085*
X01276Y00083*
X01276Y00082*
Y00063*
X01262*
X01282*
Y001*
G37*
G36*
X0122D02*
D01*
Y00099*
X01214*
Y00094*
X01214Y00094*
X01214Y00094*
X01213Y00095*
X01213Y00096*
X01212Y00097*
X01211Y00098*
X01211Y00098*
X0121Y00099*
X0121Y00099*
X0121Y00099*
X01209Y00099*
X01209Y001*
X01208Y001*
X01208Y001*
X01207Y001*
X01206Y001*
X0122*
X012*
X01206*
X01205Y001*
X01204Y001*
X01203Y001*
X01202Y00099*
X01201Y00099*
X012Y00098*
X01202Y00093*
X01202Y00093*
X01202Y00093*
X01203Y00093*
X01203Y00093*
X01204Y00093*
X01205Y00094*
X01206Y00094*
X01207Y00094*
X01207*
X01207Y00094*
X01208Y00094*
X01208Y00094*
X01209Y00093*
X0121Y00093*
X0121Y00093*
X0121Y00093*
X0121Y00092*
X01211Y00092*
X01211Y00092*
X01211Y00091*
X01212Y00091*
X01212Y0009*
X01212Y00089*
X01212Y00089*
X01213Y00089*
X01213Y00088*
X01213Y00087*
X01213Y00086*
X01213Y00085*
X01213Y00083*
X01213Y00082*
Y00063*
X0122*
Y001*
G37*
G36*
X00994Y00114D02*
D01*
Y00089*
X00994Y0009*
Y00091*
X00994Y00092*
X00994Y00093*
X00994Y00095*
X00993Y00098*
X00993Y001*
X00993Y00101*
X00992Y00102*
Y00102*
X00992Y00102*
X00992Y00103*
X00992Y00103*
X00992Y00103*
X00992Y00104*
X00991Y00105*
X0099Y00107*
X00989Y00108*
X00988Y00109*
X00987Y00111*
X00987*
X00987Y00111*
X00987Y00111*
X00986Y00111*
X00986Y00111*
X00984Y00112*
X00983Y00113*
X00982Y00113*
X0098Y00113*
X00978Y00114*
X00961*
X00977*
X00976Y00113*
X00975Y00113*
X00974Y00113*
X00973Y00113*
X00972Y00112*
X00971Y00112*
X00971Y00112*
X0097Y00112*
X0097Y00111*
X00969Y00111*
X00968Y0011*
X00967Y00109*
X00966Y00108*
X00966Y00107*
X00966Y00107*
X00965Y00107*
X00965Y00106*
X00965Y00105*
X00964Y00104*
X00964Y00103*
X00963Y00101*
X00963Y001*
Y001*
X00962Y00099*
Y00099*
X00962Y00099*
X00962Y00098*
X00962Y00098*
X00962Y00097*
X00962Y00096*
X00962Y00096*
X00962Y00095*
X00962Y00094*
X00962Y00093*
X00961Y00092*
Y0009*
X00961Y00088*
Y00086*
X00961Y00086*
Y00085*
X00962Y00084*
X00962Y00083*
X00962Y0008*
X00962Y00078*
X00963Y00076*
X00963Y00074*
X00963Y00073*
Y00073*
X00963Y00073*
X00963Y00073*
X00964Y00072*
X00964Y00072*
X00964Y00072*
X00965Y0007*
X00965Y00069*
X00966Y00068*
X00967Y00066*
X00969Y00065*
X00969*
X00969Y00065*
X00969Y00065*
X00969Y00064*
X0097Y00064*
X00971Y00063*
X00972Y00063*
X00974Y00062*
X00976Y00062*
X00978Y00062*
X00961*
X00994*
Y00114*
G37*
G36*
X02227Y00114D02*
Y00089D01*
X02227Y00089*
Y0009*
X02226Y00091*
X02226Y00091*
X02226Y00092*
X02226Y00094*
X02225Y00097*
X02225Y00099*
X02224Y00102*
Y00102*
X02223Y00102*
X02223Y00102*
X02223Y00103*
X02223Y00103*
X02222Y00104*
X02221Y00105*
X0222Y00107*
X02219Y00108*
X02217Y0011*
X02216Y0011*
X02215Y00111*
X02215*
X02214Y00111*
X02214Y00111*
X02214Y00111*
X02213Y00112*
X02213Y00112*
X02212Y00112*
X02211Y00113*
X0221Y00113*
X02209Y00113*
X02207Y00114*
X02204Y00114*
X02201Y00114*
X02201*
X022Y00114*
X02199*
X02198Y00114*
X02197Y00114*
X02195Y00113*
X02193Y00113*
X02192Y00112*
X02192*
X02191Y00112*
X02191Y00112*
X02191Y00112*
X0219Y00112*
X02189Y00111*
X02188Y0011*
X02187Y00109*
X02186Y00109*
X02185Y00107*
X02185Y00107*
X02184Y00107*
X02184Y00106*
X02183Y00105*
X02183Y00104*
X02182Y00103*
X02181Y00101*
X02181Y00099*
X02187Y00097*
Y00098*
X02187Y00098*
X02187Y00098*
X02187Y00099*
X02188Y001*
X02188Y00101*
X02188Y00102*
X02189Y00103*
X0219Y00104*
X0219Y00104*
X0219Y00104*
X0219Y00104*
X02191Y00105*
X02192Y00105*
X02192Y00106*
X02193Y00107*
X02194Y00107*
X02195Y00107*
X02195Y00107*
X02196Y00108*
X02197Y00108*
X02198Y00108*
X02199Y00108*
X022Y00108*
X02201Y00108*
X02202*
X02203Y00108*
X02204Y00108*
X02205Y00108*
X02207Y00108*
X02208Y00107*
X02209Y00107*
X02209Y00107*
X0221Y00107*
X0221Y00106*
X02211Y00106*
X02212Y00105*
X02213Y00105*
X02214Y00104*
X02215Y00103*
X02215Y00103*
X02215Y00103*
X02215Y00102*
X02216Y00102*
X02216Y00101*
X02217Y001*
X02217Y00099*
X02218Y00098*
Y00098*
X02218Y00098*
X02218Y00098*
X02218Y00097*
X02218Y00097*
X02218Y00097*
X02219Y00095*
X02219Y00094*
X02219Y00092*
X0222Y0009*
X0222Y00088*
Y00088*
Y00088*
Y00088*
X0222Y00087*
Y00087*
X0222Y00086*
X02219Y00085*
X02219Y00084*
X02219Y00082*
X02219Y00081*
X02218Y00079*
X02217Y00077*
Y00077*
X02217Y00077*
X02217Y00076*
X02217Y00076*
X02216Y00075*
X02216Y00074*
X02215Y00073*
X02214Y00072*
X02212Y00071*
X02211Y0007*
X02211*
X02211Y0007*
X0221Y0007*
X0221Y0007*
X0221Y0007*
X02209Y00069*
X02208Y00069*
X02206Y00069*
X02205Y00068*
X02203Y00068*
X02201Y00068*
X02201*
X022Y00068*
X02199Y00068*
X02197Y00068*
X02196Y00069*
X02194Y00069*
X02193Y0007*
X02193*
X02193Y0007*
X02192Y0007*
X02192Y0007*
X02191Y0007*
X0219Y00071*
X02189Y00071*
X02188Y00072*
X02187Y00072*
X02187Y00073*
Y00083*
X02201*
Y00089*
X0218*
Y0007*
X0218Y0007*
X0218Y0007*
X0218Y00069*
X02181Y00069*
X02181Y00069*
X02182Y00069*
X02183Y00068*
X02185Y00067*
X02186Y00066*
X02188Y00065*
X0219Y00064*
X0219*
X0219Y00064*
X02191Y00064*
X02191Y00064*
X02192Y00063*
X02192Y00063*
X02193Y00063*
X02194Y00063*
X02195Y00063*
X02197Y00062*
X02199Y00062*
X02201Y00062*
X02202*
X02202Y00062*
X02203*
X02204Y00062*
X02204Y00062*
X02205Y00062*
X02208Y00063*
X0221Y00063*
X02212Y00064*
X02214Y00065*
X02214Y00065*
X02215Y00065*
X02215Y00065*
X02215Y00066*
X02216Y00066*
X02216Y00066*
X02218Y00067*
X02219Y00069*
X02221Y0007*
X02222Y00072*
X02224Y00074*
Y00074*
X02224Y00075*
X02224Y00075*
X02224Y00075*
X02224Y00076*
X02225Y00077*
X02225Y00077*
X02225Y00078*
X02225Y00079*
X02226Y0008*
X02226Y00083*
X02226Y00085*
X02227Y00088*
Y00062*
Y00114*
G37*
G36*
X02032Y001D02*
D01*
Y00073*
X02032Y00073*
X02032Y00074*
X02032Y00075*
X02032Y00076*
X02031Y00077*
X02031Y00077*
X02031Y00077*
X02031Y00078*
X02031Y00078*
X0203Y00079*
X0203Y00079*
X02029Y0008*
X02028Y0008*
X02028Y00081*
X02028Y00081*
X02027Y00081*
X02027Y00081*
X02026Y00082*
X02026Y00082*
X02025Y00082*
X02024Y00083*
X02023Y00083*
X02023*
X02023Y00083*
X02023Y00083*
X02022Y00083*
X02021Y00083*
X0202Y00084*
X02019Y00084*
X02018Y00084*
X02018*
X02018Y00084*
X02017*
X02017Y00084*
X02016Y00084*
X02015Y00084*
X02014Y00085*
X02012Y00085*
X0201Y00085*
X02008Y00086*
X02007Y00086*
X02007Y00086*
Y00086*
Y00086*
X02007Y00087*
Y00087*
Y00088*
Y00088*
Y00088*
Y00088*
Y00088*
X02007Y00089*
X02007Y0009*
X02007Y00091*
X02007Y00092*
X02008Y00092*
X02008Y00093*
X02009Y00093*
X02009Y00093*
X02009Y00094*
X0201Y00094*
X02011Y00094*
X02012Y00095*
X02014Y00095*
X02016Y00095*
X02016*
X02017Y00095*
X02018Y00095*
X02019Y00095*
X0202Y00095*
X02021Y00094*
X02022Y00094*
X02022Y00094*
X02022Y00093*
X02023Y00093*
X02023Y00092*
X02024Y00092*
X02024Y00091*
X02025Y0009*
X02025Y00088*
X02031Y00089*
Y00089*
X02031Y00089*
X02031Y0009*
X02031Y0009*
X0203Y00091*
X0203Y00092*
X0203Y00093*
X02029Y00094*
X02028Y00095*
X02028Y00095*
X02028Y00096*
X02028Y00096*
X02027Y00097*
X02026Y00097*
X02025Y00098*
X02024Y00098*
X02023Y00099*
X02023*
X02023Y00099*
X02023Y00099*
X02022Y00099*
X02022Y00099*
X02021Y001*
X02019Y001*
X02018Y001*
X02016Y001*
X02015Y001*
X02032*
X01999*
X02014*
X02013Y001*
X02012Y001*
X02011Y001*
X02009Y001*
X02008Y00099*
X02007Y00099*
X02007Y00099*
X02007Y00099*
X02006Y00099*
X02005Y00098*
X02005Y00098*
X02004Y00097*
X02003Y00097*
X02003Y00096*
X02003Y00096*
X02003Y00096*
X02002Y00096*
X02002Y00095*
X02002Y00095*
X02001Y00094*
X02001Y00093*
X02001Y00092*
Y00092*
X02001Y00092*
X02001Y00091*
X02001Y00091*
Y0009*
X02001Y00089*
X02Y00088*
Y00086*
Y00078*
Y00078*
Y00078*
Y00077*
Y00077*
Y00076*
Y00075*
X02Y00074*
Y00072*
X02Y0007*
X02Y00069*
Y00068*
X02Y00068*
X02Y00067*
Y00067*
X02Y00067*
X02Y00066*
X02Y00066*
X02Y00065*
X01999Y00064*
X01999Y00063*
X02005*
X02005Y00063*
X02005Y00063*
X02005Y00064*
X02006Y00064*
X02006Y00065*
X02006Y00066*
X02006Y00066*
X02006Y00067*
X02006Y00067*
X02007Y00067*
X02007Y00066*
X02008Y00066*
X02009Y00065*
X02011Y00064*
X02012Y00064*
X02013Y00063*
X02013Y00063*
X02013Y00063*
X02014Y00063*
X02015Y00063*
X02016Y00062*
X02017Y00062*
X02018Y00062*
X0202Y00062*
X0202*
X02021Y00062*
X02021*
X02022Y00062*
X02023Y00062*
X02025Y00063*
X02026Y00063*
X02028Y00064*
X02029Y00065*
X02029Y00065*
X02029Y00065*
X0203Y00066*
X02031Y00067*
X02031Y00068*
X02032Y00069*
X02032Y00071*
X02032Y00072*
Y00062*
Y001*
G37*
G36*
X01261D02*
D01*
Y00073*
X01261Y00073*
X01261Y00074*
X01261Y00075*
X0126Y00076*
X0126Y00077*
X0126Y00077*
X0126Y00077*
X01259Y00078*
X01259Y00078*
X01259Y00079*
X01258Y00079*
X01258Y0008*
X01257Y0008*
X01256Y00081*
X01256Y00081*
X01256Y00081*
X01256Y00081*
X01255Y00082*
X01254Y00082*
X01254Y00082*
X01253Y00083*
X01252Y00083*
X01252*
X01252Y00083*
X01251Y00083*
X01251Y00083*
X0125Y00083*
X01249Y00084*
X01248Y00084*
X01247Y00084*
X01246*
X01246Y00084*
X01246*
X01245Y00084*
X01245Y00084*
X01244Y00084*
X01242Y00085*
X01241Y00085*
X01239Y00085*
X01237Y00086*
X01236Y00086*
X01235Y00086*
Y00086*
Y00086*
X01235Y00087*
Y00087*
Y00088*
Y00088*
Y00088*
Y00088*
Y00088*
X01235Y00089*
X01236Y0009*
X01236Y00091*
X01236Y00092*
X01237Y00092*
X01237Y00093*
X01237Y00093*
X01238Y00093*
X01238Y00094*
X01239Y00094*
X0124Y00094*
X01241Y00095*
X01243Y00095*
X01244Y00095*
X01245*
X01246Y00095*
X01247Y00095*
X01248Y00095*
X01249Y00094*
X0125Y00094*
X01251Y00094*
X01251Y00094*
X01251Y00093*
X01251Y00093*
X01252Y00092*
X01252Y00092*
X01253Y00091*
X01253Y0009*
X01254Y00088*
X0126Y00089*
Y00089*
X0126Y00089*
X0126Y0009*
X01259Y0009*
X01259Y00091*
X01259Y00092*
X01258Y00093*
X01258Y00094*
X01257Y00095*
X01257Y00095*
X01257Y00096*
X01256Y00096*
X01256Y00097*
X01255Y00097*
X01254Y00098*
X01253Y00098*
X01252Y00099*
X01252*
X01252Y00099*
X01251Y00099*
X01251Y00099*
X0125Y00099*
X01249Y001*
X01248Y001*
X01247Y001*
X01245Y001*
X01243Y001*
X01243*
X01242Y001*
X01241Y001*
X01239Y001*
X01238Y001*
X01237Y00099*
X01236Y00099*
X01236Y00099*
X01235Y00099*
X01235Y00099*
X01234Y00098*
X01233Y00098*
X01233Y00097*
X01232Y00097*
X01231Y00096*
X01231Y00096*
X01231Y00096*
X01231Y00096*
X01231Y00095*
X0123Y00095*
X0123Y00094*
X0123Y00093*
X0123Y00092*
Y00092*
X01229Y00092*
X01229Y00091*
X01229Y00091*
Y0009*
X01229Y00089*
X01229Y00088*
Y00086*
Y00078*
Y00078*
Y00078*
Y00077*
Y00077*
Y00076*
Y00075*
X01229Y00074*
Y00072*
X01229Y0007*
X01229Y00069*
Y00068*
X01229Y00068*
X01229Y00067*
Y00067*
X01229Y00067*
X01229Y00066*
X01228Y00066*
X01228Y00065*
X01228Y00064*
X01227Y00063*
X01234*
X01234Y00063*
X01234Y00063*
X01234Y00064*
X01234Y00064*
X01234Y00065*
X01235Y00066*
X01235Y00066*
X01235Y00067*
X01235Y00067*
X01236Y00067*
X01236Y00066*
X01237Y00066*
X01238Y00065*
X01239Y00064*
X0124Y00064*
X01242Y00063*
X01242Y00063*
X01242Y00063*
X01243Y00063*
X01244Y00063*
X01245Y00062*
X01246Y00062*
X01247Y00062*
X01248Y00062*
X01227*
X01261*
Y001*
G37*
G36*
X01183D02*
D01*
Y00073*
X01183Y00073*
X01182Y00074*
X01182Y00075*
X01182Y00076*
X01182Y00077*
X01181Y00077*
X01181Y00077*
X01181Y00078*
X01181Y00078*
X01181Y00079*
X0118Y00079*
X0118Y0008*
X01179Y0008*
X01178Y00081*
X01178Y00081*
X01178Y00081*
X01177Y00081*
X01177Y00082*
X01176Y00082*
X01176Y00082*
X01175Y00083*
X01174Y00083*
X01174*
X01173Y00083*
X01173Y00083*
X01172Y00083*
X01172Y00083*
X01171Y00084*
X0117Y00084*
X01168Y00084*
X01168*
X01168Y00084*
X01168*
X01167Y00084*
X01166Y00084*
X01166Y00084*
X01164Y00085*
X01162Y00085*
X0116Y00085*
X01159Y00086*
X01158Y00086*
X01157Y00086*
Y00086*
Y00086*
X01157Y00087*
Y00087*
Y00088*
Y00088*
Y00088*
Y00088*
Y00088*
X01157Y00089*
X01157Y0009*
X01158Y00091*
X01158Y00092*
X01158Y00092*
X01159Y00093*
X01159Y00093*
X01159Y00093*
X0116Y00094*
X01161Y00094*
X01162Y00094*
X01163Y00095*
X01164Y00095*
X01166Y00095*
X01167*
X01167Y00095*
X01168Y00095*
X01169Y00095*
X0117Y00094*
X01172Y00094*
X01172Y00094*
X01172Y00094*
X01173Y00093*
X01173Y00093*
X01174Y00092*
X01174Y00092*
X01175Y00091*
X01175Y0009*
X01175Y00088*
X01182Y00089*
Y00089*
X01181Y00089*
X01181Y0009*
X01181Y0009*
X01181Y00091*
X01181Y00092*
X0118Y00093*
X0118Y00094*
X01179Y00095*
X01179Y00095*
X01178Y00096*
X01178Y00096*
X01177Y00097*
X01177Y00097*
X01176Y00098*
X01175Y00098*
X01173Y00099*
X01173*
X01173Y00099*
X01173Y00099*
X01173Y00099*
X01172Y00099*
X01171Y001*
X0117Y001*
X01168Y001*
X01167Y001*
X01165Y001*
X01164*
X01163Y001*
X01162Y001*
X01161Y001*
X0116Y001*
X01159Y00099*
X01157Y00099*
X01157Y00099*
X01157Y00099*
X01157Y00099*
X01156Y00098*
X01155Y00098*
X01154Y00097*
X01154Y00097*
X01153Y00096*
X01153Y00096*
X01153Y00096*
X01153Y00096*
X01152Y00095*
X01152Y00095*
X01152Y00094*
X01152Y00093*
X01151Y00092*
Y00092*
X01151Y00092*
X01151Y00091*
X01151Y00091*
Y0009*
X01151Y00089*
X01151Y00088*
Y00086*
Y00078*
Y00078*
Y00078*
Y00077*
Y00077*
Y00076*
Y00075*
X01151Y00074*
Y00072*
X01151Y0007*
X01151Y00069*
Y00068*
X01151Y00068*
X01151Y00067*
Y00067*
X0115Y00067*
X0115Y00066*
X0115Y00066*
X0115Y00065*
X0115Y00064*
X01149Y00063*
X01155*
X01156Y00063*
X01156Y00063*
X01156Y00064*
X01156Y00064*
X01156Y00065*
X01156Y00066*
X01157Y00066*
X01157Y00067*
X01157Y00067*
X01157Y00067*
X01158Y00066*
X01159Y00066*
X0116Y00065*
X01161Y00064*
X01162Y00064*
X01163Y00063*
X01163Y00063*
X01164Y00063*
X01164Y00063*
X01165Y00063*
X01166Y00062*
X01168Y00062*
X01169Y00062*
X0117Y00062*
X01149*
X01183*
Y001*
G37*
G36*
X01993Y00113D02*
D01*
Y00082*
X01993Y00082*
Y00083*
X01993Y00084*
X01993Y00086*
X01992Y00088*
X01992Y00089*
X01991Y00091*
Y00091*
X01991Y00091*
X01991Y00091*
X01991Y00092*
X01991Y00093*
X0199Y00094*
X01989Y00095*
X01988Y00096*
X01987Y00097*
X01986Y00098*
X01986*
X01986Y00098*
X01985Y00098*
X01985Y00099*
X01984Y00099*
X01982Y00099*
X01981Y001*
X01979Y001*
X01978Y001*
X01977*
X01977Y001*
X01976Y001*
X01975Y001*
X01974Y001*
X01973Y00099*
X01972Y00099*
X01972Y00099*
X01972Y00099*
X01971Y00098*
X0197Y00098*
X0197Y00097*
X01969Y00097*
X01968Y00096*
X01968Y00095*
Y00113*
X01993*
X01962*
Y00063*
X01967*
Y00067*
X01967Y00067*
X01967Y00067*
X01968Y00067*
X01968Y00067*
X01968Y00066*
X01969Y00066*
X01969Y00065*
X0197Y00065*
X01971Y00064*
X01971Y00064*
X01972Y00063*
X01973Y00063*
X01974Y00062*
X01975Y00062*
X01976Y00062*
X01977Y00062*
X01993*
Y00113*
G37*
G36*
X01872D02*
D01*
Y00082*
X01872Y00082*
Y00083*
X01872Y00084*
X01871Y00086*
X01871Y00088*
X01871Y00089*
X0187Y00091*
Y00091*
X0187Y00091*
X0187Y00091*
X0187Y00092*
X01869Y00093*
X01869Y00094*
X01868Y00095*
X01867Y00096*
X01866Y00097*
X01865Y00098*
X01865*
X01864Y00098*
X01864Y00098*
X01863Y00099*
X01862Y00099*
X01861Y00099*
X0186Y001*
X01858Y001*
X01856Y001*
X01856*
X01855Y001*
X01854Y001*
X01854Y001*
X01853Y001*
X01852Y00099*
X01851Y00099*
X0185Y00099*
X0185Y00099*
X0185Y00098*
X01849Y00098*
X01848Y00097*
X01848Y00097*
X01847Y00096*
X01846Y00095*
Y00113*
X01872*
X0184*
Y00063*
X01846*
Y00067*
X01846Y00067*
X01846Y00067*
X01846Y00067*
X01847Y00067*
X01847Y00066*
X01847Y00066*
X01848Y00065*
X01849Y00065*
X01849Y00064*
X0185Y00064*
X01851Y00063*
X01852Y00063*
X01853Y00062*
X01854Y00062*
X01855Y00062*
X01856Y00062*
X01872*
Y00113*
G37*
G36*
X01652Y001D02*
D01*
Y00082*
X01652Y00083*
Y00083*
X01652Y00085*
X01652Y00086*
X01651Y00088*
X01651Y0009*
X0165Y00091*
Y00091*
X0165Y00092*
X0165Y00092*
X0165Y00092*
X01649Y00093*
X01649Y00094*
X01648Y00095*
X01647Y00096*
X01646Y00097*
X01644Y00098*
X01644*
X01644Y00098*
X01644Y00098*
X01644Y00098*
X01643Y00099*
X01642Y00099*
X0164Y001*
X01639Y001*
X01637Y001*
X01636Y001*
X01635*
X01635Y001*
X01634*
X01634Y001*
X01632Y001*
X01631Y00099*
X01629Y00099*
X01627Y00098*
X01626Y00097*
X01626*
X01626Y00097*
X01625Y00097*
X01625Y00096*
X01624Y00095*
X01623Y00094*
X01622Y00092*
X01622Y00091*
X01621Y00089*
X01627Y00088*
Y00088*
X01627Y00088*
X01627Y00088*
X01627Y00089*
X01628Y0009*
X01628Y00091*
X01629Y00092*
X01629Y00093*
X0163Y00093*
X0163Y00093*
X0163Y00094*
X01631Y00094*
X01632Y00094*
X01632Y00095*
X01633Y00095*
X01634Y00095*
X01635Y00095*
X01636*
X01636Y00095*
X01637Y00095*
X01638Y00095*
X01639Y00094*
X0164Y00094*
X01642Y00093*
X01642Y00092*
X01643Y00092*
X01643Y00092*
X01643Y00091*
X01643Y00091*
X01644Y00091*
X01644Y0009*
X01644Y0009*
X01644Y00089*
X01645Y00089*
X01645Y00088*
X01645Y00087*
X01645Y00086*
X01645Y00085*
X01646Y00084*
X01646Y00082*
Y00081*
Y00081*
Y00081*
Y0008*
X01646Y0008*
Y00079*
X01646Y00079*
X01645Y00077*
X01645Y00075*
X01645Y00073*
X01644Y00072*
X01643Y00071*
X01643Y0007*
X01643Y0007*
X01642Y0007*
X01642Y00069*
X01641Y00069*
X0164Y00068*
X01639Y00068*
X01637Y00067*
X01637Y00067*
X01636Y00067*
X01635*
X01634Y00067*
X01634Y00067*
X01633Y00068*
X01632Y00068*
X01631Y00069*
X0163Y00069*
X0163Y00069*
X01629Y0007*
X01629Y0007*
X01628Y00071*
X01628Y00072*
X01627Y00073*
X01627Y00075*
X01626Y00076*
X0162Y00075*
Y00075*
X0162Y00075*
X01621Y00075*
X01621Y00074*
X01621Y00074*
X01621Y00073*
X01621Y00072*
X01622Y0007*
X01623Y00069*
X01624Y00067*
X01626Y00066*
X01626*
X01626Y00065*
X01626Y00065*
X01626Y00065*
X01627Y00065*
X01627Y00064*
X01628Y00064*
X0163Y00063*
X01632Y00063*
X01633Y00062*
X01635Y00062*
X01636Y00062*
X0162*
X01652*
Y001*
G37*
G36*
X02095D02*
D01*
Y00082*
X02095Y00082*
X02095Y00083*
X02094Y00084*
X02094Y00085*
X02094Y00086*
X02094Y00088*
X02093Y0009*
X02093Y00091*
X02092Y00092*
X02092Y00093*
X02091Y00094*
X0209Y00095*
X0209Y00095*
X0209Y00095*
X0209Y00096*
X02089Y00096*
X02089Y00096*
X02088Y00097*
X02087Y00097*
X02087Y00098*
X02086Y00098*
X02085Y00099*
X02084Y00099*
X02083Y00099*
X02082Y001*
X0208Y001*
X02079Y001*
X02078Y001*
X02061*
X02077*
X02076Y001*
X02076Y001*
X02075Y001*
X02074Y001*
X02073Y001*
X02072Y00099*
X02071Y00099*
X0207Y00098*
X02069Y00098*
X02068Y00097*
X02067Y00096*
X02066Y00095*
X02066Y00095*
X02066Y00095*
X02065Y00095*
X02065Y00094*
X02065Y00094*
X02064Y00093*
X02064Y00092*
X02063Y00092*
X02063Y00091*
X02063Y0009*
X02062Y00088*
X02062Y00087*
X02062Y00086*
X02061Y00084*
X02061Y00083*
X02061Y00081*
Y0008*
X02061Y0008*
X02088*
Y00079*
Y00079*
X02088Y00079*
Y00079*
X02088Y00078*
X02088Y00077*
X02088Y00076*
X02087Y00075*
X02087Y00073*
X02086Y00072*
X02085Y0007*
X02085Y0007*
X02084Y0007*
X02084Y00069*
X02083Y00069*
X02082Y00068*
X0208Y00068*
X02079Y00067*
X02077Y00067*
X02077*
X02076Y00067*
X02075Y00067*
X02074Y00068*
X02073Y00068*
X02072Y00068*
X02071Y00069*
X02071Y00069*
X02071Y00069*
X02071Y0007*
X0207Y0007*
X02069Y00071*
X02069Y00072*
X02068Y00073*
X02068Y00075*
X02061Y00074*
Y00074*
X02061Y00074*
X02061Y00073*
X02062Y00073*
X02062Y00072*
X02062Y00072*
X02063Y00071*
X02063Y00069*
X02064Y00068*
X02066Y00066*
X02067Y00065*
X02067*
X02067Y00065*
X02067Y00065*
X02068Y00065*
X02068Y00064*
X02069Y00064*
X02069Y00064*
X0207Y00064*
X02071Y00063*
X02073Y00062*
X02075Y00062*
X02077Y00062*
X02095*
Y001*
G37*
G36*
X01832D02*
D01*
Y00082*
X01832Y00082*
X01832Y00083*
X01832Y00084*
X01832Y00085*
X01832Y00086*
X01831Y00088*
X01831Y0009*
X0183Y00091*
X0183Y00092*
X01829Y00093*
X01829Y00094*
X01828Y00095*
X01828Y00095*
X01828Y00095*
X01827Y00096*
X01827Y00096*
X01826Y00096*
X01826Y00097*
X01825Y00097*
X01824Y00098*
X01824Y00098*
X01823Y00099*
X01822Y00099*
X01821Y00099*
X01819Y001*
X01818Y001*
X01817Y001*
X01815Y001*
X01799*
X01815*
X01814Y001*
X01814Y001*
X01813Y001*
X01812Y001*
X01811Y001*
X01809Y00099*
X01808Y00099*
X01807Y00098*
X01806Y00098*
X01805Y00097*
X01804Y00096*
X01803Y00095*
X01803Y00095*
X01803Y00095*
X01803Y00095*
X01803Y00094*
X01802Y00094*
X01802Y00093*
X01802Y00092*
X01801Y00092*
X01801Y00091*
X018Y0009*
X018Y00088*
X01799Y00087*
X01799Y00086*
X01799Y00084*
X01799Y00083*
X01799Y00081*
Y0008*
X01799Y0008*
X01826*
Y00079*
Y00079*
X01826Y00079*
Y00079*
X01826Y00078*
X01826Y00077*
X01826Y00076*
X01825Y00075*
X01825Y00073*
X01824Y00072*
X01823Y0007*
X01823Y0007*
X01822Y0007*
X01821Y00069*
X01821Y00069*
X01819Y00068*
X01818Y00068*
X01817Y00067*
X01815Y00067*
X01814*
X01814Y00067*
X01813Y00067*
X01812Y00068*
X01811Y00068*
X0181Y00068*
X01809Y00069*
X01809Y00069*
X01809Y00069*
X01808Y0007*
X01808Y0007*
X01807Y00071*
X01807Y00072*
X01806Y00073*
X01805Y00075*
X01799Y00074*
Y00074*
X01799Y00074*
X01799Y00073*
X01799Y00073*
X01799Y00072*
X018Y00072*
X018Y00071*
X01801Y00069*
X01802Y00068*
X01803Y00066*
X01805Y00065*
X01805*
X01805Y00065*
X01805Y00065*
X01805Y00065*
X01806Y00064*
X01806Y00064*
X01807Y00064*
X01807Y00064*
X01809Y00063*
X01811Y00062*
X01813Y00062*
X01815Y00062*
X01832*
Y001*
G37*
G36*
X01523D02*
D01*
Y00082*
X01523Y00082*
X01523Y00083*
X01523Y00084*
X01523Y00085*
X01522Y00086*
X01522Y00088*
X01522Y0009*
X01521Y00091*
X01521Y00092*
X0152Y00093*
X01519Y00094*
X01518Y00095*
X01518Y00095*
X01518Y00095*
X01518Y00096*
X01518Y00096*
X01517Y00096*
X01516Y00097*
X01516Y00097*
X01515Y00098*
X01514Y00098*
X01513Y00099*
X01512Y00099*
X01511Y00099*
X0151Y001*
X01509Y001*
X01507Y001*
X01506Y001*
X01505*
X01505Y001*
X01504Y001*
X01503Y001*
X01503Y001*
X01502Y001*
X015Y00099*
X01499Y00099*
X01498Y00098*
X01497Y00098*
X01496Y00097*
X01495Y00096*
X01494Y00095*
X01494Y00095*
X01494Y00095*
X01494Y00095*
X01493Y00094*
X01493Y00094*
X01493Y00093*
X01492Y00092*
X01492Y00092*
X01491Y00091*
X01491Y0009*
X01491Y00088*
X0149Y00087*
X0149Y00086*
X0149Y00084*
X0149Y00083*
X01489Y00081*
Y0008*
X0149Y0008*
X01517*
Y00079*
Y00079*
X01517Y00079*
Y00079*
X01517Y00078*
X01516Y00077*
X01516Y00076*
X01516Y00075*
X01515Y00073*
X01514Y00072*
X01513Y0007*
X01513Y0007*
X01513Y0007*
X01512Y00069*
X01511Y00069*
X0151Y00068*
X01509Y00068*
X01507Y00067*
X01506Y00067*
X01505*
X01504Y00067*
X01504Y00067*
X01503Y00068*
X01502Y00068*
X01501Y00068*
X015Y00069*
X015Y00069*
X01499Y00069*
X01499Y0007*
X01498Y0007*
X01498Y00071*
X01497Y00072*
X01497Y00073*
X01496Y00075*
X0149Y00074*
Y00074*
X0149Y00074*
X0149Y00073*
X0149Y00073*
X0149Y00072*
X0149Y00072*
X01491Y00071*
X01492Y00069*
X01493Y00068*
X01494Y00066*
X01495Y00065*
X01495*
X01495Y00065*
X01496Y00065*
X01496Y00065*
X01496Y00064*
X01497Y00064*
X01497Y00064*
X01498Y00064*
X015Y00063*
X01501Y00062*
X01503Y00062*
X01506Y00062*
X01489*
X01523*
Y001*
G37*
G36*
X01954D02*
D01*
Y00082*
X01954Y00082*
Y00083*
X01954Y00084*
X01954Y00085*
X01954Y00086*
X01953Y00087*
X01953Y00088*
X01953Y00089*
X01952Y00091*
X01952Y00092*
X01951Y00093*
X0195Y00094*
X01949Y00095*
X01948Y00096*
X01948Y00096*
X01948Y00096*
X01948Y00097*
X01948Y00097*
X01947Y00097*
X01947Y00097*
X01946Y00098*
X01945Y00098*
X01944Y00099*
X01944Y00099*
X01942Y001*
X01939Y001*
X01938Y001*
X01937Y001*
X01954*
X0192*
X01936*
X01936Y001*
X01935Y001*
X01934Y001*
X01933Y001*
X01933Y001*
X01931Y00099*
X0193Y00099*
X01929Y00098*
X01928Y00098*
X01927Y00097*
X01926Y00096*
X01925Y00095*
X01925Y00095*
X01924Y00095*
X01924Y00095*
X01924Y00094*
X01924Y00094*
X01923Y00093*
X01923Y00093*
X01922Y00092*
X01922Y00091*
X01921Y0009*
X01921Y00089*
X01921Y00087*
X0192Y00086*
X0192Y00085*
X0192Y00083*
X0192Y00082*
Y0008*
X0192Y0008*
Y00079*
X0192Y00078*
X0192Y00078*
X0192Y00076*
X01921Y00074*
X01921Y00072*
X01922Y0007*
Y0007*
X01922Y0007*
X01922Y0007*
X01923Y00069*
X01924Y00068*
X01924Y00067*
X01925Y00066*
X01927Y00065*
X01928Y00064*
X01928*
X01928Y00064*
X01929Y00064*
X01929Y00064*
X0193Y00064*
X01931Y00063*
X01932Y00063*
X01934Y00062*
X01935Y00062*
X01937Y00062*
X01938*
X01938Y00062*
X01939Y00062*
X0194Y00062*
X0194Y00062*
X01941Y00063*
X01943Y00063*
X01944Y00064*
X01945Y00064*
X01946Y00065*
X01947Y00065*
X01948Y00066*
X01949Y00067*
X01949Y00067*
X0195Y00067*
X0195Y00067*
X0195Y00068*
X0195Y00068*
X01951Y00069*
X01951Y0007*
X01952Y00071*
X01952Y00072*
X01953Y00073*
X01953Y00074*
X01953Y00075*
X01954Y00076*
X01954Y00078*
X01954Y00079*
X01954Y00081*
Y00062*
Y001*
G37*
G36*
X01602D02*
D01*
Y00082*
X01602Y00082*
Y00083*
X01602Y00084*
X01601Y00085*
X01601Y00086*
X01601Y00087*
X01601Y00088*
X016Y00089*
X016Y00091*
X01599Y00092*
X01599Y00093*
X01598Y00094*
X01597Y00095*
X01596Y00096*
X01596Y00096*
X01596Y00096*
X01596Y00097*
X01595Y00097*
X01595Y00097*
X01594Y00097*
X01594Y00098*
X01593Y00098*
X01592Y00099*
X01591Y00099*
X01589Y001*
X01587Y001*
X01586Y001*
X01585Y001*
X01584*
X01583Y001*
X01583Y001*
X01582Y001*
X01581Y001*
X0158Y001*
X01578Y00099*
X01577Y00099*
X01576Y00098*
X01575Y00098*
X01574Y00097*
X01573Y00096*
X01572Y00095*
X01572Y00095*
X01572Y00095*
X01572Y00095*
X01572Y00094*
X01571Y00094*
X01571Y00093*
X0157Y00093*
X0157Y00092*
X01569Y00091*
X01569Y0009*
X01569Y00089*
X01568Y00087*
X01568Y00086*
X01568Y00085*
X01568Y00083*
X01567Y00082*
Y0008*
X01568Y0008*
Y00079*
X01568Y00078*
X01568Y00078*
X01568Y00076*
X01568Y00074*
X01569Y00072*
X0157Y0007*
Y0007*
X0157Y0007*
X0157Y0007*
X01571Y00069*
X01571Y00068*
X01572Y00067*
X01573Y00066*
X01574Y00065*
X01576Y00064*
X01576*
X01576Y00064*
X01576Y00064*
X01577Y00064*
X01577Y00064*
X01578Y00063*
X0158Y00063*
X01581Y00062*
X01583Y00062*
X01585Y00062*
X01567*
X01602*
Y001*
G37*
G36*
X01729Y00099D02*
X01723D01*
Y00079*
Y00079*
Y00079*
Y00079*
Y00078*
Y00077*
X01722Y00076*
Y00075*
X01722Y00074*
X01722Y00073*
X01722Y00073*
Y00072*
X01722Y00072*
X01722Y00072*
X01722Y00071*
X01721Y00071*
X01721Y0007*
X0172Y00069*
X0172Y00069*
X0172Y00069*
X01719Y00068*
X01719Y00068*
X01718Y00068*
X01718Y00068*
X01717Y00068*
X01716Y00067*
X01715Y00067*
X01715*
X01714Y00067*
X01713Y00067*
X01713Y00068*
X01712Y00068*
X01711Y00068*
X0171Y00069*
X0171Y00069*
X0171Y00069*
X01709Y00069*
X01709Y0007*
X01708Y0007*
X01707Y00071*
X01707Y00072*
X01706Y00073*
X01706Y00073*
X01706Y00073*
X01706Y00074*
X01706Y00074*
X01706Y00075*
X01706Y00077*
X01705Y00078*
X01705Y0008*
Y00099*
X01699*
Y00063*
X01705*
Y00068*
X01705Y00068*
X01705Y00068*
X01705Y00068*
X01705Y00067*
X01706Y00067*
X01706Y00066*
X01707Y00066*
X01708Y00065*
X01709Y00065*
X01709Y00064*
X0171Y00063*
X01711Y00063*
X01713Y00063*
X01714Y00062*
X01715Y00062*
X01716Y00062*
X01699*
X01729*
Y00099*
G37*
G36*
X02156Y001D02*
X02139D01*
X02155*
X02155Y001*
X02154Y001*
X02153Y001*
X02153Y001*
X02152Y001*
X0215Y00099*
X02149Y00099*
X02148Y00098*
X02147Y00098*
X02146Y00097*
X02145Y00096*
X02144Y00095*
X02144Y00095*
X02144Y00095*
X02144Y00095*
X02143Y00094*
X02143Y00094*
X02143Y00093*
X02142Y00092*
X02142Y00092*
X02141Y00091*
X02141Y0009*
X0214Y00088*
X0214Y00087*
X0214Y00086*
X0214Y00084*
X02139Y00083*
X02139Y00081*
Y0008*
X02139Y0008*
X02167*
Y00079*
Y00079*
X02167Y00079*
Y00079*
X02166Y00078*
X02166Y00077*
X02166Y00076*
X02166Y00075*
X02165Y00073*
X02164Y00072*
X02163Y0007*
X02163Y0007*
X02163Y0007*
X02162Y00069*
X02161Y00069*
X0216Y00068*
X02159Y00068*
X02157Y00067*
X02156Y00067*
X02155*
X02154Y00067*
X02154Y00067*
X02153Y00068*
X02152Y00068*
X02151Y00068*
X0215Y00069*
X0215Y00069*
X02149Y00069*
X02149Y0007*
X02148Y0007*
X02148Y00071*
X02147Y00072*
X02147Y00073*
X02146Y00075*
X0214Y00074*
Y00074*
X0214Y00074*
X0214Y00073*
X0214Y00073*
X0214Y00072*
X0214Y00072*
X02141Y00071*
X02142Y00069*
X02143Y00068*
X02144Y00066*
X02145Y00065*
X02145*
X02145Y00065*
X02146Y00065*
X02146Y00065*
X02146Y00064*
X02147Y00064*
X02147Y00064*
X02148Y00064*
X0215Y00063*
X02151Y00062*
X02153Y00062*
X02156Y00062*
X02173*
X02156*
X02157Y00062*
X02158Y00062*
X02158Y00062*
X02159Y00062*
X0216Y00063*
X02162Y00063*
X02163Y00064*
X02164Y00064*
X02165Y00065*
X02166Y00065*
X02167Y00066*
X02168Y00067*
X02168Y00067*
X02169Y00067*
X02169Y00067*
X02169Y00068*
X02169Y00068*
X0217Y00069*
X0217Y0007*
X02171Y00071*
X02171Y00071*
X02172Y00072*
X02172Y00074*
X02172Y00075*
X02173Y00076*
X02173Y00078*
X02173Y00079*
X02173Y00081*
Y00082*
X02173Y00082*
X02173Y00083*
X02173Y00084*
X02173Y00085*
X02172Y00086*
X02172Y00088*
X02171Y0009*
X02171Y00091*
X0217Y00092*
X0217Y00093*
X02169Y00094*
X02168Y00095*
X02168Y00095*
X02168Y00095*
X02168Y00096*
X02167Y00096*
X02167Y00096*
X02166Y00097*
X02166Y00097*
X02165Y00098*
X02164Y00098*
X02163Y00099*
X02162Y00099*
X02161Y00099*
X0216Y001*
X02159Y001*
X02157Y001*
X02156Y001*
G37*
G36*
X02132D02*
X02102D01*
X02114*
X02113Y001*
X02113Y001*
X02112Y001*
X02111Y001*
X0211Y00099*
X02109Y00099*
X02108Y00099*
X02108Y00099*
X02108Y00099*
X02107Y00098*
X02106Y00098*
X02106Y00097*
X02105Y00097*
X02104Y00096*
X02104Y00096*
X02104Y00096*
X02104Y00095*
X02104Y00095*
X02103Y00094*
X02103Y00093*
X02103Y00092*
X02103Y00091*
Y00091*
X02102Y00091*
X02102Y00091*
X02102Y0009*
Y00089*
X02102Y00088*
X02102Y00087*
Y00063*
X02108*
Y00085*
Y00085*
Y00085*
Y00086*
Y00086*
X02108Y00087*
X02109Y00088*
X02109Y00089*
X02109Y0009*
X02109Y00091*
Y00091*
X02109Y00091*
X02109Y00091*
X0211Y00092*
X0211Y00092*
X02111Y00093*
X02111Y00093*
X02112Y00094*
X02112Y00094*
X02112Y00094*
X02112Y00094*
X02113Y00094*
X02114Y00095*
X02114Y00095*
X02115Y00095*
X02116Y00095*
X02117*
X02117Y00095*
X02118Y00095*
X02119Y00094*
X0212Y00094*
X02122Y00093*
X02123Y00092*
X02123Y00092*
X02123Y00092*
X02124Y00091*
X02124Y00091*
X02124Y0009*
X02124Y0009*
X02125Y00089*
X02125Y00088*
X02125Y00087*
X02125Y00086*
X02125Y00085*
X02126Y00084*
Y00083*
Y00063*
X02132*
Y00099*
Y00099*
X02126*
Y00094*
X02126Y00094*
X02126Y00094*
X02126Y00095*
X02125Y00095*
X02125Y00096*
X02125Y00096*
X02124Y00097*
X02123Y00097*
X02122Y00098*
X02122Y00098*
X02121Y00099*
X0212Y00099*
X02119Y001*
X02117Y001*
X02116Y001*
X02115Y001*
X02132*
G37*
G36*
X01771Y00113D02*
X01736D01*
Y00107*
X01764*
Y00092*
X0174*
Y00086*
X01764*
Y00063*
X01771*
Y00113*
G37*
G36*
X01615D02*
X01609D01*
Y00106*
X01615*
Y00099*
X01609*
Y00063*
X01615*
Y00113*
G37*
G36*
X01432D02*
D01*
Y00063*
X01412Y00113*
X01385*
X01405*
X01385Y00063*
X01392*
X01398Y00078*
X01419*
X01425Y00063*
X01432*
Y00113*
G37*
G36*
X01317D02*
X01311D01*
Y00106*
X01317*
Y00099*
X01311*
Y00063*
X01317*
Y00113*
G37*
G36*
X01196D02*
X0119D01*
Y00106*
X01196*
Y00099*
X0119*
Y00063*
X01196*
Y00113*
G37*
G36*
X0109Y00099D02*
D01*
Y00063*
X01076*
X0109Y00099*
X01084*
X01076Y00077*
X01076Y00077*
X01076Y00077*
X01075Y00076*
X01075Y00075*
X01075Y00074*
X01074Y00073*
X01074Y00072*
X01074Y0007*
X01073Y0007*
X01073Y00071*
X01073Y00071*
X01073Y00072*
X01073Y00073*
X01072Y00074*
X01072Y00076*
X01071Y00077*
X01063Y00099*
X01057*
X01071Y00063*
X01057*
X0109*
Y00099*
G37*
G36*
X0101Y0007D02*
X01003D01*
Y00063*
X0101*
Y0007*
G37*
G36*
X01484Y001D02*
X01471D01*
X01484*
Y00062*
Y001*
G37*
G36*
X01471D02*
X01454D01*
X01469*
X01468Y001*
X01467Y001*
X01466Y001*
X01465Y001*
X01464Y00099*
X01462Y00099*
X01462*
X01462Y00099*
X01462Y00099*
X01461Y00098*
X01461Y00098*
X0146Y00098*
X01459Y00097*
X01458Y00096*
X01458Y00096*
X01457Y00095*
X01457Y00095*
X01457Y00095*
X01457Y00094*
X01456Y00093*
X01456Y00092*
X01456Y00091*
X01455Y0009*
X01461Y00089*
Y00089*
X01461Y0009*
X01462Y0009*
X01462Y00091*
X01462Y00092*
X01463Y00092*
X01463Y00093*
X01464Y00094*
X01464Y00094*
X01464Y00094*
X01465Y00094*
X01465Y00094*
X01466Y00095*
X01467Y00095*
X01468Y00095*
X01469Y00095*
X0147*
X01471Y00095*
X01472Y00095*
X01473Y00095*
X01474Y00095*
X01475Y00094*
X01476Y00094*
X01476Y00094*
X01476Y00094*
X01476Y00093*
X01476Y00093*
X01477Y00092*
X01477Y00092*
X01477Y00091*
X01477Y0009*
Y0009*
Y0009*
X01477Y0009*
Y0009*
X01477Y00089*
X01477Y00088*
X01477Y00088*
X01477Y00088*
X01476Y00088*
X01476Y00087*
X01475Y00087*
X01475Y00087*
X01474Y00087*
X01474*
X01474Y00087*
X01474Y00086*
X01473Y00086*
X01473Y00086*
X01472Y00086*
X0147Y00085*
X0147Y00085*
X01469Y00085*
X01469*
X01468Y00085*
X01468Y00085*
X01468Y00085*
X01467Y00085*
X01467Y00084*
X01465Y00084*
X01464Y00084*
X01462Y00083*
X01461Y00083*
X0146Y00082*
X0146Y00082*
X01459Y00082*
X01459Y00082*
X01459Y00082*
X01458Y00081*
X01457Y00081*
X01457Y0008*
X01456Y0008*
X01455Y00079*
X01455Y00079*
X01455Y00078*
X01455Y00078*
X01455Y00077*
X01454Y00077*
X01454Y00076*
X01454Y00075*
X01454Y00074*
Y00073*
X01454Y00072*
X01454Y00072*
X01454Y00071*
X01455Y0007*
X01455Y00069*
X01456Y00068*
X01456Y00068*
X01456Y00067*
X01457Y00067*
X01457Y00066*
X01458Y00065*
X01459Y00065*
X0146Y00064*
X01461Y00063*
X01461Y00063*
X01462Y00063*
X01462Y00063*
X01463Y00063*
X01464Y00062*
X01466Y00062*
X01467Y00062*
X01469Y00062*
X01469*
X0147Y00062*
X01471*
X01471Y00062*
X01473Y00062*
X01475Y00063*
X01476Y00063*
X01478Y00064*
X01479Y00064*
X0148Y00065*
X0148*
X0148Y00065*
X0148Y00065*
X01481Y00066*
X01482Y00067*
X01482Y00068*
X01483Y0007*
X01484Y00072*
X01484Y00074*
X01478Y00075*
Y00075*
Y00075*
X01478Y00074*
X01478Y00073*
X01478Y00073*
X01477Y00072*
X01477Y00071*
X01476Y0007*
X01475Y00069*
X01475Y00069*
X01475Y00069*
X01474Y00068*
X01474Y00068*
X01473Y00068*
X01472Y00067*
X0147Y00067*
X01469Y00067*
X01468*
X01467Y00067*
X01466Y00067*
X01465Y00067*
X01464Y00068*
X01463Y00068*
X01462Y00069*
X01462Y00069*
X01462Y00069*
X01462Y00069*
X01461Y0007*
X01461Y00071*
X01461Y00071*
X0146Y00072*
X0146Y00073*
Y00073*
Y00073*
X0146Y00074*
X01461Y00074*
X01461Y00075*
X01461Y00075*
X01462Y00076*
X01462Y00076*
X01462Y00076*
X01462Y00076*
X01463Y00077*
X01463Y00077*
X01464Y00077*
X01465Y00077*
X01466Y00078*
X01467Y00078*
X01468Y00078*
X01469Y00078*
X01469*
X01469Y00078*
X01469Y00078*
X0147Y00079*
X0147Y00079*
X01471Y00079*
X01472Y00079*
X01474Y0008*
X01475Y0008*
X01477Y00081*
X01478Y00081*
X01478Y00081*
X01478Y00081*
X01479Y00082*
X01479Y00082*
X0148Y00082*
X0148Y00083*
X01481Y00083*
X01482Y00084*
X01482Y00085*
X01482Y00085*
X01482Y00085*
X01482Y00086*
X01483Y00086*
X01483Y00087*
X01483Y00088*
X01483Y00089*
X01483Y0009*
Y0009*
Y0009*
X01483Y00091*
X01483Y00091*
X01483Y00092*
X01483Y00093*
X01483Y00093*
X01482Y00094*
X01482Y00094*
X01482Y00095*
X01482Y00095*
X01481Y00095*
X01481Y00096*
X01481Y00096*
X0148Y00097*
X01479Y00098*
X01479Y00098*
X01479Y00098*
X01479Y00098*
X01478Y00098*
X01478Y00099*
X01477Y00099*
X01476Y00099*
X01475Y00099*
X01475*
X01475Y001*
X01474Y001*
X01474Y001*
X01473Y001*
X01472Y001*
X01471Y001*
G37*
G36*
X01144D02*
X01131D01*
X01144*
Y00062*
Y001*
G37*
G36*
X0113D02*
X01113D01*
X01129*
X01128Y001*
X01127Y001*
X01126Y001*
X01124Y001*
X01123Y00099*
X01122Y00099*
X01122*
X01122Y00099*
X01121Y00099*
X01121Y00098*
X0112Y00098*
X01119Y00098*
X01118Y00097*
X01118Y00096*
X01117Y00096*
X01117Y00095*
X01117Y00095*
X01116Y00095*
X01116Y00094*
X01116Y00093*
X01115Y00092*
X01115Y00091*
X01115Y0009*
X01121Y00089*
Y00089*
X01121Y0009*
X01121Y0009*
X01121Y00091*
X01122Y00092*
X01122Y00092*
X01123Y00093*
X01123Y00094*
X01123Y00094*
X01124Y00094*
X01124Y00094*
X01125Y00094*
X01126Y00095*
X01127Y00095*
X01128Y00095*
X01129Y00095*
X0113*
X0113Y00095*
X01131Y00095*
X01132Y00095*
X01133Y00095*
X01134Y00094*
X01135Y00094*
X01135Y00094*
X01135Y00094*
X01136Y00093*
X01136Y00093*
X01136Y00092*
X01137Y00092*
X01137Y00091*
X01137Y0009*
Y0009*
Y0009*
X01137Y0009*
Y0009*
X01137Y00089*
X01136Y00088*
X01136Y00088*
X01136Y00088*
X01136Y00088*
X01135Y00087*
X01135Y00087*
X01134Y00087*
X01134Y00087*
X01134*
X01134Y00087*
X01133Y00086*
X01133Y00086*
X01132Y00086*
X01131Y00086*
X0113Y00085*
X01129Y00085*
X01128Y00085*
X01128*
X01128Y00085*
X01128Y00085*
X01127Y00085*
X01127Y00085*
X01126Y00084*
X01125Y00084*
X01123Y00084*
X01122Y00083*
X0112Y00083*
X0112Y00082*
X01119Y00082*
X01119Y00082*
X01119Y00082*
X01118Y00082*
X01118Y00081*
X01117Y00081*
X01116Y0008*
X01116Y0008*
X01115Y00079*
X01115Y00079*
X01115Y00078*
X01114Y00078*
X01114Y00077*
X01114Y00077*
X01114Y00076*
X01113Y00075*
X01113Y00074*
Y00073*
X01113Y00072*
X01114Y00072*
X01114Y00071*
X01114Y0007*
X01115Y00069*
X01115Y00068*
X01115Y00068*
X01116Y00067*
X01116Y00067*
X01117Y00066*
X01117Y00065*
X01118Y00065*
X01119Y00064*
X01121Y00063*
X01121Y00063*
X01121Y00063*
X01122Y00063*
X01123Y00063*
X01124Y00062*
X01125Y00062*
X01127Y00062*
X01128Y00062*
X01129*
X01129Y00062*
X0113*
X01131Y00062*
X01132Y00062*
X01134Y00063*
X01136Y00063*
X01138Y00064*
X01138Y00064*
X01139Y00065*
X01139*
X01139Y00065*
X0114Y00065*
X0114Y00066*
X01141Y00067*
X01142Y00068*
X01143Y0007*
X01143Y00072*
X01144Y00074*
X01138Y00075*
Y00075*
Y00075*
X01138Y00074*
X01137Y00073*
X01137Y00073*
X01137Y00072*
X01136Y00071*
X01136Y0007*
X01135Y00069*
X01135Y00069*
X01134Y00069*
X01134Y00068*
X01133Y00068*
X01132Y00068*
X01131Y00067*
X0113Y00067*
X01128Y00067*
X01128*
X01127Y00067*
X01126Y00067*
X01125Y00067*
X01124Y00068*
X01123Y00068*
X01122Y00069*
X01122Y00069*
X01122Y00069*
X01121Y00069*
X01121Y0007*
X0112Y00071*
X0112Y00071*
X0112Y00072*
X0112Y00073*
Y00073*
Y00073*
X0112Y00074*
X0112Y00074*
X0112Y00075*
X01121Y00075*
X01121Y00076*
X01122Y00076*
X01122Y00076*
X01122Y00076*
X01122Y00077*
X01123Y00077*
X01124Y00077*
X01125Y00077*
X01126Y00078*
X01126Y00078*
X01127Y00078*
X01128Y00078*
X01128*
X01128Y00078*
X01129Y00078*
X01129Y00079*
X0113Y00079*
X0113Y00079*
X01132Y00079*
X01133Y0008*
X01135Y0008*
X01136Y00081*
X01137Y00081*
X01138Y00081*
X01138Y00081*
X01138Y00082*
X01138Y00082*
X01139Y00082*
X0114Y00083*
X0114Y00083*
X01141Y00084*
X01142Y00085*
X01142Y00085*
X01142Y00085*
X01142Y00086*
X01142Y00086*
X01142Y00087*
X01143Y00088*
X01143Y00089*
X01143Y0009*
Y0009*
Y0009*
X01143Y00091*
X01143Y00091*
X01143Y00092*
X01142Y00093*
X01142Y00093*
X01142Y00094*
X01142Y00094*
X01142Y00095*
X01141Y00095*
X01141Y00095*
X01141Y00096*
X0114Y00096*
X01139Y00097*
X01139Y00098*
X01139Y00098*
X01138Y00098*
X01138Y00098*
X01138Y00098*
X01137Y00099*
X01136Y00099*
X01136Y00099*
X01135Y00099*
X01135*
X01134Y001*
X01134Y001*
X01133Y001*
X01132Y001*
X01131Y001*
X0113Y001*
G37*
%LNpcb_awg-3*%
%LPD*%
G36*
X01036Y00102D02*
X01036Y00102D01*
X01037Y00102*
X01037Y00101*
X01038Y001*
X01039Y001*
X0104Y00099*
X01042Y00098*
X01042*
X01042Y00098*
X01042Y00098*
X01043Y00097*
X01044Y00097*
X01045Y00096*
X01046Y00096*
X01047Y00095*
X01048Y00095*
Y00063*
X01036*
Y00102*
X01036Y00102*
G37*
G36*
X01342Y00095D02*
X01343Y00095D01*
X01344Y00095*
X01345Y00094*
X01346Y00094*
X01347Y00093*
X01348Y00092*
X01348Y00092*
Y00092*
X01348Y00091*
X01348Y00091*
X01349Y00091*
X01349Y00091*
X01349Y0009*
X01349Y0009*
X0135Y00089*
X0135Y00088*
X0135Y00088*
X0135Y00087*
X01351Y00086*
X01351Y00084*
X01351Y00081*
Y00081*
Y00081*
Y00081*
Y0008*
X01351Y0008*
Y00079*
X01351Y00078*
X01351Y00076*
X0135Y00075*
X0135Y00073*
X0135Y00072*
X01349Y00072*
Y00072*
X01349Y00072*
X01349Y00071*
X01349Y00071*
X01348Y0007*
X01347Y00069*
X01346Y00069*
X01345Y00068*
X01344Y00068*
X01343Y00067*
X01342Y00067*
X01341Y00067*
X01341*
X01341Y00067*
X0134Y00067*
X01339Y00068*
X01338Y00068*
X01337Y00069*
X01336Y00069*
X01335Y0007*
X01334Y00071*
Y00071*
X01334Y00071*
X01334Y00071*
X01334Y00071*
X01334Y00072*
X01334Y00072*
X01333Y00073*
X01333Y00073*
X01333Y00074*
X01332Y00075*
X01332Y00076*
X01332Y00077*
X01332Y00078*
X01332Y00079*
X01331Y0008*
Y00081*
Y00081*
Y00081*
Y00082*
X01332Y00082*
Y00083*
X01332Y00084*
X01332Y00085*
X01332Y00087*
X01333Y00089*
X01333Y0009*
X01334Y00091*
X01334Y00092*
Y00092*
X01334Y00092*
X01335Y00092*
X01335Y00093*
X01336Y00094*
X01337Y00094*
X01338Y00095*
X0134Y00095*
X0134Y00095*
X01342*
X01342Y00095*
G37*
G36*
X00979Y00108D02*
X00979Y00108D01*
X0098Y00108*
X00981Y00107*
X00983Y00107*
X00984Y00106*
X00984Y00105*
X00985Y00105*
Y00105*
X00985Y00104*
X00985Y00104*
X00985Y00104*
X00985Y00103*
X00986Y00103*
X00986Y00102*
X00986Y00101*
X00987Y001*
X00987Y00099*
X00987Y00097*
X00987Y00096*
X00988Y00094*
X00988Y00092*
X00988Y0009*
Y00088*
Y00088*
Y00087*
Y00087*
X00988Y00086*
Y00085*
X00988Y00084*
X00988Y00082*
X00987Y00081*
X00987Y00078*
X00987Y00075*
X00986Y00074*
X00986Y00073*
X00985Y00072*
X00985Y00071*
Y00071*
X00985Y00071*
X00984Y00071*
X00984Y0007*
X00983Y00069*
X00982Y00068*
X00981Y00068*
X00979Y00067*
X00979Y00067*
X00978Y00067*
X00977*
X00977Y00067*
X00976Y00067*
X00975Y00068*
X00974Y00068*
X00973Y00069*
X00972Y00069*
X00972Y0007*
X00971Y0007*
X00971Y00071*
Y00071*
X0097Y00071*
X0097Y00072*
X0097Y00072*
X0097Y00072*
X0097Y00073*
X00969Y00074*
X00969Y00075*
X00969Y00076*
X00969Y00077*
X00968Y00078*
X00968Y0008*
X00968Y00082*
X00968Y00083*
X00968Y00086*
Y00088*
Y00088*
Y00088*
Y00089*
X00968Y0009*
Y00091*
X00968Y00092*
X00968Y00093*
X00968Y00094*
X00968Y00097*
X00969Y001*
X00969Y00101*
X0097Y00102*
X0097Y00103*
X00971Y00104*
Y00104*
X00971Y00104*
X00971Y00105*
X00972Y00106*
X00973Y00106*
X00974Y00107*
X00975Y00108*
X00976Y00108*
X00977Y00108*
X00978Y00108*
X00978*
X00979Y00108*
G37*
G36*
X00994Y00062D02*
X00978D01*
X00979Y00062*
X0098Y00062*
X0098Y00062*
X00981Y00062*
X00982Y00063*
X00984Y00063*
X00985Y00064*
X00986Y00064*
X00987Y00065*
X00988Y00065*
X00988Y00066*
X00989Y00067*
X00989Y00067*
X0099Y00067*
X0099Y00068*
X0099Y00068*
X0099Y00069*
X00991Y0007*
X00991Y00071*
X00992Y00072*
X00992Y00073*
X00993Y00075*
X00993Y00077*
X00993Y00079*
X00994Y00081*
X00994Y00083*
X00994Y00085*
X00994Y00088*
Y00062*
G37*
G36*
X02007Y00081D02*
X02007Y00081D01*
X02007Y00081*
X02008Y00081*
X02008Y00081*
X02009Y00081*
X02009Y0008*
X0201Y0008*
X02011Y0008*
X02012Y0008*
X02012Y0008*
X02013Y00079*
X02015Y00079*
X02016Y00079*
X02017Y00079*
X02017*
X02018Y00079*
X02018Y00079*
X02019Y00078*
X02021Y00078*
X02022Y00078*
X02022Y00078*
X02022*
X02023Y00077*
X02023Y00077*
X02023Y00077*
X02024Y00076*
X02025Y00076*
Y00075*
X02025Y00075*
X02025Y00075*
X02025Y00075*
X02025Y00074*
X02025Y00073*
X02026Y00073*
Y00073*
Y00072*
X02025Y00072*
X02025Y00071*
X02025Y00071*
X02025Y0007*
X02024Y00069*
X02024Y00068*
X02024Y00068*
X02023Y00068*
X02023Y00068*
X02022Y00068*
X02022Y00067*
X02021Y00067*
X0202Y00067*
X02018Y00067*
X02018*
X02017Y00067*
X02016Y00067*
X02015Y00067*
X02014Y00067*
X02013Y00068*
X02012Y00068*
X02012Y00068*
X02011Y00069*
X02011Y00069*
X0201Y0007*
X0201Y0007*
X02009Y00071*
X02008Y00072*
X02008Y00073*
X02008Y00073*
X02008Y00073*
X02007Y00074*
X02007Y00074*
X02007Y00075*
X02007Y00076*
X02007Y00077*
X02007Y00079*
Y00081*
X02007Y00081*
G37*
G36*
X01236D02*
X01236Y00081D01*
X01236Y00081*
X01236Y00081*
X01237Y00081*
X01237Y00081*
X01238Y0008*
X01239Y0008*
X01239Y0008*
X0124Y0008*
X01241Y0008*
X01242Y00079*
X01243Y00079*
X01244Y00079*
X01246Y00079*
X01246*
X01246Y00079*
X01247Y00079*
X01248Y00078*
X0125Y00078*
X0125Y00078*
X01251Y00078*
X01251*
X01251Y00077*
X01252Y00077*
X01252Y00077*
X01253Y00076*
X01253Y00076*
Y00075*
X01254Y00075*
X01254Y00075*
X01254Y00075*
X01254Y00074*
X01254Y00073*
X01254Y00073*
Y00073*
Y00072*
X01254Y00072*
X01254Y00071*
X01254Y00071*
X01253Y0007*
X01253Y00069*
X01252Y00068*
X01252Y00068*
X01252Y00068*
X01252Y00068*
X01251Y00068*
X0125Y00067*
X01249Y00067*
X01248Y00067*
X01247Y00067*
X01246*
X01246Y00067*
X01245Y00067*
X01244Y00067*
X01243Y00067*
X01242Y00068*
X01241Y00068*
X0124Y00068*
X0124Y00069*
X0124Y00069*
X01239Y0007*
X01238Y0007*
X01238Y00071*
X01237Y00072*
X01236Y00073*
X01236Y00073*
X01236Y00073*
X01236Y00074*
X01236Y00074*
X01236Y00075*
X01236Y00076*
X01236Y00077*
X01235Y00079*
Y00081*
X01236Y00081*
G37*
G36*
X01261Y00062D02*
X01249D01*
X01249Y00062*
X0125*
X01251Y00062*
X01252Y00062*
X01253Y00063*
X01255Y00063*
X01256Y00064*
X01258Y00065*
X01258Y00065*
X01258Y00065*
X01259Y00066*
X01259Y00067*
X0126Y00068*
X0126Y00069*
X01261Y00071*
X01261Y00072*
Y00062*
G37*
G36*
X01157Y00081D02*
X01158Y00081D01*
X01158Y00081*
X01158Y00081*
X01159Y00081*
X01159Y00081*
X0116Y0008*
X0116Y0008*
X01161Y0008*
X01162Y0008*
X01163Y0008*
X01164Y00079*
X01165Y00079*
X01166Y00079*
X01167Y00079*
X01167*
X01168Y00079*
X01169Y00079*
X01169Y00078*
X01171Y00078*
X01172Y00078*
X01173Y00078*
X01173*
X01173Y00077*
X01173Y00077*
X01174Y00077*
X01174Y00076*
X01175Y00076*
Y00075*
X01175Y00075*
X01175Y00075*
X01176Y00075*
X01176Y00074*
X01176Y00073*
X01176Y00073*
Y00073*
Y00072*
X01176Y00072*
X01176Y00071*
X01176Y00071*
X01175Y0007*
X01175Y00069*
X01174Y00068*
X01174Y00068*
X01174Y00068*
X01173Y00068*
X01173Y00068*
X01172Y00067*
X01171Y00067*
X0117Y00067*
X01169Y00067*
X01168*
X01167Y00067*
X01166Y00067*
X01166Y00067*
X01164Y00067*
X01163Y00068*
X01162Y00068*
X01162Y00068*
X01162Y00069*
X01161Y00069*
X01161Y0007*
X0116Y0007*
X01159Y00071*
X01159Y00072*
X01158Y00073*
X01158Y00073*
X01158Y00073*
X01158Y00074*
X01158Y00074*
X01157Y00075*
X01157Y00076*
X01157Y00077*
X01157Y00079*
Y00081*
X01157Y00081*
G37*
G36*
X01183Y00062D02*
X01171D01*
X01171Y00062*
X01172*
X01172Y00062*
X01174Y00062*
X01175Y00063*
X01177Y00063*
X01178Y00064*
X01179Y00065*
X0118Y00065*
X0118Y00065*
X0118Y00066*
X01181Y00067*
X01182Y00068*
X01182Y00069*
X01182Y00071*
X01183Y00072*
Y00062*
G37*
G36*
X01978Y00095D02*
X01979Y00095D01*
X0198Y00095*
X01981Y00094*
X01982Y00094*
X01983Y00093*
X01983Y00092*
X01984Y00092*
X01984Y00092*
X01984Y00091*
X01984Y00091*
X01985Y00091*
X01985Y0009*
X01985Y0009*
X01985Y00089*
X01986Y00088*
X01986Y00088*
X01986Y00087*
X01986Y00086*
X01987Y00085*
X01987Y00084*
X01987Y00082*
Y00081*
Y00081*
Y00081*
Y0008*
X01987Y0008*
Y00079*
X01987Y00079*
X01986Y00077*
X01986Y00075*
X01986Y00074*
X01985Y00072*
X01984Y00071*
X01984Y00071*
X01984Y0007*
X01983Y0007*
X01983Y00069*
X01982Y00069*
X01981Y00068*
X0198Y00068*
X01978Y00067*
X01978Y00067*
X01977Y00067*
X01976*
X01976Y00067*
X01975Y00067*
X01974Y00067*
X01973Y00068*
X01972Y00068*
X01971Y00069*
X01971Y0007*
X0197Y0007*
Y0007*
X0197Y00071*
X0197Y00071*
X0197Y00071*
X01969Y00071*
X01969Y00072*
X01969Y00072*
X01969Y00073*
X01968Y00074*
X01968Y00074*
X01968Y00075*
X01968Y00076*
X01967Y00077*
X01967Y00078*
X01967Y00079*
Y00081*
Y00081*
Y00081*
Y00081*
X01967Y00082*
Y00082*
X01967Y00083*
X01968Y00085*
X01968Y00087*
X01968Y00088*
X01969Y0009*
X0197Y00091*
X0197Y00092*
Y00092*
X0197Y00092*
X01971Y00092*
X01971Y00093*
X01972Y00093*
X01973Y00094*
X01974Y00095*
X01976Y00095*
X01976Y00095*
X01978*
X01978Y00095*
G37*
G36*
X01993Y00062D02*
X01978D01*
X01978Y00062*
X01979Y00062*
X0198Y00062*
X01981Y00063*
X01983Y00063*
X01984Y00064*
X01986Y00064*
X01986*
X01986Y00064*
X01986Y00065*
X01987Y00065*
X01988Y00066*
X01988Y00067*
X01989Y00068*
X0199Y0007*
X01991Y00071*
Y00071*
X01991Y00071*
X01991Y00072*
X01991Y00072*
X01992Y00072*
X01992Y00073*
X01992Y00074*
X01993Y00075*
X01993Y00077*
X01993Y00079*
X01993Y00081*
Y00062*
G37*
G36*
X01857Y00095D02*
X01857Y00095D01*
X01858Y00095*
X01859Y00094*
X0186Y00094*
X01862Y00093*
X01862Y00092*
X01863Y00092*
X01863Y00092*
X01863Y00091*
X01863Y00091*
X01863Y00091*
X01864Y0009*
X01864Y0009*
X01864Y00089*
X01864Y00088*
X01865Y00088*
X01865Y00087*
X01865Y00086*
X01865Y00085*
X01865Y00084*
X01865Y00082*
Y00081*
Y00081*
Y00081*
Y0008*
X01865Y0008*
Y00079*
X01865Y00079*
X01865Y00077*
X01865Y00075*
X01864Y00074*
X01864Y00072*
X01863Y00071*
X01863Y00071*
X01862Y0007*
X01862Y0007*
X01861Y00069*
X01861Y00069*
X0186Y00068*
X01858Y00068*
X01857Y00067*
X01856Y00067*
X01856Y00067*
X01855*
X01855Y00067*
X01854Y00067*
X01853Y00067*
X01852Y00068*
X01851Y00068*
X0185Y00069*
X01849Y0007*
X01849Y0007*
Y0007*
X01848Y00071*
X01848Y00071*
X01848Y00071*
X01848Y00071*
X01848Y00072*
X01847Y00072*
X01847Y00073*
X01847Y00074*
X01847Y00074*
X01846Y00075*
X01846Y00076*
X01846Y00077*
X01846Y00078*
X01846Y00079*
Y00081*
Y00081*
Y00081*
Y00081*
X01846Y00082*
Y00082*
X01846Y00083*
X01846Y00085*
X01846Y00087*
X01847Y00088*
X01848Y0009*
X01848Y00091*
X01849Y00092*
Y00092*
X01849Y00092*
X01849Y00092*
X0185Y00093*
X01851Y00093*
X01852Y00094*
X01853Y00095*
X01854Y00095*
X01855Y00095*
X01856*
X01857Y00095*
G37*
G36*
X01872Y00062D02*
X01857D01*
X01857Y00062*
X01858Y00062*
X01859Y00062*
X0186Y00063*
X01861Y00063*
X01863Y00064*
X01864Y00064*
X01864*
X01864Y00064*
X01865Y00065*
X01865Y00065*
X01866Y00066*
X01867Y00067*
X01868Y00068*
X01869Y0007*
X0187Y00071*
Y00071*
X0187Y00071*
X0187Y00072*
X0187Y00072*
X0187Y00072*
X0187Y00073*
X01871Y00074*
X01871Y00075*
X01872Y00077*
X01872Y00079*
X01872Y00081*
Y00062*
G37*
G36*
X01652D02*
X01636D01*
X01637Y00062*
X01637Y00062*
X01638Y00062*
X01639Y00062*
X0164Y00063*
X01642Y00063*
X01643Y00064*
X01644Y00064*
X01645Y00065*
X01646Y00065*
X01647Y00066*
X01648Y00067*
X01648Y00067*
X01648Y00067*
X01648Y00067*
X01648Y00068*
X01649Y00068*
X01649Y00069*
X01649Y0007*
X0165Y0007*
X0165Y00071*
X01651Y00072*
X01651Y00074*
X01651Y00075*
X01652Y00076*
X01652Y00078*
X01652Y00079*
X01652Y00081*
Y00062*
G37*
G36*
X02078Y00095D02*
X02079Y00095D01*
X0208Y00095*
X02081Y00095*
X02082Y00094*
X02084Y00093*
X02085Y00092*
X02085Y00092*
X02085Y00092*
X02086Y00091*
X02086Y0009*
X02087Y00089*
X02087Y00088*
X02088Y00086*
X02088Y00085*
X02068*
Y00085*
Y00085*
X02068Y00085*
Y00085*
X02068Y00086*
X02068Y00087*
X02068Y00088*
X02069Y00089*
X02069Y00091*
X0207Y00092*
Y00092*
X0207Y00092*
X0207Y00092*
X02071Y00093*
X02072Y00093*
X02073Y00094*
X02074Y00095*
X02076Y00095*
X02077Y00095*
X02078Y00095*
X02078*
X02078Y00095*
G37*
G36*
X02095Y00062D02*
X02078D01*
X02079Y00062*
X02079Y00062*
X0208Y00062*
X02081Y00062*
X02082Y00063*
X02084Y00063*
X02085Y00064*
X02086Y00064*
X02087Y00065*
X02088Y00065*
X02089Y00066*
X0209Y00067*
X0209Y00067*
X0209Y00067*
X0209Y00067*
X02091Y00068*
X02091Y00068*
X02091Y00069*
X02092Y0007*
X02092Y00071*
X02093Y00071*
X02093Y00072*
X02094Y00074*
X02094Y00075*
X02094Y00076*
X02094Y00078*
X02095Y00079*
X02095Y00081*
Y00062*
G37*
G36*
X01816Y00095D02*
X01817Y00095D01*
X01818Y00095*
X01819Y00094*
X0182Y00094*
X01821Y00093*
X01823Y00092*
X01823Y00092*
X01823Y00092*
X01824Y00091*
X01824Y0009*
X01825Y00089*
X01825Y00088*
X01826Y00086*
X01826Y00085*
X01805*
Y00085*
Y00085*
X01805Y00085*
Y00085*
X01806Y00086*
X01806Y00087*
X01806Y00088*
X01807Y00089*
X01807Y00091*
X01808Y00092*
Y00092*
X01808Y00092*
X01808Y00092*
X01809Y00093*
X0181Y00093*
X01811Y00094*
X01812Y00095*
X01814Y00095*
X01815Y00095*
X01815Y00095*
X01816*
X01816Y00095*
G37*
G36*
X01832Y00062D02*
X01816D01*
X01816Y00062*
X01817Y00062*
X01818Y00062*
X01819Y00062*
X0182Y00063*
X01822Y00063*
X01823Y00064*
X01824Y00064*
X01825Y00065*
X01826Y00065*
X01827Y00066*
X01828Y00067*
X01828Y00067*
X01828Y00067*
X01828Y00067*
X01828Y00068*
X01829Y00068*
X01829Y00069*
X0183Y0007*
X0183Y00071*
X0183Y00071*
X01831Y00072*
X01831Y00074*
X01832Y00075*
X01832Y00076*
X01832Y00078*
X01832Y00079*
X01832Y00081*
Y00062*
G37*
G36*
X01507Y00095D02*
X01508Y00095D01*
X01509Y00095*
X0151Y00094*
X01511Y00094*
X01512Y00093*
X01513Y00092*
X01513Y00092*
X01514Y00092*
X01514Y00091*
X01515Y0009*
X01515Y00089*
X01516Y00088*
X01516Y00086*
X01516Y00085*
X01496*
Y00085*
Y00085*
X01496Y00085*
Y00085*
X01496Y00086*
X01496Y00087*
X01497Y00088*
X01497Y00089*
X01498Y00091*
X01498Y00092*
Y00092*
X01498Y00092*
X01499Y00092*
X015Y00093*
X015Y00093*
X01502Y00094*
X01503Y00095*
X01504Y00095*
X01505Y00095*
X01506Y00095*
X01506*
X01507Y00095*
G37*
G36*
X01523Y00062D02*
X01506D01*
X01507Y00062*
X01508Y00062*
X01508Y00062*
X01509Y00062*
X0151Y00063*
X01512Y00063*
X01513Y00064*
X01514Y00064*
X01515Y00065*
X01516Y00065*
X01517Y00066*
X01518Y00067*
X01518Y00067*
X01519Y00067*
X01519Y00067*
X01519Y00068*
X01519Y00068*
X0152Y00069*
X0152Y0007*
X01521Y00071*
X01521Y00071*
X01522Y00072*
X01522Y00074*
X01522Y00075*
X01523Y00076*
X01523Y00078*
X01523Y00079*
X01523Y00081*
Y00062*
G37*
G36*
X01938Y00095D02*
X01939Y00095D01*
X0194Y00095*
X01941Y00094*
X01942Y00094*
X01943Y00093*
X01944Y00092*
X01945Y00092*
X01945Y00091*
X01945Y00091*
X01945Y00091*
X01945Y00091*
X01946Y0009*
X01946Y0009*
X01946Y00089*
X01946Y00088*
X01947Y00088*
X01947Y00087*
X01947Y00086*
X01947Y00085*
X01948Y00084*
X01948Y00082*
Y00081*
Y00081*
Y00081*
Y0008*
X01948Y0008*
Y00079*
X01948Y00079*
X01947Y00077*
X01947Y00075*
X01946Y00074*
X01946Y00072*
X01945Y00071*
X01945Y00071*
X01945Y0007*
X01944Y0007*
X01943Y00069*
X01943Y00069*
X01941Y00068*
X0194Y00068*
X01939Y00067*
X01938Y00067*
X01937Y00067*
X01936*
X01936Y00067*
X01935Y00067*
X01934Y00068*
X01933Y00068*
X01932Y00069*
X0193Y00069*
X0193Y0007*
X01929Y00071*
Y00071*
X01929Y00071*
X01929Y00071*
X01929Y00071*
X01929Y00072*
X01928Y00072*
X01928Y00073*
X01928Y00073*
X01927Y00074*
X01927Y00075*
X01927Y00076*
X01927Y00077*
X01926Y00078*
X01926Y00079*
X01926Y0008*
Y00081*
Y00081*
Y00082*
Y00082*
X01926Y00082*
Y00083*
X01926Y00084*
X01927Y00085*
X01927Y00087*
X01927Y00089*
X01928Y0009*
X01929Y00092*
Y00092*
X01929Y00092*
X0193Y00092*
X01931Y00093*
X01931Y00093*
X01933Y00094*
X01934Y00095*
X01935Y00095*
X01936Y00095*
X01937*
X01938Y00095*
G37*
G36*
X01585D02*
X01586Y00095D01*
X01587Y00095*
X01589Y00094*
X0159Y00094*
X01591Y00093*
X01592Y00092*
X01592Y00092*
X01592Y00091*
X01593Y00091*
X01593Y00091*
X01593Y00091*
X01593Y0009*
X01594Y0009*
X01594Y00089*
X01594Y00088*
X01594Y00088*
X01595Y00087*
X01595Y00086*
X01595Y00085*
X01595Y00084*
X01595Y00082*
Y00081*
Y00081*
Y00081*
Y0008*
X01595Y0008*
Y00079*
X01595Y00079*
X01595Y00077*
X01595Y00075*
X01594Y00074*
X01593Y00072*
X01593Y00071*
X01592Y00071*
X01592Y0007*
X01592Y0007*
X01591Y00069*
X0159Y00069*
X01589Y00068*
X01588Y00068*
X01586Y00067*
X01585Y00067*
X01585Y00067*
X01584*
X01584Y00067*
X01583Y00067*
X01582Y00068*
X01581Y00068*
X01579Y00069*
X01578Y00069*
X01578Y0007*
X01577Y00071*
Y00071*
X01577Y00071*
X01577Y00071*
X01576Y00071*
X01576Y00072*
X01576Y00072*
X01576Y00073*
X01575Y00073*
X01575Y00074*
X01575Y00075*
X01575Y00076*
X01574Y00077*
X01574Y00078*
X01574Y00079*
X01574Y0008*
Y00081*
Y00081*
Y00082*
Y00082*
X01574Y00082*
Y00083*
X01574Y00084*
X01574Y00085*
X01575Y00087*
X01575Y00089*
X01576Y0009*
X01577Y00092*
Y00092*
X01577Y00092*
X01578Y00092*
X01578Y00093*
X01579Y00093*
X0158Y00094*
X01582Y00095*
X01583Y00095*
X01584Y00095*
X01585*
X01585Y00095*
G37*
G36*
X01602Y00062D02*
X01585D01*
X01586Y00062*
X01587Y00062*
X01587Y00062*
X01588Y00062*
X01589Y00063*
X01591Y00063*
X01592Y00064*
X01593Y00064*
X01594Y00065*
X01595Y00065*
X01596Y00066*
X01597Y00067*
X01597Y00067*
X01597Y00067*
X01597Y00067*
X01598Y00068*
X01598Y00068*
X01598Y00069*
X01599Y0007*
X01599Y00071*
X016Y00072*
X016Y00073*
X01601Y00074*
X01601Y00075*
X01601Y00076*
X01601Y00078*
X01602Y00079*
X01602Y00081*
Y00062*
G37*
G36*
X01729D02*
X01717D01*
X01717Y00062*
X01718Y00062*
X01719Y00062*
X0172Y00063*
X01721Y00063*
X01722Y00063*
X01723Y00063*
X01723Y00063*
X01723Y00064*
X01724Y00064*
X01725Y00065*
X01725Y00065*
X01726Y00066*
X01727Y00066*
X01727Y00066*
X01727Y00067*
X01727Y00067*
X01727Y00068*
X01728Y00068*
X01728Y00069*
X01728Y0007*
X01728Y00071*
Y00071*
X01729Y00071*
Y00072*
X01729Y00072*
X01729Y00073*
Y00074*
X01729Y00075*
Y00062*
G37*
G36*
X02157Y00095D02*
X02158Y00095D01*
X02159Y00095*
X0216Y00095*
X02161Y00094*
X02162Y00093*
X02163Y00092*
X02163Y00092*
X02164Y00092*
X02164Y00091*
X02165Y0009*
X02165Y00089*
X02166Y00088*
X02166Y00086*
X02166Y00085*
X02146*
Y00085*
Y00085*
X02146Y00085*
Y00085*
X02146Y00086*
X02146Y00087*
X02147Y00088*
X02147Y00089*
X02148Y00091*
X02148Y00092*
Y00092*
X02148Y00092*
X02149Y00092*
X0215Y00093*
X0215Y00093*
X02152Y00094*
X02153Y00095*
X02154Y00095*
X02155Y00095*
X02156Y00095*
X02156*
X02157Y00095*
G37*
G36*
X01409Y00108D02*
X01409Y00108D01*
Y00108*
X01409Y00107*
X01409Y00107*
X01409Y00106*
X0141Y00105*
X0141Y00103*
X01411Y00102*
X01411Y001*
X01412Y00098*
X01417Y00084*
X014*
X01405Y00097*
Y00098*
X01405Y00098*
X01406Y00098*
X01406Y00099*
X01406Y00099*
X01406Y001*
X01407Y00101*
X01407Y00103*
X01408Y00105*
X01408Y00106*
X01409Y00108*
Y00108*
G37*
G54D10*
X03657Y02741D02*
X03665D01*
X03657Y02691D02*
X03665D01*
G54D17*
X03758Y02746D02*
Y02686D01*
X03788*
X03798Y02696*
Y02716*
X03788Y02726*
X03758*
X03778D02*
X03798Y02746D01*
X03858D02*
X03818D01*
X03858Y02706*
Y02696*
X03848Y02686*
X03828*
X03818Y02696*
X03918Y02686D02*
X03878D01*
Y02716*
X03898Y02706*
X03908*
X03918Y02716*
Y02736*
X03908Y02746*
X03888*
X03878Y02736*
M02*