%FSTAX23Y23*%
%MOIN*%
%SFA1B1*%

%IPPOS*%
%AMD42*
4,1,8,0.015700,0.043400,-0.015700,0.043400,-0.035500,0.023600,-0.035500,-0.023600,-0.015700,-0.043400,0.015700,-0.043400,0.035500,-0.023600,0.035500,0.023600,0.015700,0.043400,0.0*
1,1,0.039500,0.015700,0.023600*
1,1,0.039500,-0.015700,0.023600*
1,1,0.039500,-0.015700,-0.023600*
1,1,0.039500,0.015700,-0.023600*
%
%AMD46*
4,1,8,-0.043400,0.015700,-0.043400,-0.015700,-0.023600,-0.035500,0.023600,-0.035500,0.043400,-0.015700,0.043400,0.015700,0.023600,0.035500,-0.023600,0.035500,-0.043400,0.015700,0.0*
1,1,0.039500,-0.023600,0.015700*
1,1,0.039500,-0.023600,-0.015700*
1,1,0.039500,0.023600,-0.015700*
1,1,0.039500,0.023600,0.015700*
%
%AMD54*
4,1,8,-0.053200,0.024600,-0.053200,-0.024600,-0.024600,-0.053200,0.024600,-0.053200,0.053200,-0.024600,0.053200,0.024600,0.024600,0.053200,-0.024600,0.053200,-0.053200,0.024600,0.0*
1,1,0.057220,-0.024600,0.024600*
1,1,0.057220,-0.024600,-0.024600*
1,1,0.057220,0.024600,-0.024600*
1,1,0.057220,0.024600,0.024600*
%
%AMD57*
4,1,8,0.024600,0.053200,-0.024600,0.053200,-0.053200,0.024600,-0.053200,-0.024600,-0.024600,-0.053200,0.024600,-0.053200,0.053200,-0.024600,0.053200,0.024600,0.024600,0.053200,0.0*
1,1,0.057220,0.024600,0.024600*
1,1,0.057220,-0.024600,0.024600*
1,1,0.057220,-0.024600,-0.024600*
1,1,0.057220,0.024600,-0.024600*
%
%ADD21R,0.055240X0.065090*%
%ADD35C,0.086740*%
%ADD37R,0.066930X0.078740*%
%ADD38R,0.078740X0.078740*%
%ADD39R,0.059060X0.078740*%
%ADD40O,0.066930X0.078740*%
%ADD41O,0.059060X0.078740*%
G04~CAMADD=42~8~0.0~0.0~709.9~867.4~197.5~0.0~15~0.0~0.0~0.0~0.0~0~0.0~0.0~0.0~0.0~0~0.0~0.0~0.0~0.0~709.9~867.4*
%ADD42D42*%
%ADD43O,0.070990X0.086740*%
%ADD44O,0.078740X0.051180*%
%ADD45R,0.078740X0.059060*%
G04~CAMADD=46~8~0.0~0.0~709.9~867.4~197.5~0.0~15~0.0~0.0~0.0~0.0~0~0.0~0.0~0.0~0.0~0~0.0~0.0~0.0~90.0~868.0~711.0*
%ADD46D46*%
%ADD47O,0.086740X0.070990*%
%ADD48O,0.078740X0.059060*%
%ADD49O,0.078740X0.059060*%
%ADD50R,0.078740X0.059060*%
%ADD51C,0.078740*%
%ADD52O,0.051180X0.078740*%
%ADD53R,0.059060X0.078740*%
G04~CAMADD=54~8~0.0~0.0~1064.2~1064.2~286.1~0.0~15~0.0~0.0~0.0~0.0~0~0.0~0.0~0.0~0.0~0~0.0~0.0~0.0~90.0~1064.0~1064.0*
%ADD54D54*%
%ADD55C,0.106420*%
%ADD56C,0.165480*%
G04~CAMADD=57~8~0.0~0.0~1064.2~1064.2~286.1~0.0~15~0.0~0.0~0.0~0.0~0~0.0~0.0~0.0~0.0~0~0.0~0.0~0.0~0.0~1064.2~1064.2*
%ADD57D57*%
%ADD58C,0.035560*%
%ADD80R,0.067370X0.067370*%
%LNpcb_awg-1*%
%LPD*%
G54D21*
X03622Y02716D03*
X037D03*
G54D35*
X03631Y012D03*
Y01879D03*
X02391Y02411D03*
X03454Y03435D03*
X02194Y03356D03*
Y02414D03*
X02982Y02411D03*
X03336Y02414D03*
G54D37*
X02047Y0185D03*
X02746Y0371D03*
X01998D03*
X02322Y0185D03*
X02874D03*
G54D38*
X00137Y02116D03*
X00531Y01998D03*
Y01879D03*
Y01761D03*
Y03415D03*
Y03297D03*
Y03061D03*
X00137Y02824D03*
Y02588D03*
X00531Y03533D03*
Y03179D03*
Y02942D03*
Y02706D03*
Y0247D03*
X00137Y02352D03*
X00531Y02234D03*
X01771Y01023D03*
X02076Y00439D03*
X01358Y0043D03*
X00649D03*
X0062Y01269D03*
G54D39*
X03149Y01161D03*
X03307Y01594D03*
X03464Y01161D03*
X02677Y01545D03*
X02992D03*
G54D40*
X02522Y0185D03*
X02422D03*
X02198Y0371D03*
X02098D03*
X02946D03*
X02846D03*
X03074Y0185D03*
X02974D03*
G54D41*
X01847Y0185D03*
X01947D03*
G54D42*
X03257Y0371D03*
G54D43*
X03357Y0371D03*
X03457D03*
G54D44*
X02746Y02253D03*
X01919Y0249D03*
X01929Y03385D03*
G54D45*
X02746Y02175D03*
X01919Y02411D03*
X01929Y03307D03*
G54D46*
X00196Y00511D03*
Y01262D03*
G54D47*
X00196Y00611D03*
Y00711D03*
Y01162D03*
Y01062D03*
Y00962D03*
G54D48*
X02677Y01289D03*
X02992D03*
G54D49*
X02519Y01519D03*
Y01417D03*
X02819Y01314D03*
Y01417D03*
X00137Y03415D03*
Y01761D03*
Y01879D03*
Y01998D03*
X00531Y02116D03*
X00137Y02234D03*
X00531Y02352D03*
X00137Y0247D03*
Y02706D03*
Y02942D03*
Y03179D03*
Y03533D03*
X00531Y02588D03*
Y02824D03*
X00137Y03061D03*
Y03297D03*
G54D50*
X02519Y01314D03*
X02819Y01519D03*
G54D51*
X03464Y01594D03*
X03307Y01161D03*
X03149Y01594D03*
X01968Y01023D03*
X02332Y00262D03*
X02076D03*
X02332Y00439D03*
X01614Y00252D03*
X01358D03*
X01614Y0043D03*
X00905Y00252D03*
X00649D03*
X00905Y0043D03*
X00875Y01092D03*
X0062D03*
X00875Y01269D03*
G54D52*
X03375Y00994D03*
X03651D03*
Y00718D03*
X02627D03*
Y00994D03*
X03375Y00718D03*
G54D53*
X03454Y00994D03*
X0373D03*
Y00718D03*
X02706D03*
Y00994D03*
X03454Y00718D03*
G54D54*
X03718Y01437D03*
G54D55*
X03718Y01633D03*
X03346Y00303D03*
X03543D03*
X02874Y00275D03*
G54D56*
X03779Y00157D03*
Y03779D03*
X00157Y00157D03*
Y03779D03*
G54D57*
X03149Y00303D03*
X02677Y00275D03*
G54D58*
X03838Y02293D03*
X03699Y02134D03*
X03169Y02657D03*
X03469Y02795D03*
X03129Y02874D03*
X03031Y02893D03*
X02834Y02372D03*
X02893Y03218D03*
X02549D03*
X02578Y01643D03*
X02362Y02027D03*
X02194Y02175D03*
X02189Y02071D03*
X02051Y0209D03*
X02037Y01968D03*
X02667Y02972D03*
X00078Y00511D03*
X00944Y00807D03*
X00678Y03002D03*
X00639Y0308D03*
X00831Y01429D03*
X00881Y01649D03*
X006Y01004D03*
X03612Y0254D03*
X03661Y02421D03*
X037Y02785D03*
X02755Y02372D03*
X02933Y0249D03*
X02106Y01486D03*
X03799Y02007D03*
X01978Y03218D03*
X01791Y03149D03*
X02549Y0248D03*
X01141Y01122D03*
X01515Y0125D03*
X0133Y02511D03*
X02755Y0308D03*
X03262Y0309D03*
X02962Y03356D03*
X03248Y03238D03*
X02886Y03123D03*
X0245Y03336D03*
X02421Y03494D03*
X02892Y03037D03*
X0332Y03431D03*
X02643Y0343D03*
X03059Y03104D03*
X01414Y03789D03*
X01117Y01274D03*
X00725Y00865D03*
X03364Y0185D03*
X0337Y03123D03*
X01021Y00928D03*
X01819Y03421D03*
X018Y01946D03*
X00448Y01429D03*
X03065Y01115D03*
X01912Y03001D03*
X00346Y03507D03*
G54D80*
X00825Y03611D03*
Y03511D03*
Y03411D03*
Y03311D03*
Y03211D03*
Y03111D03*
Y03011D03*
Y02911D03*
Y02811D03*
Y02711D03*
Y02611D03*
Y02511D03*
Y02411D03*
Y02311D03*
Y02211D03*
Y02111D03*
Y02011D03*
Y01911D03*
Y01811D03*
Y01711D03*
X01525Y03611D03*
Y03511D03*
Y03411D03*
Y03311D03*
Y03211D03*
Y03111D03*
Y03011D03*
Y02911D03*
Y02811D03*
Y02711D03*
Y02611D03*
Y02511D03*
Y02411D03*
Y02311D03*
Y02211D03*
Y02111D03*
Y02011D03*
Y01911D03*
Y01811D03*
Y01711D03*
M02*