G04*
G04 #@! TF.GenerationSoftware,Altium Limited,Altium Designer,21.3.2 (30)*
G04*
G04 Layer_Color=16711935*
%FSLAX25Y25*%
%MOIN*%
G70*
G04*
G04 #@! TF.SameCoordinates,3938395F-A7AF-4B3E-ABAE-92C8EBC603DF*
G04*
G04*
G04 #@! TF.FilePolarity,Positive*
G04*
G01*
G75*
%ADD17C,0.01000*%
D17*
X377953Y0D02*
X378941Y31D01*
X379926Y124D01*
X380904Y279D01*
X381869Y495D01*
X382819Y771D01*
X383750Y1106D01*
X384658Y1499D01*
X385539Y1948D01*
X386391Y2451D01*
X387209Y3008D01*
X387991Y3614D01*
X388733Y4268D01*
X389433Y4968D01*
X390087Y5710D01*
X390693Y6492D01*
X391249Y7310D01*
X391753Y8161D01*
X392202Y9043D01*
X392595Y9951D01*
X392930Y10882D01*
X393206Y11832D01*
X393422Y12797D01*
X393577Y13774D01*
X393670Y14759D01*
X393701Y15748D01*
X15748Y393701D02*
X14759Y393670D01*
X13774Y393577D01*
X12797Y393422D01*
X11832Y393206D01*
X10881Y392930D01*
X9951Y392595D01*
X9043Y392202D01*
X8161Y391753D01*
X7310Y391249D01*
X6492Y390693D01*
X5710Y390087D01*
X4968Y389433D01*
X4268Y388733D01*
X3614Y387991D01*
X3008Y387209D01*
X2451Y386391D01*
X1948Y385540D01*
X1499Y384658D01*
X1106Y383750D01*
X771Y382819D01*
X495Y381869D01*
X279Y380904D01*
X124Y379927D01*
X31Y378942D01*
X-0Y377953D01*
X393701D02*
X393670Y378942D01*
X393577Y379927D01*
X393422Y380904D01*
X393206Y381869D01*
X392930Y382819D01*
X392595Y383750D01*
X392202Y384658D01*
X391753Y385540D01*
X391249Y386391D01*
X390693Y387209D01*
X390087Y387991D01*
X389433Y388733D01*
X388733Y389433D01*
X387991Y390087D01*
X387209Y390693D01*
X386391Y391249D01*
X385539Y391753D01*
X384658Y392202D01*
X383750Y392595D01*
X382819Y392930D01*
X381869Y393206D01*
X380904Y393422D01*
X379926Y393577D01*
X378942Y393670D01*
X377953Y393701D01*
X-0Y15748D02*
X31Y14759D01*
X124Y13774D01*
X279Y12797D01*
X495Y11832D01*
X771Y10882D01*
X1106Y9951D01*
X1499Y9043D01*
X1948Y8161D01*
X2451Y7310D01*
X3008Y6492D01*
X3614Y5710D01*
X4268Y4968D01*
X4968Y4268D01*
X5710Y3614D01*
X6492Y3008D01*
X7310Y2451D01*
X8161Y1948D01*
X9043Y1499D01*
X9951Y1106D01*
X10882Y771D01*
X11832Y495D01*
X12797Y279D01*
X13774Y124D01*
X14759Y31D01*
X15748Y-0D01*
X-0Y15748D02*
Y377953D01*
X15748Y393701D02*
X377953D01*
X393701Y15748D02*
Y377953D01*
X15712Y0D02*
X377953D01*
M02*
