G04*
G04 #@! TF.GenerationSoftware,Altium Limited,Altium Designer,21.3.2 (30)*
G04*
G04 Layer_Color=16711935*
%FSLAX25Y25*%
%MOIN*%
G70*
G04*
G04 #@! TF.SameCoordinates,3938395F-A7AF-4B3E-ABAE-92C8EBC603DF*
G04*
G04*
G04 #@! TF.FilePolarity,Negative*
G04*
G01*
G75*
%ADD21R,0.05524X0.06509*%
%ADD35C,0.08674*%
%ADD37R,0.06693X0.07874*%
%ADD38R,0.07874X0.07874*%
%ADD39R,0.05906X0.07874*%
%ADD40O,0.06693X0.07874*%
%ADD41O,0.05906X0.07874*%
G04:AMPARAMS|DCode=42|XSize=70.99mil|YSize=86.74mil|CornerRadius=19.75mil|HoleSize=0mil|Usage=FLASHONLY|Rotation=0.000|XOffset=0mil|YOffset=0mil|HoleType=Round|Shape=RoundedRectangle|*
%AMROUNDEDRECTD42*
21,1,0.07099,0.04724,0,0,0.0*
21,1,0.03150,0.08674,0,0,0.0*
1,1,0.03950,0.01575,-0.02362*
1,1,0.03950,-0.01575,-0.02362*
1,1,0.03950,-0.01575,0.02362*
1,1,0.03950,0.01575,0.02362*
%
%ADD42ROUNDEDRECTD42*%
%ADD43O,0.07099X0.08674*%
%ADD44O,0.07874X0.05118*%
%ADD45R,0.07874X0.05906*%
G04:AMPARAMS|DCode=46|XSize=70.99mil|YSize=86.74mil|CornerRadius=19.75mil|HoleSize=0mil|Usage=FLASHONLY|Rotation=90.000|XOffset=0mil|YOffset=0mil|HoleType=Round|Shape=RoundedRectangle|*
%AMROUNDEDRECTD46*
21,1,0.07099,0.04724,0,0,90.0*
21,1,0.03150,0.08674,0,0,90.0*
1,1,0.03950,0.02362,0.01575*
1,1,0.03950,0.02362,-0.01575*
1,1,0.03950,-0.02362,-0.01575*
1,1,0.03950,-0.02362,0.01575*
%
%ADD46ROUNDEDRECTD46*%
%ADD47O,0.08674X0.07099*%
%ADD48O,0.07874X0.05906*%
%ADD49O,0.07874X0.05906*%
%ADD50R,0.07874X0.05906*%
%ADD51C,0.07874*%
%ADD52O,0.05118X0.07874*%
%ADD53R,0.05906X0.07874*%
G04:AMPARAMS|DCode=54|XSize=106.42mil|YSize=106.42mil|CornerRadius=28.61mil|HoleSize=0mil|Usage=FLASHONLY|Rotation=90.000|XOffset=0mil|YOffset=0mil|HoleType=Round|Shape=RoundedRectangle|*
%AMROUNDEDRECTD54*
21,1,0.10642,0.04921,0,0,90.0*
21,1,0.04921,0.10642,0,0,90.0*
1,1,0.05721,0.02461,0.02461*
1,1,0.05721,0.02461,-0.02461*
1,1,0.05721,-0.02461,-0.02461*
1,1,0.05721,-0.02461,0.02461*
%
%ADD54ROUNDEDRECTD54*%
%ADD55C,0.10642*%
%ADD56C,0.16548*%
G04:AMPARAMS|DCode=57|XSize=106.42mil|YSize=106.42mil|CornerRadius=28.61mil|HoleSize=0mil|Usage=FLASHONLY|Rotation=0.000|XOffset=0mil|YOffset=0mil|HoleType=Round|Shape=RoundedRectangle|*
%AMROUNDEDRECTD57*
21,1,0.10642,0.04921,0,0,0.0*
21,1,0.04921,0.10642,0,0,0.0*
1,1,0.05721,0.02461,-0.02461*
1,1,0.05721,-0.02461,-0.02461*
1,1,0.05721,-0.02461,0.02461*
1,1,0.05721,0.02461,0.02461*
%
%ADD57ROUNDEDRECTD57*%
%ADD58C,0.03556*%
%ADD80R,0.06737X0.06737*%
D21*
X362205Y271653D02*
D03*
X370079D02*
D03*
D35*
X363189Y120079D02*
D03*
Y187992D02*
D03*
X239173Y241142D02*
D03*
X345472Y343504D02*
D03*
X219488Y335630D02*
D03*
Y241457D02*
D03*
X298228Y241142D02*
D03*
X333661Y241457D02*
D03*
D37*
X204724Y185039D02*
D03*
X274606Y371063D02*
D03*
X199803D02*
D03*
X232284Y185039D02*
D03*
X287402D02*
D03*
D38*
X13780Y211614D02*
D03*
X53149Y199803D02*
D03*
Y187992D02*
D03*
Y176181D02*
D03*
Y341535D02*
D03*
Y329724D02*
D03*
Y306102D02*
D03*
X13780Y282480D02*
D03*
Y258858D02*
D03*
X53149Y353346D02*
D03*
Y317913D02*
D03*
Y294291D02*
D03*
Y270669D02*
D03*
Y247047D02*
D03*
X13780Y235236D02*
D03*
X53149Y223425D02*
D03*
X177165Y102362D02*
D03*
X207677Y43996D02*
D03*
X135827Y43012D02*
D03*
X64961D02*
D03*
X62008Y126968D02*
D03*
D39*
X314961Y116142D02*
D03*
X330709Y159449D02*
D03*
X346457Y116142D02*
D03*
X267717Y154528D02*
D03*
X299213D02*
D03*
D40*
X252284Y185039D02*
D03*
X242284D02*
D03*
X219803Y371063D02*
D03*
X209803D02*
D03*
X294606D02*
D03*
X284606D02*
D03*
X307401Y185039D02*
D03*
X297401D02*
D03*
D41*
X184724D02*
D03*
X194724D02*
D03*
D42*
X325787Y371063D02*
D03*
D43*
X335787D02*
D03*
X345787D02*
D03*
D44*
X274606Y225394D02*
D03*
X191929Y249016D02*
D03*
X192913Y338583D02*
D03*
D45*
X274606Y217520D02*
D03*
X191929Y241142D02*
D03*
X192913Y330709D02*
D03*
D46*
X19685Y51181D02*
D03*
Y126299D02*
D03*
D47*
Y61181D02*
D03*
Y71181D02*
D03*
Y116299D02*
D03*
Y106299D02*
D03*
Y96299D02*
D03*
D48*
X267717Y128937D02*
D03*
X299213D02*
D03*
D49*
X251969Y151968D02*
D03*
Y141732D02*
D03*
X281969Y131496D02*
D03*
Y141732D02*
D03*
X13780Y341535D02*
D03*
Y176181D02*
D03*
Y187992D02*
D03*
Y199803D02*
D03*
X53149Y211614D02*
D03*
X13780Y223425D02*
D03*
X53149Y235236D02*
D03*
X13780Y247047D02*
D03*
Y270669D02*
D03*
Y294291D02*
D03*
Y317913D02*
D03*
Y353346D02*
D03*
X53149Y258858D02*
D03*
Y282480D02*
D03*
X13780Y306102D02*
D03*
Y329724D02*
D03*
D50*
X251969Y131496D02*
D03*
X281969Y151969D02*
D03*
D51*
X346457Y159449D02*
D03*
X330709Y116142D02*
D03*
X314961Y159449D02*
D03*
X196850Y102362D02*
D03*
X233268Y26279D02*
D03*
X207677D02*
D03*
X233268Y43996D02*
D03*
X161417Y25295D02*
D03*
X135827D02*
D03*
X161417Y43012D02*
D03*
X90551Y25295D02*
D03*
X64961D02*
D03*
X90551Y43012D02*
D03*
X87598Y109252D02*
D03*
X62008D02*
D03*
X87598Y126968D02*
D03*
D52*
X337598Y99409D02*
D03*
X365158D02*
D03*
Y71850D02*
D03*
X262795D02*
D03*
Y99409D02*
D03*
X337598Y71850D02*
D03*
D53*
X345473Y99409D02*
D03*
X373032D02*
D03*
Y71850D02*
D03*
X270669D02*
D03*
Y99409D02*
D03*
X345473Y71850D02*
D03*
D54*
X371850Y143701D02*
D03*
D55*
Y163386D02*
D03*
X334646Y30315D02*
D03*
X354330D02*
D03*
X287402Y27559D02*
D03*
D56*
X377953Y15748D02*
D03*
Y377953D02*
D03*
X15748Y15748D02*
D03*
X15748Y377953D02*
D03*
D57*
X314961Y30315D02*
D03*
X267717Y27559D02*
D03*
D58*
X383858Y229331D02*
D03*
X369974Y213489D02*
D03*
X316929Y265748D02*
D03*
X346941Y279528D02*
D03*
X312992Y287402D02*
D03*
X303110Y289331D02*
D03*
X283465Y237205D02*
D03*
X289370Y321850D02*
D03*
X254921D02*
D03*
X257874Y164370D02*
D03*
X236221Y202756D02*
D03*
X219488Y217520D02*
D03*
X218988Y207177D02*
D03*
X205118Y209085D02*
D03*
X203740Y196850D02*
D03*
X266732Y297244D02*
D03*
X7874Y51181D02*
D03*
X94488Y80709D02*
D03*
X67893Y300217D02*
D03*
X63976Y308071D02*
D03*
X83121Y142985D02*
D03*
X88135Y164907D02*
D03*
X60039Y100492D02*
D03*
X361221Y254035D02*
D03*
X366142Y242126D02*
D03*
X370079Y278543D02*
D03*
X275590Y237205D02*
D03*
X293307Y249016D02*
D03*
X210630Y148622D02*
D03*
X379921Y200787D02*
D03*
X197835Y321850D02*
D03*
X179134Y314961D02*
D03*
X254921Y248031D02*
D03*
X114173Y112205D02*
D03*
X151575Y125000D02*
D03*
X133091Y251142D02*
D03*
X275590Y308071D02*
D03*
X326272Y309055D02*
D03*
X296260Y335630D02*
D03*
X324803Y323819D02*
D03*
X288605Y312385D02*
D03*
X245079Y333661D02*
D03*
X242126Y349410D02*
D03*
X289290Y303785D02*
D03*
X332090Y343130D02*
D03*
X264390Y343085D02*
D03*
X305991Y310485D02*
D03*
X141491Y378985D02*
D03*
X111791Y127485D02*
D03*
X72591Y86585D02*
D03*
X336473Y185039D02*
D03*
X337090Y312385D02*
D03*
X102190Y92885D02*
D03*
X181991Y342185D02*
D03*
X180091Y194685D02*
D03*
X44891Y142985D02*
D03*
X306591Y111585D02*
D03*
X191240Y300185D02*
D03*
X34691Y350785D02*
D03*
D80*
X82559Y361142D02*
D03*
Y351142D02*
D03*
Y341142D02*
D03*
Y331142D02*
D03*
Y321142D02*
D03*
Y311142D02*
D03*
Y301142D02*
D03*
Y291142D02*
D03*
Y281142D02*
D03*
Y271142D02*
D03*
Y261142D02*
D03*
Y251142D02*
D03*
Y241142D02*
D03*
Y231142D02*
D03*
Y221142D02*
D03*
Y211142D02*
D03*
Y201142D02*
D03*
Y191142D02*
D03*
Y181142D02*
D03*
Y171142D02*
D03*
X152559Y361142D02*
D03*
Y351142D02*
D03*
Y341142D02*
D03*
Y331142D02*
D03*
Y321142D02*
D03*
Y311142D02*
D03*
Y301142D02*
D03*
Y291142D02*
D03*
Y281142D02*
D03*
Y271142D02*
D03*
Y261142D02*
D03*
Y251142D02*
D03*
Y241142D02*
D03*
Y231142D02*
D03*
Y221142D02*
D03*
Y211142D02*
D03*
Y201142D02*
D03*
Y191142D02*
D03*
Y181142D02*
D03*
Y171142D02*
D03*
M02*
