G04*
G04 #@! TF.GenerationSoftware,Altium Limited,Altium Designer,21.3.2 (30)*
G04*
G04 Layer_Color=32896*
%FSLAX25Y25*%
%MOIN*%
G70*
G04*
G04 #@! TF.SameCoordinates,3938395F-A7AF-4B3E-ABAE-92C8EBC603DF*
G04*
G04*
G04 #@! TF.FilePolarity,Positive*
G04*
G01*
G75*
%ADD10C,0.00787*%
%ADD17C,0.01000*%
G36*
X223425Y12942D02*
Y4775D01*
X95472D01*
Y12942D01*
X223425D01*
D02*
G37*
%LPC*%
G36*
X104871Y11404D02*
D01*
Y10137D01*
X104863D01*
X104848Y10145D01*
X104817Y10160D01*
X104786Y10183D01*
X104740Y10206D01*
X104687Y10229D01*
X104564Y10298D01*
X104426Y10383D01*
X104272Y10483D01*
X104118Y10598D01*
X103972Y10721D01*
X103965Y10728D01*
X103957Y10736D01*
X103911Y10782D01*
X103842Y10851D01*
X103757Y10936D01*
X103665Y11043D01*
X103573Y11158D01*
X103489Y11281D01*
X103419Y11404D01*
X103012D01*
Y6335D01*
X104871D01*
Y11404D01*
D02*
G37*
G36*
X130584Y11266D02*
D01*
Y9991D01*
X130123D01*
Y10890D01*
X129501Y11266D01*
Y9991D01*
X128879D01*
Y9507D01*
X129501D01*
Y7365D01*
Y7357D01*
Y7326D01*
Y7280D01*
X129493Y7226D01*
X129485Y7111D01*
X129478Y7065D01*
X129470Y7027D01*
X129462Y7011D01*
X129447Y6981D01*
X129416Y6942D01*
X129370Y6904D01*
X129355Y6896D01*
X129316Y6888D01*
X129247Y6873D01*
X129155Y6865D01*
X129078D01*
X129040Y6873D01*
X128994D01*
X128879Y6888D01*
X128794Y6343D01*
D01*
X128809D01*
X128840Y6335D01*
X128886Y6328D01*
X128955Y6320D01*
X129025Y6305D01*
X129101Y6297D01*
X129263Y6289D01*
X128794D01*
X129316D01*
X129378Y6297D01*
X129455Y6305D01*
X129539Y6312D01*
X129631Y6335D01*
X129716Y6358D01*
X129792Y6389D01*
X129800Y6397D01*
X129823Y6412D01*
X129854Y6435D01*
X129892Y6466D01*
X129938Y6504D01*
X129977Y6550D01*
X130023Y6604D01*
X130054Y6666D01*
Y6673D01*
X130061Y6704D01*
X130077Y6750D01*
X130084Y6827D01*
X130100Y6927D01*
X130107Y6981D01*
X130115Y7050D01*
Y7126D01*
X130123Y7211D01*
Y7303D01*
Y7403D01*
Y9507D01*
X130584D01*
Y6289D01*
D01*
D01*
Y11266D01*
D02*
G37*
G36*
X135722Y11381D02*
X132557D01*
X135099D01*
Y9584D01*
X135092Y9592D01*
X135084Y9607D01*
X135061Y9630D01*
X135030Y9661D01*
X134992Y9699D01*
X134946Y9738D01*
X134831Y9830D01*
X134692Y9922D01*
X134516Y9999D01*
X134423Y10029D01*
X134324Y10052D01*
X134216Y10068D01*
X134109Y10075D01*
X134047D01*
X133986Y10068D01*
X133901Y10060D01*
X133801Y10045D01*
X133694Y10014D01*
X133586Y9983D01*
X133471Y9937D01*
X133456Y9930D01*
X133417Y9914D01*
X133364Y9883D01*
X133295Y9837D01*
X133218Y9784D01*
X133141Y9715D01*
X133056Y9638D01*
X132980Y9553D01*
X132972Y9546D01*
X132949Y9507D01*
X132911Y9453D01*
X132864Y9384D01*
X132818Y9300D01*
X132765Y9200D01*
X132719Y9085D01*
X132673Y8954D01*
X132665Y8939D01*
X132657Y8893D01*
X132634Y8824D01*
X132611Y8732D01*
X132596Y8624D01*
X132573Y8501D01*
X132565Y8363D01*
X132557Y8217D01*
Y8125D01*
X132565Y8063D01*
X132573Y7979D01*
X132580Y7894D01*
X132596Y7787D01*
X132619Y7679D01*
X132673Y7449D01*
X132711Y7326D01*
X132757Y7203D01*
X132811Y7080D01*
X132872Y6965D01*
X132941Y6858D01*
X133026Y6758D01*
X133034Y6750D01*
X133049Y6735D01*
X133072Y6712D01*
X133110Y6681D01*
X133149Y6643D01*
X133202Y6596D01*
X133264Y6550D01*
X133341Y6504D01*
X133502Y6412D01*
X133686Y6328D01*
X133794Y6297D01*
X133901Y6274D01*
X134017Y6259D01*
X134139Y6251D01*
X134201D01*
X134247Y6259D01*
X134301Y6266D01*
X134362Y6282D01*
X134508Y6320D01*
X134585Y6343D01*
X134669Y6381D01*
X134754Y6427D01*
X134838Y6481D01*
X134915Y6543D01*
X135000Y6612D01*
X135076Y6696D01*
X135145Y6788D01*
Y6335D01*
X135722D01*
Y6251D01*
D01*
D01*
Y11381D01*
D02*
G37*
G36*
X168999Y10075D02*
D01*
Y9991D01*
X168438D01*
Y9469D01*
X168431Y9477D01*
X168423Y9492D01*
X168400Y9523D01*
X168361Y9561D01*
X168323Y9607D01*
X168269Y9661D01*
X168216Y9715D01*
X168146Y9776D01*
X168062Y9830D01*
X167977Y9883D01*
X167885Y9937D01*
X167778Y9983D01*
X167670Y10022D01*
X167547Y10052D01*
X167417Y10068D01*
X167279Y10075D01*
X168999D01*
X166027D01*
X167225D01*
X167156Y10068D01*
X167079Y10060D01*
X166987Y10045D01*
X166879Y10022D01*
X166779Y9991D01*
X166672Y9953D01*
X166656Y9945D01*
X166626Y9930D01*
X166580Y9907D01*
X166518Y9868D01*
X166449Y9822D01*
X166380Y9768D01*
X166311Y9707D01*
X166257Y9638D01*
X166250Y9630D01*
X166234Y9607D01*
X166211Y9561D01*
X166180Y9507D01*
X166150Y9446D01*
X166119Y9369D01*
X166088Y9277D01*
X166065Y9185D01*
Y9177D01*
X166058Y9154D01*
X166050Y9108D01*
X166042Y9046D01*
Y8962D01*
X166034Y8854D01*
X166027Y8732D01*
Y6335D01*
X166649D01*
Y8555D01*
Y8563D01*
Y8570D01*
Y8616D01*
Y8686D01*
X166656Y8770D01*
X166664Y8854D01*
X166680Y8954D01*
X166703Y9039D01*
X166726Y9116D01*
Y9123D01*
X166741Y9146D01*
X166756Y9185D01*
X166779Y9223D01*
X166818Y9277D01*
X166864Y9323D01*
X166918Y9377D01*
X166979Y9423D01*
X166987Y9430D01*
X167010Y9438D01*
X167048Y9461D01*
X167102Y9484D01*
X167163Y9499D01*
X167240Y9523D01*
X167317Y9530D01*
X167409Y9538D01*
X167478D01*
X167547Y9523D01*
X167647Y9507D01*
X167755Y9477D01*
X167862Y9430D01*
X167985Y9369D01*
X168093Y9285D01*
X168108Y9269D01*
X168139Y9231D01*
X168185Y9169D01*
X168208Y9123D01*
X168231Y9070D01*
X168262Y9008D01*
X168285Y8939D01*
X168308Y8862D01*
X168331Y8778D01*
X168354Y8678D01*
X168361Y8570D01*
X168377Y8455D01*
Y8332D01*
Y6335D01*
X168999D01*
Y10075D01*
D02*
G37*
G36*
X156073D02*
D01*
Y9991D01*
X155513D01*
Y9469D01*
X155505Y9477D01*
X155498Y9492D01*
X155474Y9523D01*
X155436Y9561D01*
X155398Y9607D01*
X155344Y9661D01*
X155290Y9715D01*
X155221Y9776D01*
X155137Y9830D01*
X155052Y9883D01*
X154960Y9937D01*
X154852Y9983D01*
X154745Y10022D01*
X154622Y10052D01*
X154491Y10068D01*
X154353Y10075D01*
X156073D01*
X153101D01*
X154299D01*
X154230Y10068D01*
X154154Y10060D01*
X154061Y10045D01*
X153954Y10022D01*
X153854Y9991D01*
X153746Y9953D01*
X153731Y9945D01*
X153700Y9930D01*
X153654Y9907D01*
X153593Y9868D01*
X153524Y9822D01*
X153455Y9768D01*
X153385Y9707D01*
X153332Y9638D01*
X153324Y9630D01*
X153309Y9607D01*
X153286Y9561D01*
X153255Y9507D01*
X153224Y9446D01*
X153193Y9369D01*
X153163Y9277D01*
X153140Y9185D01*
Y9177D01*
X153132Y9154D01*
X153124Y9108D01*
X153117Y9046D01*
Y8962D01*
X153109Y8854D01*
X153101Y8732D01*
Y6335D01*
X153723D01*
Y8555D01*
Y8563D01*
Y8570D01*
Y8616D01*
Y8686D01*
X153731Y8770D01*
X153739Y8854D01*
X153754Y8954D01*
X153777Y9039D01*
X153800Y9116D01*
Y9123D01*
X153815Y9146D01*
X153831Y9185D01*
X153854Y9223D01*
X153892Y9277D01*
X153938Y9323D01*
X153992Y9377D01*
X154054Y9423D01*
X154061Y9430D01*
X154084Y9438D01*
X154123Y9461D01*
X154176Y9484D01*
X154238Y9499D01*
X154315Y9523D01*
X154392Y9530D01*
X154484Y9538D01*
X154553D01*
X154622Y9523D01*
X154722Y9507D01*
X154829Y9477D01*
X154937Y9430D01*
X155060Y9369D01*
X155167Y9285D01*
X155183Y9269D01*
X155213Y9231D01*
X155259Y9169D01*
X155282Y9123D01*
X155306Y9070D01*
X155336Y9008D01*
X155359Y8939D01*
X155382Y8862D01*
X155405Y8778D01*
X155428Y8678D01*
X155436Y8570D01*
X155451Y8455D01*
Y8332D01*
Y6335D01*
X156073D01*
Y10075D01*
D02*
G37*
G36*
X205402Y10075D02*
D01*
Y9991D01*
X204841D01*
Y9446D01*
X204834Y9454D01*
X204803Y9500D01*
X204765Y9569D01*
X204719Y9646D01*
X204657Y9730D01*
X204588Y9814D01*
X204527Y9891D01*
X204457Y9945D01*
X204450Y9953D01*
X204427Y9968D01*
X204388Y9983D01*
X204335Y10014D01*
X204281Y10037D01*
X204212Y10052D01*
X204135Y10068D01*
X204058Y10075D01*
X205402D01*
X204004D01*
X203943Y10068D01*
X203858Y10052D01*
X203766Y10022D01*
X203659Y9991D01*
X203543Y9937D01*
X203421Y9868D01*
D01*
X203643Y9300D01*
X203651Y9308D01*
X203682Y9323D01*
X203728Y9346D01*
X203782Y9369D01*
X203851Y9392D01*
X203927Y9415D01*
X204012Y9430D01*
X204097Y9438D01*
X204127D01*
X204166Y9430D01*
X204219Y9423D01*
X204273Y9407D01*
X204335Y9384D01*
X204396Y9354D01*
X204457Y9315D01*
X204465Y9308D01*
X204481Y9292D01*
X204511Y9262D01*
X204542Y9223D01*
X204580Y9177D01*
X204619Y9116D01*
X204649Y9046D01*
X204680Y8970D01*
X204688Y8954D01*
X204696Y8916D01*
X204711Y8847D01*
X204726Y8755D01*
X204749Y8647D01*
X204765Y8524D01*
X204772Y8394D01*
X204780Y8248D01*
Y6335D01*
X205402D01*
Y10075D01*
D02*
G37*
G36*
X191309Y10075D02*
D01*
Y9991D01*
X190749D01*
Y9446D01*
X190741Y9454D01*
X190710Y9499D01*
X190672Y9569D01*
X190626Y9646D01*
X190564Y9730D01*
X190495Y9814D01*
X190434Y9891D01*
X190365Y9945D01*
X190357Y9953D01*
X190334Y9968D01*
X190296Y9983D01*
X190242Y10014D01*
X190188Y10037D01*
X190119Y10052D01*
X190042Y10068D01*
X189965Y10075D01*
X191309D01*
X189911D01*
X189850Y10068D01*
X189766Y10052D01*
X189673Y10022D01*
X189566Y9991D01*
X189451Y9937D01*
X189328Y9868D01*
D01*
X189551Y9300D01*
X189558Y9307D01*
X189589Y9323D01*
X189635Y9346D01*
X189689Y9369D01*
X189758Y9392D01*
X189835Y9415D01*
X189919Y9430D01*
X190004Y9438D01*
X190034D01*
X190073Y9430D01*
X190127Y9423D01*
X190180Y9407D01*
X190242Y9384D01*
X190303Y9354D01*
X190365Y9315D01*
X190372Y9307D01*
X190388Y9292D01*
X190418Y9262D01*
X190449Y9223D01*
X190488Y9177D01*
X190526Y9116D01*
X190557Y9046D01*
X190587Y8970D01*
X190595Y8954D01*
X190603Y8916D01*
X190618Y8847D01*
X190633Y8755D01*
X190656Y8647D01*
X190672Y8524D01*
X190680Y8394D01*
X190687Y8248D01*
Y6335D01*
X191309D01*
Y10075D01*
D02*
G37*
G36*
X138056D02*
D01*
Y9991D01*
X137496Y9991D01*
Y9446D01*
X137488Y9453D01*
X137457Y9499D01*
X137419Y9569D01*
X137373Y9645D01*
X137311Y9730D01*
X137242Y9814D01*
X137181Y9891D01*
X137111Y9945D01*
X137104Y9953D01*
X137081Y9968D01*
X137042Y9983D01*
X136989Y10014D01*
X136935Y10037D01*
X136866Y10052D01*
X136789Y10068D01*
X136712Y10075D01*
X138056Y10075D01*
X136658Y10075D01*
X136597Y10068D01*
X136512Y10052D01*
X136420Y10022D01*
X136313Y9991D01*
X136198Y9937D01*
X136075Y9868D01*
D01*
X136298Y9300D01*
X136305Y9307D01*
X136336Y9323D01*
X136382Y9346D01*
X136436Y9369D01*
X136505Y9392D01*
X136582Y9415D01*
X136666Y9430D01*
X136751Y9438D01*
X136781D01*
X136820Y9430D01*
X136873Y9423D01*
X136927Y9407D01*
X136989Y9384D01*
X137050Y9354D01*
X137111Y9315D01*
X137119Y9307D01*
X137135Y9292D01*
X137165Y9262D01*
X137196Y9223D01*
X137234Y9177D01*
X137273Y9116D01*
X137303Y9046D01*
X137334Y8970D01*
X137342Y8954D01*
X137350Y8916D01*
X137365Y8847D01*
X137380Y8755D01*
X137403Y8647D01*
X137419Y8524D01*
X137426Y8394D01*
X137434Y8248D01*
Y6335D01*
X138056Y6335D01*
Y10075D01*
D02*
G37*
G36*
X128272Y10075D02*
D01*
Y9991D01*
X127711D01*
Y9446D01*
X127703Y9453D01*
X127673Y9499D01*
X127634Y9569D01*
X127588Y9645D01*
X127527Y9730D01*
X127458Y9814D01*
X127396Y9891D01*
X127327Y9945D01*
X127320Y9953D01*
X127296Y9968D01*
X127258Y9983D01*
X127204Y10014D01*
X127151Y10037D01*
X127082Y10052D01*
X127005Y10068D01*
X126928Y10075D01*
X126874D01*
X126813Y10068D01*
X126728Y10052D01*
X126636Y10022D01*
X126529Y9991D01*
X126413Y9937D01*
X126290Y9868D01*
D01*
X126513Y9300D01*
X126521Y9307D01*
X126551Y9323D01*
X126598Y9346D01*
X126651Y9369D01*
X126720Y9392D01*
X126797Y9415D01*
X126882Y9430D01*
X126966Y9438D01*
X126997D01*
X127035Y9430D01*
X127089Y9423D01*
X127143Y9407D01*
X127204Y9384D01*
X127266Y9354D01*
X127327Y9315D01*
X127335Y9307D01*
X127350Y9292D01*
X127381Y9262D01*
X127412Y9223D01*
X127450Y9177D01*
X127489Y9116D01*
X127519Y9046D01*
X127550Y8970D01*
X127558Y8954D01*
X127565Y8916D01*
X127581Y8847D01*
X127596Y8755D01*
X127619Y8647D01*
X127634Y8524D01*
X127642Y8394D01*
X127650Y8248D01*
Y6335D01*
X126290D01*
X128272D01*
Y10075D01*
D02*
G37*
G36*
X122013D02*
D01*
Y9991D01*
X121452D01*
Y9446D01*
X121444Y9453D01*
X121414Y9499D01*
X121375Y9569D01*
X121329Y9645D01*
X121268Y9730D01*
X121199Y9814D01*
X121137Y9891D01*
X121068Y9945D01*
X121060Y9953D01*
X121037Y9968D01*
X120999Y9983D01*
X120945Y10014D01*
X120891Y10037D01*
X120822Y10052D01*
X120746Y10068D01*
X120669Y10075D01*
X122013D01*
X120031D01*
D01*
X120615D01*
X120554Y10068D01*
X120469Y10052D01*
X120377Y10022D01*
X120269Y9991D01*
X120154Y9937D01*
X120031Y9868D01*
D01*
X120254Y9300D01*
X120262Y9307D01*
X120292Y9323D01*
X120338Y9346D01*
X120392Y9369D01*
X120461Y9392D01*
X120538Y9415D01*
X120623Y9430D01*
X120707Y9438D01*
X120738D01*
X120776Y9430D01*
X120830Y9423D01*
X120884Y9407D01*
X120945Y9384D01*
X121007Y9354D01*
X121068Y9315D01*
X121076Y9307D01*
X121091Y9292D01*
X121122Y9262D01*
X121152Y9223D01*
X121191Y9177D01*
X121229Y9116D01*
X121260Y9046D01*
X121291Y8970D01*
X121298Y8954D01*
X121306Y8916D01*
X121321Y8847D01*
X121337Y8755D01*
X121360Y8647D01*
X121375Y8524D01*
X121383Y8394D01*
X121391Y8248D01*
Y6335D01*
X122013D01*
Y10075D01*
D02*
G37*
G36*
X99472Y11404D02*
D01*
Y8970D01*
X99464Y9046D01*
Y9131D01*
X99457Y9231D01*
X99449Y9338D01*
X99426Y9569D01*
X99395Y9807D01*
X99357Y10045D01*
X99326Y10152D01*
X99295Y10260D01*
Y10267D01*
X99287Y10283D01*
X99272Y10314D01*
X99257Y10352D01*
X99242Y10398D01*
X99218Y10452D01*
X99157Y10575D01*
X99080Y10713D01*
X98988Y10851D01*
X98880Y10982D01*
X98750Y11105D01*
X98742D01*
X98735Y11120D01*
X98712Y11135D01*
X98681Y11151D01*
X98604Y11197D01*
X98497Y11258D01*
X98366Y11312D01*
X98205Y11358D01*
X98028Y11389D01*
X97828Y11404D01*
X96185D01*
X97759D01*
X97682Y11396D01*
X97590Y11381D01*
X97483Y11366D01*
X97360Y11335D01*
X97237Y11289D01*
X97122Y11235D01*
X97106Y11227D01*
X97068Y11204D01*
X97014Y11166D01*
X96938Y11120D01*
X96861Y11051D01*
X96776Y10966D01*
X96692Y10874D01*
X96615Y10767D01*
X96607Y10751D01*
X96584Y10713D01*
X96546Y10644D01*
X96500Y10559D01*
X96454Y10452D01*
X96400Y10321D01*
X96346Y10175D01*
X96300Y10014D01*
Y10006D01*
X96292Y9991D01*
Y9968D01*
X96285Y9930D01*
X96269Y9891D01*
X96262Y9837D01*
X96254Y9768D01*
X96239Y9699D01*
X96231Y9615D01*
X96223Y9530D01*
X96208Y9430D01*
X96200Y9323D01*
X96193Y9208D01*
Y9093D01*
X96185Y8824D01*
Y8678D01*
X96193Y8601D01*
Y8517D01*
X96200Y8417D01*
X96208Y8309D01*
X96231Y8079D01*
X96262Y7841D01*
X96308Y7603D01*
X96338Y7495D01*
X96369Y7388D01*
Y7380D01*
X96377Y7365D01*
X96385Y7334D01*
X96400Y7295D01*
X96423Y7249D01*
X96446Y7203D01*
X96507Y7080D01*
X96584Y6942D01*
X96676Y6804D01*
X96784Y6666D01*
X96914Y6543D01*
X96922D01*
X96930Y6527D01*
X96953Y6520D01*
X96976Y6497D01*
X97060Y6451D01*
X97160Y6397D01*
X97298Y6343D01*
X97452Y6297D01*
X97629Y6266D01*
X97828Y6251D01*
X96185D01*
X99472D01*
Y11404D01*
D02*
G37*
G36*
X222713Y11466D02*
Y8901D01*
X222705Y8954D01*
Y9023D01*
X222697Y9100D01*
X222690Y9185D01*
X222674Y9277D01*
X222636Y9492D01*
X222582Y9722D01*
X222505Y9968D01*
X222406Y10206D01*
Y10214D01*
X222390Y10237D01*
X222375Y10267D01*
X222352Y10314D01*
X222313Y10367D01*
X222275Y10421D01*
X222183Y10567D01*
X222052Y10721D01*
X221906Y10874D01*
X221722Y11020D01*
X221630Y11089D01*
X221522Y11151D01*
X221515D01*
X221499Y11166D01*
X221461Y11181D01*
X221423Y11197D01*
X221369Y11227D01*
X221300Y11251D01*
X221223Y11281D01*
X221138Y11312D01*
X221046Y11335D01*
X220946Y11366D01*
X220716Y11419D01*
X220470Y11450D01*
X220194Y11466D01*
X220102D01*
X220056Y11458D01*
X219994D01*
X219864Y11443D01*
X219718Y11419D01*
X219549Y11389D01*
X219380Y11343D01*
X219211Y11281D01*
X219203D01*
X219188Y11274D01*
X219165Y11266D01*
X219134Y11251D01*
X219057Y11212D01*
X218957Y11151D01*
X218842Y11082D01*
X218727Y10997D01*
X218612Y10905D01*
X218512Y10790D01*
X218504Y10774D01*
X218474Y10736D01*
X218427Y10667D01*
X218366Y10567D01*
X218304Y10452D01*
X218243Y10314D01*
X218182Y10152D01*
X218128Y9968D01*
X218735Y9799D01*
Y9807D01*
X218742Y9814D01*
X218750Y9860D01*
X218781Y9930D01*
X218811Y10022D01*
X218850Y10114D01*
X218896Y10214D01*
X218950Y10314D01*
X219011Y10406D01*
X219019Y10413D01*
X219042Y10444D01*
X219080Y10483D01*
X219134Y10536D01*
X219203Y10590D01*
X219287Y10652D01*
X219380Y10705D01*
X219495Y10759D01*
X219510Y10767D01*
X219549Y10782D01*
X219618Y10805D01*
X219702Y10828D01*
X219802Y10851D01*
X219917Y10874D01*
X220048Y10890D01*
X220186Y10897D01*
X220263D01*
X220347Y10890D01*
X220455Y10882D01*
X220578Y10859D01*
X220716Y10836D01*
X220847Y10797D01*
X220977Y10751D01*
X220992Y10744D01*
X221031Y10728D01*
X221092Y10698D01*
X221169Y10652D01*
X221254Y10598D01*
X221346Y10536D01*
X221430Y10467D01*
X221515Y10383D01*
X221522Y10375D01*
X221546Y10344D01*
X221584Y10298D01*
X221630Y10237D01*
X221684Y10160D01*
X221738Y10075D01*
X221783Y9983D01*
X221830Y9883D01*
Y9876D01*
X221837Y9860D01*
X221845Y9838D01*
X221860Y9799D01*
X221876Y9761D01*
X221891Y9707D01*
X221922Y9584D01*
X221960Y9430D01*
X221991Y9262D01*
X222014Y9070D01*
X222022Y8870D01*
Y8862D01*
Y8839D01*
Y8808D01*
X222014Y8755D01*
Y8701D01*
X222006Y8632D01*
X221999Y8555D01*
X221991Y8478D01*
X221968Y8294D01*
X221922Y8102D01*
X221868Y7918D01*
X221791Y7733D01*
Y7726D01*
X221783Y7710D01*
X221768Y7687D01*
X221745Y7656D01*
X221691Y7580D01*
X221622Y7480D01*
X221530Y7372D01*
X221415Y7257D01*
X221277Y7149D01*
X221123Y7057D01*
X221115D01*
X221100Y7050D01*
X221077Y7034D01*
X221046Y7027D01*
X221008Y7011D01*
X220954Y6988D01*
X220839Y6950D01*
X220693Y6911D01*
X220539Y6873D01*
X220363Y6850D01*
X220178Y6842D01*
X220102D01*
X220017Y6850D01*
X219910Y6865D01*
X219787Y6881D01*
X219641Y6911D01*
X219487Y6950D01*
X219334Y7004D01*
X219326D01*
X219318Y7011D01*
X219295Y7019D01*
X219265Y7034D01*
X219188Y7065D01*
X219095Y7111D01*
X218996Y7165D01*
X218896Y7226D01*
X218796Y7295D01*
X218704Y7365D01*
Y8317D01*
X220186D01*
Y8908D01*
X218051D01*
Y7034D01*
X218059Y7027D01*
X218074Y7019D01*
X218097Y6996D01*
X218135Y6973D01*
X218182Y6934D01*
X218235Y6904D01*
X218366Y6812D01*
X218519Y6719D01*
X218689Y6620D01*
X218881Y6527D01*
X219073Y6443D01*
X219080D01*
X219095Y6435D01*
X219126Y6427D01*
X219165Y6412D01*
X219211Y6397D01*
X219265Y6381D01*
X219334Y6366D01*
X219403Y6351D01*
X219564Y6312D01*
X219741Y6282D01*
X219940Y6259D01*
X220140Y6251D01*
X220209D01*
X220263Y6259D01*
X220332D01*
X220409Y6266D01*
X220493Y6274D01*
X220585Y6289D01*
X220800Y6328D01*
X221023Y6381D01*
X221261Y6458D01*
X221492Y6566D01*
X221499Y6573D01*
X221515Y6581D01*
X221553Y6596D01*
X221591Y6627D01*
X221645Y6658D01*
X221699Y6696D01*
X221830Y6796D01*
X221983Y6927D01*
X222129Y7088D01*
X222275Y7272D01*
X222406Y7480D01*
Y7487D01*
X222421Y7510D01*
X222436Y7541D01*
X222452Y7587D01*
X222475Y7641D01*
X222505Y7710D01*
X222529Y7787D01*
X222559Y7879D01*
X222590Y7971D01*
X222613Y8079D01*
X222667Y8309D01*
X222697Y8563D01*
X222713Y8831D01*
Y6266D01*
Y11466D01*
D02*
G37*
G36*
X203267Y10075D02*
D01*
Y7342D01*
X203259Y7395D01*
X203252Y7457D01*
X203236Y7534D01*
X203221Y7618D01*
X203190Y7702D01*
X203152Y7787D01*
X203144Y7795D01*
X203129Y7825D01*
X203106Y7864D01*
X203067Y7918D01*
X203021Y7971D01*
X202960Y8033D01*
X202898Y8086D01*
X202829Y8140D01*
X202822Y8148D01*
X202791Y8163D01*
X202752Y8186D01*
X202699Y8217D01*
X202630Y8255D01*
X202560Y8286D01*
X202476Y8317D01*
X202384Y8348D01*
X202376D01*
X202345Y8355D01*
X202307Y8363D01*
X202246Y8378D01*
X202169Y8394D01*
X202069Y8409D01*
X201961Y8424D01*
X201831Y8440D01*
X201823D01*
X201800Y8447D01*
X201762D01*
X201708Y8455D01*
X201647Y8463D01*
X201577Y8470D01*
X201409Y8501D01*
X201232Y8532D01*
X201047Y8563D01*
X200871Y8609D01*
X200794Y8632D01*
X200725Y8655D01*
Y8662D01*
Y8678D01*
X200717Y8724D01*
Y8778D01*
Y8801D01*
Y8816D01*
Y8824D01*
Y8831D01*
Y8878D01*
X200725Y8947D01*
X200740Y9023D01*
X200763Y9108D01*
X200794Y9200D01*
X200833Y9277D01*
X200894Y9346D01*
X200902Y9354D01*
X200940Y9377D01*
X200994Y9415D01*
X201071Y9454D01*
X201170Y9492D01*
X201293Y9530D01*
X201439Y9553D01*
X201601Y9561D01*
X201670D01*
X201746Y9553D01*
X201846Y9546D01*
X201954Y9523D01*
X202054Y9500D01*
X202161Y9461D01*
X202246Y9407D01*
X202253Y9400D01*
X202276Y9377D01*
X202315Y9338D01*
X202361Y9285D01*
X202415Y9208D01*
X202461Y9116D01*
X202514Y9000D01*
X202553Y8870D01*
X203159Y8954D01*
Y8962D01*
X203152Y8970D01*
X203144Y9016D01*
X203121Y9085D01*
X203098Y9177D01*
X203060Y9277D01*
X203014Y9377D01*
X202960Y9484D01*
X202891Y9576D01*
X202883Y9584D01*
X202852Y9615D01*
X202814Y9661D01*
X202752Y9715D01*
X202676Y9768D01*
X202576Y9830D01*
X202468Y9891D01*
X202345Y9945D01*
X202338D01*
X202330Y9953D01*
X202307Y9960D01*
X202284Y9968D01*
X202207Y9983D01*
X202107Y10014D01*
X201985Y10037D01*
X201846Y10052D01*
X201685Y10068D01*
X201516Y10075D01*
X203267D01*
X199903D01*
X201439D01*
X201355Y10068D01*
X201247Y10060D01*
X201124Y10045D01*
X200994Y10029D01*
X200871Y9999D01*
X200756Y9960D01*
X200740Y9953D01*
X200710Y9945D01*
X200656Y9914D01*
X200594Y9883D01*
X200525Y9845D01*
X200448Y9799D01*
X200387Y9745D01*
X200326Y9684D01*
X200318Y9676D01*
X200303Y9653D01*
X200279Y9622D01*
X200249Y9569D01*
X200218Y9507D01*
X200187Y9438D01*
X200157Y9354D01*
X200134Y9262D01*
Y9254D01*
X200126Y9231D01*
X200118Y9192D01*
X200111Y9131D01*
Y9054D01*
X200103Y8954D01*
X200095Y8839D01*
Y8693D01*
Y7864D01*
Y7856D01*
Y7825D01*
Y7779D01*
Y7726D01*
Y7656D01*
Y7580D01*
X200087Y7403D01*
Y7211D01*
X200080Y7034D01*
X200072Y6950D01*
Y6881D01*
X200064Y6819D01*
X200057Y6765D01*
Y6758D01*
X200049Y6727D01*
X200042Y6681D01*
X200026Y6627D01*
X200003Y6566D01*
X199972Y6489D01*
X199903Y6335D01*
D01*
X200548D01*
X200556Y6343D01*
X200564Y6366D01*
X200579Y6412D01*
X200602Y6466D01*
X200625Y6535D01*
X200641Y6612D01*
X200656Y6696D01*
X200671Y6796D01*
X200687Y6781D01*
X200733Y6750D01*
X200794Y6696D01*
X200886Y6635D01*
X200986Y6558D01*
X201101Y6489D01*
X201217Y6427D01*
X201339Y6374D01*
X201355Y6366D01*
X201393Y6358D01*
X201455Y6335D01*
X201539Y6312D01*
X201647Y6289D01*
X201762Y6274D01*
X201885Y6259D01*
X202023Y6251D01*
X202077D01*
X202123Y6259D01*
X202169D01*
X202230Y6266D01*
X202361Y6289D01*
X202514Y6320D01*
X202660Y6374D01*
X202814Y6443D01*
X202944Y6543D01*
X202960Y6558D01*
X202998Y6596D01*
X203044Y6658D01*
X203106Y6750D01*
X203167Y6858D01*
X203213Y6981D01*
X203252Y7134D01*
X203267Y7295D01*
Y6251D01*
D01*
D01*
Y10075D01*
D02*
G37*
G36*
X126137Y10075D02*
D01*
Y7342D01*
X126129Y7395D01*
X126121Y7457D01*
X126106Y7534D01*
X126091Y7618D01*
X126060Y7702D01*
X126022Y7787D01*
X126014Y7795D01*
X125999Y7825D01*
X125976Y7864D01*
X125937Y7917D01*
X125891Y7971D01*
X125830Y8033D01*
X125768Y8086D01*
X125699Y8140D01*
X125691Y8148D01*
X125661Y8163D01*
X125622Y8186D01*
X125568Y8217D01*
X125499Y8255D01*
X125430Y8286D01*
X125346Y8317D01*
X125254Y8348D01*
X125246D01*
X125215Y8355D01*
X125177Y8363D01*
X125115Y8378D01*
X125039Y8394D01*
X124939Y8409D01*
X124831Y8424D01*
X124701Y8440D01*
X124693D01*
X124670Y8447D01*
X124632D01*
X124578Y8455D01*
X124516Y8463D01*
X124447Y8470D01*
X124278Y8501D01*
X124102Y8532D01*
X123917Y8563D01*
X123741Y8609D01*
X123664Y8632D01*
X123595Y8655D01*
Y8662D01*
Y8678D01*
X123587Y8724D01*
Y8778D01*
Y8801D01*
Y8816D01*
Y8824D01*
Y8831D01*
Y8878D01*
X123595Y8947D01*
X123610Y9023D01*
X123633Y9108D01*
X123664Y9200D01*
X123702Y9277D01*
X123764Y9346D01*
X123771Y9354D01*
X123810Y9377D01*
X123863Y9415D01*
X123940Y9453D01*
X124040Y9492D01*
X124163Y9530D01*
X124309Y9553D01*
X124470Y9561D01*
X124539D01*
X124616Y9553D01*
X124716Y9546D01*
X124823Y9523D01*
X124923Y9499D01*
X125031Y9461D01*
X125115Y9407D01*
X125123Y9400D01*
X125146Y9377D01*
X125185Y9338D01*
X125231Y9285D01*
X125284Y9208D01*
X125330Y9116D01*
X125384Y9000D01*
X125423Y8870D01*
X126029Y8954D01*
Y8962D01*
X126022Y8970D01*
X126014Y9016D01*
X125991Y9085D01*
X125968Y9177D01*
X125929Y9277D01*
X125883Y9377D01*
X125830Y9484D01*
X125760Y9576D01*
X125753Y9584D01*
X125722Y9615D01*
X125684Y9661D01*
X125622Y9715D01*
X125546Y9768D01*
X125446Y9830D01*
X125338Y9891D01*
X125215Y9945D01*
X125207D01*
X125200Y9953D01*
X125177Y9960D01*
X125154Y9968D01*
X125077Y9983D01*
X124977Y10014D01*
X124854Y10037D01*
X124716Y10052D01*
X124555Y10068D01*
X124386Y10075D01*
X124309D01*
X124224Y10068D01*
X124117Y10060D01*
X123994Y10045D01*
X123863Y10029D01*
X123741Y9999D01*
X123626Y9960D01*
X123610Y9953D01*
X123579Y9945D01*
X123526Y9914D01*
X123464Y9883D01*
X123395Y9845D01*
X123318Y9799D01*
X123257Y9745D01*
X123195Y9684D01*
X123188Y9676D01*
X123172Y9653D01*
X123149Y9622D01*
X123119Y9569D01*
X123088Y9507D01*
X123057Y9438D01*
X123026Y9354D01*
X123003Y9262D01*
Y9254D01*
X122996Y9231D01*
X122988Y9192D01*
X122980Y9131D01*
Y9054D01*
X122973Y8954D01*
X122965Y8839D01*
Y8693D01*
Y7864D01*
Y7856D01*
Y7825D01*
Y7779D01*
Y7725D01*
Y7656D01*
Y7580D01*
X122957Y7403D01*
Y7211D01*
X122950Y7034D01*
X122942Y6950D01*
Y6881D01*
X122934Y6819D01*
X122927Y6765D01*
Y6758D01*
X122919Y6727D01*
X122911Y6681D01*
X122896Y6627D01*
X122873Y6566D01*
X122842Y6489D01*
X122773Y6335D01*
D01*
X123418D01*
X123426Y6343D01*
X123433Y6366D01*
X123449Y6412D01*
X123472Y6466D01*
X123495Y6535D01*
X123510Y6612D01*
X123526Y6696D01*
X123541Y6796D01*
X123556Y6781D01*
X123602Y6750D01*
X123664Y6696D01*
X123756Y6635D01*
X123856Y6558D01*
X123971Y6489D01*
X124086Y6427D01*
X124209Y6374D01*
X124224Y6366D01*
X124263Y6358D01*
X124324Y6335D01*
X124409Y6312D01*
X124516Y6289D01*
X124632Y6274D01*
X124754Y6259D01*
X124893Y6251D01*
X122773D01*
D01*
X126137D01*
Y10075D01*
D02*
G37*
G36*
X118311D02*
D01*
Y7342D01*
X118303Y7395D01*
X118296Y7457D01*
X118280Y7534D01*
X118265Y7618D01*
X118234Y7702D01*
X118196Y7787D01*
X118188Y7795D01*
X118173Y7825D01*
X118150Y7864D01*
X118111Y7917D01*
X118065Y7971D01*
X118004Y8033D01*
X117942Y8086D01*
X117873Y8140D01*
X117866Y8148D01*
X117835Y8163D01*
X117796Y8186D01*
X117743Y8217D01*
X117674Y8255D01*
X117604Y8286D01*
X117520Y8317D01*
X117428Y8348D01*
X117420D01*
X117389Y8355D01*
X117351Y8363D01*
X117289Y8378D01*
X117213Y8394D01*
X117113Y8409D01*
X117005Y8424D01*
X116875Y8440D01*
X116867D01*
X116844Y8447D01*
X116806D01*
X116752Y8455D01*
X116690Y8463D01*
X116621Y8470D01*
X116452Y8501D01*
X116276Y8532D01*
X116091Y8563D01*
X115915Y8609D01*
X115838Y8632D01*
X115769Y8655D01*
Y8662D01*
Y8678D01*
X115761Y8724D01*
Y8778D01*
Y8801D01*
Y8816D01*
Y8824D01*
Y8831D01*
Y8878D01*
X115769Y8947D01*
X115784Y9023D01*
X115807Y9108D01*
X115838Y9200D01*
X115876Y9277D01*
X115938Y9346D01*
X115945Y9354D01*
X115984Y9377D01*
X116038Y9415D01*
X116114Y9453D01*
X116214Y9492D01*
X116337Y9530D01*
X116483Y9553D01*
X116644Y9561D01*
X116714D01*
X116790Y9553D01*
X116890Y9546D01*
X116998Y9523D01*
X117097Y9499D01*
X117205Y9461D01*
X117289Y9407D01*
X117297Y9400D01*
X117320Y9377D01*
X117359Y9338D01*
X117405Y9285D01*
X117458Y9208D01*
X117505Y9116D01*
X117558Y9000D01*
X117597Y8870D01*
X118203Y8954D01*
Y8962D01*
X118196Y8970D01*
X118188Y9016D01*
X118165Y9085D01*
X118142Y9177D01*
X118104Y9277D01*
X118058Y9377D01*
X118004Y9484D01*
X117935Y9576D01*
X117927Y9584D01*
X117896Y9615D01*
X117858Y9661D01*
X117796Y9715D01*
X117719Y9768D01*
X117620Y9830D01*
X117512Y9891D01*
X117389Y9945D01*
X117382D01*
X117374Y9953D01*
X117351Y9960D01*
X117328Y9968D01*
X117251Y9983D01*
X117151Y10014D01*
X117028Y10037D01*
X116890Y10052D01*
X116729Y10068D01*
X116560Y10075D01*
X116483D01*
X116399Y10068D01*
X116291Y10060D01*
X116168Y10045D01*
X116038Y10029D01*
X115915Y9999D01*
X115799Y9960D01*
X115784Y9953D01*
X115753Y9945D01*
X115700Y9914D01*
X115638Y9883D01*
X115569Y9845D01*
X115492Y9799D01*
X115431Y9745D01*
X115369Y9684D01*
X115362Y9676D01*
X115346Y9653D01*
X115323Y9622D01*
X115293Y9569D01*
X115262Y9507D01*
X115231Y9438D01*
X115200Y9354D01*
X115178Y9262D01*
Y9254D01*
X115170Y9231D01*
X115162Y9192D01*
X115154Y9131D01*
Y9054D01*
X115147Y8954D01*
X115139Y8839D01*
Y8693D01*
Y7864D01*
Y7856D01*
Y7825D01*
Y7779D01*
Y7725D01*
Y7656D01*
Y7580D01*
X115131Y7403D01*
Y7211D01*
X115124Y7034D01*
X115116Y6950D01*
Y6881D01*
X115108Y6819D01*
X115101Y6765D01*
Y6758D01*
X115093Y6727D01*
X115085Y6681D01*
X115070Y6627D01*
X115047Y6566D01*
X115016Y6489D01*
X114947Y6335D01*
D01*
X115592D01*
X115600Y6343D01*
X115608Y6366D01*
X115623Y6412D01*
X115646Y6466D01*
X115669Y6535D01*
X115684Y6612D01*
X115700Y6696D01*
X115715Y6796D01*
X115730Y6781D01*
X115777Y6750D01*
X115838Y6696D01*
X115930Y6635D01*
X116030Y6558D01*
X116145Y6489D01*
X116260Y6427D01*
X116383Y6374D01*
X116399Y6366D01*
X116437Y6358D01*
X116498Y6335D01*
X116583Y6312D01*
X116690Y6289D01*
X116806Y6274D01*
X116929Y6259D01*
X117067Y6251D01*
X114947D01*
D01*
X118311D01*
Y10075D01*
D02*
G37*
G36*
X199366Y11381D02*
D01*
Y8248D01*
X199358Y8294D01*
Y8355D01*
X199343Y8486D01*
X199320Y8639D01*
X199289Y8801D01*
X199250Y8977D01*
X199189Y9146D01*
Y9154D01*
X199181Y9169D01*
X199166Y9192D01*
X199151Y9223D01*
X199112Y9300D01*
X199051Y9400D01*
X198974Y9515D01*
X198882Y9630D01*
X198774Y9738D01*
X198644Y9838D01*
X198636D01*
X198628Y9845D01*
X198582Y9876D01*
X198505Y9914D01*
X198406Y9960D01*
X198283Y9999D01*
X198144Y10037D01*
X197991Y10068D01*
X197830Y10075D01*
X197776D01*
X197714Y10068D01*
X197630Y10060D01*
X197546Y10037D01*
X197446Y10014D01*
X197346Y9976D01*
X197246Y9930D01*
X197231Y9922D01*
X197200Y9907D01*
X197154Y9876D01*
X197092Y9830D01*
X197031Y9784D01*
X196954Y9722D01*
X196885Y9646D01*
X196824Y9569D01*
Y11381D01*
X199366D01*
X196202D01*
Y6335D01*
X196777D01*
Y6788D01*
X196785Y6781D01*
X196793Y6765D01*
X196816Y6742D01*
X196847Y6704D01*
X196877Y6666D01*
X196923Y6620D01*
X196977Y6573D01*
X197039Y6520D01*
X197108Y6474D01*
X197185Y6420D01*
X197269Y6374D01*
X197353Y6335D01*
X197453Y6297D01*
X197561Y6274D01*
X197676Y6259D01*
X197799Y6251D01*
X199366D01*
Y11381D01*
D02*
G37*
G36*
X187231Y11381D02*
D01*
Y8248D01*
X187223Y8294D01*
Y8355D01*
X187208Y8486D01*
X187185Y8639D01*
X187154Y8801D01*
X187116Y8977D01*
X187055Y9146D01*
Y9154D01*
X187047Y9169D01*
X187031Y9192D01*
X187016Y9223D01*
X186978Y9300D01*
X186916Y9400D01*
X186839Y9515D01*
X186747Y9630D01*
X186640Y9738D01*
X186509Y9838D01*
X186502D01*
X186494Y9845D01*
X186448Y9876D01*
X186371Y9914D01*
X186271Y9960D01*
X186148Y9999D01*
X186010Y10037D01*
X185856Y10068D01*
X185695Y10075D01*
X185642D01*
X185580Y10068D01*
X185495Y10060D01*
X185411Y10037D01*
X185311Y10014D01*
X185211Y9976D01*
X185111Y9930D01*
X185096Y9922D01*
X185065Y9907D01*
X185019Y9876D01*
X184958Y9830D01*
X184897Y9784D01*
X184820Y9722D01*
X184751Y9646D01*
X184689Y9569D01*
Y11381D01*
X187231D01*
X184067D01*
Y6335D01*
X184643D01*
Y6788D01*
X184651Y6781D01*
X184658Y6765D01*
X184681Y6742D01*
X184712Y6704D01*
X184743Y6666D01*
X184789Y6620D01*
X184843Y6573D01*
X184904Y6520D01*
X184973Y6474D01*
X185050Y6420D01*
X185135Y6374D01*
X185219Y6335D01*
X185319Y6297D01*
X185426Y6274D01*
X185542Y6259D01*
X185664Y6251D01*
X187231D01*
Y11381D01*
D02*
G37*
G36*
X165259Y10075D02*
D01*
Y8248D01*
X165251Y8302D01*
Y8355D01*
X165236Y8501D01*
X165213Y8662D01*
X165174Y8831D01*
X165128Y9016D01*
X165067Y9185D01*
Y9192D01*
X165059Y9208D01*
X165044Y9231D01*
X165028Y9262D01*
X164982Y9338D01*
X164921Y9438D01*
X164836Y9546D01*
X164736Y9653D01*
X164614Y9761D01*
X164475Y9853D01*
X164468D01*
X164460Y9860D01*
X164437Y9876D01*
X164406Y9891D01*
X164322Y9922D01*
X164214Y9968D01*
X164091Y10006D01*
X163938Y10045D01*
X163777Y10068D01*
X163608Y10075D01*
X163546D01*
X163508Y10068D01*
X163454D01*
X163400Y10060D01*
X163262Y10037D01*
X163108Y9999D01*
X162939Y9945D01*
X162778Y9868D01*
X162632Y9768D01*
X162625D01*
X162617Y9753D01*
X162571Y9715D01*
X162509Y9646D01*
X162433Y9553D01*
X162348Y9430D01*
X162271Y9285D01*
X162202Y9108D01*
X162148Y8916D01*
X162747Y8824D01*
Y8831D01*
X162755Y8839D01*
X162763Y8885D01*
X162786Y8947D01*
X162817Y9031D01*
X162863Y9123D01*
X162916Y9215D01*
X162978Y9300D01*
X163055Y9377D01*
X163062Y9384D01*
X163093Y9407D01*
X163139Y9438D01*
X163200Y9477D01*
X163277Y9507D01*
X163362Y9538D01*
X163469Y9561D01*
X163577Y9569D01*
X163623D01*
X163654Y9561D01*
X163738Y9553D01*
X163846Y9530D01*
X163969Y9484D01*
X164091Y9423D01*
X164222Y9346D01*
X164283Y9292D01*
X164337Y9231D01*
X164353Y9215D01*
X164360Y9192D01*
X164383Y9169D01*
X164406Y9131D01*
X164429Y9085D01*
X164452Y9031D01*
X164475Y8970D01*
X164506Y8901D01*
X164529Y8824D01*
X164552Y8732D01*
X164575Y8639D01*
X164598Y8532D01*
X164606Y8417D01*
X164621Y8294D01*
Y8163D01*
Y8156D01*
Y8133D01*
Y8094D01*
X164614Y8040D01*
Y7979D01*
X164606Y7910D01*
X164583Y7756D01*
X164552Y7580D01*
X164506Y7395D01*
X164437Y7234D01*
X164391Y7157D01*
X164345Y7088D01*
X164330Y7073D01*
X164291Y7034D01*
X164230Y6981D01*
X164145Y6927D01*
X164045Y6865D01*
X163915Y6812D01*
X163777Y6773D01*
X163700Y6765D01*
X163615Y6758D01*
X163554D01*
X163485Y6773D01*
X163400Y6788D01*
X163308Y6812D01*
X163200Y6850D01*
X163101Y6904D01*
X163008Y6981D01*
X163001Y6988D01*
X162970Y7027D01*
X162924Y7073D01*
X162878Y7149D01*
X162824Y7249D01*
X162770Y7365D01*
X162724Y7510D01*
X162694Y7672D01*
X162087Y7587D01*
Y7580D01*
X162095Y7557D01*
X162102Y7526D01*
X162110Y7487D01*
X162125Y7434D01*
X162141Y7372D01*
X162187Y7226D01*
X162256Y7073D01*
X162348Y6904D01*
X162463Y6750D01*
X162601Y6604D01*
X162609D01*
X162617Y6589D01*
X162640Y6573D01*
X162671Y6550D01*
X162717Y6520D01*
X162763Y6489D01*
X162878Y6427D01*
X163024Y6366D01*
X163200Y6305D01*
X163392Y6266D01*
X163500Y6259D01*
X163608Y6251D01*
X162087D01*
D01*
X165259D01*
Y10075D01*
D02*
G37*
G36*
X209519Y10075D02*
D01*
Y8217D01*
X209511Y8278D01*
X209503Y8355D01*
X209495Y8447D01*
X209480Y8547D01*
X209457Y8655D01*
X209403Y8885D01*
X209365Y9000D01*
X209319Y9123D01*
X209265Y9238D01*
X209204Y9354D01*
X209135Y9461D01*
X209050Y9561D01*
X209042Y9569D01*
X209027Y9584D01*
X209004Y9607D01*
X208966Y9646D01*
X208920Y9684D01*
X208858Y9722D01*
X208797Y9768D01*
X208720Y9822D01*
X208635Y9868D01*
X208543Y9914D01*
X208443Y9953D01*
X208328Y9999D01*
X208213Y10029D01*
X208090Y10052D01*
X207960Y10068D01*
X207821Y10075D01*
X206155D01*
X207752D01*
X207698Y10068D01*
X207637Y10060D01*
X207560Y10052D01*
X207483Y10037D01*
X207391Y10014D01*
X207207Y9953D01*
X207107Y9914D01*
X207007Y9860D01*
X206907Y9807D01*
X206807Y9738D01*
X206715Y9661D01*
X206623Y9569D01*
X206615Y9561D01*
X206600Y9546D01*
X206577Y9515D01*
X206546Y9477D01*
X206516Y9423D01*
X206477Y9361D01*
X206431Y9292D01*
X206385Y9208D01*
X206347Y9108D01*
X206301Y9008D01*
X206262Y8893D01*
X206224Y8762D01*
X206201Y8632D01*
X206178Y8486D01*
X206162Y8332D01*
X206155Y8163D01*
Y8071D01*
X206162Y8002D01*
X208881D01*
Y7994D01*
Y7979D01*
X208874Y7941D01*
Y7902D01*
X208866Y7848D01*
X208858Y7795D01*
X208827Y7656D01*
X208781Y7510D01*
X208728Y7357D01*
X208643Y7203D01*
X208543Y7073D01*
X208528Y7057D01*
X208489Y7027D01*
X208420Y6973D01*
X208336Y6919D01*
X208221Y6858D01*
X208090Y6804D01*
X207944Y6773D01*
X207783Y6758D01*
X207721D01*
X207660Y6765D01*
X207583Y6781D01*
X207491Y6804D01*
X207391Y6835D01*
X207291Y6873D01*
X207199Y6934D01*
X207191Y6942D01*
X207161Y6973D01*
X207115Y7011D01*
X207061Y7080D01*
X206999Y7157D01*
X206938Y7257D01*
X206877Y7380D01*
X206815Y7518D01*
X206178Y7434D01*
Y7426D01*
X206186Y7411D01*
X206193Y7380D01*
X206208Y7342D01*
X206224Y7295D01*
X206247Y7242D01*
X206308Y7111D01*
X206385Y6973D01*
X206477Y6827D01*
X206600Y6681D01*
X206738Y6558D01*
X206746D01*
X206754Y6543D01*
X206777Y6527D01*
X206815Y6512D01*
X206854Y6489D01*
X206900Y6458D01*
X206954Y6435D01*
X207023Y6404D01*
X207169Y6351D01*
X207353Y6297D01*
X207553Y6266D01*
X207783Y6251D01*
X209519D01*
Y10075D01*
D02*
G37*
G36*
X183291Y10075D02*
D01*
Y8217D01*
X183284Y8278D01*
X183276Y8355D01*
X183268Y8447D01*
X183253Y8547D01*
X183230Y8655D01*
X183176Y8885D01*
X183138Y9000D01*
X183092Y9123D01*
X183038Y9238D01*
X182976Y9354D01*
X182907Y9461D01*
X182823Y9561D01*
X182815Y9569D01*
X182800Y9584D01*
X182777Y9607D01*
X182738Y9646D01*
X182692Y9684D01*
X182631Y9722D01*
X182570Y9768D01*
X182493Y9822D01*
X182408Y9868D01*
X182316Y9914D01*
X182216Y9953D01*
X182101Y9999D01*
X181986Y10029D01*
X181863Y10052D01*
X181732Y10068D01*
X181594Y10075D01*
X179928D01*
X181525D01*
X181471Y10068D01*
X181410Y10060D01*
X181333Y10052D01*
X181256Y10037D01*
X181164Y10014D01*
X180980Y9953D01*
X180880Y9914D01*
X180780Y9860D01*
X180680Y9807D01*
X180580Y9738D01*
X180488Y9661D01*
X180396Y9569D01*
X180388Y9561D01*
X180373Y9546D01*
X180350Y9515D01*
X180319Y9477D01*
X180289Y9423D01*
X180250Y9361D01*
X180204Y9292D01*
X180158Y9208D01*
X180120Y9108D01*
X180073Y9008D01*
X180035Y8893D01*
X179997Y8762D01*
X179974Y8632D01*
X179951Y8486D01*
X179935Y8332D01*
X179928Y8163D01*
Y8071D01*
X179935Y8002D01*
X182654D01*
Y7994D01*
Y7979D01*
X182646Y7941D01*
Y7902D01*
X182639Y7848D01*
X182631Y7795D01*
X182600Y7656D01*
X182554Y7510D01*
X182500Y7357D01*
X182416Y7203D01*
X182316Y7073D01*
X182301Y7057D01*
X182262Y7027D01*
X182193Y6973D01*
X182109Y6919D01*
X181993Y6858D01*
X181863Y6804D01*
X181717Y6773D01*
X181556Y6758D01*
X181494D01*
X181433Y6765D01*
X181356Y6781D01*
X181264Y6804D01*
X181164Y6835D01*
X181064Y6873D01*
X180972Y6934D01*
X180964Y6942D01*
X180934Y6973D01*
X180887Y7011D01*
X180834Y7080D01*
X180772Y7157D01*
X180711Y7257D01*
X180649Y7380D01*
X180588Y7518D01*
X179951Y7434D01*
Y7426D01*
X179958Y7411D01*
X179966Y7380D01*
X179981Y7342D01*
X179997Y7295D01*
X180020Y7242D01*
X180081Y7111D01*
X180158Y6973D01*
X180250Y6827D01*
X180373Y6681D01*
X180511Y6558D01*
X180519D01*
X180527Y6543D01*
X180550Y6527D01*
X180588Y6512D01*
X180626Y6489D01*
X180673Y6458D01*
X180726Y6435D01*
X180795Y6404D01*
X180941Y6351D01*
X181126Y6297D01*
X181325Y6266D01*
X181556Y6251D01*
X183291D01*
Y10075D01*
D02*
G37*
G36*
X152356D02*
D01*
Y8217D01*
X152349Y8278D01*
X152341Y8355D01*
X152333Y8447D01*
X152318Y8547D01*
X152295Y8655D01*
X152241Y8885D01*
X152203Y9000D01*
X152157Y9123D01*
X152103Y9238D01*
X152041Y9354D01*
X151972Y9461D01*
X151888Y9561D01*
X151880Y9569D01*
X151865Y9584D01*
X151842Y9607D01*
X151803Y9646D01*
X151757Y9684D01*
X151696Y9722D01*
X151634Y9768D01*
X151558Y9822D01*
X151473Y9868D01*
X151381Y9914D01*
X151281Y9953D01*
X151166Y9999D01*
X151051Y10029D01*
X150928Y10052D01*
X150797Y10068D01*
X150659Y10075D01*
X150590D01*
X150536Y10068D01*
X150475Y10060D01*
X150398Y10052D01*
X150321Y10037D01*
X150229Y10014D01*
X150045Y9953D01*
X149945Y9914D01*
X149845Y9860D01*
X149745Y9807D01*
X149645Y9738D01*
X149553Y9661D01*
X149461Y9569D01*
X149453Y9561D01*
X149438Y9546D01*
X149415Y9515D01*
X149384Y9477D01*
X149354Y9423D01*
X149315Y9361D01*
X149269Y9292D01*
X149223Y9208D01*
X149185Y9108D01*
X149138Y9008D01*
X149100Y8893D01*
X149062Y8762D01*
X149039Y8632D01*
X149015Y8486D01*
X149000Y8332D01*
X148993Y8163D01*
Y8071D01*
X149000Y8002D01*
X151719D01*
Y7994D01*
Y7979D01*
X151711Y7941D01*
Y7902D01*
X151704Y7848D01*
X151696Y7795D01*
X151665Y7656D01*
X151619Y7510D01*
X151565Y7357D01*
X151481Y7203D01*
X151381Y7073D01*
X151366Y7057D01*
X151327Y7027D01*
X151258Y6973D01*
X151174Y6919D01*
X151058Y6858D01*
X150928Y6804D01*
X150782Y6773D01*
X150621Y6758D01*
X150559D01*
X150498Y6765D01*
X150421Y6781D01*
X150329Y6804D01*
X150229Y6835D01*
X150129Y6873D01*
X150037Y6934D01*
X150029Y6942D01*
X149999Y6973D01*
X149952Y7011D01*
X149899Y7080D01*
X149837Y7157D01*
X149776Y7257D01*
X149714Y7380D01*
X149653Y7518D01*
X149015Y7434D01*
Y7426D01*
X149023Y7411D01*
X149031Y7380D01*
X149046Y7342D01*
X149062Y7295D01*
X149085Y7242D01*
X149146Y7111D01*
X149223Y6973D01*
X149315Y6827D01*
X149438Y6681D01*
X149576Y6558D01*
X149584D01*
X149592Y6543D01*
X149615Y6527D01*
X149653Y6512D01*
X149691Y6489D01*
X149738Y6458D01*
X149791Y6435D01*
X149860Y6404D01*
X150006Y6351D01*
X150191Y6297D01*
X150390Y6266D01*
X150621Y6251D01*
X148993D01*
D01*
X152356D01*
Y10075D01*
D02*
G37*
G36*
X195457Y10075D02*
D01*
Y8209D01*
X195449Y8263D01*
Y8332D01*
X195441Y8417D01*
X195426Y8509D01*
X195410Y8616D01*
X195387Y8732D01*
X195357Y8854D01*
X195318Y8977D01*
X195272Y9100D01*
X195218Y9223D01*
X195157Y9346D01*
X195080Y9461D01*
X194996Y9569D01*
X194896Y9668D01*
X194888Y9676D01*
X194873Y9684D01*
X194850Y9707D01*
X194811Y9730D01*
X194765Y9761D01*
X194711Y9799D01*
X194650Y9838D01*
X194573Y9876D01*
X194497Y9907D01*
X194412Y9945D01*
X194212Y10014D01*
X193990Y10060D01*
X193867Y10068D01*
X193744Y10075D01*
X195457Y10075D01*
X192031Y10075D01*
X193675D01*
X193621Y10068D01*
X193552Y10060D01*
X193483Y10052D01*
X193398Y10037D01*
X193306Y10014D01*
X193114Y9953D01*
X193014Y9914D01*
X192907Y9868D01*
X192807Y9807D01*
X192707Y9738D01*
X192607Y9661D01*
X192515Y9576D01*
X192507Y9569D01*
X192492Y9553D01*
X192469Y9523D01*
X192438Y9484D01*
X192400Y9438D01*
X192361Y9377D01*
X192315Y9300D01*
X192269Y9223D01*
X192231Y9131D01*
X192185Y9023D01*
X192146Y8916D01*
X192108Y8793D01*
X192077Y8662D01*
X192054Y8517D01*
X192039Y8371D01*
X192031Y8209D01*
Y8094D01*
X192039Y8033D01*
Y7964D01*
X192047Y7887D01*
X192054Y7802D01*
X192085Y7626D01*
X192123Y7441D01*
X192177Y7257D01*
X192246Y7096D01*
Y7088D01*
X192254Y7080D01*
X192285Y7027D01*
X192338Y6957D01*
X192408Y6865D01*
X192492Y6765D01*
X192599Y6666D01*
X192722Y6566D01*
X192868Y6474D01*
X192876D01*
X192884Y6466D01*
X192907Y6451D01*
X192938Y6443D01*
X193022Y6404D01*
X193130Y6366D01*
X193260Y6320D01*
X193406Y6289D01*
X193567Y6259D01*
X193744Y6251D01*
X193821D01*
X193874Y6259D01*
X193936Y6266D01*
X194013Y6274D01*
X194097Y6289D01*
X194189Y6312D01*
X194381Y6374D01*
X194489Y6412D01*
X194589Y6458D01*
X194696Y6512D01*
X194796Y6581D01*
X194896Y6658D01*
X194988Y6742D01*
X194996Y6750D01*
X195011Y6765D01*
X195034Y6796D01*
X195057Y6835D01*
X195096Y6888D01*
X195134Y6950D01*
X195180Y7019D01*
X195218Y7103D01*
X195264Y7203D01*
X195311Y7303D01*
X195349Y7426D01*
X195380Y7549D01*
X195410Y7687D01*
X195433Y7833D01*
X195449Y7994D01*
X195457Y8163D01*
Y6251D01*
D01*
D01*
Y10075D01*
D02*
G37*
G36*
X160221Y10075D02*
D01*
Y8209D01*
X160213Y8263D01*
Y8332D01*
X160205Y8417D01*
X160190Y8509D01*
X160175Y8616D01*
X160152Y8732D01*
X160121Y8854D01*
X160082Y8977D01*
X160036Y9100D01*
X159983Y9223D01*
X159921Y9346D01*
X159844Y9461D01*
X159760Y9569D01*
X159660Y9668D01*
X159652Y9676D01*
X159637Y9684D01*
X159614Y9707D01*
X159575Y9730D01*
X159529Y9761D01*
X159476Y9799D01*
X159414Y9838D01*
X159337Y9876D01*
X159261Y9907D01*
X159176Y9945D01*
X158976Y10014D01*
X158754Y10060D01*
X158631Y10068D01*
X158508Y10075D01*
X158439D01*
X158385Y10068D01*
X158316Y10060D01*
X158247Y10052D01*
X158162Y10037D01*
X158070Y10014D01*
X157878Y9953D01*
X157778Y9914D01*
X157671Y9868D01*
X157571Y9807D01*
X157471Y9738D01*
X157371Y9661D01*
X157279Y9576D01*
X157272Y9569D01*
X157256Y9553D01*
X157233Y9523D01*
X157202Y9484D01*
X157164Y9438D01*
X157126Y9377D01*
X157080Y9300D01*
X157034Y9223D01*
X156995Y9131D01*
X156949Y9023D01*
X156911Y8916D01*
X156872Y8793D01*
X156842Y8662D01*
X156818Y8517D01*
X156803Y8371D01*
X156795Y8209D01*
Y8094D01*
X156803Y8033D01*
Y7964D01*
X156811Y7887D01*
X156818Y7802D01*
X156849Y7626D01*
X156887Y7441D01*
X156941Y7257D01*
X157010Y7096D01*
Y7088D01*
X157018Y7080D01*
X157049Y7027D01*
X157103Y6957D01*
X157172Y6865D01*
X157256Y6765D01*
X157364Y6666D01*
X157487Y6566D01*
X157633Y6474D01*
X157640D01*
X157648Y6466D01*
X157671Y6451D01*
X157702Y6443D01*
X157786Y6404D01*
X157894Y6366D01*
X158024Y6320D01*
X158170Y6289D01*
X158331Y6259D01*
X158508Y6251D01*
X156795D01*
D01*
X160221D01*
Y10075D01*
D02*
G37*
G36*
X172923Y9991D02*
X172301D01*
Y7956D01*
Y7948D01*
Y7933D01*
Y7910D01*
Y7879D01*
Y7795D01*
X172294Y7695D01*
Y7587D01*
X172286Y7480D01*
X172278Y7380D01*
X172271Y7303D01*
Y7295D01*
X172255Y7265D01*
X172240Y7219D01*
X172217Y7165D01*
X172186Y7103D01*
X172140Y7034D01*
X172086Y6973D01*
X172025Y6919D01*
X172017Y6911D01*
X171986Y6896D01*
X171948Y6873D01*
X171894Y6850D01*
X171825Y6827D01*
X171748Y6804D01*
X171656Y6788D01*
X171556Y6781D01*
X171510D01*
X171457Y6788D01*
X171387Y6796D01*
X171311Y6812D01*
X171226Y6842D01*
X171134Y6873D01*
X171042Y6919D01*
X171034Y6927D01*
X171003Y6950D01*
X170957Y6981D01*
X170904Y7027D01*
X170850Y7080D01*
X170788Y7149D01*
X170742Y7226D01*
X170696Y7311D01*
X170688Y7326D01*
X170681Y7357D01*
X170666Y7411D01*
X170642Y7495D01*
X170619Y7595D01*
X170604Y7718D01*
X170596Y7864D01*
X170589Y8025D01*
Y9991D01*
X169967D01*
Y6335D01*
X170519D01*
Y6865D01*
X170527Y6858D01*
X170543Y6842D01*
X170566Y6812D01*
X170596Y6773D01*
X170642Y6719D01*
X170696Y6673D01*
X170758Y6612D01*
X170827Y6558D01*
X170904Y6504D01*
X170988Y6443D01*
X171088Y6397D01*
X171188Y6351D01*
X171303Y6305D01*
X171418Y6274D01*
X171549Y6259D01*
X171679Y6251D01*
X169967D01*
X172923D01*
Y9991D01*
D02*
G37*
G36*
X215655Y10075D02*
X213988D01*
X215586D01*
X215532Y10068D01*
X215471Y10060D01*
X215394Y10052D01*
X215317Y10037D01*
X215225Y10014D01*
X215040Y9953D01*
X214941Y9914D01*
X214841Y9860D01*
X214741Y9807D01*
X214641Y9738D01*
X214549Y9661D01*
X214457Y9569D01*
X214449Y9561D01*
X214434Y9546D01*
X214411Y9515D01*
X214380Y9477D01*
X214349Y9423D01*
X214311Y9361D01*
X214265Y9292D01*
X214219Y9208D01*
X214180Y9108D01*
X214134Y9008D01*
X214096Y8893D01*
X214057Y8762D01*
X214034Y8632D01*
X214011Y8486D01*
X213996Y8332D01*
X213988Y8163D01*
Y8071D01*
X213996Y8002D01*
X216715D01*
Y7994D01*
Y7979D01*
X216707Y7941D01*
Y7902D01*
X216699Y7848D01*
X216692Y7795D01*
X216661Y7656D01*
X216615Y7510D01*
X216561Y7357D01*
X216477Y7203D01*
X216377Y7073D01*
X216361Y7057D01*
X216323Y7027D01*
X216254Y6973D01*
X216170Y6919D01*
X216054Y6858D01*
X215924Y6804D01*
X215778Y6773D01*
X215616Y6758D01*
X215555D01*
X215494Y6765D01*
X215417Y6781D01*
X215325Y6804D01*
X215225Y6835D01*
X215125Y6873D01*
X215033Y6934D01*
X215025Y6942D01*
X214994Y6973D01*
X214948Y7011D01*
X214895Y7080D01*
X214833Y7157D01*
X214772Y7257D01*
X214710Y7380D01*
X214649Y7518D01*
X214011Y7434D01*
Y7426D01*
X214019Y7411D01*
X214027Y7380D01*
X214042Y7342D01*
X214057Y7295D01*
X214081Y7242D01*
X214142Y7111D01*
X214219Y6973D01*
X214311Y6827D01*
X214434Y6681D01*
X214572Y6558D01*
X214580D01*
X214587Y6543D01*
X214610Y6527D01*
X214649Y6512D01*
X214687Y6489D01*
X214733Y6458D01*
X214787Y6435D01*
X214856Y6404D01*
X215002Y6351D01*
X215186Y6297D01*
X215386Y6266D01*
X215616Y6251D01*
X217352D01*
X215693D01*
X215747Y6259D01*
X215816Y6266D01*
X215893Y6274D01*
X215978Y6289D01*
X216077Y6312D01*
X216277Y6374D01*
X216385Y6412D01*
X216484Y6458D01*
X216592Y6512D01*
X216692Y6581D01*
X216792Y6658D01*
X216884Y6742D01*
X216891Y6750D01*
X216907Y6765D01*
X216930Y6796D01*
X216953Y6835D01*
X216991Y6881D01*
X217030Y6942D01*
X217076Y7019D01*
X217114Y7103D01*
X217160Y7196D01*
X217206Y7295D01*
X217245Y7411D01*
X217275Y7534D01*
X217306Y7664D01*
X217329Y7810D01*
X217344Y7964D01*
X217352Y8125D01*
Y8217D01*
X217344Y8278D01*
X217337Y8355D01*
X217329Y8447D01*
X217314Y8547D01*
X217291Y8655D01*
X217237Y8885D01*
X217199Y9000D01*
X217153Y9123D01*
X217099Y9238D01*
X217037Y9354D01*
X216968Y9461D01*
X216884Y9561D01*
X216876Y9569D01*
X216861Y9584D01*
X216838Y9607D01*
X216799Y9646D01*
X216753Y9684D01*
X216692Y9722D01*
X216630Y9768D01*
X216553Y9822D01*
X216469Y9868D01*
X216377Y9914D01*
X216277Y9953D01*
X216162Y9999D01*
X216047Y10029D01*
X215924Y10052D01*
X215793Y10068D01*
X215655Y10075D01*
D02*
G37*
G36*
X213236D02*
X210263D01*
X211462D01*
X211392Y10068D01*
X211316Y10060D01*
X211224Y10045D01*
X211116Y10022D01*
X211016Y9991D01*
X210909Y9953D01*
X210893Y9945D01*
X210863Y9930D01*
X210817Y9907D01*
X210755Y9868D01*
X210686Y9822D01*
X210617Y9768D01*
X210548Y9707D01*
X210494Y9638D01*
X210486Y9630D01*
X210471Y9607D01*
X210448Y9561D01*
X210417Y9507D01*
X210386Y9446D01*
X210356Y9369D01*
X210325Y9277D01*
X210302Y9185D01*
Y9177D01*
X210294Y9154D01*
X210287Y9108D01*
X210279Y9046D01*
Y8962D01*
X210271Y8854D01*
X210263Y8732D01*
Y6335D01*
X210886D01*
Y8555D01*
Y8563D01*
Y8570D01*
Y8616D01*
Y8686D01*
X210893Y8770D01*
X210901Y8854D01*
X210916Y8954D01*
X210939Y9039D01*
X210962Y9116D01*
Y9123D01*
X210978Y9146D01*
X210993Y9185D01*
X211016Y9223D01*
X211055Y9277D01*
X211101Y9323D01*
X211154Y9377D01*
X211216Y9423D01*
X211224Y9430D01*
X211247Y9438D01*
X211285Y9461D01*
X211339Y9484D01*
X211400Y9500D01*
X211477Y9523D01*
X211554Y9530D01*
X211646Y9538D01*
X211715D01*
X211784Y9523D01*
X211884Y9507D01*
X211992Y9477D01*
X212099Y9430D01*
X212222Y9369D01*
X212330Y9285D01*
X212345Y9269D01*
X212375Y9231D01*
X212422Y9169D01*
X212445Y9123D01*
X212468Y9070D01*
X212498Y9008D01*
X212522Y8939D01*
X212544Y8862D01*
X212567Y8778D01*
X212591Y8678D01*
X212598Y8570D01*
X212614Y8455D01*
Y8332D01*
Y6335D01*
X213236D01*
Y9999D01*
Y9991D01*
X212675D01*
Y9469D01*
X212667Y9477D01*
X212660Y9492D01*
X212637Y9523D01*
X212598Y9561D01*
X212560Y9607D01*
X212506Y9661D01*
X212452Y9715D01*
X212383Y9776D01*
X212299Y9830D01*
X212214Y9883D01*
X212122Y9937D01*
X212015Y9983D01*
X211907Y10022D01*
X211784Y10052D01*
X211654Y10068D01*
X211515Y10075D01*
X213236D01*
D02*
G37*
G36*
X177101Y11381D02*
X173699D01*
Y10790D01*
X176433D01*
Y9215D01*
X174068D01*
Y8624D01*
X176433D01*
Y6335D01*
X177101D01*
Y11381D01*
D02*
G37*
G36*
X161549D02*
X160927D01*
Y10675D01*
X161549D01*
Y9991D01*
X160927D01*
Y6335D01*
X161549D01*
Y11381D01*
D02*
G37*
G36*
X143225D02*
D01*
Y6335D01*
X141297Y11381D01*
X138517D01*
X140568D01*
X138517Y6335D01*
D01*
X139270D01*
X139853Y7864D01*
X141973D01*
X142518Y6335D01*
X143225D01*
Y11381D01*
D02*
G37*
G36*
X131789Y11381D02*
X131167D01*
Y10675D01*
X131789D01*
Y9991D01*
X131167D01*
Y6335D01*
X131789D01*
Y11381D01*
D02*
G37*
G36*
X119663D02*
X119041D01*
Y10675D01*
X119663D01*
Y9991D01*
X119041D01*
Y6335D01*
X119663D01*
Y11381D01*
D02*
G37*
G36*
X109080Y9991D02*
D01*
Y6335D01*
X107689D01*
X109080Y9991D01*
X108427D01*
X107643Y7795D01*
X107636Y7779D01*
X107620Y7733D01*
X107597Y7664D01*
X107567Y7572D01*
X107528Y7464D01*
X107490Y7342D01*
X107444Y7203D01*
X107405Y7065D01*
X107398Y7080D01*
X107390Y7119D01*
X107367Y7180D01*
X107344Y7257D01*
X107313Y7357D01*
X107275Y7480D01*
X107229Y7610D01*
X107175Y7756D01*
X106361Y9991D01*
X105723D01*
D01*
X107106Y6335D01*
X105723D01*
X109080D01*
Y9991D01*
D02*
G37*
G36*
X101085Y7042D02*
X100378D01*
Y6335D01*
X101085D01*
Y7042D01*
D02*
G37*
G36*
X148486Y10075D02*
X147169D01*
X148486D01*
Y6251D01*
D01*
Y10075D01*
D02*
G37*
G36*
X147149D02*
X145444D01*
X146973D01*
X146888Y10068D01*
X146788Y10060D01*
X146666Y10045D01*
X146543Y10022D01*
X146412Y9991D01*
X146289Y9945D01*
X146282D01*
X146274Y9937D01*
X146235Y9922D01*
X146174Y9891D01*
X146105Y9860D01*
X146028Y9807D01*
X145943Y9753D01*
X145867Y9684D01*
X145805Y9607D01*
X145798Y9599D01*
X145782Y9569D01*
X145752Y9523D01*
X145713Y9461D01*
X145682Y9384D01*
X145644Y9285D01*
X145613Y9177D01*
X145583Y9054D01*
X146189Y8970D01*
Y8985D01*
X146197Y9016D01*
X146212Y9070D01*
X146235Y9131D01*
X146266Y9200D01*
X146312Y9269D01*
X146366Y9346D01*
X146435Y9407D01*
X146443Y9415D01*
X146474Y9430D01*
X146519Y9461D01*
X146581Y9492D01*
X146658Y9515D01*
X146758Y9546D01*
X146865Y9561D01*
X146996Y9569D01*
X147065D01*
X147142Y9561D01*
X147234Y9553D01*
X147334Y9530D01*
X147433Y9507D01*
X147533Y9469D01*
X147610Y9423D01*
X147618Y9415D01*
X147641Y9400D01*
X147664Y9369D01*
X147695Y9331D01*
X147733Y9285D01*
X147756Y9223D01*
X147779Y9162D01*
X147787Y9093D01*
Y9085D01*
Y9070D01*
X147779Y9046D01*
Y9016D01*
X147756Y8947D01*
X147718Y8870D01*
X147710Y8862D01*
X147702Y8854D01*
X147656Y8816D01*
X147626Y8785D01*
X147587Y8762D01*
X147533Y8732D01*
X147479Y8709D01*
X147472D01*
X147457Y8701D01*
X147426Y8693D01*
X147372Y8678D01*
X147303Y8655D01*
X147203Y8624D01*
X147080Y8593D01*
X147011Y8570D01*
X146927Y8547D01*
X146919D01*
X146896Y8540D01*
X146865Y8532D01*
X146819Y8517D01*
X146765Y8501D01*
X146704Y8486D01*
X146566Y8447D01*
X146412Y8401D01*
X146258Y8348D01*
X146120Y8302D01*
X146059Y8278D01*
X146005Y8255D01*
X145990Y8248D01*
X145959Y8232D01*
X145913Y8209D01*
X145859Y8179D01*
X145790Y8133D01*
X145721Y8071D01*
X145659Y8010D01*
X145598Y7933D01*
X145590Y7925D01*
X145575Y7894D01*
X145552Y7848D01*
X145521Y7787D01*
X145490Y7710D01*
X145467Y7618D01*
X145452Y7518D01*
X145444Y7403D01*
Y7349D01*
X145452Y7288D01*
X145467Y7219D01*
X145490Y7126D01*
X145521Y7027D01*
X145567Y6927D01*
X145629Y6819D01*
X145636Y6804D01*
X145659Y6773D01*
X145705Y6727D01*
X145767Y6666D01*
X145836Y6596D01*
X145928Y6527D01*
X146036Y6458D01*
X146159Y6397D01*
X146174Y6389D01*
X146220Y6374D01*
X146289Y6351D01*
X146381Y6328D01*
X146496Y6297D01*
X146627Y6274D01*
X146773Y6259D01*
X146927Y6251D01*
X146996D01*
X147042Y6259D01*
X147103D01*
X147172Y6266D01*
X147334Y6289D01*
X147510Y6320D01*
X147687Y6374D01*
X147863Y6443D01*
X147940Y6489D01*
X148017Y6543D01*
X148025D01*
X148032Y6558D01*
X148079Y6596D01*
X148140Y6666D01*
X148217Y6765D01*
X148294Y6888D01*
X148370Y7042D01*
X148440Y7219D01*
X148486Y7426D01*
X147871Y7526D01*
Y7518D01*
Y7510D01*
X147863Y7464D01*
X147840Y7395D01*
X147818Y7311D01*
X147779Y7219D01*
X147733Y7126D01*
X147664Y7034D01*
X147587Y6950D01*
X147579Y6942D01*
X147541Y6919D01*
X147487Y6888D01*
X147418Y6858D01*
X147318Y6819D01*
X147211Y6788D01*
X147073Y6765D01*
X146927Y6758D01*
X146858D01*
X146781Y6765D01*
X146688Y6781D01*
X146581Y6796D01*
X146474Y6827D01*
X146374Y6873D01*
X146289Y6927D01*
X146282Y6934D01*
X146258Y6957D01*
X146220Y6996D01*
X146182Y7042D01*
X146151Y7103D01*
X146113Y7180D01*
X146089Y7257D01*
X146082Y7342D01*
Y7349D01*
Y7380D01*
X146089Y7411D01*
X146105Y7464D01*
X146128Y7510D01*
X146159Y7572D01*
X146205Y7626D01*
X146266Y7672D01*
X146274Y7679D01*
X146297Y7687D01*
X146335Y7702D01*
X146397Y7733D01*
X146481Y7756D01*
X146589Y7795D01*
X146658Y7818D01*
X146727Y7833D01*
X146811Y7856D01*
X146904Y7879D01*
X146911D01*
X146934Y7887D01*
X146965Y7894D01*
X147011Y7910D01*
X147073Y7925D01*
X147134Y7941D01*
X147280Y7987D01*
X147433Y8033D01*
X147595Y8079D01*
X147741Y8133D01*
X147802Y8156D01*
X147856Y8179D01*
X147863Y8186D01*
X147902Y8202D01*
X147948Y8232D01*
X148002Y8271D01*
X148071Y8317D01*
X148132Y8378D01*
X148202Y8447D01*
X148255Y8524D01*
X148263Y8532D01*
X148278Y8563D01*
X148294Y8609D01*
X148317Y8670D01*
X148347Y8739D01*
X148363Y8824D01*
X148378Y8916D01*
X148386Y9016D01*
Y9023D01*
Y9054D01*
X148378Y9108D01*
X148370Y9162D01*
X148363Y9231D01*
X148340Y9307D01*
X148317Y9392D01*
X148278Y9469D01*
X148271Y9477D01*
X148255Y9507D01*
X148232Y9546D01*
X148194Y9592D01*
X148155Y9646D01*
X148102Y9699D01*
X148040Y9761D01*
X147971Y9814D01*
X147963Y9822D01*
X147940Y9830D01*
X147910Y9853D01*
X147863Y9876D01*
X147810Y9907D01*
X147741Y9937D01*
X147664Y9968D01*
X147579Y9999D01*
X147564D01*
X147533Y10014D01*
X147487Y10022D01*
X147418Y10037D01*
X147334Y10052D01*
X147249Y10060D01*
X147149Y10075D01*
D02*
G37*
G36*
X114433Y10075D02*
X113116D01*
X114433D01*
Y6251D01*
D01*
Y10075D01*
D02*
G37*
G36*
X113096D02*
X111391D01*
X112919D01*
X112835Y10068D01*
X112735Y10060D01*
X112612Y10045D01*
X112489Y10022D01*
X112359Y9991D01*
X112236Y9945D01*
X112228D01*
X112221Y9937D01*
X112182Y9922D01*
X112121Y9891D01*
X112052Y9860D01*
X111975Y9807D01*
X111890Y9753D01*
X111814Y9684D01*
X111752Y9607D01*
X111744Y9599D01*
X111729Y9569D01*
X111698Y9523D01*
X111660Y9461D01*
X111629Y9384D01*
X111591Y9285D01*
X111560Y9177D01*
X111530Y9054D01*
X112136Y8970D01*
Y8985D01*
X112144Y9016D01*
X112159Y9070D01*
X112182Y9131D01*
X112213Y9200D01*
X112259Y9269D01*
X112313Y9346D01*
X112382Y9407D01*
X112390Y9415D01*
X112420Y9430D01*
X112466Y9461D01*
X112528Y9492D01*
X112605Y9515D01*
X112705Y9546D01*
X112812Y9561D01*
X112943Y9569D01*
X113012D01*
X113089Y9561D01*
X113181Y9553D01*
X113280Y9530D01*
X113380Y9507D01*
X113480Y9469D01*
X113557Y9423D01*
X113565Y9415D01*
X113588Y9400D01*
X113611Y9369D01*
X113642Y9331D01*
X113680Y9285D01*
X113703Y9223D01*
X113726Y9162D01*
X113734Y9093D01*
Y9085D01*
Y9070D01*
X113726Y9046D01*
Y9016D01*
X113703Y8947D01*
X113664Y8870D01*
X113657Y8862D01*
X113649Y8854D01*
X113603Y8816D01*
X113572Y8785D01*
X113534Y8762D01*
X113480Y8732D01*
X113426Y8709D01*
X113419D01*
X113403Y8701D01*
X113373Y8693D01*
X113319Y8678D01*
X113250Y8655D01*
X113150Y8624D01*
X113027Y8593D01*
X112958Y8570D01*
X112873Y8547D01*
X112866D01*
X112843Y8540D01*
X112812Y8532D01*
X112766Y8517D01*
X112712Y8501D01*
X112651Y8486D01*
X112513Y8447D01*
X112359Y8401D01*
X112205Y8348D01*
X112067Y8301D01*
X112006Y8278D01*
X111952Y8255D01*
X111936Y8248D01*
X111906Y8232D01*
X111860Y8209D01*
X111806Y8179D01*
X111737Y8133D01*
X111668Y8071D01*
X111606Y8010D01*
X111545Y7933D01*
X111537Y7925D01*
X111522Y7894D01*
X111499Y7848D01*
X111468Y7787D01*
X111437Y7710D01*
X111414Y7618D01*
X111399Y7518D01*
X111391Y7403D01*
Y7349D01*
X111399Y7288D01*
X111414Y7219D01*
X111437Y7126D01*
X111468Y7027D01*
X111514Y6927D01*
X111575Y6819D01*
X111583Y6804D01*
X111606Y6773D01*
X111652Y6727D01*
X111714Y6666D01*
X111783Y6596D01*
X111875Y6527D01*
X111983Y6458D01*
X112106Y6397D01*
X112121Y6389D01*
X112167Y6374D01*
X112236Y6351D01*
X112328Y6328D01*
X112443Y6297D01*
X112574Y6274D01*
X112720Y6259D01*
X112873Y6251D01*
X112943D01*
X112989Y6259D01*
X113050D01*
X113119Y6266D01*
X113280Y6289D01*
X113457Y6320D01*
X113634Y6374D01*
X113810Y6443D01*
X113887Y6489D01*
X113964Y6543D01*
X113972D01*
X113979Y6558D01*
X114025Y6596D01*
X114087Y6666D01*
X114164Y6765D01*
X114241Y6888D01*
X114317Y7042D01*
X114386Y7219D01*
X114433Y7426D01*
X113818Y7526D01*
Y7518D01*
Y7510D01*
X113810Y7464D01*
X113787Y7395D01*
X113764Y7311D01*
X113726Y7219D01*
X113680Y7126D01*
X113611Y7034D01*
X113534Y6950D01*
X113526Y6942D01*
X113488Y6919D01*
X113434Y6888D01*
X113365Y6858D01*
X113265Y6819D01*
X113158Y6788D01*
X113019Y6765D01*
X112873Y6758D01*
X112804D01*
X112727Y6765D01*
X112635Y6781D01*
X112528Y6796D01*
X112420Y6827D01*
X112320Y6873D01*
X112236Y6927D01*
X112228Y6934D01*
X112205Y6957D01*
X112167Y6996D01*
X112128Y7042D01*
X112098Y7103D01*
X112059Y7180D01*
X112036Y7257D01*
X112029Y7342D01*
Y7349D01*
Y7380D01*
X112036Y7411D01*
X112052Y7464D01*
X112075Y7510D01*
X112106Y7572D01*
X112152Y7626D01*
X112213Y7672D01*
X112221Y7679D01*
X112244Y7687D01*
X112282Y7702D01*
X112344Y7733D01*
X112428Y7756D01*
X112536Y7795D01*
X112605Y7818D01*
X112674Y7833D01*
X112758Y7856D01*
X112850Y7879D01*
X112858D01*
X112881Y7887D01*
X112912Y7894D01*
X112958Y7910D01*
X113019Y7925D01*
X113081Y7941D01*
X113227Y7987D01*
X113380Y8033D01*
X113542Y8079D01*
X113688Y8133D01*
X113749Y8156D01*
X113803Y8179D01*
X113810Y8186D01*
X113849Y8202D01*
X113895Y8232D01*
X113949Y8271D01*
X114018Y8317D01*
X114079Y8378D01*
X114148Y8447D01*
X114202Y8524D01*
X114210Y8532D01*
X114225Y8563D01*
X114241Y8609D01*
X114263Y8670D01*
X114294Y8739D01*
X114310Y8824D01*
X114325Y8916D01*
X114333Y9016D01*
Y9023D01*
Y9054D01*
X114325Y9108D01*
X114317Y9162D01*
X114310Y9231D01*
X114287Y9307D01*
X114263Y9392D01*
X114225Y9469D01*
X114217Y9477D01*
X114202Y9507D01*
X114179Y9546D01*
X114141Y9592D01*
X114102Y9645D01*
X114049Y9699D01*
X113987Y9761D01*
X113918Y9814D01*
X113910Y9822D01*
X113887Y9830D01*
X113856Y9853D01*
X113810Y9876D01*
X113757Y9907D01*
X113688Y9937D01*
X113611Y9968D01*
X113526Y9999D01*
X113511D01*
X113480Y10014D01*
X113434Y10022D01*
X113365Y10037D01*
X113280Y10052D01*
X113196Y10060D01*
X113096Y10075D01*
D02*
G37*
%LPD*%
G36*
X103642Y10275D02*
X103673Y10244D01*
X103727Y10206D01*
X103796Y10152D01*
X103880Y10083D01*
X103980Y10014D01*
X104095Y9930D01*
X104226Y9853D01*
X104234D01*
X104241Y9845D01*
X104287Y9814D01*
X104356Y9776D01*
X104441Y9730D01*
X104541Y9676D01*
X104648Y9630D01*
X104763Y9576D01*
X104871Y9530D01*
Y6335D01*
X103634D01*
Y10283D01*
X103642Y10275D01*
D02*
G37*
G36*
X134239Y9561D02*
X134316Y9553D01*
X134408Y9523D01*
X134516Y9484D01*
X134639Y9415D01*
X134754Y9331D01*
X134815Y9269D01*
X134869Y9208D01*
Y9200D01*
X134884Y9192D01*
X134892Y9169D01*
X134915Y9139D01*
X134938Y9108D01*
X134961Y9062D01*
X134984Y9008D01*
X135015Y8947D01*
X135046Y8878D01*
X135069Y8801D01*
X135092Y8716D01*
X135115Y8632D01*
X135145Y8424D01*
X135161Y8186D01*
Y8179D01*
Y8156D01*
Y8125D01*
Y8079D01*
X135153Y8025D01*
Y7964D01*
X135138Y7818D01*
X135115Y7664D01*
X135084Y7503D01*
X135046Y7357D01*
X135015Y7295D01*
X134984Y7234D01*
Y7226D01*
X134969Y7211D01*
X134953Y7188D01*
X134930Y7157D01*
X134869Y7080D01*
X134777Y6996D01*
X134662Y6911D01*
X134523Y6835D01*
X134454Y6804D01*
X134370Y6781D01*
X134285Y6765D01*
X134193Y6758D01*
X134155D01*
X134124Y6765D01*
X134047Y6773D01*
X133955Y6804D01*
X133840Y6842D01*
X133725Y6904D01*
X133609Y6996D01*
X133548Y7050D01*
X133494Y7111D01*
Y7119D01*
X133479Y7126D01*
X133464Y7149D01*
X133448Y7180D01*
X133425Y7211D01*
X133402Y7257D01*
X133371Y7311D01*
X133341Y7372D01*
X133318Y7449D01*
X133287Y7526D01*
X133264Y7610D01*
X133241Y7702D01*
X133226Y7810D01*
X133210Y7917D01*
X133195Y8033D01*
Y8163D01*
Y8171D01*
Y8194D01*
Y8232D01*
X133202Y8278D01*
Y8340D01*
X133210Y8409D01*
X133233Y8563D01*
X133264Y8739D01*
X133318Y8908D01*
X133387Y9077D01*
X133425Y9154D01*
X133479Y9223D01*
Y9231D01*
X133494Y9238D01*
X133533Y9277D01*
X133586Y9331D01*
X133671Y9400D01*
X133771Y9461D01*
X133894Y9515D01*
X134024Y9553D01*
X134093Y9569D01*
X134209D01*
X134239Y9561D01*
D02*
G37*
G36*
X97905Y10882D02*
X97982Y10874D01*
X98082Y10843D01*
X98189Y10797D01*
X98304Y10736D01*
X98420Y10644D01*
X98474Y10582D01*
X98519Y10521D01*
Y10513D01*
X98535Y10498D01*
X98550Y10467D01*
X98566Y10429D01*
X98589Y10375D01*
X98619Y10314D01*
X98650Y10229D01*
X98673Y10137D01*
X98704Y10029D01*
X98735Y9907D01*
X98758Y9768D01*
X98788Y9607D01*
X98804Y9438D01*
X98819Y9254D01*
X98834Y9046D01*
Y8824D01*
Y8808D01*
Y8770D01*
Y8709D01*
X98827Y8624D01*
Y8524D01*
X98819Y8409D01*
X98811Y8278D01*
X98796Y8148D01*
X98765Y7871D01*
X98712Y7595D01*
X98681Y7472D01*
X98642Y7357D01*
X98596Y7249D01*
X98550Y7165D01*
Y7157D01*
X98535Y7149D01*
X98497Y7103D01*
X98435Y7034D01*
X98351Y6965D01*
X98243Y6888D01*
X98120Y6819D01*
X97982Y6773D01*
X97905Y6765D01*
X97828Y6758D01*
X97790D01*
X97759Y6765D01*
X97682Y6781D01*
X97583Y6812D01*
X97467Y6858D01*
X97352Y6927D01*
X97291Y6973D01*
X97229Y7034D01*
X97168Y7096D01*
X97114Y7165D01*
Y7173D01*
X97099Y7188D01*
X97083Y7211D01*
X97068Y7249D01*
X97045Y7295D01*
X97022Y7365D01*
X96999Y7441D01*
X96968Y7526D01*
X96938Y7633D01*
X96914Y7749D01*
X96891Y7887D01*
X96868Y8040D01*
X96845Y8209D01*
X96838Y8394D01*
X96822Y8601D01*
Y8824D01*
Y8839D01*
Y8878D01*
Y8939D01*
X96830Y9023D01*
Y9123D01*
X96838Y9238D01*
X96845Y9361D01*
X96861Y9499D01*
X96891Y9776D01*
X96945Y10045D01*
X96976Y10175D01*
X97014Y10291D01*
X97060Y10390D01*
X97114Y10475D01*
Y10483D01*
X97129Y10490D01*
X97168Y10536D01*
X97229Y10605D01*
X97314Y10682D01*
X97421Y10759D01*
X97544Y10828D01*
X97682Y10874D01*
X97759Y10882D01*
X97836Y10890D01*
X97874D01*
X97905Y10882D01*
D02*
G37*
G36*
X99472Y6251D02*
X97897D01*
X97951Y6259D01*
X98013Y6266D01*
X98082Y6282D01*
X98159Y6297D01*
X98243Y6312D01*
X98427Y6374D01*
X98527Y6420D01*
X98619Y6466D01*
X98719Y6527D01*
X98811Y6596D01*
X98896Y6673D01*
X98980Y6765D01*
X98988Y6773D01*
X99003Y6796D01*
X99026Y6835D01*
X99057Y6888D01*
X99095Y6957D01*
X99134Y7042D01*
X99180Y7142D01*
X99226Y7265D01*
X99272Y7395D01*
X99318Y7549D01*
X99357Y7718D01*
X99395Y7902D01*
X99426Y8109D01*
X99449Y8325D01*
X99464Y8570D01*
X99472Y8824D01*
Y6251D01*
D02*
G37*
G36*
X200740Y8163D02*
X200763Y8156D01*
X200786Y8148D01*
X200825Y8133D01*
X200871Y8125D01*
X200917Y8110D01*
X200978Y8086D01*
X201047Y8071D01*
X201124Y8056D01*
X201201Y8033D01*
X201293Y8010D01*
X201393Y7994D01*
X201501Y7971D01*
X201616Y7956D01*
X201739Y7933D01*
X201754D01*
X201800Y7925D01*
X201869Y7910D01*
X201954Y7894D01*
X202130Y7856D01*
X202215Y7833D01*
X202284Y7810D01*
X202292D01*
X202307Y7795D01*
X202338Y7779D01*
X202368Y7756D01*
X202445Y7695D01*
X202522Y7603D01*
Y7595D01*
X202537Y7580D01*
X202545Y7557D01*
X202560Y7518D01*
X202591Y7426D01*
X202599Y7372D01*
X202607Y7311D01*
Y7303D01*
Y7272D01*
X202599Y7226D01*
X202584Y7165D01*
X202560Y7103D01*
X202530Y7034D01*
X202484Y6965D01*
X202422Y6896D01*
X202415Y6888D01*
X202384Y6873D01*
X202345Y6842D01*
X202284Y6819D01*
X202207Y6788D01*
X202107Y6758D01*
X202000Y6742D01*
X201869Y6735D01*
X201808D01*
X201746Y6742D01*
X201654Y6758D01*
X201562Y6773D01*
X201455Y6796D01*
X201347Y6835D01*
X201239Y6888D01*
X201224Y6896D01*
X201193Y6919D01*
X201140Y6950D01*
X201078Y7004D01*
X201017Y7057D01*
X200948Y7134D01*
X200879Y7219D01*
X200825Y7318D01*
X200817Y7326D01*
X200810Y7357D01*
X200794Y7403D01*
X200771Y7472D01*
X200756Y7564D01*
X200740Y7672D01*
X200733Y7795D01*
X200725Y7941D01*
Y8171D01*
X200740Y8163D01*
D02*
G37*
G36*
X123610Y8163D02*
X123633Y8156D01*
X123656Y8148D01*
X123695Y8133D01*
X123741Y8125D01*
X123787Y8109D01*
X123848Y8086D01*
X123917Y8071D01*
X123994Y8056D01*
X124071Y8033D01*
X124163Y8010D01*
X124263Y7994D01*
X124370Y7971D01*
X124486Y7956D01*
X124609Y7933D01*
X124624D01*
X124670Y7925D01*
X124739Y7910D01*
X124823Y7894D01*
X125000Y7856D01*
X125085Y7833D01*
X125154Y7810D01*
X125162D01*
X125177Y7795D01*
X125207Y7779D01*
X125238Y7756D01*
X125315Y7695D01*
X125392Y7603D01*
Y7595D01*
X125407Y7580D01*
X125415Y7557D01*
X125430Y7518D01*
X125461Y7426D01*
X125469Y7372D01*
X125476Y7311D01*
Y7303D01*
Y7272D01*
X125469Y7226D01*
X125453Y7165D01*
X125430Y7103D01*
X125399Y7034D01*
X125354Y6965D01*
X125292Y6896D01*
X125284Y6888D01*
X125254Y6873D01*
X125215Y6842D01*
X125154Y6819D01*
X125077Y6788D01*
X124977Y6758D01*
X124870Y6742D01*
X124739Y6735D01*
X124678D01*
X124616Y6742D01*
X124524Y6758D01*
X124432Y6773D01*
X124324Y6796D01*
X124217Y6835D01*
X124109Y6888D01*
X124094Y6896D01*
X124063Y6919D01*
X124010Y6950D01*
X123948Y7004D01*
X123887Y7057D01*
X123818Y7134D01*
X123748Y7219D01*
X123695Y7318D01*
X123687Y7326D01*
X123679Y7357D01*
X123664Y7403D01*
X123641Y7472D01*
X123626Y7564D01*
X123610Y7672D01*
X123602Y7795D01*
X123595Y7941D01*
Y8171D01*
X123610Y8163D01*
D02*
G37*
G36*
X126137Y6251D02*
X124946D01*
X124993Y6259D01*
X125039D01*
X125100Y6266D01*
X125231Y6289D01*
X125384Y6320D01*
X125530Y6374D01*
X125684Y6443D01*
X125814Y6543D01*
X125830Y6558D01*
X125868Y6596D01*
X125914Y6658D01*
X125976Y6750D01*
X126037Y6858D01*
X126083Y6981D01*
X126121Y7134D01*
X126137Y7295D01*
Y6251D01*
D02*
G37*
G36*
X115784Y8163D02*
X115807Y8156D01*
X115830Y8148D01*
X115869Y8133D01*
X115915Y8125D01*
X115961Y8109D01*
X116022Y8086D01*
X116091Y8071D01*
X116168Y8056D01*
X116245Y8033D01*
X116337Y8010D01*
X116437Y7994D01*
X116544Y7971D01*
X116660Y7956D01*
X116783Y7933D01*
X116798D01*
X116844Y7925D01*
X116913Y7910D01*
X116998Y7894D01*
X117174Y7856D01*
X117259Y7833D01*
X117328Y7810D01*
X117335D01*
X117351Y7795D01*
X117382Y7779D01*
X117412Y7756D01*
X117489Y7695D01*
X117566Y7603D01*
Y7595D01*
X117581Y7580D01*
X117589Y7557D01*
X117604Y7518D01*
X117635Y7426D01*
X117643Y7372D01*
X117650Y7311D01*
Y7303D01*
Y7272D01*
X117643Y7226D01*
X117627Y7165D01*
X117604Y7103D01*
X117574Y7034D01*
X117527Y6965D01*
X117466Y6896D01*
X117458Y6888D01*
X117428Y6873D01*
X117389Y6842D01*
X117328Y6819D01*
X117251Y6788D01*
X117151Y6758D01*
X117044Y6742D01*
X116913Y6735D01*
X116852D01*
X116790Y6742D01*
X116698Y6758D01*
X116606Y6773D01*
X116498Y6796D01*
X116391Y6835D01*
X116283Y6888D01*
X116268Y6896D01*
X116237Y6919D01*
X116183Y6950D01*
X116122Y7004D01*
X116061Y7057D01*
X115991Y7134D01*
X115922Y7219D01*
X115869Y7318D01*
X115861Y7326D01*
X115853Y7357D01*
X115838Y7403D01*
X115815Y7472D01*
X115799Y7564D01*
X115784Y7672D01*
X115777Y7795D01*
X115769Y7941D01*
Y8171D01*
X115784Y8163D01*
D02*
G37*
G36*
X118311Y6251D02*
X117121D01*
X117167Y6259D01*
X117213D01*
X117274Y6266D01*
X117405Y6289D01*
X117558Y6320D01*
X117704Y6374D01*
X117858Y6443D01*
X117988Y6543D01*
X118004Y6558D01*
X118042Y6596D01*
X118088Y6658D01*
X118150Y6750D01*
X118211Y6858D01*
X118257Y6981D01*
X118296Y7134D01*
X118311Y7295D01*
Y6251D01*
D02*
G37*
G36*
X197837Y9553D02*
X197914Y9546D01*
X198006Y9523D01*
X198114Y9477D01*
X198229Y9415D01*
X198344Y9338D01*
X198398Y9285D01*
X198452Y9223D01*
X198467Y9208D01*
X198475Y9185D01*
X198498Y9162D01*
X198513Y9123D01*
X198536Y9077D01*
X198567Y9023D01*
X198590Y8962D01*
X198613Y8893D01*
X198644Y8816D01*
X198667Y8724D01*
X198682Y8632D01*
X198705Y8524D01*
X198713Y8409D01*
X198728Y8286D01*
Y8156D01*
Y8148D01*
Y8125D01*
Y8086D01*
X198721Y8040D01*
Y7979D01*
X198713Y7918D01*
X198690Y7756D01*
X198659Y7587D01*
X198605Y7411D01*
X198536Y7249D01*
X198490Y7173D01*
X198436Y7103D01*
X198421Y7088D01*
X198383Y7050D01*
X198321Y6996D01*
X198237Y6934D01*
X198137Y6865D01*
X198022Y6812D01*
X197883Y6773D01*
X197814Y6765D01*
X197738Y6758D01*
X197699D01*
X197668Y6765D01*
X197591Y6773D01*
X197499Y6796D01*
X197392Y6842D01*
X197277Y6896D01*
X197154Y6981D01*
X197100Y7027D01*
X197046Y7088D01*
Y7096D01*
X197031Y7103D01*
X197023Y7126D01*
X197000Y7149D01*
X196977Y7188D01*
X196954Y7226D01*
X196931Y7280D01*
X196900Y7342D01*
X196877Y7403D01*
X196854Y7480D01*
X196831Y7564D01*
X196808Y7656D01*
X196785Y7756D01*
X196777Y7864D01*
X196762Y7979D01*
Y8102D01*
Y8110D01*
Y8133D01*
Y8171D01*
X196770Y8225D01*
Y8286D01*
X196777Y8355D01*
X196800Y8524D01*
X196831Y8701D01*
X196885Y8885D01*
X196954Y9062D01*
X197000Y9139D01*
X197054Y9208D01*
Y9215D01*
X197069Y9223D01*
X197108Y9262D01*
X197169Y9323D01*
X197254Y9384D01*
X197353Y9446D01*
X197476Y9507D01*
X197615Y9546D01*
X197691Y9561D01*
X197807D01*
X197837Y9553D01*
D02*
G37*
G36*
X199366Y6251D02*
X197845D01*
X197876Y6259D01*
X197960Y6266D01*
X198060Y6282D01*
X198191Y6312D01*
X198321Y6351D01*
X198467Y6412D01*
X198605Y6489D01*
X198613D01*
X198621Y6497D01*
X198667Y6535D01*
X198728Y6589D01*
X198813Y6666D01*
X198897Y6758D01*
X198997Y6873D01*
X199082Y7004D01*
X199166Y7157D01*
Y7165D01*
X199174Y7180D01*
X199181Y7203D01*
X199197Y7234D01*
X199212Y7272D01*
X199227Y7326D01*
X199266Y7449D01*
X199304Y7595D01*
X199335Y7764D01*
X199358Y7948D01*
X199366Y8156D01*
Y6251D01*
D02*
G37*
G36*
X185703Y9553D02*
X185780Y9546D01*
X185872Y9523D01*
X185979Y9477D01*
X186095Y9415D01*
X186210Y9338D01*
X186264Y9285D01*
X186317Y9223D01*
X186333Y9208D01*
X186340Y9185D01*
X186363Y9162D01*
X186379Y9123D01*
X186402Y9077D01*
X186433Y9023D01*
X186456Y8962D01*
X186479Y8893D01*
X186509Y8816D01*
X186532Y8724D01*
X186548Y8632D01*
X186571Y8524D01*
X186578Y8409D01*
X186594Y8286D01*
Y8156D01*
Y8148D01*
Y8125D01*
Y8086D01*
X186586Y8040D01*
Y7979D01*
X186578Y7918D01*
X186555Y7756D01*
X186525Y7587D01*
X186471Y7411D01*
X186402Y7249D01*
X186356Y7173D01*
X186302Y7103D01*
X186287Y7088D01*
X186248Y7050D01*
X186187Y6996D01*
X186102Y6934D01*
X186002Y6865D01*
X185887Y6812D01*
X185749Y6773D01*
X185680Y6765D01*
X185603Y6758D01*
X185565D01*
X185534Y6765D01*
X185457Y6773D01*
X185365Y6796D01*
X185257Y6842D01*
X185142Y6896D01*
X185019Y6981D01*
X184966Y7027D01*
X184912Y7088D01*
Y7096D01*
X184897Y7103D01*
X184889Y7126D01*
X184866Y7149D01*
X184843Y7188D01*
X184820Y7226D01*
X184797Y7280D01*
X184766Y7342D01*
X184743Y7403D01*
X184720Y7480D01*
X184697Y7564D01*
X184674Y7656D01*
X184651Y7756D01*
X184643Y7864D01*
X184628Y7979D01*
Y8102D01*
Y8110D01*
Y8133D01*
Y8171D01*
X184635Y8225D01*
Y8286D01*
X184643Y8355D01*
X184666Y8524D01*
X184697Y8701D01*
X184751Y8885D01*
X184820Y9062D01*
X184866Y9139D01*
X184920Y9208D01*
Y9215D01*
X184935Y9223D01*
X184973Y9262D01*
X185035Y9323D01*
X185119Y9384D01*
X185219Y9446D01*
X185342Y9507D01*
X185480Y9546D01*
X185557Y9561D01*
X185672D01*
X185703Y9553D01*
D02*
G37*
G36*
X187231Y6251D02*
X185711D01*
X185741Y6259D01*
X185826Y6266D01*
X185926Y6282D01*
X186056Y6312D01*
X186187Y6351D01*
X186333Y6412D01*
X186471Y6489D01*
X186479D01*
X186486Y6497D01*
X186532Y6535D01*
X186594Y6589D01*
X186678Y6666D01*
X186763Y6758D01*
X186863Y6873D01*
X186947Y7004D01*
X187031Y7157D01*
Y7165D01*
X187039Y7180D01*
X187047Y7203D01*
X187062Y7234D01*
X187078Y7272D01*
X187093Y7326D01*
X187131Y7449D01*
X187170Y7595D01*
X187200Y7764D01*
X187223Y7948D01*
X187231Y8156D01*
Y6251D01*
D02*
G37*
G36*
X165259D02*
X163677D01*
X163730Y6259D01*
X163792Y6266D01*
X163869Y6274D01*
X163945Y6289D01*
X164038Y6312D01*
X164230Y6366D01*
X164330Y6412D01*
X164429Y6458D01*
X164529Y6512D01*
X164621Y6573D01*
X164714Y6650D01*
X164806Y6735D01*
X164813Y6742D01*
X164829Y6758D01*
X164844Y6788D01*
X164875Y6827D01*
X164913Y6881D01*
X164952Y6942D01*
X164990Y7011D01*
X165028Y7096D01*
X165074Y7188D01*
X165113Y7295D01*
X165151Y7411D01*
X165190Y7541D01*
X165220Y7672D01*
X165236Y7825D01*
X165251Y7979D01*
X165259Y8148D01*
Y6251D01*
D02*
G37*
G36*
X207883Y9561D02*
X207967Y9553D01*
X208067Y9530D01*
X208182Y9500D01*
X208297Y9446D01*
X208420Y9377D01*
X208536Y9277D01*
X208551Y9262D01*
X208582Y9223D01*
X208628Y9162D01*
X208682Y9070D01*
X208735Y8962D01*
X208789Y8831D01*
X208827Y8678D01*
X208850Y8509D01*
X206807D01*
Y8517D01*
Y8532D01*
X206815Y8555D01*
Y8586D01*
X206831Y8670D01*
X206854Y8770D01*
X206884Y8878D01*
X206930Y8993D01*
X206977Y9108D01*
X207046Y9200D01*
Y9208D01*
X207061Y9215D01*
X207099Y9262D01*
X207169Y9315D01*
X207253Y9384D01*
X207368Y9454D01*
X207499Y9515D01*
X207645Y9553D01*
X207729Y9561D01*
X207814Y9569D01*
X207852D01*
X207883Y9561D01*
D02*
G37*
G36*
X209519Y6251D02*
X207860D01*
X207913Y6259D01*
X207983Y6266D01*
X208059Y6274D01*
X208144Y6289D01*
X208244Y6312D01*
X208443Y6374D01*
X208551Y6412D01*
X208651Y6458D01*
X208758Y6512D01*
X208858Y6581D01*
X208958Y6658D01*
X209050Y6742D01*
X209058Y6750D01*
X209073Y6765D01*
X209096Y6796D01*
X209119Y6835D01*
X209158Y6881D01*
X209196Y6942D01*
X209242Y7019D01*
X209280Y7103D01*
X209327Y7196D01*
X209373Y7295D01*
X209411Y7411D01*
X209442Y7534D01*
X209472Y7664D01*
X209495Y7810D01*
X209511Y7964D01*
X209519Y8125D01*
Y6251D01*
D02*
G37*
G36*
X181656Y9561D02*
X181740Y9553D01*
X181840Y9530D01*
X181955Y9499D01*
X182070Y9446D01*
X182193Y9377D01*
X182308Y9277D01*
X182324Y9262D01*
X182354Y9223D01*
X182401Y9162D01*
X182454Y9070D01*
X182508Y8962D01*
X182562Y8831D01*
X182600Y8678D01*
X182623Y8509D01*
X180580D01*
Y8517D01*
Y8532D01*
X180588Y8555D01*
Y8586D01*
X180603Y8670D01*
X180626Y8770D01*
X180657Y8878D01*
X180703Y8993D01*
X180749Y9108D01*
X180818Y9200D01*
Y9208D01*
X180834Y9215D01*
X180872Y9262D01*
X180941Y9315D01*
X181026Y9384D01*
X181141Y9454D01*
X181272Y9515D01*
X181418Y9553D01*
X181502Y9561D01*
X181586Y9569D01*
X181625D01*
X181656Y9561D01*
D02*
G37*
G36*
X183291Y6251D02*
X181632D01*
X181686Y6259D01*
X181755Y6266D01*
X181832Y6274D01*
X181917Y6289D01*
X182017Y6312D01*
X182216Y6374D01*
X182324Y6412D01*
X182423Y6458D01*
X182531Y6512D01*
X182631Y6581D01*
X182731Y6658D01*
X182823Y6742D01*
X182831Y6750D01*
X182846Y6765D01*
X182869Y6796D01*
X182892Y6835D01*
X182930Y6881D01*
X182969Y6942D01*
X183015Y7019D01*
X183053Y7103D01*
X183099Y7196D01*
X183145Y7295D01*
X183184Y7411D01*
X183215Y7534D01*
X183245Y7664D01*
X183268Y7810D01*
X183284Y7964D01*
X183291Y8125D01*
Y6251D01*
D02*
G37*
G36*
X150721Y9561D02*
X150805Y9553D01*
X150905Y9530D01*
X151020Y9499D01*
X151135Y9446D01*
X151258Y9377D01*
X151373Y9277D01*
X151389Y9262D01*
X151419Y9223D01*
X151465Y9162D01*
X151519Y9070D01*
X151573Y8962D01*
X151627Y8831D01*
X151665Y8678D01*
X151688Y8509D01*
X149645D01*
Y8517D01*
Y8532D01*
X149653Y8555D01*
Y8586D01*
X149668Y8670D01*
X149691Y8770D01*
X149722Y8878D01*
X149768Y8993D01*
X149814Y9108D01*
X149883Y9200D01*
Y9208D01*
X149899Y9215D01*
X149937Y9262D01*
X150006Y9315D01*
X150091Y9384D01*
X150206Y9454D01*
X150337Y9515D01*
X150482Y9553D01*
X150567Y9561D01*
X150651Y9569D01*
X150690D01*
X150721Y9561D01*
D02*
G37*
G36*
X152356Y6251D02*
X150698D01*
X150751Y6259D01*
X150820Y6266D01*
X150897Y6274D01*
X150982Y6289D01*
X151082Y6312D01*
X151281Y6374D01*
X151389Y6412D01*
X151488Y6458D01*
X151596Y6512D01*
X151696Y6581D01*
X151796Y6658D01*
X151888Y6742D01*
X151895Y6750D01*
X151911Y6765D01*
X151934Y6796D01*
X151957Y6835D01*
X151995Y6881D01*
X152034Y6942D01*
X152080Y7019D01*
X152118Y7103D01*
X152164Y7196D01*
X152210Y7295D01*
X152249Y7411D01*
X152279Y7534D01*
X152310Y7664D01*
X152333Y7810D01*
X152349Y7964D01*
X152356Y8125D01*
Y6251D01*
D02*
G37*
G36*
X193821Y9553D02*
X193905Y9546D01*
X194013Y9515D01*
X194135Y9477D01*
X194266Y9415D01*
X194397Y9323D01*
X194458Y9269D01*
X194519Y9208D01*
X194535Y9192D01*
X194550Y9169D01*
X194566Y9146D01*
X194589Y9108D01*
X194612Y9062D01*
X194642Y9008D01*
X194666Y8947D01*
X194696Y8878D01*
X194727Y8801D01*
X194750Y8716D01*
X194773Y8616D01*
X194788Y8517D01*
X194804Y8401D01*
X194819Y8286D01*
Y8156D01*
Y8148D01*
Y8125D01*
Y8086D01*
X194811Y8040D01*
Y7987D01*
X194804Y7918D01*
X194781Y7764D01*
X194742Y7595D01*
X194696Y7418D01*
X194619Y7249D01*
X194573Y7173D01*
X194519Y7103D01*
X194504Y7088D01*
X194466Y7050D01*
X194397Y6996D01*
X194305Y6934D01*
X194197Y6865D01*
X194059Y6812D01*
X193913Y6773D01*
X193828Y6765D01*
X193744Y6758D01*
X193698D01*
X193667Y6765D01*
X193583Y6773D01*
X193475Y6804D01*
X193352Y6842D01*
X193222Y6904D01*
X193099Y6988D01*
X193037Y7042D01*
X192976Y7103D01*
Y7111D01*
X192961Y7119D01*
X192945Y7142D01*
X192930Y7173D01*
X192907Y7211D01*
X192876Y7257D01*
X192853Y7311D01*
X192822Y7372D01*
X192791Y7441D01*
X192769Y7518D01*
X192738Y7610D01*
X192715Y7710D01*
X192699Y7810D01*
X192684Y7925D01*
X192669Y8048D01*
Y8179D01*
Y8186D01*
Y8209D01*
Y8240D01*
X192676Y8294D01*
Y8348D01*
X192684Y8409D01*
X192707Y8563D01*
X192745Y8724D01*
X192799Y8901D01*
X192876Y9062D01*
X192983Y9208D01*
Y9215D01*
X192999Y9223D01*
X193037Y9262D01*
X193106Y9323D01*
X193191Y9384D01*
X193306Y9446D01*
X193437Y9507D01*
X193583Y9546D01*
X193659Y9561D01*
X193790D01*
X193821Y9553D01*
D02*
G37*
G36*
X158585D02*
X158669Y9546D01*
X158777Y9515D01*
X158900Y9477D01*
X159030Y9415D01*
X159161Y9323D01*
X159222Y9269D01*
X159284Y9208D01*
X159299Y9192D01*
X159314Y9169D01*
X159330Y9146D01*
X159353Y9108D01*
X159376Y9062D01*
X159407Y9008D01*
X159430Y8947D01*
X159460Y8878D01*
X159491Y8801D01*
X159514Y8716D01*
X159537Y8616D01*
X159553Y8517D01*
X159568Y8401D01*
X159583Y8286D01*
Y8156D01*
Y8148D01*
Y8125D01*
Y8086D01*
X159575Y8040D01*
Y7987D01*
X159568Y7918D01*
X159545Y7764D01*
X159506Y7595D01*
X159460Y7418D01*
X159383Y7249D01*
X159337Y7173D01*
X159284Y7103D01*
X159268Y7088D01*
X159230Y7050D01*
X159161Y6996D01*
X159069Y6934D01*
X158961Y6865D01*
X158823Y6812D01*
X158677Y6773D01*
X158592Y6765D01*
X158508Y6758D01*
X158462D01*
X158431Y6765D01*
X158347Y6773D01*
X158239Y6804D01*
X158116Y6842D01*
X157986Y6904D01*
X157863Y6988D01*
X157801Y7042D01*
X157740Y7103D01*
Y7111D01*
X157725Y7119D01*
X157709Y7142D01*
X157694Y7173D01*
X157671Y7211D01*
X157640Y7257D01*
X157617Y7311D01*
X157586Y7372D01*
X157556Y7441D01*
X157533Y7518D01*
X157502Y7610D01*
X157479Y7710D01*
X157464Y7810D01*
X157448Y7925D01*
X157433Y8048D01*
Y8179D01*
Y8186D01*
Y8209D01*
Y8240D01*
X157440Y8294D01*
Y8348D01*
X157448Y8409D01*
X157471Y8563D01*
X157510Y8724D01*
X157563Y8901D01*
X157640Y9062D01*
X157748Y9208D01*
Y9215D01*
X157763Y9223D01*
X157801Y9262D01*
X157871Y9323D01*
X157955Y9384D01*
X158070Y9446D01*
X158201Y9507D01*
X158347Y9546D01*
X158423Y9561D01*
X158554D01*
X158585Y9553D01*
D02*
G37*
G36*
X160221Y6251D02*
X158585D01*
X158639Y6259D01*
X158700Y6266D01*
X158777Y6274D01*
X158861Y6289D01*
X158953Y6312D01*
X159145Y6374D01*
X159253Y6412D01*
X159353Y6458D01*
X159460Y6512D01*
X159560Y6581D01*
X159660Y6658D01*
X159752Y6742D01*
X159760Y6750D01*
X159775Y6765D01*
X159798Y6796D01*
X159821Y6835D01*
X159860Y6888D01*
X159898Y6950D01*
X159944Y7019D01*
X159983Y7103D01*
X160029Y7203D01*
X160075Y7303D01*
X160113Y7426D01*
X160144Y7549D01*
X160175Y7687D01*
X160198Y7833D01*
X160213Y7994D01*
X160221Y8163D01*
Y6251D01*
D02*
G37*
G36*
X172923D02*
X171733D01*
X171794Y6259D01*
X171879Y6266D01*
X171971Y6282D01*
X172071Y6305D01*
X172178Y6335D01*
X172286Y6374D01*
X172301Y6381D01*
X172332Y6397D01*
X172378Y6420D01*
X172440Y6458D01*
X172509Y6504D01*
X172578Y6558D01*
X172639Y6612D01*
X172701Y6681D01*
X172708Y6689D01*
X172724Y6712D01*
X172747Y6758D01*
X172770Y6812D01*
X172808Y6881D01*
X172839Y6957D01*
X172870Y7042D01*
X172893Y7142D01*
Y7149D01*
X172900Y7180D01*
Y7219D01*
X172908Y7280D01*
X172916Y7365D01*
Y7464D01*
X172923Y7580D01*
Y6251D01*
D02*
G37*
G36*
X215716Y9561D02*
X215801Y9553D01*
X215901Y9530D01*
X216016Y9500D01*
X216131Y9446D01*
X216254Y9377D01*
X216369Y9277D01*
X216385Y9262D01*
X216415Y9223D01*
X216461Y9162D01*
X216515Y9070D01*
X216569Y8962D01*
X216623Y8831D01*
X216661Y8678D01*
X216684Y8509D01*
X214641D01*
Y8517D01*
Y8532D01*
X214649Y8555D01*
Y8586D01*
X214664Y8670D01*
X214687Y8770D01*
X214718Y8878D01*
X214764Y8993D01*
X214810Y9108D01*
X214879Y9200D01*
Y9208D01*
X214895Y9215D01*
X214933Y9262D01*
X215002Y9315D01*
X215087Y9384D01*
X215202Y9454D01*
X215332Y9515D01*
X215478Y9553D01*
X215563Y9561D01*
X215647Y9569D01*
X215686D01*
X215716Y9561D01*
D02*
G37*
G36*
X140952Y10851D02*
X140959Y10836D01*
Y10813D01*
X140967Y10774D01*
X140982Y10728D01*
X140998Y10675D01*
X141028Y10552D01*
X141067Y10398D01*
X141113Y10237D01*
X141167Y10060D01*
X141228Y9883D01*
X141781Y8409D01*
X140068D01*
X140591Y9799D01*
Y9807D01*
X140598Y9830D01*
X140614Y9860D01*
X140629Y9907D01*
X140652Y9960D01*
X140675Y10022D01*
X140721Y10168D01*
X140783Y10337D01*
X140844Y10513D01*
X140898Y10690D01*
X140952Y10859D01*
Y10851D01*
D02*
G37*
D10*
X365748Y274114D02*
X366535D01*
X365748Y269193D02*
X366535D01*
D17*
X375861Y274653D02*
Y268654D01*
X378860D01*
X379860Y269654D01*
Y271654D01*
X378860Y272653D01*
X375861D01*
X377860D02*
X379860Y274653D01*
X385858D02*
X381859D01*
X385858Y270654D01*
Y269654D01*
X384858Y268654D01*
X382859D01*
X381859Y269654D01*
X391856Y268654D02*
X387857D01*
Y271654D01*
X389856Y270654D01*
X390856D01*
X391856Y271654D01*
Y273653D01*
X390856Y274653D01*
X388857D01*
X387857Y273653D01*
M02*
