M48
;Layer_Color=9474304
;FILE_FORMAT=2:5
INCH,TZ
;TYPE=PLATED
T1F00S00C0.01181
T2F00S00C0.02756
T3F00S00C0.03346
T4F00S00C0.03740
T5F00S00C0.03937
T6F00S00C0.05118
T7F00S00C0.12598
%
T01
X379921Y200787
X336473Y185039
X258090Y163985
X235891Y203740
X306591Y111585
X210630Y148622
X204724Y196850
X180091Y194685
X151575Y125000
X111791Y127485
X114173Y112205
X102190Y92885
X94490Y80985
X72591Y86585
X60290Y100185
X82790Y142985
X90191Y166385
X44891Y142985
X8491Y51181
X34691Y350785
X63976Y308071
X67913Y300000
X133091Y251142
X191240Y300185
X179134Y314961
X197835Y321850
X181991Y342185
X205090Y209085
X219488Y207677
Y216535
X254921Y248031
X275590Y237205
X283465Y237985
X293307Y249016
X317191Y266885
X313090Y287385
X302165Y289285
X305991Y310485
X288605Y312385
X288546Y321285
X289290Y303785
X275590Y308071
X267017Y297159
X253937Y321850
X245079Y333661
X242126Y349410
X264390Y343085
X296260Y335630
X324803Y323819
X326772Y309055
X337090Y312385
X332090Y343130
X347441Y279528
X362205Y253685
X366133Y241868
X369094Y215407
X383215Y228960
X370079Y279394
X141491Y378985
T02
X373032Y71850
Y99409
X365158
X345473
X337598
Y71850
X345473
X365158
X270669
X262795
Y99409
X270669
X267717Y128937
Y154528
X299213
Y128937
X297401Y185039
X287402
X307401
X252284
X242284
X232284
X204724
X194724
X184724
X191929Y241142
Y249016
X192913Y330709
Y338583
X274606Y225394
Y217520
Y371063
X284606
X294606
X219803
X209803
X199803
T03
X314961Y116142
X330709
X346457
Y159449
X330709
X314961
T04
X251969Y131496
Y141732
Y151968
X281969Y151969
Y141732
Y131496
T05
X64961Y25295
Y43012
X90551
Y25295
X135827
Y43012
X161417
Y25295
X207677Y26279
Y43996
X233268
Y26279
X363189Y120079
Y187992
X152559Y191142
Y201142
Y181142
Y171142
X82559
Y181142
Y191142
Y201142
X87598Y126968
Y109252
X62008
Y126968
X177165Y102362
X196850
X19685Y106299
Y116299
Y126299
Y96299
Y71181
Y61181
Y51181
X13780Y176181
Y187992
Y199803
X53149
Y187992
Y176181
Y211614
Y223425
Y235236
Y247047
Y258858
Y270669
Y282480
Y294291
Y306102
Y317913
Y329724
Y341535
Y353346
X13780
Y341535
Y329724
Y317913
Y306102
Y294291
Y282480
Y270669
Y258858
Y247047
Y235236
Y223425
Y211614
X82559Y211142
Y221142
Y231142
Y241142
Y251142
Y261142
Y271142
Y281142
Y291142
Y301142
Y311142
Y321142
Y331142
Y341142
Y351142
Y361142
X152559
Y351142
Y341142
Y331142
Y321142
Y311142
Y301142
Y291142
Y281142
Y271142
Y261142
Y251142
Y241142
Y231142
Y221142
Y211142
X219488Y241457
X239173Y241142
X298228
X333661Y241457
X345472Y343504
X219488Y335630
X325787Y371063
X335787
X345787
T06
X267717Y27559
X287402
X314961Y30315
X334646
X354330
X371850Y143701
Y163386
T07
X15748Y15748
X377953Y15748
Y377953
X15748
M30
