G04*
G04 #@! TF.GenerationSoftware,Altium Limited,Altium Designer,21.3.2 (30)*
G04*
G04 Layer_Color=65535*
%FSLAX25Y25*%
%MOIN*%
G70*
G04*
G04 #@! TF.SameCoordinates,3938395F-A7AF-4B3E-ABAE-92C8EBC603DF*
G04*
G04*
G04 #@! TF.FilePolarity,Positive*
G04*
G01*
G75*
%ADD10C,0.00787*%
%ADD11C,0.01968*%
%ADD12C,0.00984*%
%ADD13C,0.02362*%
%ADD14C,0.00591*%
%ADD15C,0.00600*%
%ADD16C,0.00500*%
%ADD17C,0.01000*%
G36*
X97441Y54116D02*
X60039D01*
Y60057D01*
X97441D01*
Y54116D01*
D02*
G37*
G36*
X362205Y3937D02*
X307087D01*
Y11811D01*
X362205D01*
Y3937D01*
D02*
G37*
G36*
X11811Y89567D02*
X3937D01*
Y130905D01*
X11811D01*
Y89567D01*
D02*
G37*
G36*
X239173Y54116D02*
X201772D01*
Y60057D01*
X239173D01*
Y54116D01*
D02*
G37*
G36*
X11811Y47244D02*
X3937D01*
Y74803D01*
X11811D01*
Y47244D01*
D02*
G37*
G36*
X392725Y133472D02*
X386802D01*
Y171646D01*
X392725D01*
Y133472D01*
D02*
G37*
G36*
X295276Y11811D02*
Y3937D01*
X259842D01*
Y11811D01*
X295276D01*
D02*
G37*
G36*
X167323Y54116D02*
X129921D01*
Y60057D01*
X167323D01*
Y54116D01*
D02*
G37*
%LPC*%
G36*
X81150Y59073D02*
X78097D01*
D01*
X79588D01*
X79448Y59067D01*
X79313Y59049D01*
X79197Y59032D01*
X79091Y59008D01*
X79009Y58979D01*
X78974Y58967D01*
X78945Y58961D01*
X78916Y58950D01*
X78898Y58944D01*
X78892Y58938D01*
X78886D01*
X78775Y58886D01*
X78676Y58821D01*
X78594Y58757D01*
X78530Y58698D01*
X78477Y58640D01*
X78436Y58593D01*
X78413Y58564D01*
X78407Y58558D01*
Y58552D01*
X78354Y58458D01*
X78313Y58359D01*
X78284Y58271D01*
X78266Y58183D01*
X78255Y58113D01*
X78243Y58061D01*
Y58037D01*
Y58020D01*
Y58014D01*
Y58008D01*
X78249Y57914D01*
X78266Y57821D01*
X78284Y57739D01*
X78313Y57669D01*
X78337Y57610D01*
X78354Y57569D01*
X78372Y57540D01*
X78377Y57528D01*
X78436Y57452D01*
X78500Y57382D01*
X78565Y57323D01*
X78635Y57271D01*
X78693Y57230D01*
X78740Y57201D01*
X78775Y57177D01*
X78781Y57171D01*
X78787D01*
X78828Y57148D01*
X78881Y57130D01*
X78992Y57090D01*
X79115Y57049D01*
X79237Y57008D01*
X79349Y56978D01*
X79395Y56967D01*
X79436Y56955D01*
X79471Y56943D01*
X79501Y56937D01*
X79518Y56932D01*
X79524D01*
X79618Y56908D01*
X79705Y56885D01*
X79787Y56867D01*
X79857Y56850D01*
X79916Y56832D01*
X79975Y56815D01*
X80021Y56803D01*
X80068Y56791D01*
X80103Y56779D01*
X80133Y56768D01*
X80179Y56756D01*
X80203Y56750D01*
X80208Y56744D01*
X80290Y56709D01*
X80366Y56668D01*
X80425Y56633D01*
X80472Y56598D01*
X80507Y56563D01*
X80536Y56540D01*
X80548Y56522D01*
X80554Y56516D01*
X80589Y56464D01*
X80612Y56411D01*
X80636Y56358D01*
X80647Y56306D01*
X80653Y56265D01*
X80659Y56230D01*
Y56206D01*
Y56200D01*
X80653Y56136D01*
X80641Y56077D01*
X80624Y56019D01*
X80606Y55972D01*
X80583Y55931D01*
X80565Y55902D01*
X80554Y55879D01*
X80548Y55873D01*
X80501Y55820D01*
X80448Y55773D01*
X80396Y55732D01*
X80337Y55697D01*
X80290Y55668D01*
X80250Y55650D01*
X80226Y55639D01*
X80214Y55633D01*
X80127Y55604D01*
X80039Y55586D01*
X79957Y55568D01*
X79875Y55563D01*
X79811Y55557D01*
X79752Y55551D01*
X79705D01*
X79588Y55557D01*
X79477Y55568D01*
X79372Y55586D01*
X79290Y55610D01*
X79214Y55627D01*
X79161Y55645D01*
X79126Y55656D01*
X79120Y55662D01*
X79115D01*
X79027Y55709D01*
X78945Y55756D01*
X78881Y55808D01*
X78828Y55855D01*
X78781Y55896D01*
X78752Y55931D01*
X78734Y55955D01*
X78728Y55961D01*
X78688Y56037D01*
X78652Y56113D01*
X78629Y56195D01*
X78606Y56270D01*
X78594Y56341D01*
X78582Y56393D01*
X78576Y56428D01*
Y56434D01*
Y56440D01*
X78097Y56399D01*
X78108Y56259D01*
X78132Y56130D01*
X78167Y56007D01*
X78202Y55908D01*
X78237Y55820D01*
X78255Y55785D01*
X78272Y55756D01*
X78284Y55732D01*
X78296Y55715D01*
X78301Y55709D01*
Y55703D01*
X78383Y55598D01*
X78477Y55504D01*
X78565Y55428D01*
X78658Y55364D01*
X78734Y55311D01*
X78799Y55276D01*
X78822Y55264D01*
X78840Y55253D01*
X78851Y55247D01*
X78857D01*
X78998Y55200D01*
X79144Y55165D01*
X79290Y55136D01*
X79425Y55118D01*
X79489Y55112D01*
X79548Y55106D01*
X79600D01*
X79641Y55101D01*
X79729D01*
X79881Y55106D01*
X80015Y55124D01*
X80144Y55147D01*
X80250Y55177D01*
X80343Y55200D01*
X80378Y55212D01*
X80407Y55223D01*
X80431Y55235D01*
X80448Y55241D01*
X80460Y55247D01*
X80466D01*
X80583Y55311D01*
X80688Y55375D01*
X80776Y55446D01*
X80846Y55516D01*
X80905Y55574D01*
X80940Y55621D01*
X80969Y55656D01*
X80975Y55668D01*
X81033Y55767D01*
X81074Y55873D01*
X81109Y55972D01*
X81127Y56060D01*
X81139Y56136D01*
X81150Y56195D01*
Y56247D01*
X81144Y56358D01*
X81127Y56464D01*
X81098Y56557D01*
X81068Y56633D01*
X81039Y56703D01*
X81010Y56750D01*
X80992Y56779D01*
X80987Y56791D01*
X80922Y56873D01*
X80846Y56949D01*
X80764Y57019D01*
X80682Y57078D01*
X80606Y57119D01*
X80548Y57154D01*
X80524Y57166D01*
X80513Y57177D01*
X80501Y57183D01*
X80495D01*
X80448Y57201D01*
X80390Y57224D01*
X80331Y57248D01*
X80261Y57265D01*
X80121Y57306D01*
X79980Y57347D01*
X79852Y57376D01*
X79793Y57394D01*
X79741Y57405D01*
X79700Y57417D01*
X79670Y57423D01*
X79647Y57429D01*
X79641D01*
X79530Y57458D01*
X79431Y57481D01*
X79343Y57505D01*
X79261Y57534D01*
X79191Y57557D01*
X79132Y57575D01*
X79080Y57599D01*
X79033Y57622D01*
X78992Y57639D01*
X78957Y57651D01*
X78933Y57669D01*
X78916Y57680D01*
X78886Y57698D01*
X78881Y57704D01*
X78834Y57756D01*
X78799Y57809D01*
X78769Y57868D01*
X78752Y57920D01*
X78740Y57967D01*
X78734Y58008D01*
Y58031D01*
Y58043D01*
X78746Y58131D01*
X78769Y58207D01*
X78799Y58277D01*
X78840Y58336D01*
X78875Y58388D01*
X78910Y58423D01*
X78933Y58447D01*
X78939Y58453D01*
X78980Y58482D01*
X79027Y58511D01*
X79132Y58552D01*
X79243Y58581D01*
X79354Y58599D01*
X79454Y58616D01*
X79501D01*
X79536Y58622D01*
X79612D01*
X79770Y58616D01*
X79904Y58593D01*
X80021Y58564D01*
X80115Y58529D01*
X80185Y58494D01*
X80238Y58464D01*
X80267Y58441D01*
X80279Y58435D01*
X80355Y58359D01*
X80419Y58271D01*
X80466Y58183D01*
X80501Y58096D01*
X80524Y58014D01*
X80536Y57950D01*
X80542Y57926D01*
X80548Y57908D01*
Y57897D01*
Y57891D01*
X81033Y57926D01*
X81022Y58049D01*
X80998Y58160D01*
X80963Y58265D01*
X80928Y58353D01*
X80899Y58423D01*
X80870Y58482D01*
X80846Y58517D01*
X80840Y58529D01*
X80770Y58622D01*
X80688Y58704D01*
X80606Y58774D01*
X80524Y58833D01*
X80448Y58874D01*
X80390Y58909D01*
X80366Y58921D01*
X80349Y58926D01*
X80343Y58932D01*
X80337D01*
X80214Y58979D01*
X80086Y59014D01*
X79957Y59038D01*
X79840Y59055D01*
X79741Y59067D01*
X79700D01*
X79659Y59073D01*
X81150D01*
D01*
D02*
G37*
G36*
X72890Y59008D02*
Y55615D01*
X71001D01*
Y59008D01*
X72890D01*
X70492D01*
Y55165D01*
X72890D01*
Y59008D01*
D02*
G37*
G36*
X69667D02*
X68158D01*
X69158D01*
Y56785D01*
Y56657D01*
X69146Y56534D01*
X69134Y56428D01*
X69123Y56329D01*
X69105Y56235D01*
X69082Y56159D01*
X69058Y56089D01*
X69041Y56025D01*
X69017Y55972D01*
X68994Y55925D01*
X68976Y55890D01*
X68953Y55861D01*
X68941Y55838D01*
X68930Y55820D01*
X68918Y55814D01*
Y55808D01*
X68871Y55762D01*
X68813Y55726D01*
X68690Y55662D01*
X68561Y55621D01*
X68427Y55586D01*
X68310Y55568D01*
X68257Y55563D01*
X68210D01*
X68169Y55557D01*
X68117D01*
X68000Y55563D01*
X67894Y55574D01*
X67801Y55598D01*
X67719Y55621D01*
X67654Y55639D01*
X67608Y55662D01*
X67578Y55674D01*
X67567Y55680D01*
X67485Y55732D01*
X67420Y55791D01*
X67362Y55855D01*
X67321Y55914D01*
X67286Y55966D01*
X67263Y56007D01*
X67251Y56037D01*
X67245Y56048D01*
X67227Y56095D01*
X67216Y56148D01*
X67192Y56265D01*
X67181Y56388D01*
X67169Y56504D01*
X67163Y56616D01*
X67157Y56662D01*
Y56703D01*
Y56739D01*
Y56762D01*
Y56779D01*
Y56785D01*
Y59008D01*
X66648D01*
Y56674D01*
X66654Y56569D01*
X66660Y56469D01*
X66672Y56376D01*
X66683Y56294D01*
X66695Y56212D01*
X66707Y56142D01*
X66724Y56077D01*
X66736Y56019D01*
X66748Y55966D01*
X66759Y55919D01*
X66771Y55884D01*
X66783Y55855D01*
X66789Y55838D01*
X66795Y55826D01*
Y55820D01*
X66859Y55697D01*
X66935Y55586D01*
X67011Y55498D01*
X67093Y55422D01*
X67163Y55358D01*
X67227Y55317D01*
X67251Y55299D01*
X67263Y55294D01*
X67274Y55282D01*
X67280D01*
X67415Y55223D01*
X67567Y55177D01*
X67713Y55147D01*
X67853Y55124D01*
X67918Y55118D01*
X67976Y55112D01*
X68029Y55106D01*
X68076D01*
X68111Y55101D01*
X68163D01*
X68362Y55112D01*
X68538Y55136D01*
X68620Y55147D01*
X68690Y55165D01*
X68760Y55188D01*
X68819Y55206D01*
X68871Y55223D01*
X68924Y55247D01*
X68965Y55264D01*
X68994Y55276D01*
X69023Y55294D01*
X69041Y55299D01*
X69053Y55311D01*
X69058D01*
X69175Y55399D01*
X69281Y55487D01*
X69363Y55580D01*
X69427Y55668D01*
X69474Y55750D01*
X69509Y55808D01*
X69521Y55832D01*
X69526Y55849D01*
X69532Y55861D01*
Y55867D01*
X69579Y56001D01*
X69608Y56154D01*
X69632Y56306D01*
X69649Y56452D01*
X69655Y56522D01*
X69661Y56586D01*
Y56639D01*
X69667Y56692D01*
Y55165D01*
Y59008D01*
D02*
G37*
G36*
X95325Y59008D02*
X92289D01*
Y55165D01*
Y58558D01*
X93552D01*
Y55165D01*
X95325D01*
X94061D01*
Y58558D01*
X95325D01*
Y59008D01*
D02*
G37*
G36*
X90493D02*
X88709D01*
Y55165D01*
X92090D01*
X91423Y56206D01*
X91347Y56317D01*
X91271Y56417D01*
X91201Y56504D01*
X91136Y56581D01*
X91084Y56639D01*
X91043Y56686D01*
X91013Y56709D01*
X91002Y56721D01*
X90961Y56756D01*
X90908Y56791D01*
X90809Y56856D01*
X90768Y56879D01*
X90733Y56897D01*
X90709Y56908D01*
X90698Y56914D01*
X90797Y56932D01*
X90891Y56949D01*
X90978Y56973D01*
X91054Y57002D01*
X91131Y57031D01*
X91195Y57060D01*
X91259Y57090D01*
X91312Y57119D01*
X91359Y57148D01*
X91400Y57171D01*
X91435Y57201D01*
X91464Y57218D01*
X91482Y57242D01*
X91499Y57253D01*
X91511Y57265D01*
X91558Y57318D01*
X91598Y57376D01*
X91669Y57493D01*
X91716Y57604D01*
X91745Y57715D01*
X91768Y57809D01*
X91774Y57850D01*
Y57885D01*
X91780Y57914D01*
Y57938D01*
Y57950D01*
Y57955D01*
X91774Y58072D01*
X91756Y58178D01*
X91727Y58277D01*
X91698Y58365D01*
X91669Y58435D01*
X91639Y58488D01*
X91622Y58523D01*
X91616Y58534D01*
X91552Y58628D01*
X91482Y58704D01*
X91411Y58768D01*
X91341Y58815D01*
X91283Y58856D01*
X91236Y58886D01*
X91201Y58897D01*
X91195Y58903D01*
X91189D01*
X91136Y58921D01*
X91078Y58938D01*
X90955Y58961D01*
X90826Y58985D01*
X90703Y58997D01*
X90586Y59003D01*
X90540D01*
X90493Y59008D01*
D02*
G37*
G36*
X88287Y59008D02*
X84701D01*
D01*
X86170D01*
X84701Y55165D01*
X85239D01*
X85655Y56329D01*
X87270D01*
X87714Y55165D01*
X88287D01*
X86725Y59008D01*
X88287D01*
D01*
D02*
G37*
G36*
X84596D02*
X81560D01*
Y55165D01*
Y58558D01*
X82823D01*
Y55165D01*
X84596D01*
X83332D01*
Y58558D01*
X84596D01*
Y59008D01*
D02*
G37*
G36*
X76248D02*
X73212D01*
Y55165D01*
Y58558D01*
X74476D01*
Y55165D01*
X74985D01*
Y58558D01*
X76248D01*
Y59008D01*
D02*
G37*
G36*
X65823D02*
X62155D01*
Y55165D01*
X62647D01*
Y58435D01*
X63753Y55165D01*
X64209D01*
X65332Y58382D01*
Y55165D01*
X65823D01*
Y59008D01*
D02*
G37*
G36*
X77845Y59073D02*
X76359D01*
X77471D01*
X76359Y55101D01*
X77845D01*
X76734D01*
X77845Y59073D01*
D02*
G37*
%LPD*%
G36*
X90581Y58575D02*
X90709Y58552D01*
X90815Y58529D01*
X90902Y58494D01*
X90967Y58464D01*
X91019Y58435D01*
X91043Y58412D01*
X91054Y58406D01*
X91119Y58336D01*
X91171Y58260D01*
X91207Y58183D01*
X91230Y58113D01*
X91242Y58049D01*
X91253Y58002D01*
Y57967D01*
Y57961D01*
Y57955D01*
X91247Y57885D01*
X91236Y57821D01*
X91218Y57762D01*
X91201Y57715D01*
X91183Y57669D01*
X91166Y57639D01*
X91154Y57616D01*
X91148Y57610D01*
X91107Y57558D01*
X91060Y57511D01*
X91008Y57470D01*
X90961Y57435D01*
X90920Y57411D01*
X90885Y57394D01*
X90861Y57388D01*
X90850Y57382D01*
X90774Y57359D01*
X90686Y57341D01*
X90592Y57329D01*
X90504Y57324D01*
X90429Y57318D01*
X90364Y57312D01*
X89218D01*
Y58581D01*
X90429D01*
X90581Y58575D01*
D02*
G37*
G36*
X89931Y56867D02*
X89978D01*
X90019Y56861D01*
X90048Y56856D01*
X90072D01*
X90083Y56850D01*
X90089D01*
X90177Y56820D01*
X90247Y56785D01*
X90276Y56768D01*
X90300Y56756D01*
X90311Y56750D01*
X90317Y56744D01*
X90364Y56715D01*
X90405Y56674D01*
X90493Y56592D01*
X90522Y56551D01*
X90551Y56516D01*
X90569Y56493D01*
X90575Y56487D01*
X90633Y56411D01*
X90692Y56329D01*
X90756Y56241D01*
X90815Y56154D01*
X90867Y56077D01*
X90908Y56019D01*
X90920Y55996D01*
X90932Y55978D01*
X90943Y55966D01*
Y55961D01*
X91452Y55165D01*
X89218D01*
Y56873D01*
X89873D01*
X89931Y56867D01*
D02*
G37*
G36*
X86474Y58482D02*
X86515Y58347D01*
X86562Y58213D01*
X86608Y58084D01*
X86643Y57973D01*
X86661Y57926D01*
X86679Y57885D01*
X86690Y57850D01*
X86702Y57827D01*
X86708Y57809D01*
Y57803D01*
X87106Y56744D01*
X85801D01*
X86222Y57868D01*
X86269Y58002D01*
X86310Y58137D01*
X86345Y58259D01*
X86374Y58376D01*
X86398Y58470D01*
X86409Y58511D01*
X86421Y58546D01*
X86427Y58575D01*
Y58593D01*
X86433Y58605D01*
Y58610D01*
X86474Y58482D01*
D02*
G37*
G36*
X64215Y56335D02*
X64168Y56189D01*
X64121Y56066D01*
X64086Y55961D01*
X64062Y55873D01*
X64039Y55808D01*
X64022Y55762D01*
X64016Y55732D01*
X64010Y55721D01*
X63986Y55797D01*
X63957Y55890D01*
X63928Y55984D01*
X63899Y56077D01*
X63870Y56159D01*
X63846Y56224D01*
X63840Y56253D01*
X63834Y56270D01*
X63828Y56282D01*
Y56288D01*
X62916Y59008D01*
X65133D01*
X64215Y56335D01*
D02*
G37*
%LPC*%
G36*
X333078Y9860D02*
D01*
Y7912D01*
X331452D01*
Y7462D01*
X332581D01*
Y6736D01*
X332510Y6684D01*
X332434Y6631D01*
X332358Y6584D01*
X332282Y6543D01*
X332212Y6508D01*
X332154Y6485D01*
X332130Y6473D01*
X332113Y6467D01*
X332107Y6461D01*
X332101D01*
X331984Y6420D01*
X331867Y6391D01*
X331756Y6368D01*
X331662Y6356D01*
X331580Y6344D01*
X331516Y6338D01*
X331457D01*
X331317Y6344D01*
X331183Y6362D01*
X331066Y6391D01*
X330954Y6420D01*
X330867Y6449D01*
X330826Y6467D01*
X330796Y6479D01*
X330773Y6485D01*
X330755Y6496D01*
X330744Y6502D01*
X330738D01*
X330621Y6572D01*
X330516Y6654D01*
X330428Y6742D01*
X330358Y6824D01*
X330305Y6900D01*
X330264Y6959D01*
X330246Y6982D01*
X330235Y6999D01*
X330229Y7011D01*
Y7017D01*
X330170Y7157D01*
X330130Y7298D01*
X330094Y7444D01*
X330077Y7584D01*
X330071Y7643D01*
X330065Y7701D01*
X330059Y7754D01*
Y7795D01*
X330053Y7836D01*
Y7859D01*
Y7877D01*
Y7883D01*
X330059Y8035D01*
X330077Y8181D01*
X330100Y8310D01*
X330130Y8427D01*
X330153Y8520D01*
X330165Y8561D01*
X330176Y8591D01*
X330188Y8620D01*
X330194Y8637D01*
X330200Y8649D01*
Y8655D01*
X330235Y8731D01*
X330270Y8801D01*
X330311Y8866D01*
X330352Y8924D01*
X330387Y8971D01*
X330416Y9006D01*
X330434Y9029D01*
X330439Y9035D01*
X330504Y9100D01*
X330568Y9152D01*
X330638Y9199D01*
X330703Y9240D01*
X330761Y9275D01*
X330808Y9298D01*
X330837Y9310D01*
X330849Y9316D01*
X330948Y9351D01*
X331048Y9380D01*
X331153Y9398D01*
X331247Y9415D01*
X331329Y9421D01*
X331393Y9427D01*
X331452D01*
X331557Y9421D01*
X331656Y9410D01*
X331744Y9392D01*
X331820Y9375D01*
X331885Y9357D01*
X331937Y9339D01*
X331966Y9328D01*
X331978Y9322D01*
X332066Y9281D01*
X332136Y9240D01*
X332200Y9193D01*
X332253Y9152D01*
X332294Y9111D01*
X332323Y9082D01*
X332341Y9059D01*
X332347Y9053D01*
X332393Y8983D01*
X332434Y8907D01*
X332470Y8830D01*
X332499Y8760D01*
X332522Y8690D01*
X332545Y8637D01*
X332551Y8602D01*
X332557Y8597D01*
Y8591D01*
X333019Y8719D01*
X332978Y8860D01*
X332932Y8983D01*
X332885Y9088D01*
X332838Y9176D01*
X332791Y9252D01*
X332756Y9304D01*
X332733Y9334D01*
X332727Y9345D01*
X332651Y9433D01*
X332563Y9503D01*
X332475Y9568D01*
X332388Y9620D01*
X332312Y9667D01*
X332253Y9696D01*
X332230Y9708D01*
X332212Y9714D01*
X332200Y9720D01*
X332194D01*
X332066Y9766D01*
X331937Y9802D01*
X331808Y9825D01*
X331697Y9843D01*
X331598Y9854D01*
X331551D01*
X331516Y9860D01*
X331446D01*
X331235Y9848D01*
X331048Y9825D01*
X330872Y9784D01*
X330796Y9761D01*
X330726Y9743D01*
X330662Y9720D01*
X330603Y9696D01*
X330551Y9679D01*
X330510Y9655D01*
X330481Y9644D01*
X330451Y9632D01*
X330439Y9620D01*
X330434D01*
X330352Y9573D01*
X330282Y9521D01*
X330141Y9410D01*
X330030Y9293D01*
X329931Y9176D01*
X329860Y9065D01*
X329831Y9024D01*
X329802Y8983D01*
X329784Y8947D01*
X329773Y8924D01*
X329761Y8907D01*
Y8901D01*
X329685Y8719D01*
X329626Y8532D01*
X329585Y8357D01*
X329556Y8193D01*
X329544Y8123D01*
X329539Y8058D01*
X329533Y8000D01*
Y7947D01*
X329527Y7906D01*
Y7853D01*
X329539Y7649D01*
X329562Y7456D01*
X329603Y7280D01*
X329621Y7198D01*
X329644Y7128D01*
X329667Y7058D01*
X329685Y6999D01*
X329708Y6947D01*
X329726Y6906D01*
X329737Y6871D01*
X329749Y6847D01*
X329761Y6830D01*
Y6824D01*
X329860Y6666D01*
X329972Y6526D01*
X330083Y6403D01*
X330200Y6303D01*
X330299Y6227D01*
X330340Y6198D01*
X330381Y6175D01*
X330410Y6151D01*
X330439Y6140D01*
X330451Y6134D01*
X330457Y6128D01*
X330633Y6046D01*
X330814Y5987D01*
X330984Y5946D01*
X331147Y5917D01*
X331218Y5906D01*
X331282Y5900D01*
X331340Y5894D01*
X331393D01*
X331434Y5888D01*
X329527D01*
X333078D01*
Y9860D01*
D02*
G37*
G36*
X313422Y9111D02*
D01*
Y8064D01*
X312375D01*
Y9111D01*
X311807D01*
X311930D01*
Y8064D01*
X310883D01*
Y7625D01*
X311930D01*
Y6572D01*
X313422D01*
Y9111D01*
D02*
G37*
G36*
X340870Y9796D02*
Y7895D01*
X340864Y8082D01*
X340847Y8251D01*
X340823Y8403D01*
X340806Y8474D01*
X340794Y8538D01*
X340782Y8597D01*
X340765Y8649D01*
X340753Y8696D01*
X340741Y8731D01*
X340730Y8760D01*
X340724Y8784D01*
X340718Y8795D01*
Y8801D01*
X340654Y8947D01*
X340583Y9076D01*
X340507Y9187D01*
X340431Y9281D01*
X340367Y9357D01*
X340314Y9415D01*
X340273Y9451D01*
X340267Y9462D01*
X340262D01*
X340168Y9533D01*
X340074Y9591D01*
X339981Y9638D01*
X339893Y9673D01*
X339817Y9702D01*
X339753Y9720D01*
X339729Y9731D01*
X339718D01*
X339706Y9737D01*
X339700D01*
X339606Y9755D01*
X339495Y9772D01*
X339378Y9784D01*
X339273Y9790D01*
X339174Y9796D01*
X337699D01*
Y5952D01*
X339080D01*
X339209Y5958D01*
X339326Y5964D01*
X339431Y5976D01*
X339519Y5987D01*
X339595Y5999D01*
X339647Y6005D01*
X339683Y6017D01*
X339694D01*
X339794Y6046D01*
X339881Y6075D01*
X339957Y6104D01*
X340022Y6134D01*
X340074Y6163D01*
X340115Y6186D01*
X340145Y6198D01*
X340150Y6204D01*
X340221Y6256D01*
X340285Y6315D01*
X340349Y6374D01*
X340396Y6426D01*
X340443Y6479D01*
X340472Y6520D01*
X340496Y6543D01*
X340501Y6555D01*
X340560Y6643D01*
X340613Y6736D01*
X340659Y6830D01*
X340695Y6917D01*
X340724Y7000D01*
X340747Y7058D01*
X340753Y7081D01*
X340759Y7099D01*
X340765Y7111D01*
Y7117D01*
X340800Y7245D01*
X340823Y7380D01*
X340847Y7514D01*
X340858Y7631D01*
X340864Y7737D01*
Y7783D01*
X340870Y7818D01*
Y5952D01*
X340870D01*
X340870D01*
Y9796D01*
D02*
G37*
G36*
X354659Y9737D02*
Y7251D01*
X354653Y7350D01*
X354641Y7450D01*
X354623Y7538D01*
X354606Y7625D01*
X354577Y7701D01*
X354547Y7778D01*
X354518Y7842D01*
X354483Y7906D01*
X354448Y7959D01*
X354419Y8006D01*
X354389Y8047D01*
X354360Y8082D01*
X354343Y8111D01*
X354325Y8128D01*
X354313Y8140D01*
X354308Y8146D01*
X354243Y8210D01*
X354173Y8263D01*
X354103Y8310D01*
X354027Y8351D01*
X353957Y8386D01*
X353886Y8409D01*
X353752Y8456D01*
X353693Y8468D01*
X353635Y8479D01*
X353588Y8485D01*
X353541Y8491D01*
X353506Y8497D01*
X353459D01*
X353319Y8485D01*
X353184Y8456D01*
X353062Y8421D01*
X352956Y8374D01*
X352863Y8327D01*
X352828Y8310D01*
X352792Y8292D01*
X352769Y8275D01*
X352751Y8263D01*
X352740Y8257D01*
X352734Y8251D01*
X352944Y9287D01*
X354477D01*
Y9737D01*
X354659D01*
X352570D01*
X352196Y7766D01*
X352640Y7701D01*
X352681Y7760D01*
X352728Y7813D01*
X352775Y7859D01*
X352816Y7900D01*
X352857Y7930D01*
X352892Y7953D01*
X352915Y7965D01*
X352921Y7971D01*
X352991Y8006D01*
X353062Y8035D01*
X353132Y8053D01*
X353196Y8070D01*
X353255Y8076D01*
X353295Y8082D01*
X353336D01*
X353465Y8070D01*
X353582Y8047D01*
X353687Y8006D01*
X353769Y7965D01*
X353839Y7924D01*
X353886Y7883D01*
X353916Y7859D01*
X353927Y7848D01*
X354003Y7754D01*
X354062Y7649D01*
X354103Y7543D01*
X354126Y7444D01*
X354144Y7350D01*
X354150Y7310D01*
Y7274D01*
X354155Y7251D01*
Y7228D01*
Y7216D01*
Y7210D01*
X354144Y7058D01*
X354120Y6923D01*
X354079Y6806D01*
X354038Y6707D01*
X353997Y6631D01*
X353957Y6572D01*
X353933Y6537D01*
X353921Y6531D01*
Y6526D01*
X353875Y6479D01*
X353828Y6444D01*
X353734Y6379D01*
X353635Y6338D01*
X353547Y6303D01*
X353465Y6286D01*
X353401Y6280D01*
X353377Y6274D01*
X353342D01*
X353243Y6280D01*
X353149Y6303D01*
X353067Y6333D01*
X352997Y6362D01*
X352939Y6397D01*
X352898Y6420D01*
X352874Y6444D01*
X352863Y6450D01*
X352792Y6526D01*
X352740Y6613D01*
X352693Y6701D01*
X352664Y6789D01*
X352640Y6871D01*
X352623Y6935D01*
X352617Y6959D01*
X352611Y6976D01*
Y6988D01*
Y6994D01*
X352114Y6959D01*
X352126Y6871D01*
X352143Y6783D01*
X352190Y6631D01*
X352254Y6496D01*
X352319Y6385D01*
X352354Y6338D01*
X352383Y6297D01*
X352412Y6262D01*
X352435Y6233D01*
X352459Y6210D01*
X352477Y6192D01*
X352482Y6186D01*
X352488Y6180D01*
X352553Y6128D01*
X352623Y6087D01*
X352693Y6046D01*
X352763Y6011D01*
X352904Y5958D01*
X353038Y5923D01*
X353102Y5911D01*
X353161Y5906D01*
X353214Y5900D01*
X353255Y5894D01*
X353290Y5888D01*
X353342D01*
X353459Y5894D01*
X353570Y5906D01*
X353670Y5929D01*
X353769Y5958D01*
X353857Y5993D01*
X353945Y6034D01*
X354021Y6075D01*
X354085Y6122D01*
X354150Y6163D01*
X354202Y6204D01*
X354249Y6245D01*
X354284Y6280D01*
X354313Y6309D01*
X354337Y6333D01*
X354348Y6344D01*
X354354Y6350D01*
X354407Y6420D01*
X354454Y6496D01*
X354495Y6572D01*
X354530Y6654D01*
X354583Y6801D01*
X354623Y6941D01*
X354635Y7005D01*
X354641Y7064D01*
X354647Y7117D01*
X354653Y7163D01*
X354659Y7198D01*
Y5929D01*
Y9737D01*
D02*
G37*
G36*
X319477Y9737D02*
D01*
Y7251D01*
X319471Y7350D01*
X319459Y7450D01*
X319442Y7538D01*
X319424Y7625D01*
X319395Y7701D01*
X319366Y7778D01*
X319336Y7842D01*
X319301Y7906D01*
X319266Y7959D01*
X319237Y8006D01*
X319208Y8047D01*
X319178Y8082D01*
X319161Y8111D01*
X319143Y8128D01*
X319131Y8140D01*
X319126Y8146D01*
X319061Y8210D01*
X318991Y8263D01*
X318921Y8310D01*
X318845Y8351D01*
X318775Y8386D01*
X318704Y8409D01*
X318570Y8456D01*
X318511Y8468D01*
X318453Y8479D01*
X318406Y8485D01*
X318359Y8491D01*
X318324Y8497D01*
X318277D01*
X318137Y8485D01*
X318002Y8456D01*
X317880Y8421D01*
X317774Y8374D01*
X317681Y8327D01*
X317646Y8310D01*
X317611Y8292D01*
X317587Y8275D01*
X317569Y8263D01*
X317558Y8257D01*
X317552Y8251D01*
X317763Y9287D01*
X319295D01*
Y9737D01*
X319477D01*
X317388D01*
X317014Y7766D01*
X317458Y7701D01*
X317499Y7760D01*
X317546Y7813D01*
X317593Y7859D01*
X317634Y7900D01*
X317675Y7930D01*
X317710Y7953D01*
X317733Y7965D01*
X317739Y7970D01*
X317809Y8006D01*
X317880Y8035D01*
X317950Y8052D01*
X318014Y8070D01*
X318073Y8076D01*
X318114Y8082D01*
X318155D01*
X318283Y8070D01*
X318400Y8047D01*
X318506Y8006D01*
X318587Y7965D01*
X318658Y7924D01*
X318704Y7883D01*
X318734Y7859D01*
X318745Y7848D01*
X318821Y7754D01*
X318880Y7649D01*
X318921Y7543D01*
X318944Y7444D01*
X318962Y7350D01*
X318968Y7310D01*
Y7274D01*
X318973Y7251D01*
Y7228D01*
Y7216D01*
Y7210D01*
X318962Y7058D01*
X318938Y6923D01*
X318898Y6806D01*
X318857Y6707D01*
X318816Y6631D01*
X318775Y6572D01*
X318751Y6537D01*
X318740Y6531D01*
Y6526D01*
X318693Y6479D01*
X318646Y6444D01*
X318552Y6379D01*
X318453Y6338D01*
X318365Y6303D01*
X318283Y6286D01*
X318219Y6280D01*
X318196Y6274D01*
X318160D01*
X318061Y6280D01*
X317967Y6303D01*
X317885Y6333D01*
X317815Y6362D01*
X317757Y6397D01*
X317716Y6420D01*
X317692Y6444D01*
X317681Y6449D01*
X317611Y6526D01*
X317558Y6613D01*
X317511Y6701D01*
X317482Y6789D01*
X317458Y6871D01*
X317441Y6935D01*
X317435Y6959D01*
X317429Y6976D01*
Y6988D01*
Y6994D01*
X316932Y6959D01*
D01*
X316944Y6871D01*
X316961Y6783D01*
X317008Y6631D01*
X317072Y6496D01*
X317137Y6385D01*
X317172Y6338D01*
X317201Y6297D01*
X317230Y6262D01*
X317254Y6233D01*
X317277Y6210D01*
X317295Y6192D01*
X317300Y6186D01*
X317306Y6180D01*
X317371Y6128D01*
X317441Y6087D01*
X317511Y6046D01*
X317581Y6011D01*
X317722Y5958D01*
X317856Y5923D01*
X317920Y5911D01*
X317979Y5906D01*
X318032Y5900D01*
X318073Y5894D01*
X318108Y5888D01*
X318160D01*
X318277Y5894D01*
X318389Y5906D01*
X318488Y5929D01*
X318587Y5958D01*
X318675Y5993D01*
X318763Y6034D01*
X318839Y6075D01*
X318903Y6122D01*
X318968Y6163D01*
X319020Y6204D01*
X319067Y6245D01*
X319102Y6280D01*
X319131Y6309D01*
X319155Y6333D01*
X319167Y6344D01*
X319172Y6350D01*
X319225Y6420D01*
X319272Y6496D01*
X319313Y6572D01*
X319348Y6654D01*
X319401Y6801D01*
X319442Y6941D01*
X319453Y7005D01*
X319459Y7064D01*
X319465Y7116D01*
X319471Y7163D01*
X319477Y7198D01*
Y5923D01*
Y9737D01*
D02*
G37*
G36*
X348738Y7579D02*
X347293D01*
Y7105D01*
X348738D01*
Y7579D01*
D02*
G37*
G36*
X336845Y9796D02*
X336360D01*
Y6777D01*
X334336Y9796D01*
X333821D01*
Y5952D01*
X336845Y5952D01*
Y9796D01*
D02*
G37*
G36*
X311807Y6572D02*
X310883D01*
D01*
X311807D01*
D02*
G37*
G36*
X358408Y9796D02*
X357894D01*
X356852Y7005D01*
X356811Y6888D01*
X356770Y6771D01*
X356735Y6666D01*
X356706Y6572D01*
X356683Y6491D01*
X356665Y6426D01*
X356659Y6403D01*
X356653Y6385D01*
X356647Y6379D01*
Y6374D01*
X356583Y6596D01*
X356548Y6701D01*
X356513Y6801D01*
X356484Y6882D01*
X356466Y6947D01*
X356454Y6970D01*
X356449Y6988D01*
X356443Y7000D01*
Y7005D01*
X355448Y9796D01*
X354892D01*
X356384Y5952D01*
X356905D01*
X358408Y9796D01*
D02*
G37*
G36*
X323226Y9796D02*
X322712D01*
X321670Y7005D01*
X321629Y6888D01*
X321588Y6771D01*
X321553Y6666D01*
X321524Y6572D01*
X321501Y6491D01*
X321483Y6426D01*
X321477Y6403D01*
X321472Y6385D01*
X321466Y6379D01*
Y6374D01*
X321401Y6596D01*
X321366Y6701D01*
X321331Y6801D01*
X321302Y6882D01*
X321284Y6947D01*
X321273Y6970D01*
X321267Y6988D01*
X321261Y6999D01*
Y7005D01*
X320266Y9796D01*
X319711D01*
X321202Y5952D01*
X321723D01*
X323226Y9796D01*
D02*
G37*
G36*
X358408Y9796D02*
Y5952D01*
D01*
D01*
Y9796D01*
D02*
G37*
G36*
X350909Y9813D02*
X350599D01*
X350546Y9720D01*
X350482Y9626D01*
X350411Y9538D01*
X350341Y9456D01*
X350277Y9392D01*
X350224Y9339D01*
X350189Y9304D01*
X350183Y9298D01*
X350177Y9293D01*
X350066Y9199D01*
X349949Y9111D01*
X349832Y9035D01*
X349727Y8971D01*
X349633Y8918D01*
X349592Y8901D01*
X349557Y8883D01*
X349534Y8866D01*
X349511Y8854D01*
X349499Y8848D01*
X349493D01*
Y8386D01*
X349575Y8421D01*
X349663Y8462D01*
X349745Y8497D01*
X349821Y8538D01*
X349885Y8573D01*
X349938Y8602D01*
X349973Y8626D01*
X349978Y8632D01*
X349984D01*
X350084Y8690D01*
X350172Y8754D01*
X350248Y8807D01*
X350312Y8860D01*
X350365Y8901D01*
X350406Y8930D01*
X350429Y8953D01*
X350435Y8959D01*
Y5952D01*
X350909D01*
Y9813D01*
D02*
G37*
G36*
X323226Y9796D02*
Y5952D01*
D01*
D01*
Y9796D01*
D02*
G37*
G36*
X315727Y9813D02*
X315417D01*
X315364Y9720D01*
X315300Y9626D01*
X315230Y9538D01*
X315159Y9456D01*
X315095Y9392D01*
X315042Y9339D01*
X315007Y9304D01*
X315001Y9298D01*
X314996Y9293D01*
X314884Y9199D01*
X314767Y9111D01*
X314650Y9035D01*
X314545Y8971D01*
X314452Y8918D01*
X314410Y8901D01*
X314375Y8883D01*
X314352Y8866D01*
X314329Y8854D01*
X314317Y8848D01*
X314311D01*
Y8386D01*
X314393Y8421D01*
X314481Y8462D01*
X314563Y8497D01*
X314639Y8538D01*
X314703Y8573D01*
X314756Y8602D01*
X314791Y8626D01*
X314797Y8632D01*
X314803D01*
X314902Y8690D01*
X314990Y8754D01*
X315066Y8807D01*
X315130Y8860D01*
X315183Y8901D01*
X315224Y8930D01*
X315247Y8953D01*
X315253Y8959D01*
Y5952D01*
X315727D01*
Y9813D01*
D02*
G37*
%LPD*%
G36*
X333078Y5888D02*
X331487D01*
X331639Y5894D01*
X331791Y5911D01*
X331925Y5935D01*
X332048Y5964D01*
X332101Y5976D01*
X332154Y5987D01*
X332194Y5999D01*
X332230Y6011D01*
X332259Y6022D01*
X332282Y6028D01*
X332294Y6034D01*
X332300D01*
X332446Y6098D01*
X332592Y6169D01*
X332721Y6245D01*
X332838Y6315D01*
X332938Y6385D01*
X332978Y6409D01*
X333014Y6438D01*
X333043Y6455D01*
X333060Y6473D01*
X333072Y6479D01*
X333078Y6485D01*
Y5888D01*
D02*
G37*
G36*
X313422Y6572D02*
X312375D01*
Y7625D01*
X313422D01*
Y6572D01*
D02*
G37*
G36*
X339168Y9339D02*
X339302Y9334D01*
X339413Y9322D01*
X339507Y9304D01*
X339577Y9287D01*
X339624Y9275D01*
X339653Y9269D01*
X339665Y9263D01*
X339764Y9211D01*
X339858Y9146D01*
X339940Y9076D01*
X340010Y9000D01*
X340069Y8936D01*
X340110Y8877D01*
X340127Y8854D01*
X340133Y8836D01*
X340145Y8830D01*
Y8825D01*
X340180Y8760D01*
X340209Y8690D01*
X340262Y8544D01*
X340297Y8392D01*
X340320Y8240D01*
X340326Y8175D01*
X340332Y8111D01*
X340338Y8053D01*
X340344Y8000D01*
Y7959D01*
Y7930D01*
Y7906D01*
Y7900D01*
X340338Y7742D01*
X340326Y7602D01*
X340308Y7473D01*
X340291Y7362D01*
X340273Y7274D01*
X340262Y7239D01*
X340256Y7210D01*
X340250Y7187D01*
X340244Y7169D01*
X340238Y7163D01*
Y7157D01*
X340197Y7052D01*
X340150Y6953D01*
X340104Y6871D01*
X340063Y6801D01*
X340022Y6748D01*
X339987Y6707D01*
X339963Y6678D01*
X339957Y6672D01*
X339905Y6625D01*
X339852Y6584D01*
X339794Y6555D01*
X339735Y6526D01*
X339688Y6502D01*
X339647Y6485D01*
X339624Y6479D01*
X339612Y6473D01*
X339525Y6450D01*
X339431Y6432D01*
X339332Y6420D01*
X339238Y6414D01*
X339150Y6409D01*
X339086Y6403D01*
X338208D01*
Y9345D01*
X339010D01*
X339168Y9339D01*
D02*
G37*
G36*
X336325Y5952D02*
X334306Y5952D01*
Y8971D01*
X336325Y5952D01*
D02*
G37*
%LPC*%
G36*
X9111Y130147D02*
X6572D01*
X7625D01*
Y129100D01*
X6572D01*
Y127608D01*
D01*
Y128655D01*
X7625D01*
Y127608D01*
X8064D01*
Y128655D01*
X9111D01*
Y130147D01*
D02*
G37*
G36*
X9737Y127081D02*
X5888D01*
D01*
X6959D01*
D01*
D01*
X9737D01*
Y126625D01*
X7766Y126999D01*
X7701Y126555D01*
X7760Y126514D01*
X7813Y126467D01*
X7859Y126420D01*
X7900Y126379D01*
X7930Y126338D01*
X7953Y126303D01*
X7965Y126280D01*
X7971Y126274D01*
X8006Y126204D01*
X8035Y126134D01*
X8053Y126063D01*
X8070Y125999D01*
X8076Y125941D01*
X8082Y125900D01*
Y125859D01*
X8070Y125730D01*
X8047Y125613D01*
X8006Y125508D01*
X7965Y125426D01*
X7924Y125356D01*
X7883Y125309D01*
X7859Y125279D01*
X7848Y125268D01*
X7754Y125192D01*
X7649Y125133D01*
X7543Y125092D01*
X7444Y125069D01*
X7350Y125051D01*
X7310Y125046D01*
X7274D01*
X7251Y125040D01*
X7228D01*
X7216D01*
X7210D01*
X7058Y125051D01*
X6923Y125075D01*
X6806Y125116D01*
X6707Y125157D01*
X6631Y125198D01*
X6572Y125239D01*
X6537Y125262D01*
X6531Y125274D01*
X6526D01*
X6479Y125320D01*
X6444Y125367D01*
X6379Y125461D01*
X6338Y125560D01*
X6303Y125648D01*
X6286Y125730D01*
X6280Y125794D01*
X6274Y125818D01*
Y125853D01*
X6280Y125952D01*
X6303Y126046D01*
X6333Y126128D01*
X6362Y126198D01*
X6397Y126256D01*
X6420Y126297D01*
X6444Y126321D01*
X6450Y126332D01*
X6526Y126403D01*
X6613Y126455D01*
X6701Y126502D01*
X6789Y126531D01*
X6871Y126555D01*
X6935Y126572D01*
X6959Y126578D01*
X6976Y126584D01*
X6988D01*
X6994D01*
X6959Y127081D01*
D01*
X6871Y127070D01*
X6783Y127052D01*
X6631Y127005D01*
X6496Y126941D01*
X6385Y126876D01*
X6338Y126841D01*
X6297Y126812D01*
X6262Y126783D01*
X6233Y126760D01*
X6210Y126736D01*
X6192Y126719D01*
X6186Y126713D01*
X6180Y126707D01*
X6128Y126643D01*
X6087Y126572D01*
X6046Y126502D01*
X6011Y126432D01*
X5958Y126292D01*
X5923Y126157D01*
X5911Y126093D01*
X5906Y126034D01*
X5900Y125981D01*
X5894Y125941D01*
X5888Y125905D01*
Y125853D01*
X5894Y125736D01*
X5906Y125625D01*
X5929Y125525D01*
X5958Y125426D01*
X5993Y125338D01*
X6034Y125250D01*
X6075Y125174D01*
X6122Y125110D01*
X6163Y125046D01*
X6204Y124993D01*
X6245Y124946D01*
X6280Y124911D01*
X6309Y124882D01*
X6333Y124858D01*
X6344Y124847D01*
X6350Y124841D01*
X6420Y124788D01*
X6496Y124741D01*
X6572Y124700D01*
X6654Y124665D01*
X6801Y124613D01*
X6941Y124572D01*
X7005Y124560D01*
X7064Y124554D01*
X7117Y124548D01*
X7163Y124542D01*
X7198Y124537D01*
X7251D01*
X7350Y124542D01*
X7450Y124554D01*
X7538Y124572D01*
X7625Y124589D01*
X7701Y124618D01*
X7778Y124648D01*
X7842Y124677D01*
X7906Y124712D01*
X7959Y124747D01*
X8006Y124776D01*
X8047Y124806D01*
X8082Y124835D01*
X8111Y124852D01*
X8128Y124870D01*
X8140Y124882D01*
X8146Y124888D01*
X8210Y124952D01*
X8263Y125022D01*
X8310Y125092D01*
X8351Y125168D01*
X8386Y125239D01*
X8409Y125309D01*
X8456Y125443D01*
X8468Y125502D01*
X8479Y125560D01*
X8485Y125607D01*
X8491Y125654D01*
X8497Y125689D01*
Y125736D01*
X8485Y125876D01*
X8456Y126011D01*
X8421Y126134D01*
X8374Y126239D01*
X8327Y126332D01*
X8310Y126368D01*
X8292Y126403D01*
X8275Y126426D01*
X8263Y126444D01*
X8257Y126455D01*
X8251Y126461D01*
X9287Y126251D01*
Y124718D01*
X9737D01*
Y124537D01*
D01*
Y127081D01*
D02*
G37*
G36*
X9796Y124302D02*
X5952D01*
D01*
X9796D01*
D02*
G37*
G36*
D02*
X5952Y122811D01*
Y122290D01*
X9796Y120787D01*
Y124302D01*
D02*
G37*
G36*
Y119119D02*
X5952D01*
Y116083D01*
Y117347D01*
X9345D01*
Y116083D01*
X9796D01*
Y119119D01*
D02*
G37*
G36*
Y115949D02*
X5952D01*
D01*
X9796D01*
D02*
G37*
G36*
D02*
D01*
Y115773D01*
X7941Y114463D01*
X5952Y115949D01*
Y115340D01*
X7280Y114369D01*
X7315Y114346D01*
X7356Y114317D01*
X7444Y114252D01*
X7491Y114223D01*
X7526Y114205D01*
X7549Y114188D01*
X7555Y114182D01*
X7467Y114123D01*
X7397Y114077D01*
X7362Y114053D01*
X7339Y114036D01*
X7327Y114030D01*
X7321Y114024D01*
X5952Y113053D01*
Y112427D01*
D01*
X7965Y113872D01*
X9796Y112532D01*
Y112427D01*
D01*
Y115949D01*
D02*
G37*
G36*
Y110479D02*
X5952D01*
Y109970D01*
X7660D01*
Y109315D01*
X7655Y109256D01*
Y109210D01*
X7649Y109169D01*
X7643Y109139D01*
Y109116D01*
X7637Y109104D01*
Y109098D01*
X7608Y109011D01*
X7573Y108940D01*
X7555Y108911D01*
X7543Y108888D01*
X7538Y108876D01*
X7532Y108870D01*
X7502Y108823D01*
X7462Y108782D01*
X7380Y108695D01*
X7339Y108666D01*
X7304Y108636D01*
X7280Y108619D01*
X7274Y108613D01*
X7198Y108554D01*
X7117Y108496D01*
X7029Y108431D01*
X6941Y108373D01*
X6865Y108320D01*
X6806Y108279D01*
X6783Y108268D01*
X6765Y108256D01*
X6754Y108244D01*
X6748D01*
X5952Y107735D01*
Y107098D01*
X6994Y107765D01*
X7105Y107841D01*
X7204Y107917D01*
X7292Y107987D01*
X7368Y108051D01*
X7427Y108104D01*
X7473Y108145D01*
X7497Y108174D01*
X7508Y108186D01*
X7543Y108227D01*
X7579Y108279D01*
X7643Y108379D01*
X7666Y108420D01*
X7684Y108455D01*
X7696Y108478D01*
X7701Y108490D01*
X7719Y108390D01*
X7737Y108297D01*
X7760Y108209D01*
X7789Y108133D01*
X7818Y108057D01*
X7848Y107993D01*
X7877Y107928D01*
X7906Y107876D01*
X7936Y107829D01*
X7959Y107788D01*
X7988Y107753D01*
X8006Y107724D01*
X8029Y107706D01*
X8041Y107688D01*
X8053Y107677D01*
X8105Y107630D01*
X8164Y107589D01*
X8281Y107519D01*
X8392Y107472D01*
X8503Y107443D01*
X8597Y107419D01*
X8637Y107414D01*
X8672D01*
X8702Y107408D01*
X8725D01*
X8737D01*
X8743D01*
X8860Y107414D01*
X8965Y107431D01*
X9065Y107460D01*
X9152Y107490D01*
X9223Y107519D01*
X9275Y107548D01*
X9310Y107566D01*
X9322Y107571D01*
X9415Y107636D01*
X9492Y107706D01*
X9556Y107776D01*
X9603Y107846D01*
X9644Y107905D01*
X9673Y107952D01*
X9685Y107987D01*
X9690Y107993D01*
Y107999D01*
X9708Y108051D01*
X9725Y108110D01*
X9749Y108233D01*
X9772Y108361D01*
X9784Y108484D01*
X9790Y108601D01*
Y108648D01*
X9796Y108695D01*
Y107098D01*
X5952D01*
X9796D01*
Y110479D01*
D02*
G37*
G36*
Y107004D02*
D01*
Y106829D01*
X7941Y105518D01*
X5952Y107004D01*
Y106396D01*
X7280Y105425D01*
X7315Y105401D01*
X7356Y105372D01*
X7444Y105308D01*
X7491Y105278D01*
X7526Y105261D01*
X7549Y105243D01*
X7555Y105237D01*
X7467Y105179D01*
X7397Y105132D01*
X7362Y105109D01*
X7339Y105091D01*
X7327Y105085D01*
X7321Y105079D01*
X5952Y104108D01*
Y103482D01*
X7965Y104927D01*
X9796Y103588D01*
Y103482D01*
X5952D01*
X9796D01*
Y107004D01*
D02*
G37*
G36*
X9860Y101669D02*
D01*
Y99750D01*
X9848Y99961D01*
X9825Y100148D01*
X9784Y100323D01*
X9761Y100399D01*
X9743Y100470D01*
X9720Y100534D01*
X9696Y100593D01*
X9679Y100645D01*
X9655Y100686D01*
X9644Y100715D01*
X9632Y100745D01*
X9620Y100756D01*
Y100762D01*
X9573Y100844D01*
X9521Y100914D01*
X9410Y101055D01*
X9293Y101166D01*
X9176Y101265D01*
X9065Y101335D01*
X9024Y101365D01*
X8983Y101394D01*
X8947Y101411D01*
X8924Y101423D01*
X8907Y101435D01*
X8901D01*
X8719Y101511D01*
X8532Y101569D01*
X8357Y101610D01*
X8193Y101640D01*
X8123Y101651D01*
X8058Y101657D01*
X8000Y101663D01*
X7947D01*
X7906Y101669D01*
X9860D01*
X5888D01*
D01*
X7853D01*
X7649Y101657D01*
X7456Y101634D01*
X7280Y101593D01*
X7198Y101575D01*
X7128Y101552D01*
X7058Y101529D01*
X7000Y101511D01*
X6947Y101488D01*
X6906Y101470D01*
X6871Y101458D01*
X6847Y101447D01*
X6830Y101435D01*
X6824D01*
X6666Y101335D01*
X6526Y101224D01*
X6403Y101113D01*
X6303Y100996D01*
X6227Y100897D01*
X6198Y100856D01*
X6175Y100815D01*
X6151Y100786D01*
X6140Y100756D01*
X6134Y100745D01*
X6128Y100739D01*
X6046Y100563D01*
X5987Y100382D01*
X5946Y100212D01*
X5917Y100048D01*
X5906Y99978D01*
X5900Y99914D01*
X5894Y99855D01*
Y99803D01*
X5888Y99762D01*
Y99709D01*
X5894Y99557D01*
X5911Y99405D01*
X5935Y99270D01*
X5964Y99147D01*
X5976Y99095D01*
X5987Y99042D01*
X5999Y99001D01*
X6011Y98966D01*
X6022Y98937D01*
X6028Y98914D01*
X6034Y98902D01*
Y98896D01*
X6099Y98750D01*
X6169Y98603D01*
X6245Y98475D01*
X6315Y98358D01*
X6385Y98258D01*
X6409Y98217D01*
X6438Y98182D01*
X6455Y98153D01*
X6473Y98136D01*
X6479Y98124D01*
X6485Y98118D01*
X7912D01*
Y99744D01*
X7462D01*
Y98615D01*
X6736D01*
X6684Y98685D01*
X6631Y98761D01*
X6584Y98838D01*
X6543Y98914D01*
X6508Y98984D01*
X6485Y99042D01*
X6473Y99066D01*
X6467Y99083D01*
X6461Y99089D01*
Y99095D01*
X6420Y99212D01*
X6391Y99329D01*
X6368Y99440D01*
X6356Y99534D01*
X6344Y99616D01*
X6338Y99680D01*
Y99738D01*
X6344Y99879D01*
X6362Y100013D01*
X6391Y100130D01*
X6420Y100241D01*
X6450Y100329D01*
X6467Y100370D01*
X6479Y100399D01*
X6485Y100423D01*
X6496Y100440D01*
X6502Y100452D01*
Y100458D01*
X6572Y100575D01*
X6654Y100680D01*
X6742Y100768D01*
X6824Y100838D01*
X6900Y100891D01*
X6959Y100932D01*
X6982Y100949D01*
X7000Y100961D01*
X7011Y100967D01*
X7017D01*
X7157Y101025D01*
X7298Y101066D01*
X7444Y101101D01*
X7584Y101119D01*
X7643Y101125D01*
X7701Y101131D01*
X7754Y101137D01*
X7795D01*
X7836Y101142D01*
X7859D01*
X7877D01*
X7883D01*
X8035Y101137D01*
X8181Y101119D01*
X8310Y101096D01*
X8427Y101066D01*
X8520Y101043D01*
X8561Y101031D01*
X8591Y101020D01*
X8620Y101008D01*
X8637Y101002D01*
X8649Y100996D01*
X8655D01*
X8731Y100961D01*
X8801Y100926D01*
X8866Y100885D01*
X8924Y100844D01*
X8971Y100809D01*
X9006Y100780D01*
X9029Y100762D01*
X9035Y100756D01*
X9100Y100692D01*
X9152Y100628D01*
X9199Y100557D01*
X9240Y100493D01*
X9275Y100435D01*
X9298Y100388D01*
X9310Y100358D01*
X9316Y100347D01*
X9351Y100247D01*
X9380Y100148D01*
X9398Y100043D01*
X9415Y99949D01*
X9421Y99867D01*
X9427Y99803D01*
Y99744D01*
X9421Y99639D01*
X9410Y99540D01*
X9392Y99452D01*
X9375Y99376D01*
X9357Y99311D01*
X9339Y99259D01*
X9328Y99229D01*
X9322Y99218D01*
X9281Y99130D01*
X9240Y99060D01*
X9193Y98995D01*
X9152Y98943D01*
X9111Y98902D01*
X9082Y98873D01*
X9059Y98855D01*
X9053Y98849D01*
X8983Y98802D01*
X8907Y98761D01*
X8830Y98726D01*
X8760Y98697D01*
X8690Y98674D01*
X8637Y98650D01*
X8602Y98644D01*
X8597Y98639D01*
X8591D01*
X8719Y98176D01*
X8860Y98217D01*
X8983Y98264D01*
X9088Y98311D01*
X9176Y98358D01*
X9252Y98405D01*
X9304Y98440D01*
X9334Y98463D01*
X9345Y98469D01*
X9433Y98545D01*
X9503Y98633D01*
X9568Y98721D01*
X9620Y98808D01*
X9667Y98884D01*
X9696Y98943D01*
X9708Y98966D01*
X9714Y98984D01*
X9720Y98995D01*
Y99001D01*
X9766Y99130D01*
X9802Y99259D01*
X9825Y99387D01*
X9843Y99498D01*
X9854Y99598D01*
Y99645D01*
X9860Y99680D01*
Y98118D01*
D01*
Y101669D01*
D02*
G37*
G36*
X9796Y97375D02*
X5952D01*
Y94350D01*
X9796D01*
Y94836D01*
X6777D01*
X9796Y96860D01*
Y97375D01*
D02*
G37*
G36*
Y93496D02*
X5952D01*
Y90326D01*
D01*
Y92116D01*
X5958Y91987D01*
X5964Y91870D01*
X5976Y91765D01*
X5987Y91677D01*
X5999Y91601D01*
X6005Y91548D01*
X6017Y91513D01*
Y91502D01*
X6046Y91402D01*
X6075Y91314D01*
X6104Y91238D01*
X6134Y91174D01*
X6163Y91121D01*
X6186Y91080D01*
X6198Y91051D01*
X6204Y91045D01*
X6256Y90975D01*
X6315Y90911D01*
X6374Y90846D01*
X6426Y90800D01*
X6479Y90753D01*
X6520Y90724D01*
X6543Y90700D01*
X6555Y90694D01*
X6643Y90636D01*
X6736Y90583D01*
X6830Y90536D01*
X6917Y90501D01*
X7000Y90472D01*
X7058Y90449D01*
X7081Y90443D01*
X7099Y90437D01*
X7111Y90431D01*
X7117D01*
X7245Y90396D01*
X7380Y90373D01*
X7514Y90349D01*
X7631Y90337D01*
X7737Y90332D01*
X7783D01*
X7818Y90326D01*
X7895D01*
X8082Y90332D01*
X8251Y90349D01*
X8403Y90373D01*
X8474Y90390D01*
X8538Y90402D01*
X8597Y90413D01*
X8649Y90431D01*
X8696Y90443D01*
X8731Y90454D01*
X8760Y90466D01*
X8784Y90472D01*
X8795Y90478D01*
X8801D01*
X8947Y90542D01*
X9076Y90612D01*
X9187Y90688D01*
X9281Y90764D01*
X9357Y90829D01*
X9415Y90882D01*
X9451Y90922D01*
X9462Y90928D01*
Y90934D01*
X9533Y91028D01*
X9591Y91121D01*
X9638Y91215D01*
X9673Y91303D01*
X9702Y91379D01*
X9720Y91443D01*
X9731Y91466D01*
Y91478D01*
X9737Y91490D01*
Y91496D01*
X9755Y91589D01*
X9772Y91701D01*
X9784Y91817D01*
X9790Y91923D01*
X9796Y92022D01*
Y93496D01*
D02*
G37*
%LPD*%
G36*
X9111Y129100D02*
X8064D01*
Y130147D01*
X9111D01*
Y129100D01*
D02*
G37*
G36*
X9796Y121301D02*
X7005Y122343D01*
X6888Y122384D01*
X6771Y122425D01*
X6666Y122460D01*
X6572Y122489D01*
X6491Y122512D01*
X6426Y122530D01*
X6403Y122536D01*
X6385Y122542D01*
X6379Y122547D01*
X6374D01*
X6596Y122612D01*
X6701Y122647D01*
X6801Y122682D01*
X6882Y122711D01*
X6947Y122729D01*
X6970Y122741D01*
X6988Y122746D01*
X7000Y122752D01*
X7005D01*
X9796Y123747D01*
Y121301D01*
D02*
G37*
G36*
X9345Y117856D02*
X5952D01*
Y119119D01*
X9345D01*
Y117856D01*
D02*
G37*
G36*
X9796Y113088D02*
X8766Y113860D01*
X8684Y113925D01*
X8608Y113983D01*
X8532Y114036D01*
X8468Y114077D01*
X8415Y114112D01*
X8374Y114141D01*
X8351Y114159D01*
X8339Y114164D01*
X8409Y114205D01*
X8479Y114246D01*
X8561Y114299D01*
X8637Y114352D01*
X8702Y114393D01*
X8754Y114434D01*
X8795Y114457D01*
X8801Y114469D01*
X8807D01*
X9796Y115171D01*
Y113088D01*
D02*
G37*
G36*
X9369Y108759D02*
X9363Y108607D01*
X9339Y108478D01*
X9316Y108373D01*
X9281Y108285D01*
X9252Y108221D01*
X9223Y108168D01*
X9199Y108145D01*
X9193Y108133D01*
X9123Y108069D01*
X9047Y108016D01*
X8971Y107981D01*
X8901Y107958D01*
X8836Y107946D01*
X8789Y107934D01*
X8754D01*
X8749D01*
X8743D01*
X8672Y107940D01*
X8608Y107952D01*
X8550Y107969D01*
X8503Y107987D01*
X8456Y108004D01*
X8427Y108022D01*
X8403Y108034D01*
X8398Y108039D01*
X8345Y108080D01*
X8298Y108127D01*
X8257Y108180D01*
X8222Y108227D01*
X8199Y108268D01*
X8181Y108303D01*
X8175Y108326D01*
X8169Y108338D01*
X8146Y108414D01*
X8128Y108502D01*
X8117Y108595D01*
X8111Y108683D01*
X8105Y108759D01*
X8099Y108823D01*
Y109970D01*
X9369D01*
Y108759D01*
D02*
G37*
G36*
X9796Y104143D02*
X8766Y104916D01*
X8684Y104980D01*
X8608Y105038D01*
X8532Y105091D01*
X8468Y105132D01*
X8415Y105167D01*
X8374Y105196D01*
X8351Y105214D01*
X8339Y105220D01*
X8409Y105261D01*
X8479Y105302D01*
X8561Y105354D01*
X8637Y105407D01*
X8702Y105448D01*
X8754Y105489D01*
X8795Y105512D01*
X8801Y105524D01*
X8807D01*
X9796Y106226D01*
Y104143D01*
D02*
G37*
G36*
X5952Y94871D02*
Y96889D01*
X8971D01*
X5952Y94871D01*
D02*
G37*
G36*
X9345Y92186D02*
X9339Y92028D01*
X9334Y91894D01*
X9322Y91782D01*
X9304Y91689D01*
X9287Y91619D01*
X9275Y91572D01*
X9269Y91543D01*
X9263Y91531D01*
X9211Y91431D01*
X9146Y91338D01*
X9076Y91256D01*
X9000Y91186D01*
X8936Y91127D01*
X8877Y91086D01*
X8854Y91069D01*
X8836Y91063D01*
X8830Y91051D01*
X8825D01*
X8760Y91016D01*
X8690Y90987D01*
X8544Y90934D01*
X8392Y90899D01*
X8240Y90876D01*
X8175Y90870D01*
X8111Y90864D01*
X8053Y90858D01*
X8000Y90852D01*
X7959D01*
X7930D01*
X7906D01*
X7900D01*
X7742Y90858D01*
X7602Y90870D01*
X7473Y90887D01*
X7362Y90905D01*
X7274Y90922D01*
X7239Y90934D01*
X7210Y90940D01*
X7187Y90946D01*
X7169Y90952D01*
X7163Y90957D01*
X7157D01*
X7052Y90999D01*
X6953Y91045D01*
X6871Y91092D01*
X6801Y91133D01*
X6748Y91174D01*
X6707Y91209D01*
X6678Y91233D01*
X6672Y91238D01*
X6625Y91291D01*
X6584Y91344D01*
X6555Y91402D01*
X6526Y91461D01*
X6502Y91507D01*
X6485Y91548D01*
X6479Y91572D01*
X6473Y91584D01*
X6450Y91671D01*
X6432Y91765D01*
X6420Y91864D01*
X6414Y91958D01*
X6409Y92046D01*
X6403Y92110D01*
Y92988D01*
X9345D01*
Y92186D01*
D02*
G37*
%LPC*%
G36*
X227788Y59073D02*
X227718D01*
X227577Y59067D01*
X227443Y59049D01*
X227326Y59032D01*
X227220Y59008D01*
X227138Y58979D01*
X227103Y58967D01*
X227074Y58961D01*
X227045Y58950D01*
X227027Y58944D01*
X227022Y58938D01*
X227016D01*
X226905Y58886D01*
X226805Y58821D01*
X226723Y58757D01*
X226659Y58698D01*
X226606Y58640D01*
X226565Y58593D01*
X226542Y58564D01*
X226536Y58558D01*
Y58552D01*
X226483Y58458D01*
X226442Y58359D01*
X226413Y58271D01*
X226396Y58183D01*
X226384Y58113D01*
X226372Y58061D01*
Y58037D01*
Y58020D01*
Y58014D01*
Y58008D01*
X226378Y57914D01*
X226396Y57821D01*
X226413Y57739D01*
X226442Y57669D01*
X226466Y57610D01*
X226483Y57569D01*
X226501Y57540D01*
X226507Y57528D01*
X226565Y57452D01*
X226630Y57382D01*
X226694Y57323D01*
X226764Y57271D01*
X226823Y57230D01*
X226869Y57201D01*
X226905Y57177D01*
X226910Y57171D01*
X226916D01*
X226957Y57148D01*
X227010Y57130D01*
X227121Y57090D01*
X227244Y57049D01*
X227367Y57008D01*
X227478Y56978D01*
X227525Y56967D01*
X227566Y56955D01*
X227601Y56943D01*
X227630Y56937D01*
X227647Y56932D01*
X227653D01*
X227747Y56908D01*
X227835Y56885D01*
X227917Y56867D01*
X227987Y56850D01*
X228045Y56832D01*
X228104Y56815D01*
X228151Y56803D01*
X228197Y56791D01*
X228233Y56779D01*
X228262Y56768D01*
X228309Y56756D01*
X228332Y56750D01*
X228338Y56744D01*
X228420Y56709D01*
X228496Y56668D01*
X228554Y56633D01*
X228601Y56598D01*
X228636Y56563D01*
X228665Y56540D01*
X228677Y56522D01*
X228683Y56516D01*
X228718Y56464D01*
X228741Y56411D01*
X228765Y56358D01*
X228777Y56306D01*
X228782Y56265D01*
X228788Y56230D01*
Y56206D01*
Y56200D01*
X228782Y56136D01*
X228771Y56077D01*
X228753Y56019D01*
X228736Y55972D01*
X228712Y55931D01*
X228695Y55902D01*
X228683Y55879D01*
X228677Y55873D01*
X228630Y55820D01*
X228578Y55773D01*
X228525Y55732D01*
X228467Y55697D01*
X228420Y55668D01*
X228379Y55650D01*
X228355Y55639D01*
X228344Y55633D01*
X228256Y55604D01*
X228168Y55586D01*
X228086Y55568D01*
X228004Y55563D01*
X227940Y55557D01*
X227882Y55551D01*
X227835D01*
X227718Y55557D01*
X227607Y55568D01*
X227501Y55586D01*
X227419Y55610D01*
X227343Y55627D01*
X227291Y55645D01*
X227256Y55656D01*
X227250Y55662D01*
X227244D01*
X227156Y55709D01*
X227074Y55756D01*
X227010Y55808D01*
X226957Y55855D01*
X226910Y55896D01*
X226881Y55931D01*
X226864Y55955D01*
X226858Y55961D01*
X226817Y56037D01*
X226782Y56113D01*
X226758Y56195D01*
X226735Y56270D01*
X226723Y56341D01*
X226712Y56393D01*
X226706Y56428D01*
Y56434D01*
Y56440D01*
X226226Y56399D01*
X226238Y56259D01*
X226261Y56130D01*
X226296Y56007D01*
X226331Y55908D01*
X226366Y55820D01*
X226384Y55785D01*
X226401Y55756D01*
X226413Y55732D01*
X226425Y55715D01*
X226431Y55709D01*
Y55703D01*
X226513Y55598D01*
X226606Y55504D01*
X226694Y55428D01*
X226787Y55364D01*
X226864Y55311D01*
X226928Y55276D01*
X226951Y55264D01*
X226969Y55253D01*
X226981Y55247D01*
X226986D01*
X227127Y55200D01*
X227273Y55165D01*
X227419Y55136D01*
X227554Y55118D01*
X227618Y55112D01*
X227677Y55106D01*
X227729D01*
X227770Y55101D01*
X226226D01*
X227858D01*
X228010Y55106D01*
X228145Y55124D01*
X228273Y55147D01*
X228379Y55177D01*
X228472Y55200D01*
X228507Y55212D01*
X228537Y55223D01*
X228560Y55235D01*
X228578Y55241D01*
X228589Y55247D01*
X228595D01*
X228712Y55311D01*
X228818Y55375D01*
X228905Y55446D01*
X228975Y55516D01*
X229034Y55574D01*
X229069Y55621D01*
X229098Y55656D01*
X229104Y55668D01*
X229163Y55767D01*
X229204Y55873D01*
X229239Y55972D01*
X229256Y56060D01*
X229268Y56136D01*
X229280Y56195D01*
Y56247D01*
X229274Y56358D01*
X229256Y56464D01*
X229227Y56557D01*
X229198Y56633D01*
X229169Y56703D01*
X229139Y56750D01*
X229122Y56779D01*
X229116Y56791D01*
X229051Y56873D01*
X228975Y56949D01*
X228893Y57019D01*
X228812Y57078D01*
X228736Y57119D01*
X228677Y57154D01*
X228654Y57166D01*
X228642Y57177D01*
X228630Y57183D01*
X228624D01*
X228578Y57201D01*
X228519Y57224D01*
X228461Y57248D01*
X228390Y57265D01*
X228250Y57306D01*
X228110Y57347D01*
X227981Y57376D01*
X227922Y57394D01*
X227870Y57405D01*
X227829Y57417D01*
X227800Y57423D01*
X227776Y57429D01*
X227770D01*
X227659Y57458D01*
X227560Y57481D01*
X227472Y57505D01*
X227390Y57534D01*
X227320Y57557D01*
X227261Y57575D01*
X227209Y57599D01*
X227162Y57622D01*
X227121Y57639D01*
X227086Y57651D01*
X227063Y57669D01*
X227045Y57680D01*
X227016Y57698D01*
X227010Y57704D01*
X226963Y57756D01*
X226928Y57809D01*
X226899Y57868D01*
X226881Y57920D01*
X226869Y57967D01*
X226864Y58008D01*
Y58031D01*
Y58043D01*
X226875Y58131D01*
X226899Y58207D01*
X226928Y58277D01*
X226969Y58336D01*
X227004Y58388D01*
X227039Y58423D01*
X227063Y58447D01*
X227068Y58453D01*
X227109Y58482D01*
X227156Y58511D01*
X227261Y58552D01*
X227373Y58581D01*
X227484Y58599D01*
X227583Y58616D01*
X227630D01*
X227665Y58622D01*
X227741D01*
X227899Y58616D01*
X228034Y58593D01*
X228151Y58564D01*
X228244Y58529D01*
X228314Y58494D01*
X228367Y58464D01*
X228396Y58441D01*
X228408Y58435D01*
X228484Y58359D01*
X228548Y58271D01*
X228595Y58183D01*
X228630Y58096D01*
X228654Y58014D01*
X228665Y57950D01*
X228671Y57926D01*
X228677Y57908D01*
Y57897D01*
Y57891D01*
X229163Y57926D01*
X229151Y58049D01*
X229128Y58160D01*
X229092Y58265D01*
X229057Y58353D01*
X229028Y58423D01*
X228999Y58482D01*
X228975Y58517D01*
X228970Y58529D01*
X228899Y58622D01*
X228818Y58704D01*
X228736Y58774D01*
X228654Y58833D01*
X228578Y58874D01*
X228519Y58909D01*
X228496Y58921D01*
X228478Y58926D01*
X228472Y58932D01*
X228467D01*
X228344Y58979D01*
X228215Y59014D01*
X228086Y59038D01*
X227969Y59055D01*
X227870Y59067D01*
X227829D01*
X227788Y59073D01*
D02*
G37*
G36*
X225980Y59008D02*
X222394D01*
D01*
X223863D01*
X222394Y55165D01*
X222932D01*
X223348Y56329D01*
X224962D01*
X225407Y55165D01*
X225980D01*
X224418Y59008D01*
X225980D01*
D01*
D02*
G37*
G36*
X222330D02*
X218949D01*
Y55165D01*
X219740D01*
X219458D01*
Y56873D01*
X220113D01*
X220171Y56867D01*
X220218D01*
X220259Y56861D01*
X220288Y56855D01*
X220312D01*
X220323Y56850D01*
X220329D01*
X220417Y56820D01*
X220487Y56785D01*
X220516Y56768D01*
X220540Y56756D01*
X220551Y56750D01*
X220557Y56744D01*
X220604Y56715D01*
X220645Y56674D01*
X220733Y56592D01*
X220762Y56551D01*
X220791Y56516D01*
X220809Y56493D01*
X220815Y56487D01*
X220873Y56411D01*
X220932Y56329D01*
X220996Y56241D01*
X221055Y56154D01*
X221107Y56077D01*
X221148Y56019D01*
X221160Y55996D01*
X221171Y55978D01*
X221183Y55966D01*
Y55961D01*
X221692Y55165D01*
X222330D01*
X221663Y56206D01*
X221587Y56317D01*
X221511Y56417D01*
X221441Y56504D01*
X221376Y56581D01*
X221324Y56639D01*
X221283Y56686D01*
X221253Y56709D01*
X221242Y56721D01*
X221201Y56756D01*
X221148Y56791D01*
X221049Y56855D01*
X221008Y56879D01*
X220973Y56897D01*
X220949Y56908D01*
X220937Y56914D01*
X221037Y56932D01*
X221131Y56949D01*
X221218Y56972D01*
X221294Y57002D01*
X221370Y57031D01*
X221435Y57060D01*
X221499Y57090D01*
X221552Y57119D01*
X221599Y57148D01*
X221639Y57171D01*
X221675Y57201D01*
X221704Y57218D01*
X221721Y57242D01*
X221739Y57253D01*
X221751Y57265D01*
X221797Y57318D01*
X221838Y57376D01*
X221909Y57493D01*
X221955Y57604D01*
X221985Y57715D01*
X222008Y57809D01*
X222014Y57850D01*
Y57885D01*
X222020Y57914D01*
Y57938D01*
Y57950D01*
Y57955D01*
X222014Y58072D01*
X221996Y58178D01*
X221967Y58277D01*
X221938Y58365D01*
X221909Y58435D01*
X221879Y58488D01*
X221862Y58523D01*
X221856Y58534D01*
X221792Y58628D01*
X221721Y58704D01*
X221651Y58768D01*
X221581Y58815D01*
X221522Y58856D01*
X221476Y58886D01*
X221441Y58897D01*
X221435Y58903D01*
X221429D01*
X221376Y58921D01*
X221318Y58938D01*
X221195Y58961D01*
X221066Y58985D01*
X220943Y58997D01*
X220826Y59003D01*
X220780D01*
X220733Y59008D01*
X222330D01*
D01*
D02*
G37*
G36*
X218416D02*
X215380D01*
Y55165D01*
Y58558D01*
X216644D01*
Y55165D01*
X218416D01*
X217153D01*
Y58558D01*
X218416D01*
Y59008D01*
D02*
G37*
G36*
X215251D02*
X211665D01*
D01*
X213134D01*
X211665Y55165D01*
X212204D01*
X212619Y56329D01*
X214233D01*
X214678Y55165D01*
X215251D01*
X213689Y59008D01*
X215251D01*
D01*
D02*
G37*
%LPD*%
G36*
X224167Y58482D02*
X224208Y58347D01*
X224254Y58213D01*
X224301Y58084D01*
X224336Y57973D01*
X224354Y57926D01*
X224372Y57885D01*
X224383Y57850D01*
X224395Y57827D01*
X224401Y57809D01*
Y57803D01*
X224798Y56744D01*
X223494D01*
X223915Y57868D01*
X223962Y58002D01*
X224003Y58137D01*
X224038Y58259D01*
X224067Y58376D01*
X224091Y58470D01*
X224102Y58511D01*
X224114Y58546D01*
X224120Y58575D01*
Y58593D01*
X224126Y58605D01*
Y58610D01*
X224167Y58482D01*
D02*
G37*
G36*
X220820Y58575D02*
X220949Y58552D01*
X221055Y58529D01*
X221142Y58494D01*
X221207Y58464D01*
X221259Y58435D01*
X221283Y58412D01*
X221294Y58406D01*
X221359Y58336D01*
X221411Y58259D01*
X221446Y58183D01*
X221470Y58113D01*
X221482Y58049D01*
X221493Y58002D01*
Y57967D01*
Y57961D01*
Y57955D01*
X221487Y57885D01*
X221476Y57821D01*
X221458Y57762D01*
X221441Y57715D01*
X221423Y57669D01*
X221406Y57639D01*
X221394Y57616D01*
X221388Y57610D01*
X221347Y57557D01*
X221300Y57511D01*
X221248Y57470D01*
X221201Y57435D01*
X221160Y57411D01*
X221125Y57394D01*
X221101Y57388D01*
X221090Y57382D01*
X221014Y57359D01*
X220926Y57341D01*
X220832Y57329D01*
X220744Y57323D01*
X220668Y57318D01*
X220604Y57312D01*
X219458D01*
Y58581D01*
X220668D01*
X220820Y58575D01*
D02*
G37*
G36*
X213438Y58482D02*
X213479Y58347D01*
X213526Y58213D01*
X213572Y58084D01*
X213608Y57973D01*
X213625Y57926D01*
X213643Y57885D01*
X213654Y57850D01*
X213666Y57827D01*
X213672Y57809D01*
Y57803D01*
X214070Y56744D01*
X212765D01*
X213186Y57868D01*
X213233Y58002D01*
X213274Y58137D01*
X213309Y58259D01*
X213338Y58376D01*
X213362Y58470D01*
X213373Y58511D01*
X213385Y58546D01*
X213391Y58575D01*
Y58593D01*
X213397Y58605D01*
Y58610D01*
X213438Y58482D01*
D02*
G37*
%LPC*%
G36*
X9796Y71913D02*
D01*
Y70445D01*
X5952Y71913D01*
X9796D01*
X5952D01*
Y71375D01*
X7116Y70960D01*
Y69345D01*
X5952Y68901D01*
Y69509D01*
Y68327D01*
D01*
X9796Y69889D01*
Y68327D01*
Y71913D01*
D02*
G37*
G36*
X9860Y66549D02*
D01*
Y64630D01*
X9848Y64841D01*
X9825Y65028D01*
X9784Y65203D01*
X9761Y65280D01*
X9743Y65350D01*
X9720Y65414D01*
X9696Y65473D01*
X9679Y65525D01*
X9655Y65566D01*
X9644Y65595D01*
X9632Y65625D01*
X9620Y65636D01*
Y65642D01*
X9573Y65724D01*
X9521Y65794D01*
X9410Y65935D01*
X9293Y66046D01*
X9176Y66145D01*
X9065Y66215D01*
X9024Y66245D01*
X8983Y66274D01*
X8947Y66291D01*
X8924Y66303D01*
X8907Y66315D01*
X8901D01*
X8719Y66391D01*
X8532Y66449D01*
X8357Y66490D01*
X8193Y66520D01*
X8123Y66531D01*
X8058Y66537D01*
X8000Y66543D01*
X7947D01*
X7906Y66549D01*
X9860D01*
X5888D01*
D01*
X7853D01*
X7649Y66537D01*
X7456Y66514D01*
X7280Y66473D01*
X7198Y66455D01*
X7128Y66432D01*
X7058Y66408D01*
X6999Y66391D01*
X6947Y66368D01*
X6906Y66350D01*
X6871Y66338D01*
X6847Y66327D01*
X6830Y66315D01*
X6824D01*
X6666Y66215D01*
X6526Y66104D01*
X6403Y65993D01*
X6303Y65876D01*
X6227Y65777D01*
X6198Y65736D01*
X6175Y65695D01*
X6151Y65666D01*
X6140Y65636D01*
X6134Y65625D01*
X6128Y65619D01*
X6046Y65443D01*
X5987Y65262D01*
X5946Y65092D01*
X5917Y64929D01*
X5906Y64858D01*
X5900Y64794D01*
X5894Y64735D01*
Y64683D01*
X5888Y64642D01*
Y64589D01*
X5894Y64437D01*
X5911Y64285D01*
X5935Y64150D01*
X5964Y64028D01*
X5976Y63975D01*
X5987Y63922D01*
X5999Y63881D01*
X6011Y63846D01*
X6022Y63817D01*
X6028Y63794D01*
X6034Y63782D01*
Y63776D01*
X6098Y63630D01*
X6169Y63484D01*
X6245Y63355D01*
X6315Y63238D01*
X6385Y63138D01*
X6409Y63097D01*
X6438Y63062D01*
X6455Y63033D01*
X6473Y63016D01*
X6479Y63004D01*
X6485Y62998D01*
X7912D01*
Y64624D01*
X7462D01*
Y63495D01*
X6736D01*
X6684Y63565D01*
X6631Y63642D01*
X6584Y63718D01*
X6543Y63794D01*
X6508Y63864D01*
X6485Y63922D01*
X6473Y63946D01*
X6467Y63963D01*
X6461Y63969D01*
Y63975D01*
X6420Y64092D01*
X6391Y64209D01*
X6368Y64320D01*
X6356Y64414D01*
X6344Y64496D01*
X6338Y64560D01*
Y64618D01*
X6344Y64759D01*
X6362Y64893D01*
X6391Y65010D01*
X6420Y65122D01*
X6449Y65209D01*
X6467Y65250D01*
X6479Y65280D01*
X6485Y65303D01*
X6496Y65320D01*
X6502Y65332D01*
Y65338D01*
X6572Y65455D01*
X6654Y65560D01*
X6742Y65648D01*
X6824Y65718D01*
X6900Y65771D01*
X6959Y65812D01*
X6982Y65829D01*
X6999Y65841D01*
X7011Y65847D01*
X7017D01*
X7157Y65905D01*
X7298Y65946D01*
X7444Y65982D01*
X7584Y65999D01*
X7643Y66005D01*
X7701Y66011D01*
X7754Y66017D01*
X7795D01*
X7836Y66022D01*
X7859D01*
X7877D01*
X7883D01*
X8035Y66017D01*
X8181Y65999D01*
X8310Y65976D01*
X8427Y65946D01*
X8520Y65923D01*
X8561Y65911D01*
X8591Y65900D01*
X8620Y65888D01*
X8637Y65882D01*
X8649Y65876D01*
X8655D01*
X8731Y65841D01*
X8801Y65806D01*
X8866Y65765D01*
X8924Y65724D01*
X8971Y65689D01*
X9006Y65660D01*
X9029Y65642D01*
X9035Y65636D01*
X9100Y65572D01*
X9152Y65508D01*
X9199Y65437D01*
X9240Y65373D01*
X9275Y65315D01*
X9298Y65268D01*
X9310Y65238D01*
X9316Y65227D01*
X9351Y65127D01*
X9380Y65028D01*
X9398Y64923D01*
X9415Y64829D01*
X9421Y64747D01*
X9427Y64683D01*
Y64624D01*
X9421Y64519D01*
X9410Y64420D01*
X9392Y64332D01*
X9375Y64256D01*
X9357Y64191D01*
X9339Y64139D01*
X9328Y64109D01*
X9322Y64098D01*
X9281Y64010D01*
X9240Y63940D01*
X9193Y63876D01*
X9152Y63823D01*
X9111Y63782D01*
X9082Y63753D01*
X9059Y63735D01*
X9053Y63729D01*
X8983Y63682D01*
X8907Y63642D01*
X8830Y63606D01*
X8760Y63577D01*
X8690Y63554D01*
X8637Y63530D01*
X8602Y63525D01*
X8597Y63519D01*
X8591D01*
X8719Y63056D01*
X8860Y63097D01*
X8983Y63144D01*
X9088Y63191D01*
X9176Y63238D01*
X9252Y63285D01*
X9304Y63320D01*
X9334Y63343D01*
X9345Y63349D01*
X9433Y63425D01*
X9503Y63513D01*
X9568Y63600D01*
X9620Y63688D01*
X9667Y63764D01*
X9696Y63823D01*
X9708Y63846D01*
X9714Y63864D01*
X9720Y63876D01*
Y63881D01*
X9766Y64010D01*
X9802Y64139D01*
X9825Y64267D01*
X9843Y64379D01*
X9854Y64478D01*
Y64525D01*
X9860Y64560D01*
Y62998D01*
D01*
Y66549D01*
D02*
G37*
G36*
X9796Y62255D02*
X5952D01*
Y61769D01*
X8971D01*
X5952Y59751D01*
Y59231D01*
X9796D01*
Y59716D01*
X6777D01*
X9796Y61740D01*
Y62255D01*
D02*
G37*
G36*
Y58376D02*
X5952D01*
Y56996D01*
X5958Y56867D01*
X5964Y56750D01*
X5976Y56645D01*
X5987Y56557D01*
X5999Y56481D01*
X6005Y56428D01*
X6017Y56393D01*
Y56382D01*
X6046Y56282D01*
X6075Y56194D01*
X6104Y56118D01*
X6134Y56054D01*
X6163Y56001D01*
X6186Y55960D01*
X6198Y55931D01*
X6204Y55925D01*
X6256Y55855D01*
X6315Y55791D01*
X6374Y55726D01*
X6426Y55680D01*
X6479Y55633D01*
X6520Y55604D01*
X6543Y55580D01*
X6555Y55574D01*
X6643Y55516D01*
X6736Y55463D01*
X6830Y55416D01*
X6917Y55381D01*
X6999Y55352D01*
X7058Y55329D01*
X7081Y55323D01*
X7099Y55317D01*
X7111Y55311D01*
X7116D01*
X7245Y55276D01*
X7380Y55253D01*
X7514Y55229D01*
X7631Y55217D01*
X7737Y55212D01*
X7783D01*
X7818Y55206D01*
X7895D01*
X8082Y55212D01*
X8251Y55229D01*
X8403Y55253D01*
X8474Y55270D01*
X8538Y55282D01*
X8597Y55294D01*
X8649Y55311D01*
X8696Y55323D01*
X8731Y55335D01*
X8760Y55346D01*
X8784Y55352D01*
X8795Y55358D01*
X8801D01*
X8947Y55422D01*
X9076Y55492D01*
X9187Y55568D01*
X9281Y55645D01*
X9357Y55709D01*
X9415Y55761D01*
X9451Y55803D01*
X9462Y55808D01*
Y55814D01*
X9533Y55908D01*
X9591Y56001D01*
X9638Y56095D01*
X9673Y56183D01*
X9702Y56259D01*
X9720Y56323D01*
X9731Y56346D01*
Y56358D01*
X9737Y56370D01*
Y56376D01*
X9755Y56469D01*
X9772Y56581D01*
X9784Y56697D01*
X9790Y56803D01*
X9796Y56902D01*
Y55206D01*
D01*
Y58376D01*
D02*
G37*
G36*
Y53035D02*
X5952D01*
Y51438D01*
X5964Y51321D01*
X5970Y51216D01*
X5982Y51122D01*
X5993Y51052D01*
X5999Y51000D01*
X6011Y50964D01*
Y50953D01*
X6040Y50865D01*
X6069Y50783D01*
X6098Y50707D01*
X6128Y50649D01*
X6157Y50596D01*
X6180Y50561D01*
X6192Y50538D01*
X6198Y50532D01*
X6251Y50473D01*
X6309Y50415D01*
X6368Y50368D01*
X6426Y50327D01*
X6479Y50298D01*
X6520Y50268D01*
X6549Y50257D01*
X6561Y50251D01*
X6648Y50210D01*
X6736Y50181D01*
X6824Y50163D01*
X6900Y50146D01*
X6964Y50140D01*
X7017Y50134D01*
X7064D01*
X7187Y50140D01*
X7298Y50163D01*
X7391Y50192D01*
X7479Y50227D01*
X7549Y50268D01*
X7602Y50298D01*
X7631Y50321D01*
X7643Y50327D01*
X7731Y50403D01*
X7801Y50491D01*
X7859Y50578D01*
X7912Y50666D01*
X7947Y50742D01*
X7976Y50807D01*
X7982Y50830D01*
X7988Y50848D01*
X7994Y50859D01*
Y50865D01*
X8047Y50766D01*
X8105Y50684D01*
X8158Y50613D01*
X8216Y50555D01*
X8263Y50514D01*
X8304Y50479D01*
X8327Y50461D01*
X8339Y50456D01*
X8421Y50409D01*
X8509Y50380D01*
X8585Y50356D01*
X8655Y50339D01*
X8719Y50327D01*
X8766Y50321D01*
X8795D01*
X8807D01*
X8907Y50327D01*
X9000Y50344D01*
X9082Y50368D01*
X9158Y50397D01*
X9222Y50426D01*
X9275Y50450D01*
X9304Y50467D01*
X9316Y50473D01*
X9404Y50538D01*
X9474Y50602D01*
X9538Y50672D01*
X9591Y50742D01*
X9626Y50801D01*
X9655Y50848D01*
X9673Y50883D01*
X9679Y50889D01*
Y50894D01*
X9720Y51000D01*
X9749Y51117D01*
X9766Y51234D01*
X9784Y51345D01*
X9790Y51444D01*
Y51485D01*
X9796Y51526D01*
Y50134D01*
D01*
Y53035D01*
D02*
G37*
%LPD*%
G36*
X8655Y70392D02*
X8789Y70346D01*
X8924Y70305D01*
X9047Y70270D01*
X9164Y70240D01*
X9257Y70217D01*
X9298Y70205D01*
X9334Y70193D01*
X9363Y70188D01*
X9380D01*
X9392Y70182D01*
X9398D01*
X9269Y70141D01*
X9135Y70100D01*
X9000Y70053D01*
X8871Y70006D01*
X8760Y69971D01*
X8714Y69954D01*
X8672Y69936D01*
X8637Y69924D01*
X8614Y69913D01*
X8597Y69907D01*
X8591D01*
X7532Y69509D01*
Y70814D01*
X8655Y70392D01*
D02*
G37*
G36*
X9345Y57066D02*
X9339Y56908D01*
X9334Y56774D01*
X9322Y56662D01*
X9304Y56569D01*
X9287Y56499D01*
X9275Y56452D01*
X9269Y56423D01*
X9263Y56411D01*
X9211Y56311D01*
X9146Y56218D01*
X9076Y56136D01*
X9000Y56066D01*
X8936Y56007D01*
X8877Y55966D01*
X8854Y55949D01*
X8836Y55943D01*
X8830Y55931D01*
X8825D01*
X8760Y55896D01*
X8690Y55867D01*
X8544Y55814D01*
X8392Y55779D01*
X8240Y55756D01*
X8175Y55750D01*
X8111Y55744D01*
X8052Y55738D01*
X8000Y55732D01*
X7959D01*
X7930D01*
X7906D01*
X7900D01*
X7742Y55738D01*
X7602Y55750D01*
X7473Y55767D01*
X7362Y55785D01*
X7274Y55803D01*
X7239Y55814D01*
X7210Y55820D01*
X7187Y55826D01*
X7169Y55832D01*
X7163Y55838D01*
X7157D01*
X7052Y55879D01*
X6953Y55925D01*
X6871Y55972D01*
X6801Y56013D01*
X6748Y56054D01*
X6707Y56089D01*
X6678Y56112D01*
X6672Y56118D01*
X6625Y56171D01*
X6584Y56224D01*
X6555Y56282D01*
X6526Y56341D01*
X6502Y56388D01*
X6485Y56428D01*
X6479Y56452D01*
X6473Y56463D01*
X6449Y56551D01*
X6432Y56645D01*
X6420Y56744D01*
X6414Y56838D01*
X6409Y56926D01*
X6403Y56990D01*
Y57867D01*
X9345D01*
Y57066D01*
D02*
G37*
G36*
Y51620D02*
X9334Y51497D01*
X9328Y51397D01*
X9316Y51315D01*
X9304Y51257D01*
X9298Y51216D01*
X9287Y51187D01*
Y51181D01*
X9263Y51122D01*
X9234Y51070D01*
X9199Y51023D01*
X9170Y50988D01*
X9135Y50959D01*
X9111Y50935D01*
X9094Y50924D01*
X9088Y50918D01*
X9029Y50889D01*
X8971Y50865D01*
X8918Y50848D01*
X8866Y50836D01*
X8819Y50830D01*
X8784Y50824D01*
X8754D01*
X8749D01*
X8672Y50830D01*
X8608Y50842D01*
X8550Y50853D01*
X8503Y50871D01*
X8462Y50894D01*
X8433Y50906D01*
X8415Y50918D01*
X8409Y50924D01*
X8363Y50964D01*
X8321Y51011D01*
X8286Y51058D01*
X8263Y51105D01*
X8240Y51152D01*
X8228Y51187D01*
X8222Y51210D01*
X8216Y51216D01*
X8204Y51280D01*
X8193Y51351D01*
X8187Y51433D01*
X8181Y51514D01*
X8175Y51585D01*
Y52526D01*
X9345D01*
Y51620D01*
D02*
G37*
G36*
X7725Y51514D02*
X7713Y51397D01*
X7707Y51304D01*
X7696Y51222D01*
X7684Y51163D01*
X7672Y51117D01*
X7666Y51093D01*
X7660Y51082D01*
X7631Y51011D01*
X7596Y50953D01*
X7561Y50900D01*
X7520Y50859D01*
X7485Y50824D01*
X7462Y50795D01*
X7438Y50783D01*
X7432Y50777D01*
X7374Y50736D01*
X7310Y50707D01*
X7245Y50690D01*
X7187Y50672D01*
X7140Y50666D01*
X7099Y50660D01*
X7075D01*
X7064D01*
X6994Y50666D01*
X6935Y50672D01*
X6877Y50684D01*
X6830Y50695D01*
X6789Y50713D01*
X6760Y50725D01*
X6742Y50731D01*
X6736Y50736D01*
X6689Y50766D01*
X6643Y50801D01*
X6607Y50830D01*
X6578Y50865D01*
X6549Y50894D01*
X6531Y50912D01*
X6526Y50929D01*
X6520Y50935D01*
X6473Y51029D01*
X6444Y51122D01*
X6432Y51163D01*
X6426Y51199D01*
X6420Y51222D01*
Y51228D01*
X6414Y51269D01*
X6409Y51321D01*
X6403Y51438D01*
Y52526D01*
X7725D01*
Y51514D01*
D02*
G37*
%LPC*%
G36*
X389819Y164651D02*
X387842D01*
Y161480D01*
X391686D01*
Y162861D01*
X391680Y162990D01*
X391674Y163107D01*
X391662Y163212D01*
X391650Y163300D01*
X391639Y163376D01*
X391633Y163428D01*
X391621Y163463D01*
Y163475D01*
X391592Y163575D01*
X391563Y163662D01*
X391533Y163738D01*
X391504Y163803D01*
X391475Y163855D01*
X391452Y163896D01*
X391440Y163926D01*
X391434Y163932D01*
X391381Y164002D01*
X391323Y164066D01*
X391264Y164130D01*
X391212Y164177D01*
X391159Y164224D01*
X391118Y164253D01*
X391095Y164277D01*
X391083Y164283D01*
X390995Y164341D01*
X390902Y164394D01*
X390808Y164440D01*
X390720Y164476D01*
X390638Y164505D01*
X390580Y164528D01*
X390556Y164534D01*
X390539Y164540D01*
X390527Y164546D01*
X390521D01*
X390393Y164581D01*
X390258Y164604D01*
X390124Y164628D01*
X390007Y164639D01*
X389901Y164645D01*
X389854D01*
X389819Y164651D01*
D02*
G37*
G36*
X391686Y160626D02*
X387842D01*
Y157602D01*
X391686D01*
Y158087D01*
X388667D01*
X391686Y160106D01*
Y160626D01*
D02*
G37*
G36*
X391153Y156859D02*
X389726D01*
Y155233D01*
X390176D01*
Y156362D01*
X390902D01*
X390954Y156291D01*
X391007Y156215D01*
X391054Y156139D01*
X391095Y156063D01*
X391130Y155993D01*
X391153Y155935D01*
X391165Y155911D01*
X391171Y155894D01*
X391177Y155888D01*
Y155882D01*
X391217Y155765D01*
X391247Y155648D01*
X391270Y155537D01*
X391282Y155443D01*
X391294Y155361D01*
X391299Y155297D01*
Y155238D01*
X391294Y155098D01*
X391276Y154963D01*
X391247Y154846D01*
X391217Y154735D01*
X391188Y154648D01*
X391171Y154607D01*
X391159Y154577D01*
X391153Y154554D01*
X391141Y154536D01*
X391136Y154525D01*
Y154519D01*
X391065Y154402D01*
X390984Y154297D01*
X390896Y154209D01*
X390814Y154139D01*
X390738Y154086D01*
X390679Y154045D01*
X390656Y154027D01*
X390638Y154016D01*
X390627Y154010D01*
X390621D01*
X390480Y153951D01*
X390340Y153910D01*
X390194Y153875D01*
X390053Y153858D01*
X389995Y153852D01*
X389936Y153846D01*
X389884Y153840D01*
X389843D01*
X389802Y153834D01*
X389778D01*
X389761D01*
X389755D01*
X389603Y153840D01*
X389457Y153858D01*
X389328Y153881D01*
X389211Y153910D01*
X389117Y153934D01*
X389076Y153946D01*
X389047Y153957D01*
X389018Y153969D01*
X389000Y153975D01*
X388989Y153981D01*
X388983D01*
X388907Y154016D01*
X388837Y154051D01*
X388772Y154092D01*
X388714Y154133D01*
X388667Y154168D01*
X388632Y154197D01*
X388608Y154215D01*
X388603Y154220D01*
X388538Y154285D01*
X388486Y154349D01*
X388439Y154419D01*
X388398Y154484D01*
X388363Y154542D01*
X388339Y154589D01*
X388328Y154618D01*
X388322Y154630D01*
X388287Y154729D01*
X388257Y154829D01*
X388240Y154934D01*
X388222Y155028D01*
X388216Y155110D01*
X388211Y155174D01*
Y155233D01*
X388216Y155338D01*
X388228Y155437D01*
X388246Y155525D01*
X388263Y155601D01*
X388281Y155665D01*
X388298Y155718D01*
X388310Y155747D01*
X388316Y155759D01*
X388357Y155847D01*
X388398Y155917D01*
X388445Y155981D01*
X388486Y156034D01*
X388527Y156075D01*
X388556Y156104D01*
X388579Y156122D01*
X388585Y156128D01*
X388655Y156174D01*
X388731Y156215D01*
X388807Y156250D01*
X388878Y156280D01*
X388948Y156303D01*
X389000Y156326D01*
X389035Y156332D01*
X389041Y156338D01*
X389047D01*
X388918Y156800D01*
X388778Y156759D01*
X388655Y156713D01*
X388550Y156666D01*
X388462Y156619D01*
X388386Y156572D01*
X388333Y156537D01*
X388304Y156514D01*
X388293Y156508D01*
X388205Y156432D01*
X388135Y156344D01*
X388070Y156256D01*
X388018Y156168D01*
X387971Y156093D01*
X387942Y156034D01*
X387930Y156011D01*
X387924Y155993D01*
X387918Y155981D01*
Y155975D01*
X387871Y155847D01*
X387836Y155718D01*
X387813Y155589D01*
X387795Y155478D01*
X387784Y155379D01*
Y155332D01*
X387778Y155297D01*
Y156859D01*
Y153308D01*
D01*
Y155227D01*
X387789Y155016D01*
X387813Y154829D01*
X387854Y154653D01*
X387877Y154577D01*
X387895Y154507D01*
X387918Y154443D01*
X387942Y154384D01*
X387959Y154332D01*
X387983Y154291D01*
X387994Y154261D01*
X388006Y154232D01*
X388018Y154220D01*
Y154215D01*
X388064Y154133D01*
X388117Y154062D01*
X388228Y153922D01*
X388345Y153811D01*
X388462Y153711D01*
X388573Y153641D01*
X388614Y153612D01*
X388655Y153583D01*
X388690Y153565D01*
X388714Y153554D01*
X388731Y153542D01*
X388737D01*
X388918Y153466D01*
X389106Y153407D01*
X389281Y153366D01*
X389445Y153337D01*
X389515Y153325D01*
X389580Y153320D01*
X389638Y153314D01*
X389691D01*
X389732Y153308D01*
X387778D01*
X391750D01*
X389784D01*
X389989Y153320D01*
X390182Y153343D01*
X390357Y153384D01*
X390439Y153402D01*
X390510Y153425D01*
X390580Y153448D01*
X390638Y153466D01*
X390691Y153489D01*
X390732Y153507D01*
X390767Y153518D01*
X390791Y153530D01*
X390808Y153542D01*
X390814D01*
X390972Y153641D01*
X391112Y153753D01*
X391235Y153864D01*
X391335Y153981D01*
X391411Y154080D01*
X391440Y154121D01*
X391463Y154162D01*
X391487Y154191D01*
X391498Y154220D01*
X391504Y154232D01*
X391510Y154238D01*
X391592Y154413D01*
X391650Y154595D01*
X391691Y154764D01*
X391721Y154928D01*
X391732Y154999D01*
X391738Y155063D01*
X391744Y155121D01*
Y155174D01*
X391750Y155215D01*
Y155268D01*
X391744Y155420D01*
X391726Y155572D01*
X391703Y155706D01*
X391674Y155829D01*
X391662Y155882D01*
X391650Y155935D01*
X391639Y155975D01*
X391627Y156011D01*
X391615Y156040D01*
X391610Y156063D01*
X391604Y156075D01*
Y156081D01*
X391539Y156227D01*
X391469Y156373D01*
X391393Y156502D01*
X391323Y156619D01*
X391253Y156718D01*
X391229Y156759D01*
X391200Y156795D01*
X391182Y156824D01*
X391165Y156841D01*
X391159Y156853D01*
X391153Y156859D01*
D02*
G37*
G36*
X391686Y151418D02*
Y150155D01*
X388293D01*
Y151418D01*
X387842D01*
Y148382D01*
X391686D01*
X388293D01*
Y149646D01*
X391686D01*
Y151418D01*
D02*
G37*
G36*
X390159Y147821D02*
X387842D01*
Y144802D01*
X391750D01*
X390176D01*
X390282Y144808D01*
X390381Y144814D01*
X390475Y144825D01*
X390556Y144837D01*
X390638Y144849D01*
X390709Y144860D01*
X390773Y144878D01*
X390831Y144890D01*
X390884Y144901D01*
X390931Y144913D01*
X390966Y144925D01*
X390995Y144937D01*
X391013Y144942D01*
X391024Y144948D01*
X391030D01*
X391153Y145013D01*
X391264Y145089D01*
X391352Y145165D01*
X391428Y145247D01*
X391493Y145317D01*
X391533Y145381D01*
X391551Y145405D01*
X391557Y145416D01*
X391568Y145428D01*
Y145434D01*
X391627Y145568D01*
X391674Y145720D01*
X391703Y145867D01*
X391726Y146007D01*
X391732Y146071D01*
X391738Y146130D01*
X391744Y146183D01*
Y146229D01*
X391750Y146265D01*
Y146317D01*
X391738Y146516D01*
X391715Y146692D01*
X391703Y146773D01*
X391686Y146844D01*
X391662Y146914D01*
X391645Y146972D01*
X391627Y147025D01*
X391604Y147078D01*
X391586Y147119D01*
X391574Y147148D01*
X391557Y147177D01*
X391551Y147195D01*
X391539Y147206D01*
Y147212D01*
X391452Y147329D01*
X391364Y147434D01*
X391270Y147516D01*
X391182Y147581D01*
X391101Y147627D01*
X391042Y147663D01*
X391019Y147674D01*
X391001Y147680D01*
X390989Y147686D01*
X390984D01*
X390849Y147733D01*
X390697Y147762D01*
X390545Y147785D01*
X390399Y147803D01*
X390328Y147809D01*
X390264Y147815D01*
X390211D01*
X390159Y147821D01*
D02*
G37*
G36*
X389831Y144141D02*
X389773D01*
D01*
X387778D01*
X389773D01*
X389562Y144129D01*
X389369Y144106D01*
X389193Y144071D01*
X389117Y144047D01*
X389041Y144030D01*
X388977Y144006D01*
X388918Y143983D01*
X388866Y143965D01*
X388825Y143948D01*
X388790Y143936D01*
X388766Y143924D01*
X388749Y143913D01*
X388743D01*
X388579Y143819D01*
X388439Y143720D01*
X388316Y143609D01*
X388216Y143503D01*
X388140Y143410D01*
X388105Y143369D01*
X388082Y143334D01*
X388058Y143304D01*
X388047Y143281D01*
X388035Y143269D01*
Y143263D01*
X387988Y143182D01*
X387947Y143100D01*
X387889Y142936D01*
X387842Y142772D01*
X387807Y142626D01*
X387801Y142556D01*
X387789Y142497D01*
X387784Y142439D01*
Y142392D01*
X387778Y142357D01*
Y144141D01*
D01*
D01*
Y140467D01*
Y142304D01*
X387784Y142158D01*
X387801Y142011D01*
X387830Y141877D01*
X387860Y141754D01*
X387906Y141637D01*
X387947Y141526D01*
X388000Y141427D01*
X388047Y141333D01*
X388099Y141251D01*
X388152Y141181D01*
X388193Y141122D01*
X388234Y141070D01*
X388269Y141029D01*
X388298Y140999D01*
X388316Y140982D01*
X388322Y140976D01*
X388427Y140888D01*
X388538Y140806D01*
X388661Y140742D01*
X388784Y140684D01*
X388907Y140631D01*
X389030Y140590D01*
X389152Y140561D01*
X389269Y140532D01*
X389387Y140508D01*
X389486Y140496D01*
X389580Y140485D01*
X389661Y140473D01*
X389726D01*
X389778Y140467D01*
X387778D01*
X391750D01*
X389819D01*
X390007Y140479D01*
X390182Y140502D01*
X390346Y140537D01*
X390416Y140555D01*
X390486Y140578D01*
X390551Y140596D01*
X390609Y140613D01*
X390656Y140631D01*
X390697Y140648D01*
X390732Y140666D01*
X390755Y140672D01*
X390773Y140684D01*
X390779D01*
X390937Y140777D01*
X391083Y140877D01*
X391200Y140988D01*
X391305Y141093D01*
X391387Y141187D01*
X391416Y141228D01*
X391446Y141263D01*
X391463Y141292D01*
X391481Y141315D01*
X391487Y141327D01*
X391493Y141333D01*
X391539Y141415D01*
X391574Y141497D01*
X391639Y141666D01*
X391686Y141830D01*
X391715Y141976D01*
X391726Y142047D01*
X391738Y142111D01*
X391744Y142164D01*
Y142210D01*
X391750Y142251D01*
Y142304D01*
X391738Y142485D01*
X391715Y142661D01*
X391674Y142819D01*
X391633Y142953D01*
X391610Y143018D01*
X391592Y143070D01*
X391568Y143117D01*
X391551Y143158D01*
X391539Y143193D01*
X391528Y143217D01*
X391516Y143228D01*
Y143234D01*
X391416Y143386D01*
X391305Y143521D01*
X391188Y143638D01*
X391077Y143731D01*
X390978Y143802D01*
X390931Y143831D01*
X390896Y143860D01*
X390861Y143878D01*
X390837Y143889D01*
X390826Y143901D01*
X390820D01*
X390644Y143983D01*
X390463Y144042D01*
X390287Y144082D01*
X390124Y144112D01*
X390048Y144123D01*
X389983Y144129D01*
X389925Y144135D01*
X389872D01*
X389831Y144141D01*
D02*
G37*
%LPD*%
G36*
X389556Y164645D02*
X389387Y164628D01*
X389234Y164604D01*
X389164Y164587D01*
X389100Y164575D01*
X389041Y164563D01*
X388989Y164546D01*
X388942Y164534D01*
X388907Y164522D01*
X388878Y164511D01*
X388854Y164505D01*
X388842Y164499D01*
X388837D01*
X388690Y164435D01*
X388562Y164364D01*
X388451Y164288D01*
X388357Y164212D01*
X388281Y164148D01*
X388222Y164095D01*
X388187Y164054D01*
X388176Y164049D01*
Y164043D01*
X388105Y163949D01*
X388047Y163855D01*
X388000Y163762D01*
X387965Y163674D01*
X387936Y163598D01*
X387918Y163534D01*
X387906Y163510D01*
Y163499D01*
X387901Y163487D01*
Y163481D01*
X387883Y163387D01*
X387865Y163276D01*
X387854Y163159D01*
X387848Y163054D01*
X387842Y162954D01*
Y164651D01*
X389743D01*
X389556Y164645D01*
D02*
G37*
G36*
X389895Y164119D02*
X390036Y164107D01*
X390164Y164089D01*
X390276Y164072D01*
X390363Y164054D01*
X390399Y164043D01*
X390428Y164037D01*
X390451Y164031D01*
X390469Y164025D01*
X390475Y164019D01*
X390480D01*
X390586Y163978D01*
X390685Y163932D01*
X390767Y163885D01*
X390837Y163844D01*
X390890Y163803D01*
X390931Y163768D01*
X390960Y163744D01*
X390966Y163738D01*
X391013Y163686D01*
X391054Y163633D01*
X391083Y163575D01*
X391112Y163516D01*
X391136Y163469D01*
X391153Y163428D01*
X391159Y163405D01*
X391165Y163393D01*
X391188Y163305D01*
X391206Y163212D01*
X391217Y163112D01*
X391223Y163019D01*
X391229Y162931D01*
X391235Y162867D01*
Y161989D01*
X388293D01*
Y162791D01*
X388298Y162949D01*
X388304Y163083D01*
X388316Y163194D01*
X388333Y163288D01*
X388351Y163358D01*
X388363Y163405D01*
X388369Y163434D01*
X388374Y163446D01*
X388427Y163545D01*
X388491Y163639D01*
X388562Y163721D01*
X388638Y163791D01*
X388702Y163850D01*
X388760Y163891D01*
X388784Y163908D01*
X388802Y163914D01*
X388807Y163926D01*
X388813D01*
X388878Y163961D01*
X388948Y163990D01*
X389094Y164043D01*
X389246Y164078D01*
X389398Y164101D01*
X389462Y164107D01*
X389527Y164113D01*
X389585Y164119D01*
X389638Y164125D01*
X389679D01*
X389708D01*
X389732D01*
X389737D01*
X389895Y164119D01*
D02*
G37*
G36*
X387842Y158117D02*
Y160141D01*
X390861D01*
X387842Y158117D01*
D02*
G37*
G36*
X390317Y147300D02*
X390422Y147288D01*
X390521Y147276D01*
X390615Y147259D01*
X390691Y147236D01*
X390761Y147212D01*
X390826Y147195D01*
X390878Y147171D01*
X390925Y147148D01*
X390960Y147130D01*
X390989Y147107D01*
X391013Y147095D01*
X391030Y147083D01*
X391036Y147072D01*
X391042D01*
X391089Y147025D01*
X391124Y146967D01*
X391188Y146844D01*
X391229Y146715D01*
X391264Y146580D01*
X391282Y146463D01*
X391288Y146411D01*
Y146364D01*
X391294Y146323D01*
Y146270D01*
X391288Y146153D01*
X391276Y146048D01*
X391253Y145954D01*
X391229Y145872D01*
X391212Y145808D01*
X391188Y145761D01*
X391177Y145732D01*
X391171Y145720D01*
X391118Y145639D01*
X391059Y145574D01*
X390995Y145516D01*
X390937Y145475D01*
X390884Y145440D01*
X390843Y145416D01*
X390814Y145405D01*
X390802Y145399D01*
X390755Y145381D01*
X390703Y145369D01*
X390586Y145346D01*
X390463Y145334D01*
X390346Y145323D01*
X390235Y145317D01*
X390188Y145311D01*
X390147D01*
X390112D01*
X390089D01*
X390071D01*
X390065D01*
X387842D01*
Y147312D01*
X390065D01*
X390194D01*
X390317Y147300D01*
D02*
G37*
G36*
X389907Y143609D02*
X390036Y143597D01*
X390153Y143579D01*
X390264Y143556D01*
X390369Y143527D01*
X390463Y143497D01*
X390545Y143462D01*
X390627Y143427D01*
X390691Y143392D01*
X390750Y143357D01*
X390802Y143328D01*
X390843Y143298D01*
X390878Y143275D01*
X390902Y143258D01*
X390913Y143246D01*
X390919Y143240D01*
X390989Y143170D01*
X391048Y143094D01*
X391101Y143018D01*
X391147Y142936D01*
X391188Y142860D01*
X391217Y142778D01*
X391264Y142632D01*
X391282Y142561D01*
X391294Y142497D01*
X391305Y142444D01*
X391311Y142392D01*
X391317Y142351D01*
Y142298D01*
X391311Y142193D01*
X391299Y142099D01*
X391282Y142006D01*
X391253Y141918D01*
X391223Y141830D01*
X391188Y141754D01*
X391153Y141684D01*
X391118Y141620D01*
X391083Y141561D01*
X391042Y141508D01*
X391013Y141467D01*
X390984Y141432D01*
X390954Y141403D01*
X390937Y141380D01*
X390925Y141368D01*
X390919Y141362D01*
X390843Y141298D01*
X390755Y141239D01*
X390668Y141192D01*
X390580Y141152D01*
X390486Y141116D01*
X390399Y141081D01*
X390223Y141040D01*
X390141Y141023D01*
X390065Y141011D01*
X390001Y141005D01*
X389942Y140999D01*
X389890Y140994D01*
X389854D01*
X389831D01*
X389825D01*
X389667Y140999D01*
X389521Y141011D01*
X389392Y141029D01*
X389269Y141052D01*
X389152Y141081D01*
X389053Y141116D01*
X388965Y141152D01*
X388883Y141187D01*
X388813Y141222D01*
X388755Y141257D01*
X388702Y141292D01*
X388661Y141321D01*
X388632Y141345D01*
X388608Y141362D01*
X388597Y141374D01*
X388591Y141380D01*
X388527Y141456D01*
X388468Y141532D01*
X388415Y141608D01*
X388374Y141690D01*
X388339Y141766D01*
X388310Y141842D01*
X388263Y141988D01*
X388246Y142052D01*
X388234Y142111D01*
X388228Y142169D01*
X388222Y142216D01*
X388216Y142251D01*
Y142304D01*
X388222Y142444D01*
X388246Y142573D01*
X388275Y142690D01*
X388310Y142790D01*
X388351Y142871D01*
X388380Y142936D01*
X388392Y142959D01*
X388404Y142977D01*
X388409Y142983D01*
Y142989D01*
X388486Y143094D01*
X388573Y143187D01*
X388667Y143269D01*
X388755Y143334D01*
X388831Y143386D01*
X388895Y143421D01*
X388918Y143433D01*
X388936Y143445D01*
X388948Y143451D01*
X388953D01*
X389088Y143503D01*
X389229Y143544D01*
X389369Y143573D01*
X389492Y143597D01*
X389603Y143609D01*
X389655D01*
X389697Y143614D01*
X389726D01*
X389749D01*
X389767D01*
X389773D01*
X389907Y143609D01*
D02*
G37*
%LPC*%
G36*
X280961Y9860D02*
X280891D01*
X280680Y9848D01*
X280493Y9825D01*
X280317Y9784D01*
X280241Y9761D01*
X280171Y9743D01*
X280107Y9720D01*
X280048Y9696D01*
X279996Y9679D01*
X279955Y9655D01*
X279925Y9644D01*
X279896Y9632D01*
X279884Y9620D01*
X279879D01*
X279797Y9573D01*
X279727Y9521D01*
X279586Y9410D01*
X279475Y9293D01*
X279376Y9176D01*
X279305Y9065D01*
X279276Y9024D01*
X279247Y8983D01*
X279229Y8947D01*
X279218Y8924D01*
X279206Y8907D01*
Y8901D01*
X279130Y8719D01*
X279071Y8532D01*
X279030Y8357D01*
X279001Y8193D01*
X278989Y8123D01*
X278983Y8058D01*
X278978Y8000D01*
Y7947D01*
X278972Y7906D01*
Y5888D01*
X282523D01*
X280932D01*
X281084Y5894D01*
X281236Y5911D01*
X281370Y5935D01*
X281493Y5964D01*
X281546Y5976D01*
X281598Y5987D01*
X281639Y5999D01*
X281675Y6011D01*
X281704Y6022D01*
X281727Y6028D01*
X281739Y6034D01*
X281745D01*
X281891Y6099D01*
X282037Y6169D01*
X282166Y6245D01*
X282283Y6315D01*
X282382Y6385D01*
X282423Y6409D01*
X282458Y6438D01*
X282488Y6455D01*
X282505Y6473D01*
X282517Y6479D01*
X282523Y6485D01*
Y7912D01*
X280896D01*
Y7462D01*
X282026D01*
Y6736D01*
X281955Y6684D01*
X281879Y6631D01*
X281803Y6584D01*
X281727Y6543D01*
X281657Y6508D01*
X281598Y6485D01*
X281575Y6473D01*
X281557Y6467D01*
X281552Y6461D01*
X281546D01*
X281429Y6420D01*
X281312Y6391D01*
X281201Y6368D01*
X281107Y6356D01*
X281025Y6344D01*
X280961Y6338D01*
X280902D01*
X280762Y6344D01*
X280627Y6362D01*
X280510Y6391D01*
X280399Y6420D01*
X280311Y6450D01*
X280271Y6467D01*
X280241Y6479D01*
X280218Y6485D01*
X280200Y6496D01*
X280189Y6502D01*
X280183D01*
X280066Y6572D01*
X279960Y6654D01*
X279873Y6742D01*
X279802Y6824D01*
X279750Y6900D01*
X279709Y6959D01*
X279691Y6982D01*
X279680Y7000D01*
X279674Y7011D01*
Y7017D01*
X279615Y7157D01*
X279574Y7298D01*
X279539Y7444D01*
X279522Y7584D01*
X279516Y7643D01*
X279510Y7701D01*
X279504Y7754D01*
Y7795D01*
X279498Y7836D01*
Y7859D01*
Y7877D01*
Y7883D01*
X279504Y8035D01*
X279522Y8181D01*
X279545Y8310D01*
X279574Y8427D01*
X279598Y8520D01*
X279609Y8561D01*
X279621Y8591D01*
X279633Y8620D01*
X279639Y8637D01*
X279645Y8649D01*
Y8655D01*
X279680Y8731D01*
X279715Y8801D01*
X279756Y8866D01*
X279797Y8924D01*
X279832Y8971D01*
X279861Y9006D01*
X279879Y9029D01*
X279884Y9035D01*
X279949Y9100D01*
X280013Y9152D01*
X280083Y9199D01*
X280148Y9240D01*
X280206Y9275D01*
X280253Y9298D01*
X280282Y9310D01*
X280294Y9316D01*
X280393Y9351D01*
X280493Y9380D01*
X280598Y9398D01*
X280692Y9415D01*
X280774Y9421D01*
X280838Y9427D01*
X280896D01*
X281002Y9421D01*
X281101Y9410D01*
X281189Y9392D01*
X281265Y9375D01*
X281329Y9357D01*
X281382Y9339D01*
X281411Y9328D01*
X281423Y9322D01*
X281511Y9281D01*
X281581Y9240D01*
X281645Y9193D01*
X281698Y9152D01*
X281739Y9111D01*
X281768Y9082D01*
X281786Y9059D01*
X281791Y9053D01*
X281838Y8983D01*
X281879Y8907D01*
X281914Y8830D01*
X281944Y8760D01*
X281967Y8690D01*
X281990Y8637D01*
X281996Y8602D01*
X282002Y8597D01*
Y8591D01*
X282464Y8719D01*
X282423Y8860D01*
X282377Y8983D01*
X282330Y9088D01*
X282283Y9176D01*
X282236Y9252D01*
X282201Y9304D01*
X282178Y9334D01*
X282172Y9345D01*
X282096Y9433D01*
X282008Y9503D01*
X281920Y9568D01*
X281833Y9620D01*
X281756Y9667D01*
X281698Y9696D01*
X281675Y9708D01*
X281657Y9714D01*
X281645Y9720D01*
X281639D01*
X281511Y9766D01*
X281382Y9802D01*
X281253Y9825D01*
X281142Y9843D01*
X281043Y9854D01*
X280996D01*
X280961Y9860D01*
D02*
G37*
G36*
X286290Y9796D02*
X285805D01*
Y6777D01*
X283781Y9796D01*
X283266D01*
Y5952D01*
X286290D01*
Y9796D01*
D02*
G37*
G36*
X267342Y9111D02*
X264803D01*
X265850D01*
Y8064D01*
X264803D01*
Y6572D01*
Y7625D01*
X265850D01*
Y6572D01*
X266295D01*
Y7625D01*
X267342D01*
Y8082D01*
Y8064D01*
X266295D01*
Y9111D01*
X267342D01*
D02*
G37*
G36*
X274163Y9796D02*
X273648D01*
X272607Y7005D01*
X272566Y6888D01*
X272525Y6771D01*
X272490Y6666D01*
X272461Y6572D01*
X272437Y6491D01*
X272420Y6426D01*
X272414Y6403D01*
X272408Y6385D01*
X272402Y6379D01*
Y6374D01*
X272338Y6596D01*
X272303Y6701D01*
X272268Y6801D01*
X272238Y6882D01*
X272221Y6947D01*
X272209Y6970D01*
X272203Y6988D01*
X272198Y7000D01*
Y7005D01*
X271203Y9796D01*
X270647D01*
Y5952D01*
Y9796D01*
X272139Y5952D01*
X272660D01*
X274163Y9796D01*
D01*
D02*
G37*
G36*
X270413Y9737D02*
X268325D01*
X267950Y7766D01*
X268395Y7701D01*
X268436Y7760D01*
X268483Y7813D01*
X268530Y7859D01*
X268570Y7900D01*
X268612Y7930D01*
X268647Y7953D01*
X268670Y7965D01*
X268676Y7971D01*
X268746Y8006D01*
X268816Y8035D01*
X268886Y8053D01*
X268951Y8070D01*
X269009Y8076D01*
X269050Y8082D01*
X269091D01*
X269220Y8070D01*
X269337Y8047D01*
X269442Y8006D01*
X269524Y7965D01*
X269594Y7924D01*
X269641Y7883D01*
X269670Y7859D01*
X269682Y7848D01*
X269758Y7754D01*
X269817Y7649D01*
X269858Y7543D01*
X269881Y7444D01*
X269899Y7350D01*
X269904Y7310D01*
Y7274D01*
X269910Y7251D01*
Y7228D01*
Y7216D01*
Y7210D01*
X269899Y7058D01*
X269875Y6923D01*
X269834Y6806D01*
X269793Y6707D01*
X269752Y6631D01*
X269711Y6572D01*
X269688Y6537D01*
X269676Y6531D01*
Y6526D01*
X269629Y6479D01*
X269583Y6444D01*
X269489Y6379D01*
X269390Y6338D01*
X269302Y6303D01*
X269220Y6286D01*
X269156Y6280D01*
X269132Y6274D01*
X269097D01*
X268998Y6280D01*
X268904Y6303D01*
X268822Y6333D01*
X268752Y6362D01*
X268693Y6397D01*
X268652Y6420D01*
X268629Y6444D01*
X268617Y6450D01*
X268547Y6526D01*
X268495Y6613D01*
X268448Y6701D01*
X268418Y6789D01*
X268395Y6871D01*
X268377Y6935D01*
X268372Y6959D01*
X268366Y6976D01*
Y6988D01*
Y6994D01*
X267868Y6959D01*
X267880Y6871D01*
X267898Y6783D01*
X267945Y6631D01*
X268009Y6496D01*
X268073Y6385D01*
X268108Y6338D01*
X268138Y6297D01*
X268167Y6262D01*
X268190Y6233D01*
X268214Y6210D01*
X268231Y6192D01*
X268237Y6186D01*
X268243Y6180D01*
X268307Y6128D01*
X268377Y6087D01*
X268448Y6046D01*
X268518Y6011D01*
X268658Y5958D01*
X268793Y5923D01*
X268857Y5911D01*
X268916Y5906D01*
X268968Y5900D01*
X269009Y5894D01*
X269044Y5888D01*
X269097D01*
X269214Y5894D01*
X269325Y5906D01*
X269425Y5929D01*
X269524Y5958D01*
X269612Y5993D01*
X269700Y6034D01*
X269776Y6075D01*
X269840Y6122D01*
X269904Y6163D01*
X269957Y6204D01*
X270004Y6245D01*
X270039Y6280D01*
X270068Y6309D01*
X270092Y6333D01*
X270103Y6344D01*
X270109Y6350D01*
X270162Y6420D01*
X270209Y6496D01*
X270250Y6572D01*
X270285Y6654D01*
X270337Y6801D01*
X270378Y6941D01*
X270390Y7005D01*
X270396Y7064D01*
X270402Y7117D01*
X270407Y7163D01*
X270413Y7198D01*
Y7251D01*
X270407Y7350D01*
X270396Y7450D01*
X270378Y7538D01*
X270361Y7625D01*
X270331Y7701D01*
X270302Y7778D01*
X270273Y7842D01*
X270238Y7906D01*
X270203Y7959D01*
X270173Y8006D01*
X270144Y8047D01*
X270115Y8082D01*
X270097Y8111D01*
X270080Y8128D01*
X270068Y8140D01*
X270062Y8146D01*
X269998Y8210D01*
X269928Y8263D01*
X269858Y8310D01*
X269781Y8351D01*
X269711Y8386D01*
X269641Y8409D01*
X269507Y8456D01*
X269448Y8468D01*
X269390Y8479D01*
X269343Y8485D01*
X269296Y8491D01*
X269261Y8497D01*
X269214D01*
X269074Y8485D01*
X268939Y8456D01*
X268816Y8421D01*
X268711Y8374D01*
X268617Y8327D01*
X268582Y8310D01*
X268547Y8292D01*
X268524Y8275D01*
X268506Y8263D01*
X268495Y8257D01*
X268489Y8251D01*
X268699Y9287D01*
X270232D01*
Y9737D01*
X270413D01*
D02*
G37*
G36*
X288618Y9796D02*
X287144Y9796D01*
Y5952D01*
X288525Y5952D01*
X288654Y5958D01*
X288771Y5964D01*
X288876Y5976D01*
X288964Y5987D01*
X289040Y5999D01*
X289092Y6005D01*
X289127Y6017D01*
X289139D01*
X289239Y6046D01*
X289326Y6075D01*
X289402Y6104D01*
X289467Y6134D01*
X289519Y6163D01*
X289560Y6186D01*
X289590Y6198D01*
X289595Y6204D01*
X289666Y6256D01*
X289730Y6315D01*
X289794Y6374D01*
X289841Y6426D01*
X289888Y6479D01*
X289917Y6520D01*
X289941Y6543D01*
X289946Y6555D01*
X290005Y6643D01*
X290058Y6736D01*
X290104Y6830D01*
X290140Y6918D01*
X290169Y7000D01*
X290192Y7058D01*
X290198Y7081D01*
X290204Y7099D01*
X290210Y7111D01*
Y7117D01*
X290245Y7245D01*
X290268Y7380D01*
X290292Y7514D01*
X290303Y7631D01*
X290309Y7737D01*
Y7783D01*
X290315Y7818D01*
Y7895D01*
X290309Y8082D01*
X290292Y8251D01*
X290268Y8404D01*
X290251Y8474D01*
X290239Y8538D01*
X290227Y8597D01*
X290210Y8649D01*
X290198Y8696D01*
X290186Y8731D01*
X290175Y8760D01*
X290169Y8784D01*
X290163Y8795D01*
Y8801D01*
X290099Y8947D01*
X290028Y9076D01*
X289952Y9187D01*
X289876Y9281D01*
X289812Y9357D01*
X289759Y9415D01*
X289718Y9451D01*
X289712Y9462D01*
X289707D01*
X289613Y9533D01*
X289519Y9591D01*
X289426Y9638D01*
X289338Y9673D01*
X289262Y9702D01*
X289198Y9720D01*
X289174Y9731D01*
X289162D01*
X289151Y9737D01*
X289145D01*
X289051Y9755D01*
X288940Y9772D01*
X288823Y9784D01*
X288718Y9790D01*
X288618Y9796D01*
D02*
G37*
G36*
X267868Y9737D02*
Y5888D01*
D01*
Y9737D01*
D02*
G37*
%LPD*%
G36*
X278983Y7649D02*
X279007Y7456D01*
X279048Y7280D01*
X279065Y7198D01*
X279089Y7128D01*
X279112Y7058D01*
X279130Y7000D01*
X279153Y6947D01*
X279171Y6906D01*
X279182Y6871D01*
X279194Y6847D01*
X279206Y6830D01*
Y6824D01*
X279305Y6666D01*
X279416Y6526D01*
X279528Y6403D01*
X279645Y6303D01*
X279744Y6227D01*
X279785Y6198D01*
X279826Y6175D01*
X279855Y6151D01*
X279884Y6140D01*
X279896Y6134D01*
X279902Y6128D01*
X280078Y6046D01*
X280259Y5987D01*
X280429Y5946D01*
X280592Y5917D01*
X280662Y5906D01*
X280727Y5900D01*
X280785Y5894D01*
X280838D01*
X280879Y5888D01*
X278972D01*
Y7853D01*
X278983Y7649D01*
D02*
G37*
G36*
X285770Y5952D02*
X283751D01*
Y8971D01*
X285770Y5952D01*
D02*
G37*
G36*
X288613Y9340D02*
X288747Y9334D01*
X288858Y9322D01*
X288952Y9304D01*
X289022Y9287D01*
X289069Y9275D01*
X289098Y9269D01*
X289110Y9263D01*
X289209Y9211D01*
X289303Y9146D01*
X289385Y9076D01*
X289455Y9000D01*
X289513Y8936D01*
X289555Y8877D01*
X289572Y8854D01*
X289578Y8836D01*
X289590Y8830D01*
Y8825D01*
X289625Y8760D01*
X289654Y8690D01*
X289707Y8544D01*
X289742Y8392D01*
X289765Y8240D01*
X289771Y8175D01*
X289777Y8111D01*
X289783Y8053D01*
X289789Y8000D01*
Y7959D01*
Y7930D01*
Y7906D01*
Y7900D01*
X289783Y7742D01*
X289771Y7602D01*
X289753Y7473D01*
X289736Y7362D01*
X289718Y7274D01*
X289707Y7239D01*
X289701Y7210D01*
X289695Y7187D01*
X289689Y7169D01*
X289683Y7163D01*
Y7157D01*
X289642Y7052D01*
X289595Y6953D01*
X289549Y6871D01*
X289508Y6801D01*
X289467Y6748D01*
X289432Y6707D01*
X289408Y6678D01*
X289402Y6672D01*
X289350Y6625D01*
X289297Y6584D01*
X289239Y6555D01*
X289180Y6526D01*
X289133Y6502D01*
X289092Y6485D01*
X289069Y6479D01*
X289057Y6473D01*
X288969Y6450D01*
X288876Y6432D01*
X288776Y6420D01*
X288683Y6414D01*
X288595Y6409D01*
X288531Y6403D01*
X287653Y6403D01*
Y9345D01*
X288455Y9345D01*
X288613Y9340D01*
D02*
G37*
%LPC*%
G36*
X154484Y59073D02*
X154425D01*
X154238Y59061D01*
X154063Y59038D01*
X153905Y58997D01*
X153834Y58979D01*
X153770Y58956D01*
X153712Y58932D01*
X153653Y58915D01*
X153606Y58891D01*
X153571Y58874D01*
X153536Y58862D01*
X153513Y58850D01*
X153501Y58839D01*
X153495D01*
X153349Y58745D01*
X153214Y58634D01*
X153103Y58523D01*
X153015Y58412D01*
X152939Y58312D01*
X152910Y58271D01*
X152887Y58236D01*
X152869Y58201D01*
X152857Y58178D01*
X152846Y58166D01*
Y58160D01*
X152770Y57990D01*
X152711Y57809D01*
X152676Y57634D01*
X152647Y57470D01*
X152635Y57394D01*
X152629Y57329D01*
X152623Y57265D01*
Y57212D01*
X152618Y57171D01*
Y57113D01*
X152623Y56908D01*
X152647Y56721D01*
X152682Y56546D01*
X152699Y56464D01*
X152717Y56393D01*
X152735Y56323D01*
X152752Y56265D01*
X152770Y56212D01*
X152787Y56165D01*
X152799Y56130D01*
X152811Y56107D01*
X152816Y56089D01*
Y56083D01*
X152898Y55914D01*
X152998Y55767D01*
X153092Y55639D01*
X153191Y55539D01*
X153273Y55457D01*
X153343Y55399D01*
X153372Y55381D01*
X153390Y55364D01*
X153402Y55358D01*
X153407Y55352D01*
X153483Y55305D01*
X153565Y55270D01*
X153729Y55206D01*
X153899Y55165D01*
X154063Y55130D01*
X154133Y55124D01*
X154203Y55112D01*
X154261Y55106D01*
X154314D01*
X154361Y55101D01*
X156011D01*
D01*
X154419D01*
X154531Y55106D01*
X154636Y55112D01*
X154829Y55153D01*
X154917Y55177D01*
X155004Y55206D01*
X155080Y55235D01*
X155151Y55264D01*
X155215Y55294D01*
X155268Y55323D01*
X155315Y55352D01*
X155355Y55375D01*
X155391Y55399D01*
X155414Y55416D01*
X155426Y55422D01*
X155431Y55428D01*
X155508Y55493D01*
X155578Y55563D01*
X155695Y55715D01*
X155800Y55873D01*
X155876Y56031D01*
X155911Y56101D01*
X155935Y56165D01*
X155958Y56230D01*
X155981Y56276D01*
X155993Y56323D01*
X156005Y56352D01*
X156011Y56376D01*
Y56382D01*
X155502Y56510D01*
X155455Y56341D01*
X155396Y56189D01*
X155326Y56066D01*
X155262Y55961D01*
X155198Y55884D01*
X155145Y55826D01*
X155110Y55791D01*
X155104Y55785D01*
X155098Y55779D01*
X154981Y55697D01*
X154864Y55639D01*
X154741Y55592D01*
X154630Y55563D01*
X154531Y55545D01*
X154484Y55539D01*
X154449D01*
X154419Y55533D01*
X154378D01*
X154250Y55539D01*
X154127Y55563D01*
X154016Y55592D01*
X153922Y55621D01*
X153840Y55656D01*
X153776Y55680D01*
X153753Y55691D01*
X153735Y55703D01*
X153729Y55709D01*
X153723D01*
X153618Y55785D01*
X153530Y55873D01*
X153454Y55961D01*
X153390Y56054D01*
X153343Y56130D01*
X153314Y56200D01*
X153302Y56224D01*
X153290Y56241D01*
X153285Y56253D01*
Y56259D01*
X153238Y56399D01*
X153203Y56546D01*
X153179Y56692D01*
X153162Y56826D01*
X153156Y56885D01*
X153150Y56937D01*
Y56990D01*
X153144Y57031D01*
Y57066D01*
Y57090D01*
Y57107D01*
Y57113D01*
X153150Y57253D01*
X153162Y57388D01*
X153179Y57511D01*
X153203Y57622D01*
X153226Y57715D01*
X153232Y57756D01*
X153244Y57786D01*
X153249Y57815D01*
X153255Y57832D01*
X153261Y57844D01*
Y57850D01*
X153314Y57979D01*
X153378Y58096D01*
X153448Y58189D01*
X153513Y58271D01*
X153577Y58336D01*
X153630Y58382D01*
X153665Y58412D01*
X153671Y58423D01*
X153676D01*
X153794Y58494D01*
X153916Y58546D01*
X154039Y58587D01*
X154156Y58610D01*
X154261Y58628D01*
X154302Y58634D01*
X154343D01*
X154373Y58640D01*
X154414D01*
X154554Y58634D01*
X154677Y58610D01*
X154788Y58581D01*
X154876Y58546D01*
X154952Y58505D01*
X155004Y58476D01*
X155040Y58453D01*
X155051Y58447D01*
X155145Y58365D01*
X155221Y58271D01*
X155291Y58166D01*
X155344Y58066D01*
X155385Y57979D01*
X155402Y57938D01*
X155420Y57903D01*
X155431Y57873D01*
X155437Y57850D01*
X155443Y57838D01*
Y57832D01*
X155946Y57950D01*
X155876Y58137D01*
X155835Y58224D01*
X155794Y58301D01*
X155747Y58376D01*
X155701Y58447D01*
X155660Y58505D01*
X155613Y58564D01*
X155572Y58610D01*
X155531Y58652D01*
X155490Y58692D01*
X155461Y58722D01*
X155431Y58745D01*
X155414Y58763D01*
X155402Y58768D01*
X155396Y58774D01*
X155320Y58827D01*
X155244Y58874D01*
X155162Y58915D01*
X155080Y58950D01*
X154917Y59003D01*
X154765Y59038D01*
X154694Y59049D01*
X154630Y59055D01*
X154571Y59061D01*
X154525Y59067D01*
X154484Y59073D01*
D02*
G37*
G36*
X151910Y59008D02*
X151424D01*
Y55990D01*
X149400Y59008D01*
X148885D01*
Y55165D01*
X151910D01*
Y59008D01*
D02*
G37*
G36*
X159515Y59008D02*
Y55615D01*
X157157Y55615D01*
Y56926D01*
X159281Y56926D01*
Y57376D01*
X157157Y57376D01*
Y58558D01*
X159427Y58558D01*
Y59008D01*
X156648Y59008D01*
Y55165D01*
X159515Y55165D01*
Y59008D01*
D02*
G37*
G36*
X144849Y59008D02*
X144334D01*
X143293Y56218D01*
X143252Y56101D01*
X143211Y55984D01*
X143176Y55879D01*
X143147Y55785D01*
X143123Y55703D01*
X143105Y55639D01*
X143100Y55615D01*
X143094Y55598D01*
X143088Y55592D01*
Y55586D01*
X143024Y55808D01*
X142989Y55914D01*
X142953Y56013D01*
X142924Y56095D01*
X142907Y56159D01*
X142895Y56183D01*
X142889Y56200D01*
X142883Y56212D01*
Y56218D01*
X141889Y59008D01*
X141333D01*
X142825Y55165D01*
X143345D01*
X144849Y59008D01*
D02*
G37*
G36*
X148476D02*
X144890D01*
D01*
X146358D01*
X144890Y55165D01*
X145428D01*
X145843Y56329D01*
X147458D01*
X147903Y55165D01*
X148476D01*
X146914Y59008D01*
X148476D01*
D01*
D02*
G37*
G36*
X139753D02*
X139198D01*
X137729Y55165D01*
X138268D01*
X138683Y56329D01*
X140297D01*
X140742Y55165D01*
X141315D01*
X139753Y59008D01*
D02*
G37*
%LPD*%
G36*
X151389Y55165D02*
X149371D01*
Y58183D01*
X151389Y55165D01*
D02*
G37*
G36*
X146662Y58482D02*
X146703Y58347D01*
X146750Y58213D01*
X146797Y58084D01*
X146832Y57973D01*
X146850Y57926D01*
X146867Y57885D01*
X146879Y57850D01*
X146890Y57827D01*
X146896Y57809D01*
Y57803D01*
X147294Y56744D01*
X145990D01*
X146411Y57868D01*
X146458Y58002D01*
X146499Y58137D01*
X146534Y58259D01*
X146563Y58376D01*
X146586Y58470D01*
X146598Y58511D01*
X146610Y58546D01*
X146616Y58575D01*
Y58593D01*
X146621Y58605D01*
Y58610D01*
X146662Y58482D01*
D02*
G37*
G36*
X139502D02*
X139543Y58347D01*
X139590Y58213D01*
X139636Y58084D01*
X139672Y57973D01*
X139689Y57926D01*
X139707Y57885D01*
X139718Y57850D01*
X139730Y57827D01*
X139736Y57809D01*
Y57803D01*
X140134Y56744D01*
X138829D01*
X139250Y57868D01*
X139297Y58002D01*
X139338Y58137D01*
X139373Y58259D01*
X139402Y58376D01*
X139426Y58470D01*
X139438Y58511D01*
X139449Y58546D01*
X139455Y58575D01*
Y58593D01*
X139461Y58605D01*
Y58610D01*
X139502Y58482D01*
D02*
G37*
D10*
X368189Y120079D02*
X368087Y121085D01*
X367784Y122050D01*
X367293Y122935D01*
X366634Y123703D01*
X365834Y124322D01*
X364926Y124767D01*
X363946Y125021D01*
X362936Y125072D01*
X361936Y124919D01*
X360987Y124568D01*
X360128Y124033D01*
X359395Y123336D01*
X358817Y122505D01*
X358418Y121576D01*
X358215Y120585D01*
Y119573D01*
X358418Y118582D01*
X358817Y117652D01*
X359395Y116822D01*
X360128Y116125D01*
X360987Y115590D01*
X361936Y115238D01*
X362936Y115085D01*
X363946Y115136D01*
X364926Y115390D01*
X365834Y115835D01*
X366634Y116455D01*
X367293Y117222D01*
X367784Y118107D01*
X368087Y119072D01*
X368189Y120079D01*
X368189Y187992D02*
X368087Y188999D01*
X367784Y189964D01*
X367293Y190849D01*
X366634Y191616D01*
X365834Y192235D01*
X364926Y192681D01*
X363946Y192935D01*
X362936Y192986D01*
X361936Y192833D01*
X360987Y192481D01*
X360128Y191946D01*
X359395Y191249D01*
X358817Y190419D01*
X358418Y189489D01*
X358215Y188498D01*
Y187486D01*
X358418Y186495D01*
X358817Y185566D01*
X359395Y184735D01*
X360128Y184038D01*
X360987Y183503D01*
X361936Y183152D01*
X362936Y182999D01*
X363946Y183050D01*
X364926Y183303D01*
X365834Y183749D01*
X366634Y184368D01*
X367293Y185136D01*
X367784Y186020D01*
X368087Y186986D01*
X368189Y187992D01*
X244173Y241142D02*
X244071Y242148D01*
X243768Y243113D01*
X243277Y243998D01*
X242618Y244766D01*
X241818Y245385D01*
X240910Y245830D01*
X239930Y246084D01*
X238920Y246135D01*
X237920Y245982D01*
X236971Y245631D01*
X236113Y245096D01*
X235379Y244399D01*
X234802Y243568D01*
X234402Y242638D01*
X234199Y241648D01*
Y240636D01*
X234402Y239645D01*
X234802Y238715D01*
X235379Y237885D01*
X236113Y237188D01*
X236971Y236653D01*
X237920Y236301D01*
X238920Y236148D01*
X239930Y236199D01*
X240910Y236453D01*
X241818Y236898D01*
X242618Y237518D01*
X243277Y238285D01*
X243768Y239170D01*
X244071Y240135D01*
X244173Y241142D01*
X350472Y343504D02*
X350370Y344510D01*
X350067Y345476D01*
X349576Y346360D01*
X348917Y347128D01*
X348117Y347747D01*
X347209Y348193D01*
X346230Y348446D01*
X345219Y348498D01*
X344219Y348344D01*
X343270Y347993D01*
X342412Y347458D01*
X341679Y346761D01*
X341101Y345931D01*
X340702Y345001D01*
X340498Y344010D01*
Y342998D01*
X340702Y342007D01*
X341101Y341077D01*
X341679Y340247D01*
X342412Y339550D01*
X343270Y339015D01*
X344219Y338664D01*
X345219Y338510D01*
X346230Y338562D01*
X347209Y338815D01*
X348117Y339261D01*
X348917Y339880D01*
X349576Y340648D01*
X350067Y341532D01*
X350370Y342497D01*
X350472Y343504D01*
X224488Y335630D02*
X224386Y336636D01*
X224083Y337602D01*
X223592Y338486D01*
X222933Y339254D01*
X222133Y339873D01*
X221225Y340319D01*
X220245Y340572D01*
X219235Y340623D01*
X218235Y340470D01*
X217286Y340119D01*
X216428Y339584D01*
X215694Y338887D01*
X215117Y338056D01*
X214718Y337127D01*
X214514Y336136D01*
Y335124D01*
X214718Y334133D01*
X215117Y333203D01*
X215694Y332373D01*
X216428Y331676D01*
X217286Y331141D01*
X218235Y330789D01*
X219235Y330636D01*
X220245Y330688D01*
X221225Y330941D01*
X222133Y331387D01*
X222933Y332006D01*
X223592Y332774D01*
X224083Y333658D01*
X224386Y334623D01*
X224488Y335630D01*
Y241457D02*
X224386Y242463D01*
X224083Y243428D01*
X223592Y244313D01*
X222933Y245081D01*
X222133Y245700D01*
X221225Y246146D01*
X220245Y246399D01*
X219235Y246450D01*
X218235Y246297D01*
X217286Y245946D01*
X216428Y245411D01*
X215694Y244714D01*
X215117Y243883D01*
X214718Y242953D01*
X214514Y241963D01*
Y240951D01*
X214718Y239960D01*
X215117Y239030D01*
X215694Y238200D01*
X216428Y237503D01*
X217286Y236968D01*
X218235Y236616D01*
X219235Y236463D01*
X220245Y236514D01*
X221225Y236768D01*
X222133Y237213D01*
X222933Y237833D01*
X223592Y238600D01*
X224083Y239485D01*
X224386Y240450D01*
X224488Y241457D01*
X303228Y241142D02*
X303126Y242148D01*
X302823Y243113D01*
X302332Y243998D01*
X301673Y244766D01*
X300873Y245385D01*
X299965Y245830D01*
X298986Y246084D01*
X297975Y246135D01*
X296975Y245982D01*
X296026Y245631D01*
X295168Y245096D01*
X294435Y244399D01*
X293857Y243568D01*
X293458Y242638D01*
X293254Y241648D01*
Y240636D01*
X293458Y239645D01*
X293857Y238715D01*
X294435Y237885D01*
X295168Y237188D01*
X296026Y236653D01*
X296975Y236301D01*
X297975Y236148D01*
X298986Y236199D01*
X299965Y236453D01*
X300873Y236898D01*
X301673Y237518D01*
X302332Y238285D01*
X302823Y239170D01*
X303126Y240135D01*
X303228Y241142D01*
X338661Y241457D02*
X338559Y242463D01*
X338256Y243428D01*
X337765Y244313D01*
X337106Y245081D01*
X336306Y245700D01*
X335398Y246146D01*
X334419Y246399D01*
X333408Y246450D01*
X332408Y246297D01*
X331459Y245946D01*
X330601Y245411D01*
X329868Y244714D01*
X329290Y243883D01*
X328891Y242953D01*
X328687Y241963D01*
Y240951D01*
X328891Y239960D01*
X329290Y239030D01*
X329868Y238200D01*
X330601Y237503D01*
X331459Y236968D01*
X332408Y236616D01*
X333408Y236463D01*
X334419Y236514D01*
X335398Y236768D01*
X336306Y237213D01*
X337106Y237833D01*
X337765Y238600D01*
X338256Y239485D01*
X338559Y240450D01*
X338661Y241457D01*
X247638Y151969D02*
X246833Y151369D01*
X246080Y150707D01*
X245383Y149986D01*
X244746Y149211D01*
X244174Y148387D01*
X243671Y147519D01*
X243239Y146614D01*
X242881Y145676D01*
X242601Y144713D01*
X242400Y143730D01*
X242278Y142735D01*
X242238Y141732D01*
X242278Y140730D01*
X242400Y139734D01*
X242601Y138752D01*
X242881Y137788D01*
X243239Y136851D01*
X243671Y135946D01*
X244174Y135078D01*
X244746Y134254D01*
X245383Y133479D01*
X246080Y132758D01*
X246833Y132095D01*
X247638Y131496D01*
X286299Y131496D02*
X287104Y132095D01*
X287857Y132758D01*
X288554Y133479D01*
X289191Y134254D01*
X289763Y135078D01*
X290267Y135946D01*
X290698Y136851D01*
X291056Y137788D01*
X291336Y138751D01*
X291537Y139734D01*
X291659Y140730D01*
X291699Y141732D01*
X291659Y142735D01*
X291537Y143730D01*
X291336Y144713D01*
X291056Y145676D01*
X290698Y146614D01*
X290267Y147519D01*
X289763Y148387D01*
X289191Y149211D01*
X288554Y149986D01*
X287857Y150707D01*
X287104Y151369D01*
X286299Y151969D01*
X187598Y294587D02*
X188386D01*
X187598Y290059D02*
X188386D01*
X241142Y325787D02*
Y345472D01*
Y325787D02*
X252953D01*
Y345472D01*
X241142D02*
X252953D01*
X233433Y370874D02*
X244914D01*
X233433Y379756D02*
X244914D01*
X279693Y303630D02*
X291174D01*
X279693Y312512D02*
X291174D01*
X294685Y292638D02*
X296654D01*
X295669Y291654D02*
Y293622D01*
X285177Y289094D02*
X286083D01*
X285177Y296181D02*
X286083D01*
X236890Y211811D02*
X249331D01*
X236890Y231102D02*
X249331D01*
Y211811D02*
Y231102D01*
X236890Y211811D02*
Y231102D01*
X307677Y325787D02*
X320276D01*
X307677Y345472D02*
X320276D01*
Y325787D02*
Y345472D01*
X307677Y325787D02*
Y345472D01*
X219094Y279154D02*
X219882D01*
X219094Y274626D02*
X219882D01*
X204429Y225000D02*
Y225787D01*
X208957Y225000D02*
Y225787D01*
X250590Y279154D02*
X251378D01*
X250590Y274626D02*
X251378D01*
X250590Y294902D02*
X251378D01*
X250590Y290374D02*
X251378D01*
X223032Y194823D02*
X261536D01*
X223032Y175295D02*
Y194823D01*
Y175295D02*
X261536D01*
Y194823D01*
X190551Y380846D02*
X229055D01*
X190551Y361319D02*
Y380846D01*
Y361319D02*
X229055D01*
Y380846D01*
X250590Y310335D02*
X251378D01*
X250590Y305807D02*
X251378D01*
X219094Y310650D02*
X219882D01*
X219094Y306122D02*
X219882D01*
X187598Y310335D02*
X188386D01*
X187598Y305807D02*
X188386D01*
X177854Y225000D02*
Y225787D01*
X182382Y225000D02*
Y225787D01*
X219094Y294902D02*
X219882D01*
X219094Y290374D02*
X219882D01*
X265354Y380846D02*
X303858D01*
X265354Y361319D02*
Y380846D01*
Y361319D02*
X303858D01*
Y380846D01*
X187598Y278839D02*
X188386D01*
X187598Y274311D02*
X188386D01*
X192618Y225000D02*
Y225787D01*
X197146Y225000D02*
Y225787D01*
X175472Y175256D02*
X213976D01*
Y194784D01*
X175472D02*
X213976D01*
X175472Y175256D02*
Y194784D01*
X274213Y334272D02*
X275000D01*
X274213Y329744D02*
X275000D01*
X274213Y345177D02*
X275000D01*
X274213Y349705D02*
X275000D01*
X343799Y217126D02*
Y217913D01*
X339272Y217126D02*
Y217913D01*
X351378Y365768D02*
Y376358D01*
X320197D02*
X351378D01*
X320197Y365768D02*
Y376358D01*
Y365768D02*
X351378D01*
X223930Y219653D02*
Y231134D01*
X215047Y219653D02*
Y231134D01*
X326969Y292638D02*
X328937D01*
X327953Y291654D02*
Y293622D01*
X317461Y289094D02*
X318366D01*
X317461Y296181D02*
X318366D01*
X253118Y245583D02*
X264599D01*
X253118Y236700D02*
X264599D01*
X268701Y212894D02*
X280512D01*
X312173Y312827D02*
X323654D01*
X312173Y303944D02*
X323654D01*
X186024Y236516D02*
X197835D01*
X187008Y326083D02*
X198819D01*
X233433Y359063D02*
X244914D01*
X233433Y367945D02*
X244914D01*
X14390Y76772D02*
X24980D01*
X14390Y45590D02*
Y76772D01*
Y45590D02*
X24980D01*
Y76772D01*
X14390Y90709D02*
Y131890D01*
X24980D01*
Y90709D02*
Y131890D01*
X14390Y90709D02*
X24980D01*
X62598Y84350D02*
X63386D01*
X62598Y88878D02*
X63386D01*
X62599Y81004D02*
X63386D01*
X62599Y76476D02*
X63386D01*
X264547Y145079D02*
X270886D01*
X267717Y132874D02*
Y135039D01*
Y148425D02*
Y150591D01*
X264271Y148425D02*
X271161D01*
X264271Y135039D02*
Y148425D01*
Y135039D02*
X271161D01*
Y148425D01*
X296043Y145079D02*
X302382D01*
X299213Y132874D02*
Y135039D01*
Y148425D02*
Y150591D01*
X295768Y148425D02*
X302658D01*
X295768Y135039D02*
Y148425D01*
Y135039D02*
X302658D01*
Y148425D01*
X258721Y131496D02*
Y151968D01*
X256299D02*
X258721D01*
X256299Y131496D02*
X258721D01*
X275217D02*
Y151969D01*
Y131496D02*
X277638D01*
X275217Y151969D02*
X277638D01*
X368307Y312008D02*
X382874D01*
X365158Y315157D02*
X368307Y312008D01*
X365158Y326575D02*
X368307Y329724D01*
X382874D01*
Y312008D02*
Y316535D01*
Y325197D02*
Y329724D01*
X365158Y315157D02*
Y316535D01*
Y325197D02*
Y326575D01*
X376149Y204220D02*
X387630D01*
X376149Y213103D02*
X387630D01*
X235039Y148425D02*
X238189D01*
Y144488D02*
Y148425D01*
X226378D02*
X229528D01*
X226378Y144488D02*
Y148425D01*
X101969Y81004D02*
X102756D01*
X101969Y76476D02*
X102756D01*
X62599Y92224D02*
X63386D01*
X62599Y96752D02*
X63386D01*
X101969Y88878D02*
X102756D01*
X101969Y84350D02*
X102756D01*
X346457Y152795D02*
Y155217D01*
Y120374D02*
Y122795D01*
X341535D02*
X351378D01*
Y152795D01*
X341535D02*
X351378D01*
X341535Y122795D02*
Y152795D01*
X330709Y120374D02*
Y122795D01*
Y152795D02*
Y155217D01*
X325787Y152795D02*
X335630D01*
X325787Y122795D02*
Y152795D01*
Y122795D02*
X335630D01*
Y152795D01*
X314961D02*
Y155217D01*
Y120374D02*
Y122795D01*
X310039D02*
X319882D01*
Y152795D01*
X310039D02*
X319882D01*
X310039Y122795D02*
Y152795D01*
X350098Y93504D02*
Y105315D01*
X377658Y93504D02*
Y105315D01*
X365748Y250295D02*
X366535D01*
X365748Y245768D02*
X366535D01*
X365748Y238681D02*
X366535D01*
X365748Y233760D02*
X366535D01*
X278150Y194823D02*
X316653D01*
X278150Y175295D02*
Y194823D01*
Y175295D02*
X316653D01*
Y194823D01*
X365748Y262303D02*
X366536D01*
X365748Y257382D02*
X366536D01*
X365748Y269193D02*
X366535D01*
X365748Y274114D02*
X366535D01*
X383661Y290157D02*
X386811D01*
Y286220D02*
Y290157D01*
X375000D02*
X378150D01*
X375000Y286220D02*
Y290157D01*
X365945D02*
X369094D01*
Y286220D02*
Y290157D01*
X357283D02*
X360433D01*
X357283Y286220D02*
Y290157D01*
X384843Y133859D02*
Y173229D01*
X375098Y131497D02*
X378445D01*
X375098D02*
X375394Y133859D01*
X378150D02*
X378445Y131497D01*
X378150Y133859D02*
X384843D01*
X355315D02*
Y173229D01*
Y133859D02*
X375394D01*
X358859Y175591D02*
X362599D01*
X358859D02*
X359055Y173229D01*
X362402D02*
X362599Y175591D01*
X355315Y173229D02*
X359055D01*
X362402D02*
X384843D01*
X376149Y216031D02*
X387630D01*
X376149Y224914D02*
X387630D01*
X305119Y50000D02*
X364174D01*
X305119Y14567D02*
X364174D01*
X305119D02*
Y23031D01*
Y25788D02*
Y50000D01*
X302756Y22047D02*
Y26772D01*
Y22047D02*
X305119Y23031D01*
X302756Y26772D02*
X305119Y25788D01*
X364174Y43502D02*
X366536Y42519D01*
Y47243D01*
X364174Y46260D02*
X366536Y47243D01*
X364174Y46260D02*
Y50000D01*
Y14567D02*
Y43504D01*
X210630Y82283D02*
Y122441D01*
X109055Y124016D02*
X112205D01*
Y120866D02*
Y124016D01*
X100394D02*
X103543D01*
X100394Y120866D02*
Y124016D01*
X129429Y123327D02*
Y124114D01*
X134350Y123327D02*
Y124114D01*
X17815Y341535D02*
X20079D01*
X46850D02*
X49114D01*
X46850Y336417D02*
Y346653D01*
X20079Y336417D02*
X46850D01*
X20079D02*
Y346653D01*
X46850D01*
X208071Y30807D02*
Y39468D01*
X212205Y22736D02*
X228740D01*
X232874Y30807D02*
Y39468D01*
X212205Y47539D02*
X228740D01*
X286407Y75778D02*
X312018D01*
Y89577D01*
X286407D02*
X312018D01*
X286407Y75778D02*
Y89577D01*
X142882Y10027D02*
X154363D01*
X142882Y18910D02*
X154363D01*
X72015Y10027D02*
X83497D01*
X72015Y18910D02*
X83497D01*
X213748Y10027D02*
X225229D01*
X213748Y18910D02*
X225229D01*
X148142Y117980D02*
Y129461D01*
X139259Y117980D02*
Y129461D01*
X136221Y29823D02*
Y38484D01*
X140354Y21752D02*
X156890D01*
X161024Y29823D02*
Y38484D01*
X140354Y46555D02*
X156890D01*
X65354Y29823D02*
Y38484D01*
X69488Y21752D02*
X86024D01*
X90158Y29823D02*
Y38484D01*
X69488Y46555D02*
X86024D01*
X62401Y113780D02*
Y122441D01*
X66535Y105709D02*
X83071D01*
X87205Y113780D02*
Y122441D01*
X66535Y130512D02*
X83071D01*
X17815Y176181D02*
X20079D01*
X46850D02*
X49114D01*
X46850Y171063D02*
Y181299D01*
X20079Y171063D02*
X46850D01*
X20079D02*
Y181299D01*
X46850D01*
X17815Y187992D02*
X20079D01*
X46850D02*
X49114D01*
X46850Y182874D02*
Y193110D01*
X20079Y182874D02*
X46850D01*
X20079D02*
Y193110D01*
X46850D01*
X17815Y199803D02*
X20079D01*
X46850D02*
X49114D01*
X46850Y194685D02*
Y204921D01*
X20079Y194685D02*
X46850D01*
X20079D02*
Y204921D01*
X46850D01*
Y211614D02*
X49114D01*
X17815D02*
X20079D01*
Y206496D02*
Y216732D01*
X46850D01*
Y206496D02*
Y216732D01*
X20079Y206496D02*
X46850D01*
X17815Y223425D02*
X20079D01*
X46850D02*
X49114D01*
X46850Y218307D02*
Y228543D01*
X20079Y218307D02*
X46850D01*
X20079D02*
Y228543D01*
X46850D01*
Y235236D02*
X49114D01*
X17815D02*
X20079D01*
Y230118D02*
Y240354D01*
X46850D01*
Y230118D02*
Y240354D01*
X20079Y230118D02*
X46850D01*
X17815Y247047D02*
X20079D01*
X46850D02*
X49114D01*
X46850Y241929D02*
Y252165D01*
X20079Y241929D02*
X46850D01*
X20079D02*
Y252165D01*
X46850D01*
X17815Y270669D02*
X20079D01*
X46850D02*
X49114D01*
X46850Y265551D02*
Y275787D01*
X20079Y265551D02*
X46850D01*
X20079D02*
Y275787D01*
X46850D01*
X17815Y294291D02*
X20079D01*
X46850D02*
X49114D01*
X46850Y289173D02*
Y299409D01*
X20079Y289173D02*
X46850D01*
X20079D02*
Y299409D01*
X46850D01*
X17815Y317913D02*
X20079D01*
X46850D02*
X49114D01*
X46850Y312795D02*
Y323031D01*
X20079Y312795D02*
X46850D01*
X20079D02*
Y323031D01*
X46850D01*
X17815Y353346D02*
X20079D01*
X46850D02*
X49114D01*
X46850Y348228D02*
Y358464D01*
X20079Y348228D02*
X46850D01*
X20079D02*
Y358464D01*
X46850D01*
Y258858D02*
X49114D01*
X17815D02*
X20079D01*
Y253740D02*
Y263976D01*
X46850D01*
Y253740D02*
Y263976D01*
X20079Y253740D02*
X46850D01*
Y282480D02*
X49114D01*
X17815D02*
X20079D01*
Y277362D02*
Y287598D01*
X46850D01*
Y277362D02*
Y287598D01*
X20079Y277362D02*
X46850D01*
X17815Y306102D02*
X20079D01*
X46850D02*
X49114D01*
X46850Y300984D02*
Y311220D01*
X20079Y300984D02*
X46850D01*
X20079D02*
Y311220D01*
X46850D01*
X17815Y329724D02*
X20079D01*
X46850D02*
X49114D01*
X46850Y324606D02*
Y334842D01*
X20079Y324606D02*
X46850D01*
X20079D02*
Y334842D01*
X46850D01*
X377658Y65945D02*
Y77756D01*
X275295Y65945D02*
Y77756D01*
Y93504D02*
Y105315D01*
X350098Y65945D02*
Y77756D01*
X257874Y14567D02*
X297245D01*
X255512Y20964D02*
Y24311D01*
X257874Y24015D01*
X255512Y20964D02*
X257874Y21260D01*
Y14567D02*
Y21260D01*
Y44094D02*
X297245D01*
X257874Y24015D02*
Y44094D01*
X299607Y36811D02*
Y40551D01*
X297245Y40354D02*
X299607Y40551D01*
X297245Y37007D02*
X299607Y36811D01*
X297245Y40354D02*
Y44094D01*
Y14567D02*
Y37007D01*
D11*
X245177Y342421D02*
X244685Y343274D01*
X243701D01*
X243209Y342421D01*
X243701Y341569D01*
X244685D01*
X245177Y342421D01*
D12*
X231594Y343130D02*
X230856Y343556D01*
Y342704D01*
X231594Y343130D01*
X304823Y232106D02*
X304085Y232533D01*
Y231680D01*
X304823Y232106D01*
X232815Y232303D02*
X232077Y232729D01*
Y231877D01*
X232815Y232303D01*
X303740Y346476D02*
X303002Y346903D01*
Y346050D01*
X303740Y346476D01*
X318917Y371063D02*
X318179Y371489D01*
Y370637D01*
X318917Y371063D01*
X20177Y43819D02*
X19439Y44245D01*
Y43393D01*
X20177Y43819D01*
Y133661D02*
X19439Y134088D01*
Y133235D01*
X20177Y133661D01*
X225689Y141339D02*
X224951Y141765D01*
Y140912D01*
X225689Y141339D01*
X374311Y283071D02*
X373573Y283497D01*
Y282645D01*
X374311Y283071D01*
X356594D02*
X355856Y283497D01*
Y282645D01*
X356594Y283071D01*
X99705Y116535D02*
X98966Y116962D01*
Y116109D01*
X99705Y116535D01*
X202658Y43996D02*
X201919Y44422D01*
Y43570D01*
X202658Y43996D01*
X285925Y69705D02*
X285187Y70131D01*
Y69279D01*
X285925Y69705D01*
X130807Y43012D02*
X130069Y43438D01*
Y42586D01*
X130807Y43012D01*
X59941D02*
X59203Y43438D01*
Y42586D01*
X59941Y43012D01*
X56988Y126969D02*
X56250Y127395D01*
Y126542D01*
X56988Y126969D01*
D13*
X242028Y227362D02*
X241583Y228286D01*
X240584Y228514D01*
X239782Y227875D01*
Y226850D01*
X240584Y226211D01*
X241583Y226439D01*
X242028Y227362D01*
X312795Y341535D02*
X312351Y342459D01*
X311351Y342687D01*
X310550Y342048D01*
Y341023D01*
X311351Y340384D01*
X312351Y340612D01*
X312795Y341535D01*
D14*
X285433Y221457D02*
X285387Y222456D01*
X285249Y223446D01*
X285020Y224420D01*
X284702Y225368D01*
X284298Y226283D01*
X283811Y227156D01*
X283246Y227981D01*
X282607Y228751D01*
X281900Y229458D01*
X281131Y230097D01*
X280306Y230662D01*
X279432Y231148D01*
X278517Y231552D01*
X277569Y231870D01*
X276596Y232099D01*
X275605Y232237D01*
X274606Y232283D01*
X273607Y232237D01*
X272617Y232099D01*
X271643Y231870D01*
X270695Y231552D01*
X269780Y231148D01*
X268907Y230662D01*
X268082Y230097D01*
X267312Y229458D01*
X266605Y228751D01*
X265966Y227981D01*
X265401Y227156D01*
X264915Y226283D01*
X264511Y225368D01*
X264193Y224420D01*
X263964Y223446D01*
X263826Y222456D01*
X263779Y221457D01*
X263826Y220458D01*
X263964Y219467D01*
X264193Y218494D01*
X264511Y217546D01*
X264915Y216631D01*
X265401Y215757D01*
X265966Y214932D01*
X266605Y214163D01*
X267312Y213456D01*
X268082Y212817D01*
X268907Y212252D01*
X269780Y211765D01*
X270695Y211361D01*
X271643Y211043D01*
X272617Y210814D01*
X273607Y210676D01*
X274606Y210630D01*
X275605Y210676D01*
X276596Y210814D01*
X277569Y211043D01*
X278517Y211361D01*
X279432Y211765D01*
X280306Y212252D01*
X281131Y212817D01*
X281900Y213456D01*
X282607Y214163D01*
X283246Y214932D01*
X283811Y215757D01*
X284298Y216631D01*
X284702Y217546D01*
X285020Y218494D01*
X285249Y219467D01*
X285387Y220458D01*
X285433Y221457D01*
X202756Y245079D02*
X202710Y246078D01*
X202572Y247068D01*
X202343Y248042D01*
X202025Y248990D01*
X201621Y249905D01*
X201134Y250778D01*
X200569Y251603D01*
X199930Y252373D01*
X199223Y253080D01*
X198454Y253719D01*
X197629Y254284D01*
X196755Y254770D01*
X195840Y255174D01*
X194892Y255492D01*
X193919Y255721D01*
X192928Y255859D01*
X191929Y255906D01*
X190930Y255859D01*
X189940Y255721D01*
X188966Y255492D01*
X188018Y255174D01*
X187103Y254770D01*
X186230Y254284D01*
X185405Y253719D01*
X184635Y253080D01*
X183928Y252373D01*
X183289Y251603D01*
X182724Y250778D01*
X182237Y249905D01*
X181834Y248990D01*
X181516Y248042D01*
X181287Y247068D01*
X181149Y246078D01*
X181102Y245079D01*
X181149Y244080D01*
X181287Y243089D01*
X181516Y242116D01*
X181834Y241168D01*
X182237Y240253D01*
X182724Y239379D01*
X183289Y238554D01*
X183928Y237785D01*
X184635Y237078D01*
X185405Y236439D01*
X186230Y235874D01*
X187103Y235387D01*
X188018Y234983D01*
X188966Y234665D01*
X189940Y234436D01*
X190930Y234298D01*
X191929Y234252D01*
X192928Y234298D01*
X193919Y234436D01*
X194892Y234665D01*
X195840Y234983D01*
X196755Y235387D01*
X197629Y235874D01*
X198454Y236439D01*
X199223Y237078D01*
X199930Y237785D01*
X200569Y238554D01*
X201134Y239379D01*
X201621Y240253D01*
X202025Y241168D01*
X202343Y242116D01*
X202572Y243089D01*
X202710Y244080D01*
X202756Y245079D01*
X203740Y334646D02*
X203694Y335645D01*
X203556Y336635D01*
X203327Y337609D01*
X203009Y338557D01*
X202605Y339472D01*
X202118Y340345D01*
X201553Y341170D01*
X200915Y341940D01*
X200207Y342647D01*
X199438Y343286D01*
X198613Y343851D01*
X197739Y344338D01*
X196825Y344741D01*
X195876Y345059D01*
X194903Y345288D01*
X193912Y345426D01*
X192913Y345473D01*
X191914Y345426D01*
X190924Y345288D01*
X189951Y345059D01*
X189002Y344741D01*
X188087Y344338D01*
X187214Y343851D01*
X186389Y343286D01*
X185619Y342647D01*
X184912Y341940D01*
X184273Y341170D01*
X183708Y340345D01*
X183222Y339472D01*
X182818Y338557D01*
X182500Y337609D01*
X182271Y336635D01*
X182133Y335645D01*
X182087Y334646D01*
X182133Y333647D01*
X182271Y332656D01*
X182500Y331683D01*
X182818Y330735D01*
X183222Y329820D01*
X183708Y328946D01*
X184273Y328121D01*
X184912Y327352D01*
X185619Y326645D01*
X186389Y326006D01*
X187214Y325441D01*
X188087Y324954D01*
X189002Y324550D01*
X189951Y324232D01*
X190924Y324003D01*
X191914Y323865D01*
X192913Y323819D01*
X193912Y323865D01*
X194903Y324003D01*
X195876Y324232D01*
X196825Y324550D01*
X197739Y324954D01*
X198613Y325441D01*
X199438Y326006D01*
X200207Y326645D01*
X200915Y327352D01*
X201553Y328121D01*
X202118Y328946D01*
X202605Y329820D01*
X203009Y330735D01*
X203327Y331683D01*
X203556Y332656D01*
X203694Y333647D01*
X203740Y334646D01*
X352362Y99410D02*
X352316Y100408D01*
X352178Y101399D01*
X351949Y102372D01*
X351631Y103321D01*
X351227Y104235D01*
X350741Y105109D01*
X350175Y105934D01*
X349536Y106703D01*
X348829Y107411D01*
X348060Y108049D01*
X347235Y108615D01*
X346361Y109101D01*
X345446Y109505D01*
X344498Y109823D01*
X343525Y110052D01*
X342534Y110190D01*
X341535Y110236D01*
X340536Y110190D01*
X339546Y110052D01*
X338573Y109823D01*
X337624Y109505D01*
X336709Y109101D01*
X335836Y108615D01*
X335011Y108049D01*
X334242Y107411D01*
X333534Y106703D01*
X332895Y105934D01*
X332330Y105109D01*
X331844Y104235D01*
X331440Y103321D01*
X331122Y102372D01*
X330893Y101399D01*
X330755Y100408D01*
X330709Y99410D01*
X330755Y98410D01*
X330893Y97420D01*
X331122Y96447D01*
X331440Y95498D01*
X331844Y94584D01*
X332330Y93710D01*
X332895Y92885D01*
X333534Y92115D01*
X334242Y91408D01*
X335011Y90769D01*
X335836Y90204D01*
X336709Y89718D01*
X337624Y89314D01*
X338573Y88996D01*
X339546Y88767D01*
X340536Y88629D01*
X341535Y88583D01*
X342534Y88629D01*
X343525Y88767D01*
X344498Y88996D01*
X345446Y89314D01*
X346361Y89718D01*
X347235Y90204D01*
X348060Y90769D01*
X348829Y91408D01*
X349536Y92115D01*
X350175Y92885D01*
X350741Y93710D01*
X351227Y94584D01*
X351631Y95498D01*
X351949Y96447D01*
X352178Y97420D01*
X352316Y98410D01*
X352362Y99410D01*
X379921D02*
X379875Y100408D01*
X379737Y101399D01*
X379508Y102372D01*
X379190Y103321D01*
X378786Y104235D01*
X378300Y105109D01*
X377734Y105934D01*
X377096Y106703D01*
X376388Y107411D01*
X375619Y108049D01*
X374794Y108615D01*
X373920Y109101D01*
X373006Y109505D01*
X372057Y109823D01*
X371084Y110052D01*
X370093Y110190D01*
X369094Y110236D01*
X368095Y110190D01*
X367105Y110052D01*
X366132Y109823D01*
X365183Y109505D01*
X364269Y109101D01*
X363395Y108615D01*
X362570Y108049D01*
X361801Y107411D01*
X361093Y106703D01*
X360455Y105934D01*
X359889Y105109D01*
X359403Y104235D01*
X358999Y103321D01*
X358681Y102372D01*
X358452Y101399D01*
X358314Y100408D01*
X358268Y99410D01*
X358314Y98410D01*
X358452Y97420D01*
X358681Y96447D01*
X358999Y95498D01*
X359403Y94584D01*
X359889Y93710D01*
X360455Y92885D01*
X361093Y92115D01*
X361801Y91408D01*
X362570Y90769D01*
X363395Y90204D01*
X364269Y89718D01*
X365183Y89314D01*
X366132Y88996D01*
X367105Y88767D01*
X368095Y88629D01*
X369094Y88583D01*
X370093Y88629D01*
X371084Y88767D01*
X372057Y88996D01*
X373006Y89314D01*
X373920Y89718D01*
X374794Y90204D01*
X375619Y90769D01*
X376388Y91408D01*
X377096Y92115D01*
X377734Y92885D01*
X378300Y93710D01*
X378786Y94584D01*
X379190Y95498D01*
X379508Y96447D01*
X379737Y97420D01*
X379875Y98410D01*
X379921Y99410D01*
X218504Y102362D02*
X218488Y103361D01*
X218441Y104360D01*
X218361Y105356D01*
X218250Y106349D01*
X218108Y107339D01*
X217935Y108323D01*
X217730Y109301D01*
X217494Y110272D01*
X217228Y111236D01*
X216931Y112190D01*
X216604Y113135D01*
X216248Y114068D01*
X215862Y114990D01*
X215446Y115899D01*
X215003Y116795D01*
X214531Y117675D01*
X214031Y118541D01*
X213504Y119390D01*
X212950Y120222D01*
X212371Y121037D01*
X211765Y121832D01*
X211135Y122608D01*
X210481Y123363D01*
X209803Y124097D01*
X209102Y124809D01*
X208378Y125499D01*
X207633Y126165D01*
X206868Y126808D01*
X206082Y127426D01*
X205277Y128018D01*
X204454Y128585D01*
X203613Y129125D01*
X202756Y129639D01*
X201883Y130124D01*
X200994Y130582D01*
X200092Y131012D01*
X199176Y131413D01*
X198248Y131784D01*
X197309Y132126D01*
X196360Y132438D01*
X195401Y132720D01*
X194433Y132970D01*
X193458Y133191D01*
X192477Y133380D01*
X191490Y133538D01*
X190499Y133664D01*
X189504Y133759D01*
X188506Y133823D01*
X187508Y133854D01*
X186508D01*
X185509Y133823D01*
X184512Y133759D01*
X183517Y133664D01*
X182526Y133538D01*
X181539Y133380D01*
X180557Y133191D01*
X179582Y132970D01*
X178615Y132720D01*
X177656Y132438D01*
X176707Y132126D01*
X175767Y131784D01*
X174839Y131413D01*
X173924Y131012D01*
X173021Y130582D01*
X172133Y130124D01*
X171260Y129639D01*
X170402Y129125D01*
X169562Y128585D01*
X168738Y128018D01*
X167933Y127426D01*
X167148Y126808D01*
X166382Y126165D01*
X165638Y125499D01*
X164914Y124809D01*
X164213Y124097D01*
X163535Y123363D01*
X162881Y122608D01*
X162250Y121832D01*
X161645Y121037D01*
X161065Y120222D01*
X160512Y119390D01*
X159985Y118541D01*
X159485Y117675D01*
X159013Y116795D01*
X158569Y115899D01*
X158154Y114990D01*
X157768Y114068D01*
X157411Y113135D01*
X157084Y112190D01*
X156788Y111236D01*
X156521Y110272D01*
X156286Y109301D01*
X156081Y108323D01*
X155907Y107339D01*
X155765Y106350D01*
X155654Y105356D01*
X155575Y104360D01*
X155528Y103362D01*
X155512Y102362D01*
X155528Y101363D01*
X155575Y100365D01*
X155654Y99368D01*
X155765Y98375D01*
X155907Y97386D01*
X156081Y96402D01*
X156286Y95423D01*
X156521Y94452D01*
X156788Y93489D01*
X157084Y92535D01*
X157411Y91590D01*
X157768Y90656D01*
X158154Y89735D01*
X158569Y88826D01*
X159013Y87930D01*
X159485Y87049D01*
X159985Y86184D01*
X160512Y85334D01*
X161065Y84502D01*
X161645Y83688D01*
X162250Y82893D01*
X162880Y82117D01*
X163535Y81362D01*
X164213Y80628D01*
X164914Y79915D01*
X165637Y79226D01*
X166382Y78559D01*
X167148Y77917D01*
X167933Y77299D01*
X168738Y76706D01*
X169561Y76140D01*
X170402Y75599D01*
X171260Y75086D01*
X172133Y74600D01*
X173021Y74142D01*
X173924Y73712D01*
X174839Y73312D01*
X175767Y72940D01*
X176706Y72598D01*
X177656Y72287D01*
X178615Y72005D01*
X179582Y71754D01*
X180557Y71534D01*
X181538Y71345D01*
X182525Y71187D01*
X183517Y71060D01*
X184512Y70965D01*
X185509Y70902D01*
X186508Y70870D01*
X187507Y70870D01*
X188506Y70902D01*
X189504Y70965D01*
X190499Y71060D01*
X191490Y71187D01*
X192477Y71345D01*
X193458Y71534D01*
X194433Y71754D01*
X195401Y72005D01*
X196359Y72286D01*
X197309Y72598D01*
X198248Y72940D01*
X199176Y73312D01*
X200092Y73712D01*
X200994Y74142D01*
X201882Y74600D01*
X202756Y75086D01*
X203613Y75599D01*
X204454Y76139D01*
X205277Y76706D01*
X206082Y77299D01*
X206868Y77917D01*
X207633Y78559D01*
X208378Y79225D01*
X209101Y79915D01*
X209802Y80627D01*
X210480Y81361D01*
X211135Y82117D01*
X211765Y82892D01*
X212370Y83688D01*
X212950Y84502D01*
X213504Y85334D01*
X214031Y86183D01*
X214530Y87049D01*
X215002Y87930D01*
X215446Y88825D01*
X215862Y89734D01*
X216248Y90656D01*
X216604Y91590D01*
X216931Y92534D01*
X217228Y93488D01*
X217494Y94452D01*
X217730Y95423D01*
X217935Y96401D01*
X218108Y97386D01*
X218250Y98375D01*
X218361Y99368D01*
X218441Y100364D01*
X218488Y101363D01*
X218504Y102362D01*
X379921Y71850D02*
X379875Y72849D01*
X379737Y73840D01*
X379508Y74813D01*
X379190Y75761D01*
X378786Y76676D01*
X378300Y77550D01*
X377734Y78375D01*
X377096Y79144D01*
X376388Y79852D01*
X375619Y80490D01*
X374794Y81055D01*
X373920Y81542D01*
X373006Y81946D01*
X372057Y82264D01*
X371084Y82493D01*
X370093Y82631D01*
X369094Y82677D01*
X368095Y82631D01*
X367105Y82493D01*
X366132Y82264D01*
X365183Y81946D01*
X364269Y81542D01*
X363395Y81055D01*
X362570Y80490D01*
X361801Y79852D01*
X361093Y79144D01*
X360455Y78375D01*
X359889Y77550D01*
X359403Y76676D01*
X358999Y75761D01*
X358681Y74813D01*
X358452Y73840D01*
X358314Y72849D01*
X358268Y71850D01*
X358314Y70851D01*
X358452Y69861D01*
X358681Y68888D01*
X358999Y67939D01*
X359403Y67024D01*
X359889Y66151D01*
X360455Y65326D01*
X361093Y64556D01*
X361801Y63849D01*
X362570Y63210D01*
X363395Y62645D01*
X364269Y62159D01*
X365183Y61755D01*
X366132Y61437D01*
X367105Y61208D01*
X368095Y61070D01*
X369094Y61024D01*
X370093Y61070D01*
X371084Y61208D01*
X372057Y61437D01*
X373006Y61755D01*
X373920Y62159D01*
X374794Y62645D01*
X375619Y63210D01*
X376388Y63849D01*
X377096Y64556D01*
X377734Y65326D01*
X378300Y66151D01*
X378786Y67024D01*
X379190Y67939D01*
X379508Y68888D01*
X379737Y69861D01*
X379875Y70851D01*
X379921Y71850D01*
X277559D02*
X277513Y72849D01*
X277375Y73840D01*
X277146Y74813D01*
X276828Y75761D01*
X276424Y76676D01*
X275937Y77550D01*
X275372Y78375D01*
X274733Y79144D01*
X274026Y79852D01*
X273257Y80490D01*
X272432Y81055D01*
X271558Y81542D01*
X270643Y81946D01*
X269695Y82264D01*
X268722Y82493D01*
X267731Y82631D01*
X266732Y82677D01*
X265733Y82631D01*
X264743Y82493D01*
X263769Y82264D01*
X262821Y81946D01*
X261906Y81542D01*
X261033Y81055D01*
X260208Y80490D01*
X259438Y79852D01*
X258731Y79144D01*
X258092Y78375D01*
X257527Y77550D01*
X257041Y76676D01*
X256637Y75761D01*
X256319Y74813D01*
X256090Y73840D01*
X255952Y72849D01*
X255906Y71850D01*
X255952Y70851D01*
X256090Y69861D01*
X256319Y68888D01*
X256637Y67939D01*
X257041Y67024D01*
X257527Y66151D01*
X258092Y65326D01*
X258731Y64556D01*
X259438Y63849D01*
X260208Y63210D01*
X261033Y62645D01*
X261906Y62159D01*
X262821Y61755D01*
X263769Y61437D01*
X264743Y61208D01*
X265733Y61070D01*
X266732Y61024D01*
X267731Y61070D01*
X268722Y61208D01*
X269695Y61437D01*
X270643Y61755D01*
X271558Y62159D01*
X272432Y62645D01*
X273257Y63210D01*
X274026Y63849D01*
X274733Y64556D01*
X275372Y65326D01*
X275937Y66151D01*
X276424Y67024D01*
X276828Y67939D01*
X277146Y68888D01*
X277375Y69861D01*
X277513Y70851D01*
X277559Y71850D01*
Y99410D02*
X277513Y100408D01*
X277375Y101399D01*
X277146Y102372D01*
X276828Y103321D01*
X276424Y104235D01*
X275937Y105109D01*
X275372Y105934D01*
X274733Y106703D01*
X274026Y107411D01*
X273257Y108049D01*
X272432Y108615D01*
X271558Y109101D01*
X270643Y109505D01*
X269695Y109823D01*
X268722Y110052D01*
X267731Y110190D01*
X266732Y110236D01*
X265733Y110190D01*
X264743Y110052D01*
X263769Y109823D01*
X262821Y109505D01*
X261906Y109101D01*
X261033Y108615D01*
X260208Y108049D01*
X259438Y107411D01*
X258731Y106703D01*
X258092Y105934D01*
X257527Y105109D01*
X257041Y104235D01*
X256637Y103321D01*
X256319Y102372D01*
X256090Y101399D01*
X255952Y100408D01*
X255906Y99410D01*
X255952Y98410D01*
X256090Y97420D01*
X256319Y96447D01*
X256637Y95498D01*
X257041Y94584D01*
X257527Y93710D01*
X258092Y92885D01*
X258731Y92115D01*
X259438Y91408D01*
X260208Y90769D01*
X261033Y90204D01*
X261906Y89718D01*
X262821Y89314D01*
X263769Y88996D01*
X264743Y88767D01*
X265733Y88629D01*
X266732Y88583D01*
X267731Y88629D01*
X268722Y88767D01*
X269695Y88996D01*
X270643Y89314D01*
X271558Y89718D01*
X272432Y90204D01*
X273257Y90769D01*
X274026Y91408D01*
X274733Y92115D01*
X275372Y92885D01*
X275937Y93710D01*
X276424Y94584D01*
X276828Y95498D01*
X277146Y96447D01*
X277375Y97420D01*
X277513Y98410D01*
X277559Y99410D01*
X352362Y71850D02*
X352316Y72849D01*
X352178Y73840D01*
X351949Y74813D01*
X351631Y75761D01*
X351227Y76676D01*
X350741Y77550D01*
X350175Y78375D01*
X349536Y79144D01*
X348829Y79852D01*
X348060Y80490D01*
X347235Y81055D01*
X346361Y81542D01*
X345446Y81946D01*
X344498Y82264D01*
X343525Y82493D01*
X342534Y82631D01*
X341535Y82677D01*
X340536Y82631D01*
X339546Y82493D01*
X338573Y82264D01*
X337624Y81946D01*
X336709Y81542D01*
X335836Y81055D01*
X335011Y80490D01*
X334242Y79852D01*
X333534Y79144D01*
X332895Y78375D01*
X332330Y77550D01*
X331844Y76676D01*
X331440Y75761D01*
X331122Y74813D01*
X330893Y73840D01*
X330755Y72849D01*
X330709Y71850D01*
X330755Y70851D01*
X330893Y69861D01*
X331122Y68888D01*
X331440Y67939D01*
X331844Y67024D01*
X332330Y66151D01*
X332895Y65326D01*
X333534Y64556D01*
X334242Y63849D01*
X335011Y63210D01*
X335836Y62645D01*
X336709Y62159D01*
X337624Y61755D01*
X338573Y61437D01*
X339546Y61208D01*
X340536Y61070D01*
X341535Y61024D01*
X342534Y61070D01*
X343525Y61208D01*
X344498Y61437D01*
X345446Y61755D01*
X346361Y62159D01*
X347235Y62645D01*
X348060Y63210D01*
X348829Y63849D01*
X349536Y64556D01*
X350175Y65326D01*
X350741Y66151D01*
X351227Y67024D01*
X351631Y67939D01*
X351949Y68888D01*
X352178Y69861D01*
X352316Y70851D01*
X352362Y71850D01*
D15*
X72559Y161142D02*
Y371142D01*
Y161142D02*
X162559D01*
Y371142D01*
X72559D02*
X162559D01*
X102231Y361142D02*
Y381142D01*
Y361142D02*
X132559D01*
Y381142D01*
X102231D02*
X132559D01*
X358573Y318721D02*
Y322835D01*
X360630Y320778D02*
X356517D01*
D16*
X313484Y211364D02*
X322342D01*
X313484Y231549D02*
X322342D01*
D17*
X373970Y112081D02*
Y116080D01*
Y114081D01*
X379967D01*
Y118079D02*
X373970D01*
Y121078D01*
X374969Y122078D01*
X376969D01*
X377968Y121078D01*
Y118079D01*
X373970Y124077D02*
Y128076D01*
X374969D01*
X378968Y124077D01*
X379967D01*
X372001Y179995D02*
Y183993D01*
Y181994D01*
X377999D01*
Y185993D02*
X372001D01*
Y188992D01*
X373001Y189991D01*
X375000D01*
X376000Y188992D01*
Y185993D01*
X373001Y191991D02*
X372001Y192991D01*
Y194990D01*
X373001Y195990D01*
X374000D01*
X375000Y194990D01*
X376000Y195990D01*
X376999D01*
X377999Y194990D01*
Y192991D01*
X376999Y191991D01*
X376000D01*
X375000Y192991D01*
X374000Y191991D01*
X373001D01*
X375000Y192991D02*
Y194990D01*
X73290Y390483D02*
Y385485D01*
X74290Y384485D01*
X76290D01*
X77289Y385485D01*
Y390483D01*
X83287D02*
X81288Y389483D01*
X79289Y387484D01*
Y385485D01*
X80288Y384485D01*
X82288D01*
X83287Y385485D01*
Y386484D01*
X82288Y387484D01*
X79289D01*
X370017Y338614D02*
X369017Y339613D01*
X367018D01*
X366018Y338614D01*
Y334615D01*
X367018Y333615D01*
X369017D01*
X370017Y334615D01*
X376015Y333615D02*
X372016D01*
X376015Y337614D01*
Y338614D01*
X375015Y339613D01*
X373016D01*
X372016Y338614D01*
X381013Y333615D02*
Y339613D01*
X378014Y336614D01*
X382013D01*
X249473Y120048D02*
Y124047D01*
X248473Y125046D01*
X246474D01*
X245474Y124047D01*
Y120048D01*
X246474Y119048D01*
X248473D01*
X247474Y121048D02*
X249473Y119048D01*
X248473D02*
X249473Y120048D01*
X255471Y125046D02*
X251472D01*
Y122047D01*
X253471Y123047D01*
X254471D01*
X255471Y122047D01*
Y120048D01*
X254471Y119048D01*
X252472D01*
X251472Y120048D01*
X284449Y119064D02*
Y123062D01*
X283449Y124062D01*
X281450D01*
X280450Y123062D01*
Y119064D01*
X281450Y118064D01*
X283449D01*
X282450Y120063D02*
X284449Y118064D01*
X283449D02*
X284449Y119064D01*
X286448Y118064D02*
X288447D01*
X287448D01*
Y124062D01*
X286448Y123062D01*
X195743Y289324D02*
Y295322D01*
X198742D01*
X199741Y294322D01*
Y292323D01*
X198742Y291323D01*
X195743D01*
X197742D02*
X199741Y289324D01*
X205739Y295322D02*
X201741D01*
Y292323D01*
X203740Y293322D01*
X204740D01*
X205739Y292323D01*
Y290323D01*
X204740Y289324D01*
X202741D01*
X201741Y290323D01*
X207739Y294322D02*
X208738Y295322D01*
X210738D01*
X211738Y294322D01*
Y290323D01*
X210738Y289324D01*
X208738D01*
X207739Y290323D01*
Y294322D01*
X214490Y326818D02*
Y321819D01*
X215490Y320820D01*
X217489D01*
X218489Y321819D01*
Y326818D01*
X223487Y320820D02*
Y326818D01*
X220488Y323819D01*
X224487D01*
X312915Y244141D02*
Y239142D01*
X313915Y238143D01*
X315914D01*
X316914Y239142D01*
Y244141D01*
X322912Y238143D02*
X318913D01*
X322912Y242141D01*
Y243141D01*
X321912Y244141D01*
X319913D01*
X318913Y243141D01*
X270716Y123109D02*
X264718D01*
Y120110D01*
X265717Y119110D01*
X269716D01*
X270716Y120110D01*
Y123109D01*
X264718Y113112D02*
Y117111D01*
X268716Y113112D01*
X269716D01*
X270716Y114111D01*
Y116111D01*
X269716Y117111D01*
X302212Y122109D02*
X296214D01*
Y119110D01*
X297213Y118110D01*
X301212D01*
X302212Y119110D01*
Y122109D01*
X296214Y116111D02*
Y114111D01*
Y115111D01*
X302212D01*
X301212Y116111D01*
X252422Y377314D02*
X251422Y378314D01*
X249423D01*
X248423Y377314D01*
Y373316D01*
X249423Y372316D01*
X251422D01*
X252422Y373316D01*
X254421Y372316D02*
X256421D01*
X255421D01*
Y378314D01*
X254421Y377314D01*
X259420Y372316D02*
X261419D01*
X260420D01*
Y378314D01*
X259420Y377314D01*
X300181Y310070D02*
X299182Y311070D01*
X297182D01*
X296183Y310070D01*
Y306071D01*
X297182Y305072D01*
X299182D01*
X300181Y306071D01*
X302181D02*
X303181Y305072D01*
X305180D01*
X306179Y306071D01*
Y310070D01*
X305180Y311070D01*
X303181D01*
X302181Y310070D01*
Y309071D01*
X303181Y308071D01*
X306179D01*
X301166Y294637D02*
X300166Y295637D01*
X298167D01*
X297167Y294637D01*
Y290638D01*
X298167Y289639D01*
X300166D01*
X301166Y290638D01*
X303165Y294637D02*
X304165Y295637D01*
X306164D01*
X307164Y294637D01*
Y293637D01*
X306164Y292638D01*
X307164Y291638D01*
Y290638D01*
X306164Y289639D01*
X304165D01*
X303165Y290638D01*
Y291638D01*
X304165Y292638D01*
X303165Y293637D01*
Y294637D01*
X304165Y292638D02*
X306164D01*
X238112Y208708D02*
Y203709D01*
X239111Y202710D01*
X241111D01*
X242111Y203709D01*
Y208708D01*
X248109D02*
X244110D01*
Y205709D01*
X246109Y206708D01*
X247109D01*
X248109Y205709D01*
Y203709D01*
X247109Y202710D01*
X245110D01*
X244110Y203709D01*
X308978Y354377D02*
Y349379D01*
X309978Y348379D01*
X311977D01*
X312977Y349379D01*
Y354377D01*
X314976Y353377D02*
X315976Y354377D01*
X317975D01*
X318975Y353377D01*
Y352378D01*
X317975Y351378D01*
X316975D01*
X317975D01*
X318975Y350378D01*
Y349379D01*
X317975Y348379D01*
X315976D01*
X314976Y349379D01*
X295214Y109298D02*
Y104300D01*
X296214Y103300D01*
X298213D01*
X299213Y104300D01*
Y109298D01*
X301212Y103300D02*
X303211D01*
X302212D01*
Y109298D01*
X301212Y108299D01*
X231176Y255952D02*
X235174D01*
X233175D01*
Y249954D01*
X237174D02*
Y255952D01*
X240173D01*
X241173Y254952D01*
Y252953D01*
X240173Y251953D01*
X237174D01*
X247171Y255952D02*
X245171Y254952D01*
X243172Y252953D01*
Y250953D01*
X244172Y249954D01*
X246171D01*
X247171Y250953D01*
Y251953D01*
X246171Y252953D01*
X243172D01*
X337475Y358314D02*
X341474D01*
X339474D01*
Y352316D01*
X343473D02*
Y358314D01*
X346472D01*
X347472Y357314D01*
Y355315D01*
X346472Y354315D01*
X343473D01*
X353470Y358314D02*
X349471D01*
Y355315D01*
X351470Y356315D01*
X352470D01*
X353470Y355315D01*
Y353316D01*
X352470Y352316D01*
X350471D01*
X349471Y353316D01*
X211491Y350440D02*
X215490D01*
X213490D01*
Y344442D01*
X217489D02*
Y350440D01*
X220488D01*
X221488Y349440D01*
Y347441D01*
X220488Y346441D01*
X217489D01*
X226486Y344442D02*
Y350440D01*
X223487Y347441D01*
X227486D01*
X211491Y256267D02*
X215490D01*
X213490D01*
Y250269D01*
X217489D02*
Y256267D01*
X220488D01*
X221488Y255267D01*
Y253268D01*
X220488Y252268D01*
X217489D01*
X223487Y255267D02*
X224487Y256267D01*
X226486D01*
X227486Y255267D01*
Y254267D01*
X226486Y253268D01*
X225486D01*
X226486D01*
X227486Y252268D01*
Y251268D01*
X226486Y250269D01*
X224487D01*
X223487Y251268D01*
X290231Y255952D02*
X294230D01*
X292230D01*
Y249954D01*
X296229D02*
Y255952D01*
X299228D01*
X300228Y254952D01*
Y252953D01*
X299228Y251953D01*
X296229D01*
X306226Y249954D02*
X302227D01*
X306226Y253952D01*
Y254952D01*
X305226Y255952D01*
X303227D01*
X302227Y254952D01*
X326664Y256267D02*
X330662D01*
X328663D01*
Y250269D01*
X332662D02*
Y256267D01*
X335661D01*
X336661Y255267D01*
Y253268D01*
X335661Y252268D01*
X332662D01*
X338660Y250269D02*
X340659D01*
X339660D01*
Y256267D01*
X338660Y255267D01*
X217458Y37432D02*
X216458Y38432D01*
X214459D01*
X213459Y37432D01*
Y36433D01*
X214459Y35433D01*
X216458D01*
X217458Y34433D01*
Y33434D01*
X216458Y32434D01*
X214459D01*
X213459Y33434D01*
X219457Y38432D02*
Y32434D01*
X221457Y34433D01*
X223456Y32434D01*
Y38432D01*
X228454Y32434D02*
Y38432D01*
X225455Y35433D01*
X229454D01*
X145608Y36448D02*
X144608Y37448D01*
X142609D01*
X141609Y36448D01*
Y35449D01*
X142609Y34449D01*
X144608D01*
X145608Y33449D01*
Y32449D01*
X144608Y31450D01*
X142609D01*
X141609Y32449D01*
X147607Y37448D02*
Y31450D01*
X149606Y33449D01*
X151606Y31450D01*
Y37448D01*
X153605Y36448D02*
X154605Y37448D01*
X156604D01*
X157604Y36448D01*
Y35449D01*
X156604Y34449D01*
X155604D01*
X156604D01*
X157604Y33449D01*
Y32449D01*
X156604Y31450D01*
X154605D01*
X153605Y32449D01*
X74742Y36448D02*
X73742Y37448D01*
X71742D01*
X70743Y36448D01*
Y35449D01*
X71742Y34449D01*
X73742D01*
X74742Y33449D01*
Y32449D01*
X73742Y31450D01*
X71742D01*
X70743Y32449D01*
X76741Y37448D02*
Y31450D01*
X78740Y33449D01*
X80739Y31450D01*
Y37448D01*
X86738Y31450D02*
X82739D01*
X86738Y35449D01*
Y36448D01*
X85738Y37448D01*
X83738D01*
X82739Y36448D01*
X71804Y139795D02*
X70804Y140794D01*
X68805D01*
X67805Y139795D01*
Y138795D01*
X68805Y137795D01*
X70804D01*
X71804Y136796D01*
Y135796D01*
X70804Y134796D01*
X68805D01*
X67805Y135796D01*
X73804Y140794D02*
Y134796D01*
X75803Y136796D01*
X77802Y134796D01*
Y140794D01*
X79801Y134796D02*
X81801D01*
X80801D01*
Y140794D01*
X79801Y139795D01*
X26451Y338536D02*
Y344534D01*
X29450D01*
X30450Y343535D01*
Y341535D01*
X29450Y340536D01*
X26451D01*
X28451D02*
X30450Y338536D01*
X35449D02*
Y344534D01*
X32449Y341535D01*
X36448D01*
X38447Y339536D02*
X39447Y338536D01*
X41447D01*
X42446Y339536D01*
Y343535D01*
X41447Y344534D01*
X39447D01*
X38447Y343535D01*
Y342535D01*
X39447Y341535D01*
X42446D01*
X26451Y350347D02*
Y356346D01*
X29450D01*
X30450Y355346D01*
Y353346D01*
X29450Y352347D01*
X26451D01*
X28451D02*
X30450Y350347D01*
X35449D02*
Y356346D01*
X32449Y353346D01*
X36448D01*
X38447Y355346D02*
X39447Y356346D01*
X41447D01*
X42446Y355346D01*
Y354346D01*
X41447Y353346D01*
X42446Y352347D01*
Y351347D01*
X41447Y350347D01*
X39447D01*
X38447Y351347D01*
Y352347D01*
X39447Y353346D01*
X38447Y354346D01*
Y355346D01*
X39447Y353346D02*
X41447D01*
X25467Y173182D02*
Y179180D01*
X28466D01*
X29466Y178180D01*
Y176181D01*
X28466Y175181D01*
X25467D01*
X27466D02*
X29466Y173182D01*
X34464D02*
Y179180D01*
X31465Y176181D01*
X35464D01*
X37463Y179180D02*
X41462D01*
Y178180D01*
X37463Y174182D01*
Y173182D01*
X25467Y196804D02*
Y202802D01*
X28466D01*
X29466Y201802D01*
Y199803D01*
X28466Y198803D01*
X25467D01*
X27466D02*
X29466Y196804D01*
X34464D02*
Y202802D01*
X31465Y199803D01*
X35464D01*
X41462Y202802D02*
X39463Y201802D01*
X37463Y199803D01*
Y197804D01*
X38463Y196804D01*
X40462D01*
X41462Y197804D01*
Y198803D01*
X40462Y199803D01*
X37463D01*
X25467Y220426D02*
Y226424D01*
X28466D01*
X29466Y225425D01*
Y223425D01*
X28466Y222426D01*
X25467D01*
X27466D02*
X29466Y220426D01*
X34464D02*
Y226424D01*
X31465Y223425D01*
X35464D01*
X41462Y226424D02*
X37463D01*
Y223425D01*
X39463Y224425D01*
X40462D01*
X41462Y223425D01*
Y221426D01*
X40462Y220426D01*
X38463D01*
X37463Y221426D01*
X25467Y244048D02*
Y250046D01*
X28466D01*
X29466Y249047D01*
Y247047D01*
X28466Y246048D01*
X25467D01*
X27466D02*
X29466Y244048D01*
X34464D02*
Y250046D01*
X31465Y247047D01*
X35464D01*
X40462Y244048D02*
Y250046D01*
X37463Y247047D01*
X41462D01*
X25121Y268016D02*
Y274014D01*
X28120D01*
X29120Y273015D01*
Y271015D01*
X28120Y270016D01*
X25121D01*
X27121D02*
X29120Y268016D01*
X34118D02*
Y274014D01*
X31119Y271015D01*
X35118D01*
X37117Y273015D02*
X38117Y274014D01*
X40116D01*
X41116Y273015D01*
Y272015D01*
X40116Y271015D01*
X39117D01*
X40116D01*
X41116Y270016D01*
Y269016D01*
X40116Y268016D01*
X38117D01*
X37117Y269016D01*
X25467Y291292D02*
Y297290D01*
X28466D01*
X29466Y296291D01*
Y294291D01*
X28466Y293292D01*
X25467D01*
X27466D02*
X29466Y291292D01*
X34464D02*
Y297290D01*
X31465Y294291D01*
X35464D01*
X41462Y291292D02*
X37463D01*
X41462Y295291D01*
Y296291D01*
X40462Y297290D01*
X38463D01*
X37463Y296291D01*
X26467Y314914D02*
Y320912D01*
X29466D01*
X30465Y319913D01*
Y317913D01*
X29466Y316914D01*
X26467D01*
X28466D02*
X30465Y314914D01*
X35464D02*
Y320912D01*
X32465Y317913D01*
X36464D01*
X38463Y314914D02*
X40462D01*
X39463D01*
Y320912D01*
X38463Y319913D01*
X25467Y184993D02*
Y190991D01*
X28466D01*
X29466Y189991D01*
Y187992D01*
X28466Y186992D01*
X25467D01*
X27466D02*
X29466Y184993D01*
X34464D02*
Y190991D01*
X31465Y187992D01*
X35464D01*
X37463Y189991D02*
X38463Y190991D01*
X40462D01*
X41462Y189991D01*
Y185993D01*
X40462Y184993D01*
X38463D01*
X37463Y185993D01*
Y189991D01*
X26159Y208615D02*
Y214613D01*
X29158D01*
X30158Y213614D01*
Y211614D01*
X29158Y210614D01*
X26159D01*
X28158D02*
X30158Y208615D01*
X32157Y213614D02*
X33157Y214613D01*
X35156D01*
X36156Y213614D01*
Y212614D01*
X35156Y211614D01*
X34156D01*
X35156D01*
X36156Y210614D01*
Y209615D01*
X35156Y208615D01*
X33157D01*
X32157Y209615D01*
X38155D02*
X39155Y208615D01*
X41154D01*
X42154Y209615D01*
Y213614D01*
X41154Y214613D01*
X39155D01*
X38155Y213614D01*
Y212614D01*
X39155Y211614D01*
X42154D01*
X25467Y232237D02*
Y238235D01*
X28466D01*
X29466Y237236D01*
Y235236D01*
X28466Y234237D01*
X25467D01*
X27466D02*
X29466Y232237D01*
X31465Y237236D02*
X32465Y238235D01*
X34464D01*
X35464Y237236D01*
Y236236D01*
X34464Y235236D01*
X33465D01*
X34464D01*
X35464Y234237D01*
Y233237D01*
X34464Y232237D01*
X32465D01*
X31465Y233237D01*
X37463Y237236D02*
X38463Y238235D01*
X40462D01*
X41462Y237236D01*
Y236236D01*
X40462Y235236D01*
X41462Y234237D01*
Y233237D01*
X40462Y232237D01*
X38463D01*
X37463Y233237D01*
Y234237D01*
X38463Y235236D01*
X37463Y236236D01*
Y237236D01*
X38463Y235236D02*
X40462D01*
X25467Y255859D02*
Y261857D01*
X28466D01*
X29466Y260858D01*
Y258858D01*
X28466Y257859D01*
X25467D01*
X27466D02*
X29466Y255859D01*
X31465Y260858D02*
X32465Y261857D01*
X34464D01*
X35464Y260858D01*
Y259858D01*
X34464Y258858D01*
X33465D01*
X34464D01*
X35464Y257859D01*
Y256859D01*
X34464Y255859D01*
X32465D01*
X31465Y256859D01*
X37463Y261857D02*
X41462D01*
Y260858D01*
X37463Y256859D01*
Y255859D01*
X25467Y279481D02*
Y285479D01*
X28466D01*
X29466Y284480D01*
Y282480D01*
X28466Y281481D01*
X25467D01*
X27466D02*
X29466Y279481D01*
X31465Y284480D02*
X32465Y285479D01*
X34464D01*
X35464Y284480D01*
Y283480D01*
X34464Y282480D01*
X33465D01*
X34464D01*
X35464Y281481D01*
Y280481D01*
X34464Y279481D01*
X32465D01*
X31465Y280481D01*
X41462Y285479D02*
X39463Y284480D01*
X37463Y282480D01*
Y280481D01*
X38463Y279481D01*
X40462D01*
X41462Y280481D01*
Y281481D01*
X40462Y282480D01*
X37463D01*
X25813Y303449D02*
Y309447D01*
X28812D01*
X29812Y308448D01*
Y306448D01*
X28812Y305449D01*
X25813D01*
X27812D02*
X29812Y303449D01*
X31811Y308448D02*
X32811Y309447D01*
X34810D01*
X35810Y308448D01*
Y307448D01*
X34810Y306448D01*
X33810D01*
X34810D01*
X35810Y305449D01*
Y304449D01*
X34810Y303449D01*
X32811D01*
X31811Y304449D01*
X41808Y309447D02*
X37809D01*
Y306448D01*
X39809Y307448D01*
X40808D01*
X41808Y306448D01*
Y304449D01*
X40808Y303449D01*
X38809D01*
X37809Y304449D01*
X26451Y326725D02*
Y332723D01*
X29450D01*
X30450Y331724D01*
Y329724D01*
X29450Y328725D01*
X26451D01*
X28451D02*
X30450Y326725D01*
X32449Y331724D02*
X33449Y332723D01*
X35449D01*
X36448Y331724D01*
Y330724D01*
X35449Y329724D01*
X34449D01*
X35449D01*
X36448Y328725D01*
Y327725D01*
X35449Y326725D01*
X33449D01*
X32449Y327725D01*
X41447Y326725D02*
Y332723D01*
X38447Y329724D01*
X42446D01*
X114050Y83615D02*
Y89613D01*
X117049D01*
X118049Y88613D01*
Y86614D01*
X117049Y85615D01*
X114050D01*
X116049D02*
X118049Y83615D01*
X120048Y88613D02*
X121048Y89613D01*
X123047D01*
X124047Y88613D01*
Y87614D01*
X123047Y86614D01*
X122047D01*
X123047D01*
X124047Y85615D01*
Y84615D01*
X123047Y83615D01*
X121048D01*
X120048Y84615D01*
X126046Y88613D02*
X127046Y89613D01*
X129045D01*
X130045Y88613D01*
Y87614D01*
X129045Y86614D01*
X128045D01*
X129045D01*
X130045Y85615D01*
Y84615D01*
X129045Y83615D01*
X127046D01*
X126046Y84615D01*
X114050Y75741D02*
Y81739D01*
X117049D01*
X118049Y80739D01*
Y78740D01*
X117049Y77741D01*
X114050D01*
X116049D02*
X118049Y75741D01*
X120048Y80739D02*
X121048Y81739D01*
X123047D01*
X124047Y80739D01*
Y79740D01*
X123047Y78740D01*
X122047D01*
X123047D01*
X124047Y77741D01*
Y76741D01*
X123047Y75741D01*
X121048D01*
X120048Y76741D01*
X130045Y75741D02*
X126046D01*
X130045Y79740D01*
Y80739D01*
X129045Y81739D01*
X127046D01*
X126046Y80739D01*
X74990Y91489D02*
Y97487D01*
X77989D01*
X78989Y96487D01*
Y94488D01*
X77989Y93489D01*
X74990D01*
X76990D02*
X78989Y91489D01*
X80988Y96487D02*
X81988Y97487D01*
X83987D01*
X84987Y96487D01*
Y95488D01*
X83987Y94488D01*
X82988D01*
X83987D01*
X84987Y93489D01*
Y92489D01*
X83987Y91489D01*
X81988D01*
X80988Y92489D01*
X86987Y91489D02*
X88986D01*
X87986D01*
Y97487D01*
X86987Y96487D01*
X134889Y96038D02*
X128891D01*
Y99037D01*
X129890Y100037D01*
X131890D01*
X132889Y99037D01*
Y96038D01*
Y98037D02*
X134889Y100037D01*
X129890Y102036D02*
X128891Y103036D01*
Y105035D01*
X129890Y106035D01*
X130890D01*
X131890Y105035D01*
Y104035D01*
Y105035D01*
X132889Y106035D01*
X133889D01*
X134889Y105035D01*
Y103036D01*
X133889Y102036D01*
X129890Y108034D02*
X128891Y109034D01*
Y111033D01*
X129890Y112033D01*
X133889D01*
X134889Y111033D01*
Y109034D01*
X133889Y108034D01*
X129890D01*
X74680Y75741D02*
Y81739D01*
X77679D01*
X78679Y80739D01*
Y78740D01*
X77679Y77741D01*
X74680D01*
X76679D02*
X78679Y75741D01*
X84676D02*
X80678D01*
X84676Y79740D01*
Y80739D01*
X83677Y81739D01*
X81678D01*
X80678Y80739D01*
X86676Y76741D02*
X87676Y75741D01*
X89675D01*
X90675Y76741D01*
Y80739D01*
X89675Y81739D01*
X87676D01*
X86676Y80739D01*
Y79740D01*
X87676Y78740D01*
X90675D01*
X74680Y83615D02*
Y89613D01*
X77679D01*
X78679Y88613D01*
Y86614D01*
X77679Y85615D01*
X74680D01*
X76679D02*
X78679Y83615D01*
X84676D02*
X80678D01*
X84676Y87614D01*
Y88613D01*
X83677Y89613D01*
X81678D01*
X80678Y88613D01*
X86676D02*
X87676Y89613D01*
X89675D01*
X90675Y88613D01*
Y87614D01*
X89675Y86614D01*
X90675Y85615D01*
Y84615D01*
X89675Y83615D01*
X87676D01*
X86676Y84615D01*
Y85615D01*
X87676Y86614D01*
X86676Y87614D01*
Y88613D01*
X87676Y86614D02*
X89675D01*
X375861Y245033D02*
Y251030D01*
X378860D01*
X379860Y250031D01*
Y248031D01*
X378860Y247032D01*
X375861D01*
X377860D02*
X379860Y245033D01*
X385858D02*
X381859D01*
X385858Y249031D01*
Y250031D01*
X384858Y251030D01*
X382859D01*
X381859Y250031D01*
X387857Y251030D02*
X391856D01*
Y250031D01*
X387857Y246032D01*
Y245033D01*
X375861Y233221D02*
Y239219D01*
X378860D01*
X379860Y238220D01*
Y236221D01*
X378860Y235221D01*
X375861D01*
X377860D02*
X379860Y233221D01*
X385858D02*
X381859D01*
X385858Y237220D01*
Y238220D01*
X384858Y239219D01*
X382859D01*
X381859Y238220D01*
X391856Y239219D02*
X389856Y238220D01*
X387857Y236221D01*
Y234221D01*
X388857Y233221D01*
X390856D01*
X391856Y234221D01*
Y235221D01*
X390856Y236221D01*
X387857D01*
X349456Y165231D02*
X343458D01*
Y168230D01*
X344457Y169230D01*
X346457D01*
X347456Y168230D01*
Y165231D01*
Y167230D02*
X349456Y169230D01*
Y175228D02*
Y171229D01*
X345457Y175228D01*
X344457D01*
X343458Y174228D01*
Y172229D01*
X344457Y171229D01*
X349456Y180226D02*
X343458D01*
X346457Y177227D01*
Y181226D01*
X314023Y93380D02*
X308025D01*
Y96380D01*
X309024Y97379D01*
X311024D01*
X312023Y96380D01*
Y93380D01*
Y95380D02*
X314023Y97379D01*
Y103377D02*
Y99379D01*
X310024Y103377D01*
X309024D01*
X308025Y102378D01*
Y100378D01*
X309024Y99379D01*
Y105377D02*
X308025Y106376D01*
Y108376D01*
X309024Y109375D01*
X310024D01*
X311024Y108376D01*
Y107376D01*
Y108376D01*
X312023Y109375D01*
X313023D01*
X314023Y108376D01*
Y106376D01*
X313023Y105377D01*
X333708Y165231D02*
X327710D01*
Y168230D01*
X328709Y169230D01*
X330709D01*
X331708Y168230D01*
Y165231D01*
Y167230D02*
X333708Y169230D01*
Y175228D02*
Y171229D01*
X329709Y175228D01*
X328709D01*
X327710Y174228D01*
Y172229D01*
X328709Y171229D01*
X333708Y181226D02*
Y177227D01*
X329709Y181226D01*
X328709D01*
X327710Y180226D01*
Y178227D01*
X328709Y177227D01*
X292215Y166292D02*
Y172290D01*
X295214D01*
X296214Y171291D01*
Y169291D01*
X295214Y168292D01*
X292215D01*
X294214D02*
X296214Y166292D01*
X302212D02*
X298213D01*
X302212Y170291D01*
Y171291D01*
X301212Y172290D01*
X299213D01*
X298213Y171291D01*
X304211Y166292D02*
X306210D01*
X305211D01*
Y172290D01*
X304211Y171291D01*
X375861Y256843D02*
Y262842D01*
X378860D01*
X379860Y261842D01*
Y259842D01*
X378860Y258843D01*
X375861D01*
X377860D02*
X379860Y256843D01*
X385858D02*
X381859D01*
X385858Y260842D01*
Y261842D01*
X384858Y262842D01*
X382859D01*
X381859Y261842D01*
X387857D02*
X388857Y262842D01*
X390856D01*
X391856Y261842D01*
Y257843D01*
X390856Y256843D01*
X388857D01*
X387857Y257843D01*
Y261842D01*
X376361Y268654D02*
Y274653D01*
X379360D01*
X380359Y273653D01*
Y271654D01*
X379360Y270654D01*
X376361D01*
X378360D02*
X380359Y268654D01*
X382359D02*
X384358D01*
X383358D01*
Y274653D01*
X382359Y273653D01*
X387357Y269654D02*
X388357Y268654D01*
X390356D01*
X391356Y269654D01*
Y273653D01*
X390356Y274653D01*
X388357D01*
X387357Y273653D01*
Y272653D01*
X388357Y271654D01*
X391356D01*
X227739Y273576D02*
Y279574D01*
X230738D01*
X231737Y278574D01*
Y276575D01*
X230738Y275575D01*
X227739D01*
X229738D02*
X231737Y273576D01*
X233737D02*
X235736D01*
X234736D01*
Y279574D01*
X233737Y278574D01*
X238735D02*
X239735Y279574D01*
X241734D01*
X242734Y278574D01*
Y277574D01*
X241734Y276575D01*
X242734Y275575D01*
Y274575D01*
X241734Y273576D01*
X239735D01*
X238735Y274575D01*
Y275575D01*
X239735Y276575D01*
X238735Y277574D01*
Y278574D01*
X239735Y276575D02*
X241734D01*
X209692Y202148D02*
X203694D01*
Y205147D01*
X204694Y206147D01*
X206693D01*
X207693Y205147D01*
Y202148D01*
Y204147D02*
X209692Y206147D01*
Y208146D02*
Y210145D01*
Y209146D01*
X203694D01*
X204694Y208146D01*
X203694Y213144D02*
Y217143D01*
X204694D01*
X208692Y213144D01*
X209692D01*
X259235Y273891D02*
Y279889D01*
X262234D01*
X263233Y278889D01*
Y276890D01*
X262234Y275890D01*
X259235D01*
X261234D02*
X263233Y273891D01*
X265233D02*
X267232D01*
X266232D01*
Y279889D01*
X265233Y278889D01*
X274230Y279889D02*
X272231Y278889D01*
X270231Y276890D01*
Y274890D01*
X271231Y273891D01*
X273230D01*
X274230Y274890D01*
Y275890D01*
X273230Y276890D01*
X270231D01*
X259235Y289639D02*
Y295637D01*
X262234D01*
X263233Y294637D01*
Y292638D01*
X262234Y291638D01*
X259235D01*
X261234D02*
X263233Y289639D01*
X265233D02*
X267232D01*
X266232D01*
Y295637D01*
X265233Y294637D01*
X274230Y295637D02*
X270231D01*
Y292638D01*
X272231Y293637D01*
X273230D01*
X274230Y292638D01*
Y290638D01*
X273230Y289639D01*
X271231D01*
X270231Y290638D01*
X234786Y166312D02*
Y172310D01*
X237785D01*
X238785Y171310D01*
Y169311D01*
X237785Y168311D01*
X234786D01*
X236785D02*
X238785Y166312D01*
X240784D02*
X242783D01*
X241784D01*
Y172310D01*
X240784Y171310D01*
X248781Y166312D02*
Y172310D01*
X245782Y169311D01*
X249781D01*
X200180Y383812D02*
Y389810D01*
X203179D01*
X204178Y388810D01*
Y386811D01*
X203179Y385811D01*
X200180D01*
X202179D02*
X204178Y383812D01*
X206178D02*
X208177D01*
X207177D01*
Y389810D01*
X206178Y388810D01*
X211176D02*
X212176Y389810D01*
X214175D01*
X215175Y388810D01*
Y387811D01*
X214175Y386811D01*
X213175D01*
X214175D01*
X215175Y385811D01*
Y384812D01*
X214175Y383812D01*
X212176D01*
X211176Y384812D01*
X259235Y305072D02*
Y311070D01*
X262234D01*
X263233Y310070D01*
Y308071D01*
X262234Y307071D01*
X259235D01*
X261234D02*
X263233Y305072D01*
X265233D02*
X267232D01*
X266232D01*
Y311070D01*
X265233Y310070D01*
X274230Y305072D02*
X270231D01*
X274230Y309071D01*
Y310070D01*
X273230Y311070D01*
X271231D01*
X270231Y310070D01*
X228738Y305072D02*
Y311070D01*
X231737D01*
X232737Y310070D01*
Y308071D01*
X231737Y307071D01*
X228738D01*
X230738D02*
X232737Y305072D01*
X234736D02*
X236736D01*
X235736D01*
Y311070D01*
X234736Y310070D01*
X239735Y305072D02*
X241734D01*
X240735D01*
Y311070D01*
X239735Y310070D01*
X196243Y305072D02*
Y311070D01*
X199242D01*
X200241Y310070D01*
Y308071D01*
X199242Y307071D01*
X196243D01*
X198242D02*
X200241Y305072D01*
X202241D02*
X204240D01*
X203240D01*
Y311070D01*
X202241Y310070D01*
X207239D02*
X208239Y311070D01*
X210238D01*
X211238Y310070D01*
Y306071D01*
X210238Y305072D01*
X208239D01*
X207239Y306071D01*
Y310070D01*
X183117Y208269D02*
X177119D01*
Y211268D01*
X178119Y212268D01*
X180118D01*
X181118Y211268D01*
Y208269D01*
Y210269D02*
X183117Y212268D01*
X182117Y214267D02*
X183117Y215267D01*
Y217266D01*
X182117Y218266D01*
X178119D01*
X177119Y217266D01*
Y215267D01*
X178119Y214267D01*
X179118D01*
X180118Y215267D01*
Y218266D01*
X230238Y289324D02*
Y295322D01*
X233237D01*
X234237Y294322D01*
Y292323D01*
X233237Y291323D01*
X230238D01*
X232237D02*
X234237Y289324D01*
X236236Y294322D02*
X237236Y295322D01*
X239235D01*
X240235Y294322D01*
Y293322D01*
X239235Y292323D01*
X240235Y291323D01*
Y290323D01*
X239235Y289324D01*
X237236D01*
X236236Y290323D01*
Y291323D01*
X237236Y292323D01*
X236236Y293322D01*
Y294322D01*
X237236Y292323D02*
X239235D01*
X277797Y383812D02*
Y389810D01*
X280796D01*
X281796Y388810D01*
Y386811D01*
X280796Y385811D01*
X277797D01*
X279796D02*
X281796Y383812D01*
X283795Y389810D02*
X287794D01*
Y388810D01*
X283795Y384812D01*
Y383812D01*
X194805Y273576D02*
Y279574D01*
X197804D01*
X198803Y278574D01*
Y276575D01*
X197804Y275575D01*
X194805D01*
X196804D02*
X198803Y273576D01*
X204802Y279574D02*
X202802Y278574D01*
X200803Y276575D01*
Y274575D01*
X201802Y273576D01*
X203802D01*
X204802Y274575D01*
Y275575D01*
X203802Y276575D01*
X200803D01*
X197881Y208269D02*
X191883D01*
Y211268D01*
X192883Y212268D01*
X194882D01*
X195882Y211268D01*
Y208269D01*
Y210269D02*
X197881Y212268D01*
X191883Y218266D02*
Y214267D01*
X194882D01*
X193882Y216267D01*
Y217266D01*
X194882Y218266D01*
X196881D01*
X197881Y217266D01*
Y215267D01*
X196881Y214267D01*
X187600Y166292D02*
Y172290D01*
X190599D01*
X191599Y171291D01*
Y169291D01*
X190599Y168292D01*
X187600D01*
X189599D02*
X191599Y166292D01*
X196597D02*
Y172290D01*
X193598Y169291D01*
X197597D01*
X285356Y329009D02*
Y335007D01*
X288355D01*
X289355Y334007D01*
Y332008D01*
X288355Y331008D01*
X285356D01*
X287355D02*
X289355Y329009D01*
X291354Y334007D02*
X292354Y335007D01*
X294353D01*
X295353Y334007D01*
Y333008D01*
X294353Y332008D01*
X293353D01*
X294353D01*
X295353Y331008D01*
Y330009D01*
X294353Y329009D01*
X292354D01*
X291354Y330009D01*
X285356Y344442D02*
Y350440D01*
X288355D01*
X289355Y349440D01*
Y347441D01*
X288355Y346441D01*
X285356D01*
X287355D02*
X289355Y344442D01*
X295353D02*
X291354D01*
X295353Y348441D01*
Y349440D01*
X294353Y350440D01*
X292354D01*
X291354Y349440D01*
X338536Y205770D02*
X344534D01*
Y202771D01*
X343535Y201772D01*
X341535D01*
X340536Y202771D01*
Y205770D01*
Y203771D02*
X338536Y201772D01*
Y199772D02*
Y197773D01*
Y198773D01*
X344534D01*
X343535Y199772D01*
X106284Y135107D02*
Y139106D01*
X105284Y140105D01*
X103285D01*
X102285Y139106D01*
Y135107D01*
X103285Y134107D01*
X105284D01*
X104284Y136107D02*
X106284Y134107D01*
X105284D02*
X106284Y135107D01*
X112282Y140105D02*
X110283Y139106D01*
X108283Y137106D01*
Y135107D01*
X109283Y134107D01*
X111282D01*
X112282Y135107D01*
Y136107D01*
X111282Y137106D01*
X108283D01*
X231284Y131859D02*
Y135858D01*
X230284Y136857D01*
X228285D01*
X227285Y135858D01*
Y131859D01*
X228285Y130859D01*
X230284D01*
X229284Y132859D02*
X231284Y130859D01*
X230284D02*
X231284Y131859D01*
X236282Y130859D02*
Y136857D01*
X233283Y133858D01*
X237282D01*
X377789Y297685D02*
Y301683D01*
X376790Y302683D01*
X374790D01*
X373791Y301683D01*
Y297685D01*
X374790Y296685D01*
X376790D01*
X375790Y298684D02*
X377789Y296685D01*
X376790D02*
X377789Y297685D01*
X379789Y301683D02*
X380788Y302683D01*
X382788D01*
X383787Y301683D01*
Y300684D01*
X382788Y299684D01*
X381788D01*
X382788D01*
X383787Y298684D01*
Y297685D01*
X382788Y296685D01*
X380788D01*
X379789Y297685D01*
X360089D02*
Y301683D01*
X359090Y302683D01*
X357090D01*
X356090Y301683D01*
Y297685D01*
X357090Y296685D01*
X359090D01*
X358090Y298684D02*
X360089Y296685D01*
X359090D02*
X360089Y297685D01*
X366087Y296685D02*
X362089D01*
X366087Y300684D01*
Y301683D01*
X365088Y302683D01*
X363088D01*
X362089Y301683D01*
X17670Y40589D02*
X23668D01*
Y37590D01*
X22669Y36590D01*
X20669D01*
X19670Y37590D01*
Y40589D01*
X22669Y34591D02*
X23668Y33591D01*
Y31592D01*
X22669Y30592D01*
X21669D01*
X20669Y31592D01*
Y32592D01*
Y31592D01*
X19670Y30592D01*
X18670D01*
X17670Y31592D01*
Y33591D01*
X18670Y34591D01*
X16686Y150668D02*
X22684D01*
Y147669D01*
X21684Y146669D01*
X19685D01*
X18685Y147669D01*
Y150668D01*
X16686Y140671D02*
Y144670D01*
X20685Y140671D01*
X21684D01*
X22684Y141671D01*
Y143670D01*
X21684Y144670D01*
X306041Y368064D02*
Y374062D01*
X309040D01*
X310039Y373062D01*
Y371063D01*
X309040Y370063D01*
X306041D01*
X312039Y368064D02*
X314038D01*
X313038D01*
Y374062D01*
X312039Y373062D01*
X181979Y144731D02*
Y138733D01*
X185977D01*
X191975Y143732D02*
X190976Y144731D01*
X188976D01*
X187977Y143732D01*
Y142732D01*
X188976Y141732D01*
X190976D01*
X191975Y140733D01*
Y139733D01*
X190976Y138733D01*
X188976D01*
X187977Y139733D01*
X193975Y138733D02*
X195974D01*
X194974D01*
Y144731D01*
X193975Y143732D01*
X359206Y152544D02*
Y150544D01*
Y151544D01*
X364204D01*
X365204Y150544D01*
Y149545D01*
X364204Y148545D01*
X360205Y154543D02*
X359206Y155543D01*
Y157542D01*
X360205Y158542D01*
X361205D01*
X362205Y157542D01*
Y156542D01*
Y157542D01*
X363204Y158542D01*
X364204D01*
X365204Y157542D01*
Y155543D01*
X364204Y154543D01*
X333646Y46306D02*
X331647D01*
X332646D01*
Y41308D01*
X331647Y40308D01*
X330647D01*
X329647Y41308D01*
X339644Y40308D02*
X335645D01*
X339644Y44307D01*
Y45306D01*
X338644Y46306D01*
X336645D01*
X335645Y45306D01*
X277559Y42369D02*
X275560D01*
X276559D01*
Y37371D01*
X275560Y36371D01*
X274560D01*
X273560Y37371D01*
X279558Y36371D02*
X281558D01*
X280558D01*
Y42369D01*
X279558Y41369D01*
X164308Y16468D02*
X163309Y17468D01*
X161309D01*
X160310Y16468D01*
Y12469D01*
X161309Y11469D01*
X163309D01*
X164308Y12469D01*
X170306Y11469D02*
X166308D01*
X170306Y15468D01*
Y16468D01*
X169307Y17468D01*
X167307D01*
X166308Y16468D01*
X172306D02*
X173305Y17468D01*
X175305D01*
X176304Y16468D01*
Y15468D01*
X175305Y14469D01*
X174305D01*
X175305D01*
X176304Y13469D01*
Y12469D01*
X175305Y11469D01*
X173305D01*
X172306Y12469D01*
X235174Y16468D02*
X234175Y17468D01*
X232175D01*
X231176Y16468D01*
Y12469D01*
X232175Y11469D01*
X234175D01*
X235174Y12469D01*
X241173Y11469D02*
X237174D01*
X241173Y15468D01*
Y16468D01*
X240173Y17468D01*
X238174D01*
X237174Y16468D01*
X247171Y11469D02*
X243172D01*
X247171Y15468D01*
Y16468D01*
X246171Y17468D01*
X244172D01*
X243172Y16468D01*
X94442D02*
X93442Y17468D01*
X91443D01*
X90443Y16468D01*
Y12469D01*
X91443Y11469D01*
X93442D01*
X94442Y12469D01*
X100440Y11469D02*
X96441D01*
X100440Y15468D01*
Y16468D01*
X99440Y17468D01*
X97441D01*
X96441Y16468D01*
X102439Y11469D02*
X104439D01*
X103439D01*
Y17468D01*
X102439Y16468D01*
X141701Y100037D02*
X140702Y99037D01*
Y97038D01*
X141701Y96038D01*
X145700D01*
X146700Y97038D01*
Y99037D01*
X145700Y100037D01*
X146700Y106035D02*
Y102036D01*
X142701Y106035D01*
X141701D01*
X140702Y105035D01*
Y103036D01*
X141701Y102036D01*
Y108034D02*
X140702Y109034D01*
Y111033D01*
X141701Y112033D01*
X145700D01*
X146700Y111033D01*
Y109034D01*
X145700Y108034D01*
X141701D01*
X360674Y222472D02*
X359675Y223471D01*
X357675D01*
X356676Y222472D01*
Y218473D01*
X357675Y217473D01*
X359675D01*
X360674Y218473D01*
X362674Y217473D02*
X364673D01*
X363673D01*
Y223471D01*
X362674Y222472D01*
X367672Y218473D02*
X368672Y217473D01*
X370671D01*
X371671Y218473D01*
Y222472D01*
X370671Y223471D01*
X368672D01*
X367672Y222472D01*
Y221472D01*
X368672Y220472D01*
X371671D01*
X360674Y210661D02*
X359675Y211660D01*
X357675D01*
X356676Y210661D01*
Y206662D01*
X357675Y205662D01*
X359675D01*
X360674Y206662D01*
X362674Y205662D02*
X364673D01*
X363673D01*
Y211660D01*
X362674Y210661D01*
X367672D02*
X368672Y211660D01*
X370671D01*
X371671Y210661D01*
Y209661D01*
X370671Y208661D01*
X371671Y207662D01*
Y206662D01*
X370671Y205662D01*
X368672D01*
X367672Y206662D01*
Y207662D01*
X368672Y208661D01*
X367672Y209661D01*
Y210661D01*
X368672Y208661D02*
X370671D01*
X217489Y206147D02*
X216489Y205147D01*
Y203148D01*
X217489Y202148D01*
X221487D01*
X222487Y203148D01*
Y205147D01*
X221487Y206147D01*
X222487Y208146D02*
Y210145D01*
Y209146D01*
X216489D01*
X217489Y208146D01*
X216489Y213144D02*
Y217143D01*
X217489D01*
X221487Y213144D01*
X222487D01*
X334100Y294637D02*
X333100Y295637D01*
X331101D01*
X330101Y294637D01*
Y290638D01*
X331101Y289639D01*
X333100D01*
X334100Y290638D01*
X336099Y289639D02*
X338098D01*
X337099D01*
Y295637D01*
X336099Y294637D01*
X345096Y295637D02*
X343097Y294637D01*
X341097Y292638D01*
Y290638D01*
X342097Y289639D01*
X344096D01*
X345096Y290638D01*
Y291638D01*
X344096Y292638D01*
X341097D01*
X275044Y243141D02*
X274045Y244141D01*
X272045D01*
X271046Y243141D01*
Y239142D01*
X272045Y238143D01*
X274045D01*
X275044Y239142D01*
X277044Y238143D02*
X279043D01*
X278044D01*
Y244141D01*
X277044Y243141D01*
X286041Y244141D02*
X282042D01*
Y241142D01*
X284042Y242141D01*
X285041D01*
X286041Y241142D01*
Y239142D01*
X285041Y238143D01*
X283042D01*
X282042Y239142D01*
X292292Y217958D02*
X291292Y216958D01*
Y214959D01*
X292292Y213959D01*
X296291D01*
X297290Y214959D01*
Y216958D01*
X296291Y217958D01*
X297290Y219957D02*
Y221956D01*
Y220957D01*
X291292D01*
X292292Y219957D01*
X297290Y227955D02*
X291292D01*
X294291Y224956D01*
Y228954D01*
X334100Y310385D02*
X333100Y311385D01*
X331101D01*
X330101Y310385D01*
Y306386D01*
X331101Y305387D01*
X333100D01*
X334100Y306386D01*
X336099Y305387D02*
X338098D01*
X337099D01*
Y311385D01*
X336099Y310385D01*
X341097D02*
X342097Y311385D01*
X344096D01*
X345096Y310385D01*
Y309385D01*
X344096Y308386D01*
X343097D01*
X344096D01*
X345096Y307386D01*
Y306386D01*
X344096Y305387D01*
X342097D01*
X341097Y306386D01*
X170245Y241580D02*
X169245Y240580D01*
Y238581D01*
X170245Y237581D01*
X174243D01*
X175243Y238581D01*
Y240580D01*
X174243Y241580D01*
X175243Y243579D02*
Y245579D01*
Y244579D01*
X169245D01*
X170245Y243579D01*
X175243Y252576D02*
Y248578D01*
X171244Y252576D01*
X170245D01*
X169245Y251577D01*
Y249577D01*
X170245Y248578D01*
X171229Y331147D02*
X170229Y330147D01*
Y328148D01*
X171229Y327148D01*
X175228D01*
X176227Y328148D01*
Y330147D01*
X175228Y331147D01*
X176227Y333146D02*
Y335146D01*
Y334146D01*
X170229D01*
X171229Y333146D01*
Y338145D02*
X170229Y339144D01*
Y341144D01*
X171229Y342143D01*
X175228D01*
X176227Y341144D01*
Y339144D01*
X175228Y338145D01*
X171229D01*
X253922Y365503D02*
X252922Y366503D01*
X250923D01*
X249923Y365503D01*
Y361505D01*
X250923Y360505D01*
X252922D01*
X253922Y361505D01*
X255921Y366503D02*
X259920D01*
Y365503D01*
X255921Y361505D01*
Y360505D01*
X390779Y100409D02*
X391779Y101409D01*
Y103408D01*
X390779Y104408D01*
X386780D01*
X385781Y103408D01*
Y101409D01*
X386780Y100409D01*
X391779Y94411D02*
X390779Y96410D01*
X388779Y98410D01*
X386780D01*
X385781Y97410D01*
Y95411D01*
X386780Y94411D01*
X387780D01*
X388779Y95411D01*
Y98410D01*
X390779Y72850D02*
X391779Y73850D01*
Y75849D01*
X390779Y76849D01*
X386780D01*
X385781Y75849D01*
Y73850D01*
X386780Y72850D01*
X391779Y66852D02*
Y70851D01*
X388779D01*
X389779Y68851D01*
Y67852D01*
X388779Y66852D01*
X386780D01*
X385781Y67852D01*
Y69851D01*
X386780Y70851D01*
X323850Y100409D02*
X324849Y101409D01*
Y103408D01*
X323850Y104408D01*
X319851D01*
X318851Y103408D01*
Y101409D01*
X319851Y100409D01*
X318851Y95411D02*
X324849D01*
X321850Y98410D01*
Y94411D01*
X323850Y72850D02*
X324849Y73850D01*
Y75849D01*
X323850Y76849D01*
X319851D01*
X318851Y75849D01*
Y73850D01*
X319851Y72850D01*
X323850Y70851D02*
X324849Y69851D01*
Y67852D01*
X323850Y66852D01*
X322850D01*
X321850Y67852D01*
Y68851D01*
Y67852D01*
X320851Y66852D01*
X319851D01*
X318851Y67852D01*
Y69851D01*
X319851Y70851D01*
X249047Y100409D02*
X250046Y101409D01*
Y103408D01*
X249047Y104408D01*
X245048D01*
X244048Y103408D01*
Y101409D01*
X245048Y100409D01*
X244048Y94411D02*
Y98410D01*
X248047Y94411D01*
X249047D01*
X250046Y95411D01*
Y97410D01*
X249047Y98410D01*
Y71850D02*
X250046Y72850D01*
Y74849D01*
X249047Y75849D01*
X245048D01*
X244048Y74849D01*
Y72850D01*
X245048Y71850D01*
X244048Y69851D02*
Y67852D01*
Y68851D01*
X250046D01*
X249047Y69851D01*
M02*
