G04*
G04 #@! TF.GenerationSoftware,Altium Limited,Altium Designer,21.3.2 (30)*
G04*
G04 Layer_Physical_Order=2*
G04 Layer_Color=16711680*
%FSLAX25Y25*%
%MOIN*%
G70*
G04*
G04 #@! TF.SameCoordinates,3938395F-A7AF-4B3E-ABAE-92C8EBC603DF*
G04*
G04*
G04 #@! TF.FilePolarity,Positive*
G04*
G01*
G75*
%ADD11C,0.01968*%
%ADD37R,0.06693X0.07874*%
%ADD38R,0.07874X0.07874*%
%ADD39R,0.05906X0.07874*%
%ADD40O,0.06693X0.07874*%
%ADD41O,0.05906X0.07874*%
%ADD44O,0.07874X0.05118*%
%ADD45R,0.07874X0.05906*%
%ADD48O,0.07874X0.05906*%
%ADD49O,0.07874X0.05906*%
%ADD50R,0.07874X0.05906*%
%ADD51C,0.07874*%
%ADD52O,0.05118X0.07874*%
%ADD53R,0.05906X0.07874*%
%ADD62R,0.04724X0.05709*%
G04:AMPARAMS|DCode=70|XSize=62.99mil|YSize=78.74mil|CornerRadius=15.75mil|HoleSize=0mil|Usage=FLASHONLY|Rotation=0.000|XOffset=0mil|YOffset=0mil|HoleType=Round|Shape=RoundedRectangle|*
%AMROUNDEDRECTD70*
21,1,0.06299,0.04724,0,0,0.0*
21,1,0.03150,0.07874,0,0,0.0*
1,1,0.03150,0.01575,-0.02362*
1,1,0.03150,-0.01575,-0.02362*
1,1,0.03150,-0.01575,0.02362*
1,1,0.03150,0.01575,0.02362*
%
%ADD70ROUNDEDRECTD70*%
%ADD71O,0.06299X0.07874*%
G04:AMPARAMS|DCode=72|XSize=62.99mil|YSize=78.74mil|CornerRadius=15.75mil|HoleSize=0mil|Usage=FLASHONLY|Rotation=90.000|XOffset=0mil|YOffset=0mil|HoleType=Round|Shape=RoundedRectangle|*
%AMROUNDEDRECTD72*
21,1,0.06299,0.04724,0,0,90.0*
21,1,0.03150,0.07874,0,0,90.0*
1,1,0.03150,0.02362,0.01575*
1,1,0.03150,0.02362,-0.01575*
1,1,0.03150,-0.02362,-0.01575*
1,1,0.03150,-0.02362,0.01575*
%
%ADD72ROUNDEDRECTD72*%
%ADD73O,0.07874X0.06299*%
G04:AMPARAMS|DCode=74|XSize=98.43mil|YSize=98.43mil|CornerRadius=24.61mil|HoleSize=0mil|Usage=FLASHONLY|Rotation=90.000|XOffset=0mil|YOffset=0mil|HoleType=Round|Shape=RoundedRectangle|*
%AMROUNDEDRECTD74*
21,1,0.09843,0.04921,0,0,90.0*
21,1,0.04921,0.09843,0,0,90.0*
1,1,0.04921,0.02461,0.02461*
1,1,0.04921,0.02461,-0.02461*
1,1,0.04921,-0.02461,-0.02461*
1,1,0.04921,-0.02461,0.02461*
%
%ADD74ROUNDEDRECTD74*%
%ADD75C,0.09843*%
%ADD76C,0.15748*%
G04:AMPARAMS|DCode=77|XSize=98.43mil|YSize=98.43mil|CornerRadius=24.61mil|HoleSize=0mil|Usage=FLASHONLY|Rotation=0.000|XOffset=0mil|YOffset=0mil|HoleType=Round|Shape=RoundedRectangle|*
%AMROUNDEDRECTD77*
21,1,0.09843,0.04921,0,0,0.0*
21,1,0.04921,0.09843,0,0,0.0*
1,1,0.04921,0.02461,-0.02461*
1,1,0.04921,-0.02461,-0.02461*
1,1,0.04921,-0.02461,0.02461*
1,1,0.04921,0.02461,0.02461*
%
%ADD77ROUNDEDRECTD77*%
%ADD78C,0.02756*%
%ADD79R,0.05937X0.05937*%
G36*
X354331Y364117D02*
X353869Y363926D01*
X350189Y367605D01*
X350258Y367694D01*
X350774Y368939D01*
X350950Y370276D01*
Y371850D01*
X350774Y373186D01*
X350258Y374432D01*
X349438Y375501D01*
X348369Y376321D01*
X347123Y376837D01*
X345787Y377013D01*
X344451Y376837D01*
X343206Y376321D01*
X342137Y375501D01*
X341317Y374432D01*
X341058Y373807D01*
X340517D01*
X340258Y374432D01*
X339438Y375501D01*
X338369Y376321D01*
X337123Y376837D01*
X335787Y377013D01*
X334451Y376837D01*
X333206Y376321D01*
X332137Y375501D01*
X331317Y374432D01*
X331276Y374334D01*
X330778Y374438D01*
X330457Y375212D01*
X329889Y375952D01*
X329149Y376520D01*
X328287Y376877D01*
X327362Y376999D01*
X324213D01*
X323288Y376877D01*
X322426Y376520D01*
X321685Y375952D01*
X321117Y375212D01*
X320760Y374350D01*
X320639Y373425D01*
Y368701D01*
X320760Y367776D01*
X321117Y366914D01*
X321307Y366667D01*
X321060Y366167D01*
X298504D01*
X298343Y366641D01*
X298397Y366682D01*
X299249Y367792D01*
X299784Y369085D01*
X299967Y370473D01*
Y371654D01*
X299784Y373041D01*
X299249Y374334D01*
X298397Y375444D01*
X297287Y376296D01*
X295994Y376832D01*
X294606Y377014D01*
X293219Y376832D01*
X291926Y376296D01*
X290816Y375444D01*
X289964Y374334D01*
X289856Y374075D01*
X289356D01*
X289249Y374334D01*
X288397Y375444D01*
X287287Y376296D01*
X285994Y376832D01*
X284606Y377014D01*
X283219Y376832D01*
X281926Y376296D01*
X280816Y375444D01*
X280421Y374930D01*
X279921Y375100D01*
Y376969D01*
X269291D01*
Y365158D01*
X279921D01*
Y367026D01*
X280421Y367196D01*
X280816Y366682D01*
X281628Y366058D01*
Y364342D01*
X281730Y363571D01*
X282027Y362853D01*
X282500Y362236D01*
X283653Y361083D01*
X284270Y360610D01*
X284989Y360312D01*
X285759Y360211D01*
X333661D01*
X334432Y360312D01*
X335151Y360610D01*
X335767Y361083D01*
X337294Y362609D01*
X337294Y362609D01*
X337767Y363226D01*
X338065Y363945D01*
X338166Y364715D01*
Y365721D01*
X338369Y365805D01*
X339438Y366625D01*
X340258Y367694D01*
X340517Y368319D01*
X341058D01*
X341317Y367694D01*
X342137Y366625D01*
X343206Y365805D01*
X344056Y365453D01*
X344510Y364861D01*
X354331Y355040D01*
Y282246D01*
X353995Y282107D01*
X353378Y281633D01*
X352225Y280480D01*
X351751Y279864D01*
X351454Y279145D01*
X351353Y278374D01*
Y262060D01*
X350144Y260852D01*
X334767D01*
X333996Y260751D01*
X333278Y260453D01*
X332661Y259980D01*
X332661Y259980D01*
X320729Y248047D01*
X320255Y247430D01*
X319958Y246712D01*
X319856Y245941D01*
Y237454D01*
X316680Y234277D01*
X285968D01*
X285798Y234777D01*
X285851Y234818D01*
X286388Y235517D01*
X286725Y236331D01*
X286840Y237205D01*
X286725Y238078D01*
X286443Y238759D01*
Y260825D01*
X309895Y284278D01*
X311789D01*
X312119Y284141D01*
X312992Y284026D01*
X313845Y284138D01*
X313948Y284139D01*
X314345Y283833D01*
Y280318D01*
X314052Y279612D01*
X313951Y278842D01*
Y267303D01*
X313669Y266622D01*
X313554Y265748D01*
X313669Y264874D01*
X314006Y264060D01*
X314542Y263361D01*
X315242Y262825D01*
X316055Y262488D01*
X316929Y262373D01*
X317803Y262488D01*
X318617Y262825D01*
X319316Y263361D01*
X319852Y264060D01*
X320189Y264874D01*
X320304Y265748D01*
X320189Y266622D01*
X319907Y267303D01*
Y277759D01*
X320200Y278465D01*
X320301Y279235D01*
Y291090D01*
X320301Y291090D01*
X320200Y291861D01*
X319902Y292579D01*
X319429Y293196D01*
X318466Y294158D01*
X318658Y294620D01*
X333004D01*
X333775Y294722D01*
X334493Y295019D01*
X335110Y295493D01*
X339196Y299579D01*
X339196Y299579D01*
X339670Y300196D01*
X339967Y300914D01*
X340069Y301685D01*
X340069Y301685D01*
Y310830D01*
X340351Y311511D01*
X340466Y312385D01*
X340351Y313259D01*
X340014Y314073D01*
X339477Y314772D01*
X338778Y315308D01*
X337964Y315645D01*
X337090Y315760D01*
X336217Y315645D01*
X335569Y315377D01*
X335069Y315627D01*
Y341575D01*
X335351Y342256D01*
X335466Y343130D01*
X335351Y344004D01*
X335014Y344818D01*
X334477Y345517D01*
X333778Y346053D01*
X332964Y346390D01*
X332090Y346505D01*
X331217Y346390D01*
X330403Y346053D01*
X329704Y345517D01*
X329167Y344818D01*
X328830Y344004D01*
X328715Y343130D01*
X328830Y342256D01*
X329112Y341575D01*
Y309907D01*
X329045Y309864D01*
X328512Y309983D01*
X327986Y310770D01*
X327200Y311295D01*
X326772Y311380D01*
Y309055D01*
X326272D01*
Y308555D01*
X323947D01*
X324032Y308127D01*
X324557Y307341D01*
X324673Y307263D01*
X324521Y306763D01*
X307057D01*
X306957Y307263D01*
X307678Y307562D01*
X308377Y308098D01*
X308914Y308797D01*
X309251Y309611D01*
X309366Y310485D01*
X309251Y311359D01*
X308969Y312040D01*
Y312120D01*
X308867Y312891D01*
X308570Y313609D01*
X308097Y314226D01*
X308096Y314226D01*
X241231Y381091D01*
X240614Y381564D01*
X239896Y381862D01*
X239125Y381963D01*
X143045D01*
X142364Y382245D01*
X141491Y382360D01*
X140617Y382245D01*
X139803Y381908D01*
X139104Y381372D01*
X138567Y380673D01*
X138230Y379859D01*
X138115Y378985D01*
X138230Y378111D01*
X138567Y377297D01*
X139104Y376598D01*
X139803Y376062D01*
X140617Y375725D01*
X141491Y375610D01*
X142364Y375725D01*
X143045Y376007D01*
X194488D01*
Y365158D01*
X205118D01*
Y367026D01*
X205618Y367196D01*
X206013Y366682D01*
X207123Y365830D01*
X208416Y365294D01*
X209803Y365112D01*
X211191Y365294D01*
X212484Y365830D01*
X213594Y366682D01*
X214446Y367792D01*
X214553Y368051D01*
X215053D01*
X215161Y367792D01*
X216013Y366682D01*
X216520Y366292D01*
X216558Y365652D01*
X209369Y358463D01*
X195291D01*
X194520Y358362D01*
X193801Y358064D01*
X193185Y357591D01*
X180984Y345390D01*
X180303Y345108D01*
X179604Y344572D01*
X179067Y343873D01*
X178730Y343059D01*
X178615Y342185D01*
X178730Y341311D01*
X179067Y340497D01*
X179604Y339798D01*
X180303Y339262D01*
X181117Y338925D01*
X181991Y338810D01*
X182864Y338925D01*
X183678Y339262D01*
X184377Y339798D01*
X184914Y340497D01*
X185196Y341178D01*
X196524Y352507D01*
X210603D01*
X211374Y352608D01*
X212092Y352906D01*
X212709Y353379D01*
X221909Y362579D01*
X221909Y362579D01*
X222382Y363196D01*
X222680Y363914D01*
X222781Y364685D01*
Y366058D01*
X223594Y366682D01*
X224446Y367792D01*
X224981Y369085D01*
X225164Y370473D01*
Y371654D01*
X224981Y373041D01*
X224446Y374334D01*
X223594Y375444D01*
X223478Y375533D01*
X223639Y376007D01*
X237892D01*
X288326Y325573D01*
X288202Y324989D01*
X287815Y324829D01*
X256476D01*
X255795Y325111D01*
X254921Y325226D01*
X254048Y325111D01*
X253478Y324875D01*
X252978Y325171D01*
Y327461D01*
X265397Y339880D01*
X266078Y340162D01*
X266777Y340698D01*
X267314Y341397D01*
X267651Y342211D01*
X267766Y343085D01*
X267651Y343959D01*
X267314Y344773D01*
X266777Y345472D01*
X266078Y346008D01*
X265264Y346345D01*
X264390Y346460D01*
X263517Y346345D01*
X262703Y346008D01*
X262004Y345472D01*
X261467Y344773D01*
X261185Y344092D01*
X247894Y330800D01*
X247421Y330184D01*
X247123Y329465D01*
X247022Y328695D01*
Y319067D01*
X247123Y318296D01*
X247421Y317577D01*
X247894Y316961D01*
X249441Y315414D01*
X250058Y314941D01*
X250776Y314643D01*
X251547Y314541D01*
X282237D01*
X285400Y311378D01*
X285682Y310697D01*
X286219Y309998D01*
X286918Y309462D01*
X287732Y309125D01*
X288605Y309010D01*
X289479Y309125D01*
X290293Y309462D01*
X290992Y309998D01*
X291529Y310697D01*
X291866Y311511D01*
X291981Y312385D01*
X291866Y313259D01*
X291529Y314073D01*
X290992Y314772D01*
X290293Y315308D01*
X289612Y315590D01*
X286792Y318410D01*
X286984Y318872D01*
X287815D01*
X288496Y318590D01*
X289370Y318475D01*
X290244Y318590D01*
X291058Y318927D01*
X291757Y319464D01*
X292293Y320163D01*
X292509Y320683D01*
X293092Y320806D01*
X302708Y311190D01*
X302615Y310485D01*
X302730Y309611D01*
X303067Y308797D01*
X303604Y308098D01*
X304303Y307562D01*
X305024Y307263D01*
X304924Y306763D01*
X290845D01*
X290164Y307045D01*
X289290Y307160D01*
X288417Y307045D01*
X287603Y306708D01*
X286904Y306172D01*
X286367Y305473D01*
X286030Y304659D01*
X285915Y303785D01*
X286030Y302911D01*
X286367Y302097D01*
X286904Y301398D01*
X287603Y300862D01*
X287940Y300722D01*
X287840Y300222D01*
X268287D01*
X267606Y300504D01*
X266732Y300619D01*
X265859Y300504D01*
X265045Y300167D01*
X264346Y299631D01*
X263809Y298932D01*
X263472Y298118D01*
X263357Y297244D01*
X263469Y296392D01*
X263470Y296288D01*
X263163Y295892D01*
X171903D01*
X164547Y303248D01*
X163930Y303721D01*
X163212Y304018D01*
X162441Y304120D01*
X157850D01*
X157496Y304473D01*
X157496Y306079D01*
X157496Y306579D01*
Y315705D01*
X157496Y316079D01*
X157496Y316579D01*
Y325705D01*
X157496Y326079D01*
X157496Y326579D01*
Y335705D01*
X157496Y336079D01*
X157496Y336579D01*
Y345705D01*
X157496Y346079D01*
X157496Y346579D01*
Y355705D01*
X157496Y356079D01*
X157496Y356579D01*
Y366079D01*
X147622D01*
Y356579D01*
X147622Y356205D01*
X147622Y355705D01*
Y346579D01*
X147622Y346205D01*
X147622Y345705D01*
Y336579D01*
X147622Y336205D01*
X147622Y335705D01*
Y326579D01*
X147622Y326205D01*
X147622Y325705D01*
Y316579D01*
X147622Y316205D01*
X147622Y315705D01*
Y306579D01*
X147622Y306205D01*
X147622Y305705D01*
Y296579D01*
X147622Y296205D01*
X147622Y295705D01*
Y286579D01*
X147622Y286205D01*
X147622Y285705D01*
Y276579D01*
X147622Y276205D01*
X147622Y275705D01*
Y266579D01*
X147622Y266205D01*
X147622Y265705D01*
Y264120D01*
X130591D01*
X130591Y264120D01*
X130205Y264069D01*
X129820Y264018D01*
X129101Y263721D01*
X128485Y263248D01*
X125847Y260610D01*
X125373Y259993D01*
X125076Y259275D01*
X124975Y258504D01*
Y250000D01*
X125076Y249229D01*
X125373Y248511D01*
X125847Y247894D01*
X136785Y236955D01*
Y172494D01*
X133609Y169317D01*
X89780D01*
X89009Y169215D01*
X88291Y168918D01*
X87996Y168692D01*
X87496Y168938D01*
Y176079D01*
X87496D01*
Y176205D01*
X87496D01*
Y186079D01*
X77622D01*
Y186079D01*
X77176Y185894D01*
X64789Y198281D01*
X64975Y198710D01*
X65019Y198758D01*
X77622D01*
Y196205D01*
X87496D01*
Y206079D01*
X87496D01*
Y206205D01*
X87496D01*
Y216079D01*
X87496D01*
Y216205D01*
X87496D01*
Y225705D01*
X87496Y226079D01*
X87496Y226579D01*
Y235705D01*
X87496Y236079D01*
X87496Y236579D01*
Y245705D01*
X87496Y246079D01*
X87496Y246579D01*
Y255705D01*
X87496Y256079D01*
X87496Y256579D01*
Y258163D01*
X88898D01*
X89668Y258265D01*
X90387Y258562D01*
X91004Y259036D01*
X93641Y261674D01*
X94115Y262290D01*
X94412Y263009D01*
X94514Y263779D01*
Y368926D01*
X94412Y369696D01*
X94115Y370415D01*
X93641Y371031D01*
X92488Y372185D01*
X91871Y372658D01*
X91153Y372955D01*
X90382Y373057D01*
X38584D01*
X37813Y372955D01*
X37095Y372658D01*
X36478Y372185D01*
X36478Y372185D01*
X27385Y363091D01*
X26911Y362474D01*
X26614Y361756D01*
X26512Y360985D01*
Y349685D01*
X26614Y348914D01*
X26911Y348196D01*
X27385Y347579D01*
X35534Y339430D01*
X35534Y339429D01*
X36151Y338956D01*
X36869Y338659D01*
X37640Y338557D01*
X47244D01*
Y335630D01*
Y332703D01*
X35682D01*
X24744Y343641D01*
X24127Y344115D01*
X23409Y344412D01*
X22638Y344514D01*
X18682D01*
X18274Y345045D01*
X17246Y345834D01*
X16048Y346330D01*
X14764Y346499D01*
X12795D01*
X11511Y346330D01*
X10313Y345834D01*
X9285Y345045D01*
X8497Y344017D01*
X8001Y342820D01*
X7832Y341535D01*
X8001Y340251D01*
X8497Y339054D01*
X9285Y338026D01*
X10313Y337237D01*
X11511Y336741D01*
X12795Y336572D01*
X14764D01*
X16048Y336741D01*
X17246Y337237D01*
X18274Y338026D01*
X18682Y338557D01*
X21404D01*
X32343Y327619D01*
X32343Y327619D01*
X32960Y327145D01*
X33678Y326848D01*
X34449Y326746D01*
X34449Y326746D01*
X47244D01*
Y323819D01*
Y312508D01*
X47244Y312008D01*
X47244Y311508D01*
Y309081D01*
X40535D01*
X29596Y320019D01*
X28980Y320493D01*
X28261Y320790D01*
X27491Y320892D01*
X18682D01*
X18274Y321423D01*
X17246Y322212D01*
X16048Y322708D01*
X14764Y322877D01*
X12795D01*
X11511Y322708D01*
X10313Y322212D01*
X9285Y321423D01*
X8497Y320395D01*
X8001Y319198D01*
X7832Y317913D01*
X8001Y316629D01*
X8497Y315432D01*
X9285Y314404D01*
X10313Y313615D01*
X11511Y313119D01*
X12795Y312950D01*
X14764D01*
X16048Y313119D01*
X17246Y313615D01*
X18274Y314404D01*
X18682Y314935D01*
X26257D01*
X37196Y303996D01*
X37813Y303523D01*
X38531Y303225D01*
X39302Y303124D01*
X39302Y303124D01*
X47244D01*
Y300197D01*
Y288386D01*
X59055D01*
Y300197D01*
Y311508D01*
X59055Y312008D01*
X59055Y312508D01*
Y323819D01*
Y335630D01*
Y347441D01*
X47244D01*
Y344514D01*
X38874D01*
X36094Y347294D01*
X36191Y347784D01*
X36378Y347862D01*
X37077Y348398D01*
X37614Y349097D01*
X37951Y349911D01*
X38066Y350785D01*
X37951Y351659D01*
X37669Y352340D01*
Y357276D01*
X43556Y363163D01*
X70617D01*
X74744Y359036D01*
X74745Y359036D01*
X75361Y358562D01*
X76080Y358265D01*
X76850Y358163D01*
X76851Y358163D01*
X77269D01*
X77622Y357810D01*
X77622Y356205D01*
X77622Y355705D01*
Y346579D01*
X77622Y346205D01*
X77622Y345705D01*
Y336579D01*
X77622Y336205D01*
X77622Y335705D01*
Y326579D01*
X77622Y326205D01*
X77622Y325705D01*
Y316579D01*
X77622Y316205D01*
X77622Y315705D01*
Y314120D01*
X67047D01*
X66276Y314018D01*
X65558Y313721D01*
X64941Y313248D01*
X64941Y313247D01*
X62970Y311276D01*
X62289Y310994D01*
X61590Y310458D01*
X61053Y309758D01*
X60716Y308945D01*
X60601Y308071D01*
X60716Y307197D01*
X61053Y306383D01*
X61590Y305684D01*
X62289Y305148D01*
X63103Y304811D01*
X63976Y304696D01*
X64850Y304811D01*
X65664Y305148D01*
X66363Y305684D01*
X66900Y306383D01*
X67182Y307064D01*
X68281Y308163D01*
X77269D01*
X77622Y307810D01*
X77622Y306205D01*
X77622Y305705D01*
Y296579D01*
X77622Y296205D01*
X77622Y295705D01*
Y286579D01*
X77622Y286205D01*
X77622Y285705D01*
Y276579D01*
X77622Y276205D01*
X77622Y275705D01*
Y266579D01*
X77622Y266205D01*
X77622Y265705D01*
Y256579D01*
X77622Y256205D01*
X77622Y255705D01*
Y254120D01*
X70968D01*
X69907Y255180D01*
Y293669D01*
X69999Y293760D01*
X70472Y294377D01*
X70770Y295095D01*
X70820Y295481D01*
X70871Y295866D01*
X70871Y295866D01*
Y298663D01*
X71153Y299344D01*
X71268Y300217D01*
X71153Y301091D01*
X70816Y301905D01*
X70280Y302604D01*
X69581Y303140D01*
X68766Y303478D01*
X67893Y303593D01*
X67019Y303478D01*
X66205Y303140D01*
X65506Y302604D01*
X64970Y301905D01*
X64632Y301091D01*
X64517Y300217D01*
X64632Y299344D01*
X64915Y298663D01*
Y297100D01*
X64823Y297008D01*
X64350Y296392D01*
X64052Y295673D01*
X63951Y294902D01*
Y253946D01*
X64052Y253176D01*
X64076Y253118D01*
X63652Y252835D01*
X63069Y253419D01*
Y269516D01*
X62967Y270287D01*
X62670Y271005D01*
X62196Y271622D01*
X61043Y272775D01*
X60426Y273249D01*
X59708Y273546D01*
X59055Y273632D01*
Y276575D01*
X47244D01*
Y264764D01*
X57112D01*
Y263341D01*
X56664Y263120D01*
X56616Y263157D01*
X55418Y263653D01*
X54134Y263822D01*
X52165D01*
X50881Y263653D01*
X49683Y263157D01*
X48655Y262368D01*
X48248Y261837D01*
X39302D01*
X39301Y261837D01*
X38531Y261735D01*
X37812Y261438D01*
X37196Y260964D01*
X37196Y260964D01*
X26257Y250026D01*
X18682D01*
X18274Y250557D01*
X17246Y251346D01*
X16048Y251842D01*
X14764Y252011D01*
X12795D01*
X11511Y251842D01*
X10313Y251346D01*
X9285Y250557D01*
X8497Y249529D01*
X8001Y248332D01*
X7832Y247047D01*
X8001Y245762D01*
X8497Y244565D01*
X9285Y243537D01*
X10313Y242748D01*
X11511Y242253D01*
X12795Y242084D01*
X14764D01*
X16048Y242253D01*
X17246Y242748D01*
X18274Y243537D01*
X18682Y244069D01*
X27491D01*
X28261Y244170D01*
X28980Y244468D01*
X29596Y244941D01*
X40535Y255880D01*
X48248D01*
X48655Y255348D01*
X49683Y254559D01*
X50881Y254064D01*
X52165Y253894D01*
X54134D01*
X55418Y254064D01*
X56616Y254559D01*
X56664Y254596D01*
X57112Y254375D01*
Y252953D01*
X47244D01*
Y241142D01*
X59055D01*
Y242182D01*
X59517Y242373D01*
X63012Y238878D01*
Y226122D01*
X62512Y225875D01*
X62344Y226004D01*
X61626Y226302D01*
X60855Y226403D01*
X59055D01*
Y229331D01*
X47244D01*
Y217520D01*
X59030D01*
Y213961D01*
X58530Y213861D01*
X58433Y214096D01*
X57644Y215124D01*
X56616Y215913D01*
X55418Y216409D01*
X54134Y216578D01*
X52165D01*
X50881Y216409D01*
X49683Y215913D01*
X48655Y215124D01*
X48248Y214592D01*
X39302D01*
X39301Y214592D01*
X38531Y214491D01*
X37812Y214193D01*
X37196Y213720D01*
X37196Y213720D01*
X26257Y202781D01*
X18682D01*
X18274Y203313D01*
X17246Y204102D01*
X16048Y204598D01*
X14764Y204767D01*
X12795D01*
X11511Y204598D01*
X10313Y204102D01*
X9285Y203313D01*
X8497Y202285D01*
X8001Y201088D01*
X7832Y199803D01*
X8001Y198518D01*
X8497Y197321D01*
X9285Y196293D01*
X10313Y195504D01*
X11511Y195008D01*
X12795Y194839D01*
X14764D01*
X16048Y195008D01*
X17246Y195504D01*
X18274Y196293D01*
X18682Y196825D01*
X27491D01*
X28261Y196926D01*
X28980Y197224D01*
X29596Y197697D01*
X40535Y208636D01*
X48248D01*
X48655Y208104D01*
X49683Y207315D01*
X50881Y206820D01*
X52165Y206650D01*
X54134D01*
X55418Y206820D01*
X56616Y207315D01*
X57644Y208104D01*
X58433Y209132D01*
X58530Y209367D01*
X59030Y209267D01*
Y205709D01*
X47244D01*
Y193897D01*
Y182087D01*
Y170275D01*
X59055D01*
Y173203D01*
X70617D01*
X74784Y169036D01*
X75401Y168562D01*
X76119Y168265D01*
X76890Y168163D01*
X76890Y168163D01*
X77622D01*
Y166205D01*
X84601D01*
X84770Y165951D01*
X84865Y165705D01*
X84760Y164907D01*
X84872Y164055D01*
X84873Y163951D01*
X84567Y163555D01*
X53033D01*
X26489Y190098D01*
X25873Y190571D01*
X25154Y190869D01*
X24384Y190970D01*
X18682D01*
X18274Y191502D01*
X17246Y192291D01*
X16048Y192787D01*
X14764Y192956D01*
X12795D01*
X11511Y192787D01*
X10313Y192291D01*
X9285Y191502D01*
X8497Y190474D01*
X8001Y189277D01*
X7832Y187992D01*
X8001Y186707D01*
X8497Y185510D01*
X9285Y184482D01*
X10313Y183693D01*
X11511Y183197D01*
X12795Y183028D01*
X14764D01*
X16048Y183197D01*
X17246Y183693D01*
X18274Y184482D01*
X18682Y185014D01*
X23150D01*
X49693Y158470D01*
X50310Y157997D01*
X51028Y157700D01*
X51799Y157598D01*
X51799Y157598D01*
X157624D01*
X158395Y157700D01*
X159113Y157997D01*
X159730Y158470D01*
X176430Y175171D01*
X242126D01*
X242126Y175171D01*
X254952D01*
X255143Y174709D01*
X245788Y165354D01*
X220472D01*
Y145669D01*
X213608D01*
Y148622D01*
X213507Y149393D01*
X213209Y150111D01*
X212736Y150728D01*
X212119Y151201D01*
X211401Y151499D01*
X210630Y151600D01*
X209859Y151499D01*
X209141Y151201D01*
X208524Y150728D01*
X208051Y150111D01*
X207753Y149393D01*
X207652Y148622D01*
Y145669D01*
X85120D01*
X84809Y145908D01*
X83995Y146245D01*
X83121Y146360D01*
X82248Y146245D01*
X81567Y145963D01*
X46445D01*
X45764Y146245D01*
X44891Y146360D01*
X44017Y146245D01*
X43203Y145908D01*
X42892Y145669D01*
X0D01*
Y377953D01*
Y378985D01*
X270Y381032D01*
X804Y383026D01*
X1594Y384933D01*
X2626Y386721D01*
X3883Y388358D01*
X5342Y389818D01*
X6980Y391075D01*
X8768Y392107D01*
X10675Y392897D01*
X12669Y393431D01*
X14716Y393701D01*
X15748Y393701D01*
X354331Y393701D01*
Y364117D01*
D02*
G37*
G36*
X302237Y286070D02*
X302520Y286033D01*
X302699Y285505D01*
X281359Y264165D01*
X280885Y263548D01*
X280588Y262830D01*
X280486Y262059D01*
Y238759D01*
X280204Y238078D01*
X280089Y237205D01*
X280204Y236331D01*
X280541Y235517D01*
X281078Y234818D01*
X281131Y234777D01*
X280961Y234277D01*
X157850D01*
X157496Y234631D01*
X157496Y236079D01*
X157496Y236579D01*
Y245705D01*
X157496Y246079D01*
X157496Y246579D01*
Y256079D01*
X157496D01*
Y256205D01*
X157496D01*
Y265705D01*
X157496Y266079D01*
X157496Y266579D01*
Y275705D01*
X157496Y276079D01*
X157496Y276579D01*
Y278163D01*
X158223D01*
X158994Y278265D01*
X159712Y278562D01*
X160329Y279036D01*
X164507Y283214D01*
X164507Y283214D01*
X164880Y283699D01*
X167178Y285998D01*
X270157D01*
X270928Y286100D01*
X271538Y286352D01*
X301556D01*
X302237Y286070D01*
D02*
G37*
G36*
X381032Y393431D02*
X383026Y392897D01*
X384933Y392107D01*
X386721Y391075D01*
X388358Y389818D01*
X389818Y388358D01*
X391075Y386721D01*
X392107Y384933D01*
X392897Y383026D01*
X393431Y381032D01*
X393701Y378985D01*
X393701Y377953D01*
X393701Y114173D01*
X378881D01*
X378690Y114635D01*
X380059Y116004D01*
X380532Y116621D01*
X380830Y117339D01*
X380931Y118110D01*
X380931Y118110D01*
Y128768D01*
X380830Y129539D01*
X380532Y130257D01*
X380059Y130874D01*
X378906Y132027D01*
X378289Y132501D01*
X377570Y132798D01*
X376800Y132899D01*
X374287D01*
X370875Y136311D01*
X371066Y136773D01*
X374311D01*
X375467Y136925D01*
X376545Y137371D01*
X377470Y138081D01*
X378180Y139006D01*
X378626Y140084D01*
X378778Y141240D01*
Y146161D01*
X378749Y146387D01*
X390885Y158524D01*
X390885Y158524D01*
X391359Y159141D01*
X391656Y159859D01*
X391758Y160630D01*
X391758Y160630D01*
Y208661D01*
X391758Y208661D01*
X391656Y209432D01*
X391359Y210151D01*
X390885Y210767D01*
X384980Y216673D01*
X384363Y217146D01*
X383645Y217444D01*
X382874Y217545D01*
X377070D01*
X376299Y217444D01*
X375581Y217146D01*
X374964Y216673D01*
X374758Y216467D01*
X371529D01*
X370848Y216749D01*
X369974Y216864D01*
X369101Y216749D01*
X368287Y216412D01*
X367588Y215876D01*
X367051Y215177D01*
X366714Y214363D01*
X366599Y213489D01*
X366714Y212615D01*
X367051Y211801D01*
X367588Y211102D01*
X368287Y210566D01*
X369101Y210229D01*
X369974Y210114D01*
X370848Y210229D01*
X371529Y210511D01*
X375992D01*
X376763Y210612D01*
X377481Y210910D01*
X378098Y211383D01*
X378303Y211589D01*
X381640D01*
X385801Y207428D01*
Y161864D01*
X374537Y150599D01*
X374311Y150629D01*
X369390D01*
X368233Y150477D01*
X367156Y150030D01*
X366231Y149320D01*
X365521Y148395D01*
X365075Y147318D01*
X364922Y146161D01*
Y142917D01*
X364460Y142726D01*
X362061Y145125D01*
Y157062D01*
X365210Y160211D01*
X366833D01*
X366903Y160080D01*
X367643Y159179D01*
X368545Y158439D01*
X369573Y157889D01*
X370690Y157550D01*
X371350Y157485D01*
Y163386D01*
Y169287D01*
X370690Y169221D01*
X369573Y168883D01*
X368545Y168333D01*
X367643Y167593D01*
X366903Y166691D01*
X366623Y166167D01*
X363976D01*
X363206Y166066D01*
X362487Y165768D01*
X361870Y165295D01*
X356977Y160402D01*
X356504Y159785D01*
X356206Y159066D01*
X356105Y158296D01*
Y143891D01*
X356206Y143120D01*
X356504Y142402D01*
X356977Y141785D01*
X370947Y127815D01*
X370947Y127815D01*
X371564Y127342D01*
X372282Y127044D01*
X373053Y126943D01*
X373053Y126943D01*
X374974D01*
Y119344D01*
X369804Y114173D01*
X366167D01*
Y114974D01*
X366486Y115145D01*
X367385Y115883D01*
X368123Y116782D01*
X368671Y117808D01*
X369009Y118921D01*
X369123Y120079D01*
X369009Y121237D01*
X368671Y122350D01*
X368123Y123376D01*
X367385Y124275D01*
X366486Y125013D01*
X365460Y125561D01*
X364347Y125899D01*
X363189Y126013D01*
X362031Y125899D01*
X360918Y125561D01*
X359892Y125013D01*
X358993Y124275D01*
X358255Y123376D01*
X357707Y122350D01*
X357369Y121237D01*
X357255Y120079D01*
X357369Y118921D01*
X357707Y117808D01*
X358255Y116782D01*
X358993Y115883D01*
X359892Y115145D01*
X360211Y114974D01*
Y114423D01*
X359961Y114173D01*
X351378D01*
Y122047D01*
X349435D01*
Y124016D01*
X349334Y124786D01*
X349036Y125505D01*
X348563Y126122D01*
X337736Y136949D01*
X337119Y137422D01*
X336401Y137719D01*
X335630Y137821D01*
X313242D01*
X308096Y142966D01*
Y160264D01*
X307995Y161035D01*
X307697Y161753D01*
X307224Y162370D01*
X306071Y163523D01*
X305454Y163997D01*
X304736Y164294D01*
X303965Y164396D01*
X268870D01*
X268099Y164294D01*
X267381Y163997D01*
X266764Y163523D01*
X265611Y162370D01*
X265137Y161753D01*
X264840Y161035D01*
X264761Y160433D01*
X262795D01*
Y157506D01*
X261050D01*
X261050Y157506D01*
X260279Y157404D01*
X259561Y157107D01*
X258944Y156634D01*
X258944Y156633D01*
X257329Y155019D01*
X256797Y155043D01*
X256463Y155478D01*
X255435Y156267D01*
X254238Y156763D01*
X252953Y156932D01*
X250984D01*
X249700Y156763D01*
X248502Y156267D01*
X247474Y155478D01*
X246686Y154450D01*
X246190Y153253D01*
X246021Y151968D01*
X246190Y150684D01*
X246686Y149487D01*
X247474Y148459D01*
X248502Y147670D01*
X249700Y147174D01*
X250242Y147102D01*
Y146598D01*
X249700Y146527D01*
X248502Y146031D01*
X247474Y145242D01*
X247066Y144711D01*
X245104D01*
Y156247D01*
X253903Y165045D01*
X254489Y164959D01*
X254562Y164854D01*
X254499Y164370D01*
X254614Y163496D01*
X254951Y162682D01*
X255487Y161983D01*
X256186Y161447D01*
X257000Y161110D01*
X257874Y160995D01*
X258748Y161110D01*
X259562Y161447D01*
X260261Y161983D01*
X260797Y162682D01*
X261079Y163363D01*
X263070Y165354D01*
X275590D01*
Y169307D01*
X300590D01*
X301361Y169408D01*
X302080Y169706D01*
X302696Y170179D01*
X309507Y176990D01*
X309981Y177607D01*
X310278Y178325D01*
X310329Y178711D01*
X310380Y179096D01*
X310380Y179096D01*
Y180035D01*
X311192Y180658D01*
X312044Y181769D01*
X312165Y182061D01*
X334919D01*
X335600Y181779D01*
X336473Y181664D01*
X337347Y181779D01*
X338161Y182116D01*
X338860Y182653D01*
X339397Y183352D01*
X339734Y184166D01*
X339849Y185039D01*
X339734Y185913D01*
X339397Y186727D01*
X338860Y187426D01*
X338161Y187963D01*
X337347Y188300D01*
X336473Y188415D01*
X335600Y188300D01*
X334919Y188018D01*
X312165D01*
X312044Y188310D01*
X311896Y188503D01*
X312118Y188951D01*
X321851D01*
X322621Y189053D01*
X323340Y189350D01*
X323957Y189823D01*
X334921Y200787D01*
X358268D01*
Y239148D01*
X364587D01*
X365268Y238866D01*
X366142Y238751D01*
X367015Y238866D01*
X367829Y239203D01*
X368529Y239739D01*
X369065Y240438D01*
X369112Y240553D01*
X369612Y240454D01*
Y226663D01*
X363358D01*
X362587Y226562D01*
X361869Y226264D01*
X361252Y225791D01*
X360099Y224638D01*
X359626Y224021D01*
X359328Y223303D01*
X359226Y222532D01*
Y192380D01*
X358993Y192188D01*
X358255Y191289D01*
X357707Y190263D01*
X357369Y189150D01*
X357255Y187992D01*
X357369Y186834D01*
X357707Y185721D01*
X358255Y184695D01*
X358993Y183796D01*
X359892Y183058D01*
X360918Y182510D01*
X362031Y182172D01*
X363189Y182058D01*
X364347Y182172D01*
X365460Y182510D01*
X366486Y183058D01*
X367385Y183796D01*
X368123Y184695D01*
X368671Y185721D01*
X369009Y186834D01*
X369123Y187992D01*
X369009Y189150D01*
X368671Y190263D01*
X368123Y191289D01*
X367385Y192188D01*
X366486Y192926D01*
X365460Y193474D01*
X365183Y193558D01*
Y220707D01*
X384337D01*
X385108Y220808D01*
X385826Y221106D01*
X386443Y221579D01*
X390295Y225431D01*
X390295Y225431D01*
X390768Y226048D01*
X391066Y226766D01*
X391167Y227537D01*
Y231124D01*
X391066Y231895D01*
X390768Y232614D01*
X390295Y233230D01*
X383884Y239642D01*
Y332677D01*
X383782Y333448D01*
X383485Y334166D01*
X383011Y334783D01*
X383011Y334783D01*
X358268Y359527D01*
Y393701D01*
X378985D01*
X381032Y393431D01*
D02*
G37*
G36*
X208051Y141227D02*
X208524Y140611D01*
X220472Y128662D01*
Y110236D01*
X240158D01*
Y102388D01*
X202782D01*
X202670Y103520D01*
X202333Y104633D01*
X201784Y105659D01*
X201046Y106558D01*
X200147Y107296D01*
X199829Y107466D01*
Y124685D01*
X199727Y125456D01*
X199430Y126174D01*
X198956Y126791D01*
X187856Y137891D01*
X187240Y138364D01*
X186521Y138662D01*
X185750Y138763D01*
X35391D01*
X35391Y138763D01*
X34620Y138662D01*
X33902Y138364D01*
X33285Y137891D01*
X33285Y137891D01*
X25373Y129978D01*
X24874Y130011D01*
X24574Y130401D01*
X23834Y130969D01*
X22972Y131326D01*
X22047Y131448D01*
X17323D01*
X16398Y131326D01*
X15536Y130969D01*
X14796Y130401D01*
X14228Y129661D01*
X13871Y128799D01*
X13749Y127874D01*
Y124724D01*
X13871Y123800D01*
X14228Y122938D01*
X14796Y122197D01*
X15536Y121629D01*
X16310Y121309D01*
X16414Y120810D01*
X16316Y120770D01*
X15247Y119949D01*
X14427Y118880D01*
X13911Y117635D01*
X13735Y116299D01*
X13911Y114963D01*
X14427Y113718D01*
X15247Y112649D01*
X16316Y111829D01*
X16941Y111570D01*
Y111029D01*
X16316Y110770D01*
X15247Y109950D01*
X14427Y108880D01*
X13911Y107635D01*
X13735Y106299D01*
X13911Y104963D01*
X14427Y103718D01*
X15247Y102649D01*
X16316Y101829D01*
X17561Y101313D01*
X18898Y101137D01*
X20472D01*
X21808Y101313D01*
X23054Y101829D01*
X24123Y102649D01*
X24943Y103718D01*
X25459Y104963D01*
X25635Y106299D01*
X25459Y107635D01*
X24943Y108880D01*
X24123Y109950D01*
X23054Y110770D01*
X22429Y111029D01*
Y111570D01*
X23054Y111829D01*
X24123Y112649D01*
X24943Y113718D01*
X25459Y114963D01*
X25635Y116299D01*
X25459Y117635D01*
X24943Y118880D01*
X24123Y119949D01*
X23054Y120770D01*
X22956Y120810D01*
X23060Y121309D01*
X23834Y121629D01*
X24574Y122197D01*
X25142Y122938D01*
X25301Y123321D01*
X25905D01*
X26676Y123423D01*
X27395Y123720D01*
X28012Y124193D01*
X36625Y132807D01*
X56102D01*
Y121063D01*
X67913D01*
Y132807D01*
X84933D01*
X85058Y132307D01*
X84302Y131902D01*
X83402Y131165D01*
X82664Y130265D01*
X82116Y129239D01*
X81778Y128126D01*
X81664Y126968D01*
X81778Y125811D01*
X82116Y124698D01*
X82664Y123672D01*
X83402Y122772D01*
X84302Y122034D01*
X85328Y121486D01*
X86441Y121148D01*
X87598Y121034D01*
X88756Y121148D01*
X89869Y121486D01*
X90895Y122034D01*
X91794Y122772D01*
X92532Y123672D01*
X93081Y124698D01*
X93418Y125811D01*
X93532Y126968D01*
X93418Y128126D01*
X93081Y129239D01*
X92532Y130265D01*
X91794Y131165D01*
X90895Y131902D01*
X90139Y132307D01*
X90264Y132807D01*
X184517D01*
X193872Y123451D01*
Y107466D01*
X193553Y107296D01*
X192654Y106558D01*
X191916Y105659D01*
X191368Y104633D01*
X191030Y103520D01*
X190916Y102362D01*
X191030Y101205D01*
X191368Y100091D01*
X191916Y99065D01*
X192654Y98166D01*
X193553Y97428D01*
X194580Y96880D01*
X195693Y96542D01*
X196850Y96428D01*
X198008Y96542D01*
X198586Y96718D01*
X199032Y96533D01*
X199803Y96431D01*
X240158D01*
Y17742D01*
X126994D01*
Y30262D01*
X128202Y31471D01*
X134118D01*
X134192Y30971D01*
X133556Y30778D01*
X132530Y30229D01*
X131631Y29491D01*
X130893Y28592D01*
X130344Y27566D01*
X130007Y26453D01*
X129893Y25295D01*
X130007Y24138D01*
X130344Y23024D01*
X130893Y21998D01*
X131631Y21099D01*
X132530Y20361D01*
X133556Y19813D01*
X134669Y19475D01*
X135827Y19361D01*
X136984Y19475D01*
X138098Y19813D01*
X139124Y20361D01*
X140023Y21099D01*
X140761Y21998D01*
X141309Y23024D01*
X141647Y24138D01*
X141761Y25295D01*
X141647Y26453D01*
X141542Y26799D01*
X147824Y33081D01*
X199740D01*
X200511Y33182D01*
X201229Y33480D01*
X201846Y33953D01*
X205983Y38091D01*
X213583D01*
Y49902D01*
X201772D01*
Y42302D01*
X198506Y39037D01*
X166380D01*
X166166Y39489D01*
X166351Y39715D01*
X166900Y40741D01*
X167237Y41854D01*
X167351Y43012D01*
X167237Y44170D01*
X166900Y45283D01*
X166351Y46309D01*
X165613Y47208D01*
X164714Y47946D01*
X163688Y48494D01*
X162575Y48832D01*
X161417Y48946D01*
X160260Y48832D01*
X159914Y48727D01*
X125550Y83091D01*
X124933Y83564D01*
X124215Y83862D01*
X123444Y83963D01*
X109211D01*
X108440Y83862D01*
X108018Y83687D01*
X96043D01*
X95362Y83969D01*
X94488Y84084D01*
X93636Y83972D01*
X93532Y83971D01*
X93136Y84278D01*
Y94918D01*
X93034Y95689D01*
X92737Y96407D01*
X92263Y97024D01*
X86309Y102979D01*
X86576Y103419D01*
X87598Y103318D01*
X88756Y103432D01*
X89869Y103770D01*
X90895Y104318D01*
X91794Y105056D01*
X92532Y105955D01*
X93081Y106981D01*
X93418Y108094D01*
X93532Y109252D01*
X93418Y110410D01*
X93081Y111523D01*
X92532Y112549D01*
X91794Y113448D01*
X90895Y114186D01*
X89869Y114734D01*
X88756Y115072D01*
X87598Y115186D01*
X86441Y115072D01*
X85328Y114734D01*
X84302Y114186D01*
X83402Y113448D01*
X82664Y112549D01*
X82116Y111523D01*
X81778Y110410D01*
X81664Y109252D01*
X81765Y108230D01*
X81325Y107962D01*
X70996Y118291D01*
X70380Y118764D01*
X69661Y119062D01*
X68891Y119163D01*
X58091D01*
X57320Y119062D01*
X56601Y118764D01*
X55985Y118291D01*
X52985Y115291D01*
X52511Y114674D01*
X52214Y113956D01*
X52112Y113185D01*
Y105441D01*
X52214Y104670D01*
X52511Y103952D01*
X52985Y103335D01*
X56834Y99485D01*
X57116Y98804D01*
X57653Y98106D01*
X58352Y97569D01*
X59166Y97232D01*
X60039Y97117D01*
X60913Y97232D01*
X61482Y97468D01*
X61982Y97171D01*
Y48917D01*
X59055D01*
Y41935D01*
X58588Y41755D01*
X46730Y54914D01*
X46700Y54939D01*
X46677Y54970D01*
X46607Y55045D01*
X46577Y55069D01*
X46553Y55100D01*
X28366Y73287D01*
X27749Y73760D01*
X27031Y74058D01*
X26260Y74159D01*
X24638D01*
X24123Y74831D01*
X23054Y75652D01*
X21808Y76167D01*
X20472Y76343D01*
X18898D01*
X17561Y76167D01*
X16316Y75652D01*
X15247Y74831D01*
X14427Y73762D01*
X13911Y72517D01*
X13735Y71181D01*
X13911Y69845D01*
X14427Y68600D01*
X15247Y67531D01*
X16316Y66710D01*
X17561Y66195D01*
X18898Y66019D01*
X20472D01*
X21808Y66195D01*
X23054Y66710D01*
X24123Y67531D01*
X24566Y68108D01*
X25098Y68132D01*
X42314Y50915D01*
X42331Y50897D01*
X57478Y34090D01*
X57537Y34039D01*
X57585Y33978D01*
X58235Y33327D01*
X58235Y33327D01*
X58852Y32854D01*
X59324Y32658D01*
X59570Y32556D01*
X59570Y32556D01*
X59570Y32556D01*
X60341Y32455D01*
X60341Y32455D01*
X61153Y32455D01*
X71437D01*
X72208Y32556D01*
X72926Y32854D01*
X73543Y33327D01*
X74696Y34480D01*
X75170Y35097D01*
X75467Y35815D01*
X75569Y36586D01*
Y85030D01*
X75851Y85711D01*
X75966Y86585D01*
X75851Y87459D01*
X75514Y88273D01*
X74977Y88972D01*
X74278Y89508D01*
X73464Y89845D01*
X72591Y89960D01*
X71717Y89845D01*
X70903Y89508D01*
X70204Y88972D01*
X69667Y88273D01*
X69330Y87459D01*
X69215Y86585D01*
X69330Y85711D01*
X69612Y85030D01*
Y48917D01*
X67939D01*
Y105146D01*
X67837Y105917D01*
X67540Y106635D01*
X67402Y106816D01*
X67490Y106981D01*
X67828Y108094D01*
X67942Y109252D01*
X67828Y110410D01*
X67490Y111523D01*
X66942Y112549D01*
X66773Y112755D01*
X66987Y113207D01*
X67657D01*
X87179Y93685D01*
Y70526D01*
X87281Y69755D01*
X87573Y69050D01*
Y48116D01*
X87254Y47946D01*
X86355Y47208D01*
X85617Y46309D01*
X85069Y45283D01*
X84731Y44170D01*
X84617Y43012D01*
X84731Y41854D01*
X85069Y40741D01*
X85617Y39715D01*
X86355Y38816D01*
X87254Y38078D01*
X88280Y37530D01*
X89394Y37192D01*
X90551Y37078D01*
X91709Y37192D01*
X92822Y37530D01*
X93848Y38078D01*
X94747Y38816D01*
X95485Y39715D01*
X96034Y40741D01*
X96371Y41854D01*
X96485Y43012D01*
X96371Y44170D01*
X96034Y45283D01*
X95485Y46309D01*
X94747Y47208D01*
X93848Y47946D01*
X93529Y48116D01*
Y70132D01*
X93428Y70903D01*
X93136Y71608D01*
Y77140D01*
X93532Y77447D01*
X93636Y77446D01*
X94488Y77333D01*
X95362Y77448D01*
X96043Y77730D01*
X108934D01*
X109705Y77832D01*
X110128Y78007D01*
X122211D01*
X155702Y44515D01*
X155597Y44170D01*
X155483Y43012D01*
X155597Y41854D01*
X155935Y40741D01*
X156483Y39715D01*
X156669Y39489D01*
X156455Y39037D01*
X146591D01*
X145820Y38936D01*
X145101Y38638D01*
X144485Y38165D01*
X137330Y31010D01*
X136984Y31115D01*
X136379Y31175D01*
X135995Y31715D01*
X136017Y31809D01*
X136163Y31870D01*
X136780Y32343D01*
X137933Y33496D01*
X138406Y34113D01*
X138704Y34831D01*
X138805Y35602D01*
Y38075D01*
X140764D01*
Y42512D01*
X130890D01*
Y38075D01*
X132849D01*
Y37427D01*
X126969D01*
X126198Y37326D01*
X125479Y37028D01*
X124863Y36555D01*
X124863Y36555D01*
X121910Y33602D01*
X121437Y32985D01*
X121139Y32267D01*
X121037Y31496D01*
Y15917D01*
X121139Y15146D01*
X121437Y14428D01*
X121910Y13811D01*
X123063Y12658D01*
X123680Y12185D01*
X124398Y11887D01*
X125169Y11786D01*
X240158D01*
Y0D01*
X14716D01*
X12669Y270D01*
X10675Y804D01*
X8768Y1594D01*
X6980Y2626D01*
X5342Y3883D01*
X3883Y5342D01*
X2626Y6980D01*
X1594Y8768D01*
X804Y10675D01*
X269Y12669D01*
X-0Y14716D01*
X0Y15748D01*
Y141732D01*
X41787D01*
X41967Y141297D01*
X42504Y140598D01*
X43203Y140062D01*
X44017Y139725D01*
X44891Y139610D01*
X45764Y139725D01*
X46445Y140007D01*
X81567D01*
X82248Y139725D01*
X83121Y139610D01*
X83995Y139725D01*
X84809Y140062D01*
X85508Y140598D01*
X86044Y141297D01*
X86225Y141732D01*
X207842D01*
X208051Y141227D01*
D02*
G37*
G36*
X393701Y15748D02*
Y14716D01*
X393431Y12669D01*
X392897Y10675D01*
X392107Y8768D01*
X391075Y6980D01*
X389818Y5342D01*
X388358Y3883D01*
X386721Y2626D01*
X384933Y1594D01*
X383026Y804D01*
X381032Y269D01*
X378985Y-0D01*
X377953Y0D01*
X244094D01*
Y11786D01*
X286248D01*
X287019Y11887D01*
X287738Y12185D01*
X288354Y12658D01*
X289508Y13811D01*
X289981Y14428D01*
X290278Y15146D01*
X290380Y15917D01*
Y22437D01*
X290707Y22612D01*
X291609Y23352D01*
X292349Y24253D01*
X292899Y25282D01*
X293237Y26398D01*
X293302Y27059D01*
X281501D01*
X281566Y26398D01*
X281905Y25282D01*
X282454Y24253D01*
X283194Y23352D01*
X284096Y22612D01*
X284423Y22437D01*
Y17742D01*
X244094D01*
Y96431D01*
X258558D01*
X258840Y95748D01*
X259566Y94802D01*
X260512Y94077D01*
X261613Y93621D01*
X262795Y93465D01*
X263977Y93621D01*
X265079Y94077D01*
X266024Y94802D01*
X266243Y95087D01*
X266717Y94927D01*
Y94472D01*
X270169D01*
Y99409D01*
X270669D01*
Y99909D01*
X274622D01*
Y104347D01*
X273648D01*
Y110236D01*
X288801D01*
X318758Y80279D01*
X319375Y79806D01*
X320093Y79508D01*
X320864Y79407D01*
X369098D01*
X370053Y78451D01*
Y77756D01*
X368110D01*
Y75973D01*
X367610Y75832D01*
X366952Y76337D01*
X366087Y76696D01*
X365657Y76752D01*
Y71850D01*
Y66949D01*
X366087Y67005D01*
X366952Y67364D01*
X367610Y67869D01*
X368110Y67728D01*
Y65945D01*
X377953D01*
Y77756D01*
X376010D01*
Y79685D01*
X376010Y79685D01*
X375908Y80456D01*
X375611Y81174D01*
X375137Y81791D01*
X375137Y81791D01*
X372438Y84491D01*
X371821Y84964D01*
X371102Y85262D01*
X370332Y85363D01*
X322098D01*
X297687Y109774D01*
X297878Y110236D01*
X303527D01*
X303667Y109897D01*
X304204Y109198D01*
X304903Y108662D01*
X305584Y108380D01*
X316685Y97279D01*
X316685Y97279D01*
X317301Y96806D01*
X318020Y96508D01*
X318791Y96407D01*
X318791Y96407D01*
X333371D01*
X333644Y95748D01*
X334369Y94802D01*
X335315Y94077D01*
X336417Y93621D01*
X337598Y93465D01*
X338780Y93621D01*
X339882Y94077D01*
X340828Y94802D01*
X341046Y95087D01*
X341520Y94927D01*
Y94472D01*
X344973D01*
Y99409D01*
Y104347D01*
X341520D01*
Y103892D01*
X341046Y103732D01*
X340828Y104016D01*
X339882Y104742D01*
X338780Y105198D01*
X337598Y105354D01*
X336417Y105198D01*
X335315Y104742D01*
X334369Y104016D01*
X333644Y103071D01*
X333351Y102363D01*
X320024D01*
X316638Y105749D01*
X316921Y106173D01*
X317320Y106008D01*
X317705Y105957D01*
X318091Y105907D01*
X318091Y105907D01*
X358885D01*
X359656Y106008D01*
X360374Y106306D01*
X360991Y106779D01*
X364448Y110236D01*
X365214D01*
X365405Y109774D01*
X363052Y107421D01*
X362578Y106804D01*
X362281Y106086D01*
X362179Y105315D01*
Y102752D01*
X362049Y102582D01*
X361690Y101716D01*
X361568Y100787D01*
Y99909D01*
X365158D01*
Y99409D01*
X365657D01*
Y94508D01*
X366087Y94564D01*
X366952Y94923D01*
X367610Y95428D01*
X368110Y95287D01*
Y93504D01*
X377953D01*
Y105315D01*
X370023D01*
X369831Y105777D01*
X374291Y110236D01*
X393701D01*
Y15748D01*
D02*
G37*
%LPC*%
G36*
X15748Y387843D02*
X13818Y387653D01*
X11963Y387090D01*
X10253Y386176D01*
X8755Y384946D01*
X7525Y383448D01*
X6611Y381738D01*
X6048Y379882D01*
X5858Y377953D01*
X6048Y376023D01*
X6611Y374168D01*
X7525Y372458D01*
X8755Y370959D01*
X10253Y369729D01*
X11963Y368815D01*
X13818Y368253D01*
X15748Y368063D01*
X17677Y368253D01*
X19533Y368815D01*
X21243Y369729D01*
X22741Y370959D01*
X23971Y372458D01*
X24885Y374168D01*
X25448Y376023D01*
X25638Y377953D01*
X25448Y379882D01*
X24885Y381738D01*
X23971Y383448D01*
X22741Y384946D01*
X21243Y386176D01*
X19533Y387090D01*
X17677Y387653D01*
X15748Y387843D01*
D02*
G37*
G36*
X58087Y358283D02*
X53649D01*
Y353846D01*
X58087D01*
Y358283D01*
D02*
G37*
G36*
X52649D02*
X48213D01*
Y353846D01*
X52649D01*
Y358283D01*
D02*
G37*
G36*
X242126Y352785D02*
X241252Y352670D01*
X240571Y352388D01*
X233268D01*
X233268Y352388D01*
X232882Y352337D01*
X232497Y352286D01*
X231778Y351989D01*
X231162Y351515D01*
X220991Y341345D01*
X220646Y341450D01*
X219488Y341564D01*
X218331Y341450D01*
X217217Y341112D01*
X216191Y340564D01*
X215292Y339826D01*
X214554Y338927D01*
X214006Y337901D01*
X213668Y336788D01*
X213554Y335630D01*
X213668Y334472D01*
X214006Y333359D01*
X214554Y332333D01*
X215292Y331434D01*
X216191Y330696D01*
X217217Y330148D01*
X218331Y329810D01*
X219488Y329696D01*
X220646Y329810D01*
X221759Y330148D01*
X222785Y330696D01*
X223684Y331434D01*
X224422Y332333D01*
X224971Y333359D01*
X225308Y334472D01*
X225422Y335630D01*
X225308Y336788D01*
X225203Y337133D01*
X234501Y346431D01*
X240571D01*
X241252Y346149D01*
X242126Y346034D01*
X243000Y346149D01*
X243814Y346486D01*
X244513Y347023D01*
X245049Y347722D01*
X245386Y348536D01*
X245501Y349410D01*
X245386Y350283D01*
X245049Y351097D01*
X244513Y351796D01*
X243814Y352333D01*
X243000Y352670D01*
X242126Y352785D01*
D02*
G37*
G36*
X58087Y352846D02*
X53649D01*
Y348409D01*
X58087D01*
Y352846D01*
D02*
G37*
G36*
X52649D02*
X48213D01*
Y348409D01*
X52649D01*
Y352846D01*
D02*
G37*
G36*
X14764Y358310D02*
X12795D01*
X11511Y358141D01*
X10313Y357645D01*
X9285Y356856D01*
X8497Y355828D01*
X8001Y354631D01*
X7832Y353346D01*
X8001Y352062D01*
X8497Y350865D01*
X9285Y349837D01*
X10313Y349048D01*
X11511Y348552D01*
X12795Y348383D01*
X14764D01*
X16048Y348552D01*
X17246Y349048D01*
X18274Y349837D01*
X19062Y350865D01*
X19558Y352062D01*
X19727Y353346D01*
X19558Y354631D01*
X19062Y355828D01*
X18274Y356856D01*
X17246Y357645D01*
X16048Y358141D01*
X14764Y358310D01*
D02*
G37*
G36*
X345472Y349438D02*
X344315Y349324D01*
X343201Y348986D01*
X342176Y348438D01*
X341276Y347700D01*
X340538Y346801D01*
X339990Y345775D01*
X339652Y344662D01*
X339538Y343504D01*
X339652Y342346D01*
X339990Y341233D01*
X340538Y340207D01*
X341276Y339308D01*
X342176Y338570D01*
X343201Y338022D01*
X344315Y337684D01*
X345472Y337570D01*
X346630Y337684D01*
X347743Y338022D01*
X348769Y338570D01*
X349668Y339308D01*
X350406Y340207D01*
X350955Y341233D01*
X351292Y342346D01*
X351406Y343504D01*
X351292Y344662D01*
X350955Y345775D01*
X350406Y346801D01*
X349668Y347700D01*
X348769Y348438D01*
X347743Y348986D01*
X346630Y349324D01*
X345472Y349438D01*
D02*
G37*
G36*
X296760Y337955D02*
Y336130D01*
X298585D01*
X298500Y336558D01*
X297974Y337344D01*
X297188Y337870D01*
X296760Y337955D01*
D02*
G37*
G36*
X295760D02*
X295332Y337870D01*
X294545Y337344D01*
X294020Y336558D01*
X293935Y336130D01*
X295760D01*
Y337955D01*
D02*
G37*
G36*
X298585Y335130D02*
X296760D01*
Y333305D01*
X297188Y333390D01*
X297974Y333915D01*
X298500Y334702D01*
X298585Y335130D01*
D02*
G37*
G36*
X295760D02*
X293935D01*
X294020Y334702D01*
X294545Y333915D01*
X295332Y333390D01*
X295760Y333305D01*
Y335130D01*
D02*
G37*
G36*
X194291Y343149D02*
X191535D01*
X190354Y342994D01*
X189252Y342538D01*
X188306Y341812D01*
X187581Y340866D01*
X187124Y339765D01*
X186969Y338583D01*
X187124Y337401D01*
X187581Y336299D01*
X188306Y335354D01*
X188592Y335135D01*
X188431Y334661D01*
X187976D01*
Y331209D01*
X192913D01*
X197850D01*
Y334661D01*
X197396D01*
X197235Y335135D01*
X197520Y335354D01*
X198246Y336299D01*
X198702Y337401D01*
X198858Y338583D01*
X198702Y339765D01*
X198246Y340866D01*
X197520Y341812D01*
X196575Y342538D01*
X195473Y342994D01*
X194291Y343149D01*
D02*
G37*
G36*
X197850Y330209D02*
X193413D01*
Y326756D01*
X197850D01*
Y330209D01*
D02*
G37*
G36*
X192413D02*
X187976D01*
Y326756D01*
X192413D01*
Y330209D01*
D02*
G37*
G36*
X14764Y334688D02*
X12795D01*
X11511Y334519D01*
X10313Y334023D01*
X9285Y333234D01*
X8497Y332206D01*
X8001Y331009D01*
X7832Y329724D01*
X8001Y328440D01*
X8497Y327243D01*
X9285Y326215D01*
X10313Y325426D01*
X11511Y324930D01*
X12795Y324761D01*
X14764D01*
X16048Y324930D01*
X17246Y325426D01*
X18274Y326215D01*
X19062Y327243D01*
X19558Y328440D01*
X19727Y329724D01*
X19558Y331009D01*
X19062Y332206D01*
X18274Y333234D01*
X17246Y334023D01*
X16048Y334519D01*
X14764Y334688D01*
D02*
G37*
G36*
X325303Y326144D02*
Y324319D01*
X327128D01*
X327043Y324747D01*
X326518Y325533D01*
X325731Y326059D01*
X325303Y326144D01*
D02*
G37*
G36*
X324303D02*
X323875Y326059D01*
X323089Y325533D01*
X322563Y324747D01*
X322478Y324319D01*
X324303D01*
Y326144D01*
D02*
G37*
G36*
X198335Y324176D02*
Y322350D01*
X200160D01*
X200075Y322778D01*
X199549Y323565D01*
X198763Y324090D01*
X198335Y324176D01*
D02*
G37*
G36*
X197335D02*
X196907Y324090D01*
X196120Y323565D01*
X195595Y322778D01*
X195510Y322350D01*
X197335D01*
Y324176D01*
D02*
G37*
G36*
X327128Y323319D02*
X325303D01*
Y321494D01*
X325731Y321579D01*
X326518Y322105D01*
X327043Y322891D01*
X327128Y323319D01*
D02*
G37*
G36*
X324303D02*
X322478D01*
X322563Y322891D01*
X323089Y322105D01*
X323875Y321579D01*
X324303Y321494D01*
Y323319D01*
D02*
G37*
G36*
X200160Y321350D02*
X198335D01*
Y319525D01*
X198763Y319610D01*
X199549Y320136D01*
X200075Y320923D01*
X200160Y321350D01*
D02*
G37*
G36*
X197335D02*
X195510D01*
X195595Y320923D01*
X196120Y320136D01*
X196907Y319610D01*
X197335Y319525D01*
Y321350D01*
D02*
G37*
G36*
X179634Y317286D02*
Y315461D01*
X181459D01*
X181374Y315889D01*
X180848Y316675D01*
X180062Y317201D01*
X179634Y317286D01*
D02*
G37*
G36*
X178634D02*
X178206Y317201D01*
X177419Y316675D01*
X176894Y315889D01*
X176809Y315461D01*
X178634D01*
Y317286D01*
D02*
G37*
G36*
X181459Y314461D02*
X179634D01*
Y312636D01*
X180062Y312721D01*
X180848Y313246D01*
X181374Y314033D01*
X181459Y314461D01*
D02*
G37*
G36*
X178634D02*
X176809D01*
X176894Y314033D01*
X177419Y313246D01*
X178206Y312721D01*
X178634Y312636D01*
Y314461D01*
D02*
G37*
G36*
X325772Y311380D02*
X325344Y311295D01*
X324557Y310770D01*
X324032Y309983D01*
X323947Y309555D01*
X325772D01*
Y311380D01*
D02*
G37*
G36*
X276091Y310396D02*
Y308571D01*
X277916D01*
X277831Y308999D01*
X277305Y309785D01*
X276518Y310311D01*
X276091Y310396D01*
D02*
G37*
G36*
X275091D02*
X274663Y310311D01*
X273876Y309785D01*
X273351Y308999D01*
X273266Y308571D01*
X275091D01*
Y310396D01*
D02*
G37*
G36*
X277916Y307571D02*
X276091D01*
Y305746D01*
X276518Y305831D01*
X277305Y306357D01*
X277831Y307143D01*
X277916Y307571D01*
D02*
G37*
G36*
X275091D02*
X273266D01*
X273351Y307143D01*
X273876Y306357D01*
X274663Y305831D01*
X275091Y305746D01*
Y307571D01*
D02*
G37*
G36*
X245079Y337037D02*
X244205Y336922D01*
X243391Y336584D01*
X242692Y336048D01*
X242156Y335349D01*
X241874Y334668D01*
X210369Y303163D01*
X192795D01*
X192114Y303445D01*
X191240Y303560D01*
X190367Y303445D01*
X189552Y303108D01*
X188853Y302572D01*
X188317Y301873D01*
X187980Y301059D01*
X187865Y300185D01*
X187980Y299311D01*
X188317Y298497D01*
X188853Y297798D01*
X189552Y297262D01*
X190367Y296925D01*
X191240Y296810D01*
X192114Y296925D01*
X192795Y297207D01*
X211602D01*
X212373Y297308D01*
X213091Y297606D01*
X213708Y298079D01*
X246085Y330456D01*
X246766Y330738D01*
X247465Y331275D01*
X248002Y331974D01*
X248339Y332788D01*
X248454Y333661D01*
X248339Y334535D01*
X248002Y335349D01*
X247465Y336048D01*
X246766Y336584D01*
X245952Y336922D01*
X245079Y337037D01*
D02*
G37*
G36*
X14764Y311066D02*
X12795D01*
X11511Y310897D01*
X10313Y310401D01*
X9285Y309612D01*
X8497Y308584D01*
X8001Y307387D01*
X7832Y306102D01*
X8001Y304818D01*
X8497Y303620D01*
X9285Y302592D01*
X10313Y301803D01*
X11511Y301308D01*
X12795Y301138D01*
X14764D01*
X16048Y301308D01*
X17246Y301803D01*
X18274Y302592D01*
X19062Y303620D01*
X19558Y304818D01*
X19727Y306102D01*
X19558Y307387D01*
X19062Y308584D01*
X18274Y309612D01*
X17246Y310401D01*
X16048Y310897D01*
X14764Y311066D01*
D02*
G37*
G36*
Y299255D02*
X12795D01*
X11511Y299086D01*
X10313Y298590D01*
X9285Y297801D01*
X8497Y296773D01*
X8001Y295576D01*
X7832Y294291D01*
X8001Y293006D01*
X8497Y291809D01*
X9285Y290781D01*
X10313Y289992D01*
X11511Y289497D01*
X12795Y289328D01*
X14764D01*
X16048Y289497D01*
X17246Y289992D01*
X18274Y290781D01*
X19062Y291809D01*
X19558Y293006D01*
X19727Y294291D01*
X19558Y295576D01*
X19062Y296773D01*
X18274Y297801D01*
X17246Y298590D01*
X16048Y299086D01*
X14764Y299255D01*
D02*
G37*
G36*
X54134Y287444D02*
X52165D01*
X50881Y287275D01*
X49683Y286779D01*
X48655Y285990D01*
X48248Y285458D01*
X39302D01*
X39301Y285458D01*
X38531Y285357D01*
X37812Y285059D01*
X37196Y284586D01*
X37196Y284586D01*
X26257Y273647D01*
X18682D01*
X18274Y274179D01*
X17246Y274968D01*
X16048Y275464D01*
X14764Y275633D01*
X12795D01*
X11511Y275464D01*
X10313Y274968D01*
X9285Y274179D01*
X8497Y273151D01*
X8001Y271954D01*
X7832Y270669D01*
X8001Y269385D01*
X8497Y268187D01*
X9285Y267159D01*
X10313Y266371D01*
X11511Y265875D01*
X12795Y265705D01*
X14764D01*
X16048Y265875D01*
X17246Y266371D01*
X18274Y267159D01*
X18682Y267691D01*
X27491D01*
X28261Y267793D01*
X28980Y268090D01*
X29596Y268563D01*
X40535Y279502D01*
X48248D01*
X48655Y278970D01*
X49683Y278182D01*
X50881Y277686D01*
X52165Y277517D01*
X54134D01*
X55418Y277686D01*
X56616Y278182D01*
X57644Y278970D01*
X58433Y279998D01*
X58928Y281195D01*
X59097Y282480D01*
X58928Y283765D01*
X58433Y284962D01*
X57644Y285990D01*
X56616Y286779D01*
X55418Y287275D01*
X54134Y287444D01*
D02*
G37*
G36*
X347441Y281853D02*
Y280028D01*
X349266D01*
X349181Y280455D01*
X348655Y281242D01*
X347869Y281768D01*
X347441Y281853D01*
D02*
G37*
G36*
X346441D02*
X346013Y281768D01*
X345227Y281242D01*
X344701Y280455D01*
X344616Y280028D01*
X346441D01*
Y281853D01*
D02*
G37*
G36*
X349266Y279028D02*
X347441D01*
Y277203D01*
X347869Y277288D01*
X348655Y277813D01*
X349181Y278600D01*
X349266Y279028D01*
D02*
G37*
G36*
X346441D02*
X344616D01*
X344701Y278600D01*
X345227Y277813D01*
X346013Y277288D01*
X346441Y277203D01*
Y279028D01*
D02*
G37*
G36*
X19685Y288386D02*
X7874D01*
Y276575D01*
X19685D01*
Y288386D01*
D02*
G37*
G36*
Y264764D02*
X7874D01*
Y252953D01*
X19685D01*
Y264764D01*
D02*
G37*
G36*
X293807Y251341D02*
Y249516D01*
X295632D01*
X295547Y249944D01*
X295022Y250730D01*
X294235Y251256D01*
X293807Y251341D01*
D02*
G37*
G36*
X292807D02*
X292379Y251256D01*
X291593Y250730D01*
X291067Y249944D01*
X290982Y249516D01*
X292807D01*
Y251341D01*
D02*
G37*
G36*
X295632Y248516D02*
X293807D01*
Y246691D01*
X294235Y246776D01*
X295022Y247301D01*
X295547Y248088D01*
X295632Y248516D01*
D02*
G37*
G36*
X292807D02*
X290982D01*
X291067Y248088D01*
X291593Y247301D01*
X292379Y246776D01*
X292807Y246691D01*
Y248516D01*
D02*
G37*
G36*
X54134Y240200D02*
X52165D01*
X50881Y240031D01*
X49683Y239535D01*
X48655Y238746D01*
X48248Y238214D01*
X39302D01*
X39301Y238214D01*
X38531Y238113D01*
X37812Y237815D01*
X37196Y237342D01*
X37196Y237342D01*
X26257Y226403D01*
X18682D01*
X18274Y226935D01*
X17246Y227724D01*
X16048Y228220D01*
X14764Y228389D01*
X12795D01*
X11511Y228220D01*
X10313Y227724D01*
X9285Y226935D01*
X8497Y225907D01*
X8001Y224710D01*
X7832Y223425D01*
X8001Y222141D01*
X8497Y220943D01*
X9285Y219915D01*
X10313Y219127D01*
X11511Y218631D01*
X12795Y218461D01*
X14764D01*
X16048Y218631D01*
X17246Y219127D01*
X18274Y219915D01*
X18682Y220447D01*
X27491D01*
X28261Y220549D01*
X28980Y220846D01*
X29596Y221319D01*
X40535Y232258D01*
X48248D01*
X48655Y231726D01*
X49683Y230938D01*
X50881Y230442D01*
X52165Y230273D01*
X54134D01*
X55418Y230442D01*
X56616Y230938D01*
X57644Y231726D01*
X58433Y232754D01*
X58928Y233951D01*
X59097Y235236D01*
X58928Y236521D01*
X58433Y237718D01*
X57644Y238746D01*
X56616Y239535D01*
X55418Y240031D01*
X54134Y240200D01*
D02*
G37*
G36*
X298228Y247076D02*
X297071Y246962D01*
X295957Y246624D01*
X294932Y246076D01*
X294032Y245338D01*
X293294Y244439D01*
X292746Y243413D01*
X292408Y242300D01*
X292294Y241142D01*
X292408Y239984D01*
X292746Y238871D01*
X293294Y237845D01*
X294032Y236946D01*
X294932Y236208D01*
X295957Y235660D01*
X297071Y235322D01*
X298228Y235208D01*
X299386Y235322D01*
X300499Y235660D01*
X301525Y236208D01*
X302424Y236946D01*
X303162Y237845D01*
X303711Y238871D01*
X304048Y239984D01*
X304162Y241142D01*
X304048Y242300D01*
X303711Y243413D01*
X303162Y244439D01*
X302424Y245338D01*
X301525Y246076D01*
X300499Y246624D01*
X299386Y246962D01*
X298228Y247076D01*
D02*
G37*
G36*
X19685Y241142D02*
X7874D01*
Y229331D01*
X19685D01*
Y241142D01*
D02*
G37*
G36*
Y217519D02*
X7874D01*
Y205709D01*
X19685D01*
Y217519D01*
D02*
G37*
G36*
X86528Y195110D02*
X83059D01*
Y191642D01*
X86528D01*
Y195110D01*
D02*
G37*
G36*
X82059D02*
X78591D01*
Y191642D01*
X82059D01*
Y195110D01*
D02*
G37*
G36*
X86528Y190642D02*
X83059D01*
Y187173D01*
X86528D01*
Y190642D01*
D02*
G37*
G36*
X82059D02*
X78591D01*
Y187173D01*
X82059D01*
Y190642D01*
D02*
G37*
G36*
X14764Y181145D02*
X12795D01*
X11511Y180976D01*
X10313Y180480D01*
X9285Y179691D01*
X8497Y178663D01*
X8001Y177466D01*
X7832Y176181D01*
X8001Y174896D01*
X8497Y173699D01*
X9285Y172671D01*
X10313Y171882D01*
X11511Y171386D01*
X12795Y171217D01*
X14764D01*
X16048Y171386D01*
X17246Y171882D01*
X18274Y172671D01*
X19062Y173699D01*
X19558Y174896D01*
X19727Y176181D01*
X19558Y177466D01*
X19062Y178663D01*
X18274Y179691D01*
X17246Y180480D01*
X16048Y180976D01*
X14764Y181145D01*
D02*
G37*
G36*
X255421Y250357D02*
Y248532D01*
X257246D01*
X257161Y248959D01*
X256636Y249746D01*
X255849Y250272D01*
X255421Y250357D01*
D02*
G37*
G36*
X254421D02*
X253993Y250272D01*
X253207Y249746D01*
X252681Y248959D01*
X252596Y248532D01*
X254421D01*
Y250357D01*
D02*
G37*
G36*
X257246Y247532D02*
X255421D01*
Y245706D01*
X255849Y245792D01*
X256636Y246317D01*
X257161Y247104D01*
X257246Y247532D01*
D02*
G37*
G36*
X254421D02*
X252596D01*
X252681Y247104D01*
X253207Y246317D01*
X253993Y245792D01*
X254421Y245706D01*
Y247532D01*
D02*
G37*
G36*
X193307Y253583D02*
X190551D01*
X189369Y253427D01*
X188268Y252971D01*
X187322Y252245D01*
X186596Y251299D01*
X186140Y250198D01*
X185985Y249016D01*
X186140Y247834D01*
X186596Y246732D01*
X187322Y245787D01*
X187607Y245568D01*
X187446Y245095D01*
X186992D01*
Y241642D01*
X191929D01*
X196866D01*
Y245095D01*
X196412D01*
X196251Y245568D01*
X196536Y245787D01*
X197262Y246732D01*
X197718Y247834D01*
X197874Y249016D01*
X197718Y250198D01*
X197262Y251299D01*
X196536Y252245D01*
X195590Y252971D01*
X194489Y253427D01*
X193307Y253583D01*
D02*
G37*
G36*
X276091Y239530D02*
Y237705D01*
X277916D01*
X277831Y238133D01*
X277305Y238919D01*
X276518Y239445D01*
X276091Y239530D01*
D02*
G37*
G36*
X275091D02*
X274663Y239445D01*
X273876Y238919D01*
X273351Y238133D01*
X273266Y237705D01*
X275091D01*
Y239530D01*
D02*
G37*
G36*
X196866Y240642D02*
X192429D01*
Y237189D01*
X196866D01*
Y240642D01*
D02*
G37*
G36*
X191429D02*
X186992D01*
Y237189D01*
X191429D01*
Y240642D01*
D02*
G37*
G36*
X219488Y247391D02*
X218331Y247277D01*
X217217Y246939D01*
X216191Y246391D01*
X215292Y245653D01*
X214554Y244754D01*
X214006Y243728D01*
X213668Y242615D01*
X213554Y241457D01*
X213668Y240299D01*
X214006Y239186D01*
X214554Y238160D01*
X215292Y237261D01*
X216191Y236523D01*
X217217Y235975D01*
X218331Y235637D01*
X219488Y235523D01*
X220646Y235637D01*
X221759Y235975D01*
X222785Y236523D01*
X223684Y237261D01*
X224422Y238160D01*
X224971Y239186D01*
X225308Y240299D01*
X225422Y241457D01*
X225308Y242615D01*
X224971Y243728D01*
X224422Y244754D01*
X223684Y245653D01*
X222785Y246391D01*
X221759Y246939D01*
X220646Y247277D01*
X219488Y247391D01*
D02*
G37*
G36*
X239173Y247076D02*
X238016Y246962D01*
X236902Y246624D01*
X235876Y246076D01*
X234977Y245338D01*
X234239Y244439D01*
X233691Y243413D01*
X233353Y242300D01*
X233239Y241142D01*
X233353Y239984D01*
X233691Y238871D01*
X234239Y237845D01*
X234977Y236946D01*
X235876Y236208D01*
X236902Y235660D01*
X238016Y235322D01*
X239173Y235208D01*
X240331Y235322D01*
X241444Y235660D01*
X242470Y236208D01*
X243369Y236946D01*
X244107Y237845D01*
X244655Y238871D01*
X244993Y239984D01*
X245107Y241142D01*
X244993Y242300D01*
X244655Y243413D01*
X244107Y244439D01*
X243369Y245338D01*
X242470Y246076D01*
X241444Y246624D01*
X240331Y246962D01*
X239173Y247076D01*
D02*
G37*
G36*
X277916Y236705D02*
X276091D01*
Y234880D01*
X276518Y234965D01*
X277305Y235490D01*
X277831Y236277D01*
X277916Y236705D01*
D02*
G37*
G36*
X275091D02*
X273266D01*
X273351Y236277D01*
X273876Y235490D01*
X274663Y234965D01*
X275091Y234880D01*
Y236705D01*
D02*
G37*
G36*
X377953Y387843D02*
X376023Y387653D01*
X374168Y387090D01*
X372458Y386176D01*
X370959Y384946D01*
X369729Y383448D01*
X368815Y381738D01*
X368253Y379882D01*
X368063Y377953D01*
X368253Y376023D01*
X368815Y374168D01*
X369729Y372458D01*
X370959Y370959D01*
X372458Y369729D01*
X374168Y368815D01*
X376023Y368253D01*
X377953Y368063D01*
X379882Y368253D01*
X381737Y368815D01*
X383447Y369729D01*
X384946Y370959D01*
X386176Y372458D01*
X387090Y374168D01*
X387653Y376023D01*
X387843Y377953D01*
X387653Y379882D01*
X387090Y381738D01*
X386176Y383448D01*
X384946Y384946D01*
X383447Y386176D01*
X381737Y387090D01*
X379882Y387653D01*
X377953Y387843D01*
D02*
G37*
G36*
X379921Y204163D02*
X379048Y204048D01*
X378234Y203711D01*
X377535Y203174D01*
X376998Y202475D01*
X376661Y201661D01*
X376546Y200787D01*
X376661Y199914D01*
X376943Y199233D01*
Y187849D01*
X365300Y176207D01*
X320866D01*
X320866Y176207D01*
X320095Y176105D01*
X319377Y175808D01*
X318760Y175334D01*
X312855Y169429D01*
X312381Y168812D01*
X312084Y168094D01*
X311982Y167323D01*
Y164553D01*
X311664Y164383D01*
X310765Y163645D01*
X310027Y162746D01*
X309478Y161720D01*
X309140Y160607D01*
X309027Y159449D01*
X309140Y158291D01*
X309478Y157178D01*
X310027Y156152D01*
X310765Y155253D01*
X311664Y154515D01*
X312690Y153966D01*
X313803Y153629D01*
X314961Y153515D01*
X316118Y153629D01*
X317231Y153966D01*
X318257Y154515D01*
X319157Y155253D01*
X319895Y156152D01*
X320443Y157178D01*
X320781Y158291D01*
X320895Y159449D01*
X320781Y160607D01*
X320443Y161720D01*
X319895Y162746D01*
X319157Y163645D01*
X318257Y164383D01*
X317939Y164553D01*
Y166089D01*
X322100Y170250D01*
X366534D01*
X367305Y170352D01*
X368023Y170649D01*
X368640Y171122D01*
X382027Y184510D01*
X382027Y184510D01*
X382501Y185127D01*
X382798Y185845D01*
X382899Y186616D01*
Y199233D01*
X383182Y199914D01*
X383297Y200787D01*
X383182Y201661D01*
X382844Y202475D01*
X382308Y203174D01*
X381609Y203711D01*
X380795Y204048D01*
X379921Y204163D01*
D02*
G37*
G36*
X372350Y169287D02*
Y163886D01*
X377751D01*
X377686Y164547D01*
X377347Y165663D01*
X376798Y166691D01*
X376058Y167593D01*
X375156Y168333D01*
X374127Y168883D01*
X373011Y169221D01*
X372350Y169287D01*
D02*
G37*
G36*
X346457Y165383D02*
X345299Y165269D01*
X344186Y164931D01*
X343160Y164383D01*
X342261Y163645D01*
X341523Y162746D01*
X341353Y162427D01*
X335630D01*
Y165354D01*
X325787D01*
Y153543D01*
X335630D01*
Y156471D01*
X341353D01*
X341523Y156152D01*
X342261Y155253D01*
X343160Y154515D01*
X344186Y153966D01*
X345299Y153629D01*
X346457Y153515D01*
X347614Y153629D01*
X348728Y153966D01*
X349753Y154515D01*
X350653Y155253D01*
X351391Y156152D01*
X351939Y157178D01*
X352277Y158291D01*
X352391Y159449D01*
X352277Y160607D01*
X351939Y161720D01*
X351391Y162746D01*
X350653Y163645D01*
X349753Y164383D01*
X348728Y164931D01*
X347614Y165269D01*
X346457Y165383D01*
D02*
G37*
G36*
X377751Y162886D02*
X372350D01*
Y157485D01*
X373011Y157550D01*
X374127Y157889D01*
X375156Y158439D01*
X376058Y159179D01*
X376798Y160080D01*
X377347Y161109D01*
X377686Y162225D01*
X377751Y162886D01*
D02*
G37*
G36*
X152075Y127325D02*
Y125500D01*
X153900D01*
X153815Y125928D01*
X153289Y126714D01*
X152503Y127240D01*
X152075Y127325D01*
D02*
G37*
G36*
X151075D02*
X150647Y127240D01*
X149860Y126714D01*
X149335Y125928D01*
X149250Y125500D01*
X151075D01*
Y127325D01*
D02*
G37*
G36*
X153900Y124500D02*
X152075D01*
Y122675D01*
X152503Y122760D01*
X153289Y123286D01*
X153815Y124072D01*
X153900Y124500D01*
D02*
G37*
G36*
X151075D02*
X149250D01*
X149335Y124072D01*
X149860Y123286D01*
X150647Y122760D01*
X151075Y122675D01*
Y124500D01*
D02*
G37*
G36*
X111791Y130860D02*
X110917Y130745D01*
X110103Y130408D01*
X109404Y129872D01*
X108867Y129173D01*
X108530Y128359D01*
X108415Y127485D01*
X108530Y126611D01*
X108812Y125930D01*
Y122685D01*
X108914Y121914D01*
X109211Y121196D01*
X109685Y120579D01*
X115453Y114811D01*
X115134Y114423D01*
X115101Y114445D01*
X114673Y114530D01*
Y112705D01*
X116498D01*
X116413Y113133D01*
X116391Y113165D01*
X116780Y113484D01*
X130007Y100256D01*
X130624Y99783D01*
X131342Y99485D01*
X132113Y99384D01*
X132113Y99384D01*
X171260D01*
Y96457D01*
X183071D01*
Y108268D01*
X171260D01*
Y105341D01*
X133347D01*
X114769Y123919D01*
Y125930D01*
X115051Y126611D01*
X115166Y127485D01*
X115051Y128359D01*
X114714Y129173D01*
X114177Y129872D01*
X113478Y130408D01*
X112664Y130745D01*
X111791Y130860D01*
D02*
G37*
G36*
X113673Y114530D02*
X113245Y114445D01*
X112459Y113919D01*
X111933Y113133D01*
X111848Y112705D01*
X113673D01*
Y114530D01*
D02*
G37*
G36*
X116498Y111705D02*
X114673D01*
Y109880D01*
X115101Y109965D01*
X115888Y110490D01*
X116413Y111277D01*
X116498Y111705D01*
D02*
G37*
G36*
X113673D02*
X111848D01*
X111933Y111277D01*
X112459Y110490D01*
X113245Y109965D01*
X113673Y109880D01*
Y111705D01*
D02*
G37*
G36*
X20472Y100485D02*
X20185D01*
Y96799D01*
X24592D01*
X24515Y97382D01*
X24097Y98392D01*
X23432Y99259D01*
X22565Y99924D01*
X21556Y100342D01*
X20472Y100485D01*
D02*
G37*
G36*
X19185D02*
X18898D01*
X17814Y100342D01*
X16805Y99924D01*
X15938Y99259D01*
X15273Y98392D01*
X14855Y97382D01*
X14778Y96799D01*
X19185D01*
Y100485D01*
D02*
G37*
G36*
X24592Y95799D02*
X20185D01*
Y92114D01*
X20472D01*
X21556Y92256D01*
X22565Y92675D01*
X23432Y93340D01*
X24097Y94207D01*
X24515Y95216D01*
X24592Y95799D01*
D02*
G37*
G36*
X19185D02*
X14778D01*
X14855Y95216D01*
X15273Y94207D01*
X15938Y93340D01*
X16805Y92675D01*
X17814Y92256D01*
X18898Y92114D01*
X19185D01*
Y95799D01*
D02*
G37*
G36*
X20472Y65366D02*
X20185D01*
Y61681D01*
X24592D01*
X24515Y62264D01*
X24097Y63274D01*
X23432Y64141D01*
X22565Y64806D01*
X21556Y65224D01*
X20472Y65366D01*
D02*
G37*
G36*
X19185D02*
X18898D01*
X17814Y65224D01*
X16805Y64806D01*
X15938Y64141D01*
X15273Y63274D01*
X14855Y62264D01*
X14778Y61681D01*
X19185D01*
Y65366D01*
D02*
G37*
G36*
X24592Y60681D02*
X20185D01*
Y56996D01*
X20472D01*
X21556Y57138D01*
X22565Y57556D01*
X23432Y58222D01*
X24097Y59088D01*
X24515Y60098D01*
X24592Y60681D01*
D02*
G37*
G36*
X19185D02*
X14778D01*
X14855Y60098D01*
X15273Y59088D01*
X15938Y58222D01*
X16805Y57556D01*
X17814Y57138D01*
X18898Y56996D01*
X19185D01*
Y60681D01*
D02*
G37*
G36*
X22047Y56330D02*
X17323D01*
X16398Y56208D01*
X15536Y55851D01*
X14796Y55283D01*
X14228Y54543D01*
X14069Y54159D01*
X9429D01*
X8748Y54441D01*
X7874Y54556D01*
X7000Y54441D01*
X6186Y54104D01*
X5487Y53568D01*
X4951Y52869D01*
X4614Y52055D01*
X4499Y51181D01*
X4614Y50308D01*
X4951Y49493D01*
X5487Y48794D01*
X6186Y48258D01*
X7000Y47921D01*
X7874Y47806D01*
X8748Y47921D01*
X9429Y48203D01*
X14069D01*
X14228Y47819D01*
X14796Y47079D01*
X15536Y46511D01*
X16398Y46154D01*
X17323Y46032D01*
X22047D01*
X22972Y46154D01*
X23834Y46511D01*
X24574Y47079D01*
X25142Y47819D01*
X25499Y48681D01*
X25621Y49606D01*
Y52756D01*
X25499Y53681D01*
X25142Y54543D01*
X24574Y55283D01*
X23834Y55851D01*
X22972Y56208D01*
X22047Y56330D01*
D02*
G37*
G36*
X140764Y47949D02*
X136327D01*
Y43512D01*
X140764D01*
Y47949D01*
D02*
G37*
G36*
X135327D02*
X130890D01*
Y43512D01*
X135327D01*
Y47949D01*
D02*
G37*
G36*
X102190Y96260D02*
X101317Y96145D01*
X100503Y95808D01*
X99804Y95272D01*
X99267Y94573D01*
X98930Y93759D01*
X98815Y92885D01*
X98930Y92011D01*
X99267Y91197D01*
X99804Y90498D01*
X100503Y89962D01*
X101317Y89625D01*
X102190Y89510D01*
X103064Y89625D01*
X103745Y89907D01*
X183145D01*
X227553Y45499D01*
X227448Y45154D01*
X227334Y43996D01*
X227448Y42838D01*
X227785Y41725D01*
X228334Y40699D01*
X229072Y39800D01*
X229971Y39062D01*
X230997Y38514D01*
X232110Y38176D01*
X233268Y38062D01*
X234425Y38176D01*
X235539Y38514D01*
X236565Y39062D01*
X237464Y39800D01*
X238202Y40699D01*
X238750Y41725D01*
X239088Y42838D01*
X239202Y43996D01*
X239088Y45154D01*
X238750Y46267D01*
X238202Y47293D01*
X237464Y48192D01*
X236565Y48930D01*
X235539Y49478D01*
X234425Y49816D01*
X233268Y49930D01*
X232110Y49816D01*
X231764Y49711D01*
X186485Y94991D01*
X185868Y95464D01*
X185150Y95762D01*
X184379Y95863D01*
X103745D01*
X103064Y96145D01*
X102190Y96260D01*
D02*
G37*
G36*
X65461Y30209D02*
Y25795D01*
X69874D01*
X69770Y26584D01*
X69273Y27785D01*
X68482Y28816D01*
X67450Y29608D01*
X66249Y30105D01*
X65461Y30209D01*
D02*
G37*
G36*
X64461D02*
X63672Y30105D01*
X62471Y29608D01*
X61439Y28816D01*
X60648Y27785D01*
X60151Y26584D01*
X60047Y25795D01*
X64461D01*
Y30209D01*
D02*
G37*
G36*
X69874Y24795D02*
X65461D01*
Y20381D01*
X66249Y20485D01*
X67450Y20983D01*
X68482Y21774D01*
X69273Y22805D01*
X69770Y24006D01*
X69874Y24795D01*
D02*
G37*
G36*
X64461D02*
X60047D01*
X60151Y24006D01*
X60648Y22805D01*
X61439Y21774D01*
X62471Y20983D01*
X63672Y20485D01*
X64461Y20381D01*
Y24795D01*
D02*
G37*
G36*
X233268Y32214D02*
X232110Y32100D01*
X230997Y31762D01*
X229971Y31214D01*
X229072Y30476D01*
X228334Y29576D01*
X227785Y28550D01*
X227448Y27437D01*
X227334Y26279D01*
X227448Y25122D01*
X227785Y24009D01*
X228334Y22983D01*
X229072Y22083D01*
X229971Y21345D01*
X230997Y20797D01*
X232110Y20459D01*
X233268Y20345D01*
X234425Y20459D01*
X235539Y20797D01*
X236565Y21345D01*
X237464Y22083D01*
X238202Y22983D01*
X238750Y24009D01*
X239088Y25122D01*
X239202Y26279D01*
X239088Y27437D01*
X238750Y28550D01*
X238202Y29576D01*
X237464Y30476D01*
X236565Y31214D01*
X235539Y31762D01*
X234425Y32100D01*
X233268Y32214D01*
D02*
G37*
G36*
X207677D02*
X206520Y32100D01*
X205406Y31762D01*
X204380Y31214D01*
X203481Y30476D01*
X202743Y29576D01*
X202195Y28550D01*
X201857Y27437D01*
X201743Y26279D01*
X201857Y25122D01*
X202195Y24009D01*
X202743Y22983D01*
X203481Y22083D01*
X204380Y21345D01*
X205406Y20797D01*
X206520Y20459D01*
X207677Y20345D01*
X208835Y20459D01*
X209948Y20797D01*
X210974Y21345D01*
X211873Y22083D01*
X212611Y22983D01*
X213159Y24009D01*
X213497Y25122D01*
X213611Y26279D01*
X213497Y27437D01*
X213159Y28550D01*
X212611Y29576D01*
X211873Y30476D01*
X210974Y31214D01*
X209948Y31762D01*
X208835Y32100D01*
X207677Y32214D01*
D02*
G37*
G36*
X161417Y31229D02*
X160260Y31115D01*
X159146Y30778D01*
X158121Y30229D01*
X157221Y29491D01*
X156483Y28592D01*
X155935Y27566D01*
X155597Y26453D01*
X155483Y25295D01*
X155597Y24138D01*
X155935Y23024D01*
X156483Y21998D01*
X157221Y21099D01*
X158121Y20361D01*
X159146Y19813D01*
X160260Y19475D01*
X161417Y19361D01*
X162575Y19475D01*
X163688Y19813D01*
X164714Y20361D01*
X165613Y21099D01*
X166351Y21998D01*
X166900Y23024D01*
X167237Y24138D01*
X167351Y25295D01*
X167237Y26453D01*
X166900Y27566D01*
X166351Y28592D01*
X165613Y29491D01*
X164714Y30229D01*
X163688Y30778D01*
X162575Y31115D01*
X161417Y31229D01*
D02*
G37*
G36*
X90551D02*
X89394Y31115D01*
X88280Y30778D01*
X87254Y30229D01*
X86355Y29491D01*
X85617Y28592D01*
X85069Y27566D01*
X84731Y26453D01*
X84617Y25295D01*
X84731Y24138D01*
X85069Y23024D01*
X85617Y21998D01*
X86355Y21099D01*
X87254Y20361D01*
X88280Y19813D01*
X89394Y19475D01*
X90551Y19361D01*
X91709Y19475D01*
X92822Y19813D01*
X93848Y20361D01*
X94747Y21099D01*
X95485Y21998D01*
X96034Y23024D01*
X96371Y24138D01*
X96485Y25295D01*
X96371Y26453D01*
X96034Y27566D01*
X95485Y28592D01*
X94747Y29491D01*
X93848Y30229D01*
X92822Y30778D01*
X91709Y31115D01*
X90551Y31229D01*
D02*
G37*
G36*
X15748Y25638D02*
X13819Y25448D01*
X11963Y24885D01*
X10253Y23971D01*
X8755Y22741D01*
X7525Y21243D01*
X6611Y19533D01*
X6048Y17677D01*
X5858Y15748D01*
X6048Y13819D01*
X6611Y11963D01*
X7525Y10253D01*
X8755Y8755D01*
X10253Y7525D01*
X11963Y6611D01*
X13819Y6048D01*
X15748Y5858D01*
X17677Y6048D01*
X19533Y6611D01*
X21243Y7525D01*
X22741Y8755D01*
X23971Y10253D01*
X24885Y11963D01*
X25448Y13819D01*
X25638Y15748D01*
X25448Y17677D01*
X24885Y19533D01*
X23971Y21243D01*
X22741Y22741D01*
X21243Y23971D01*
X19533Y24885D01*
X17677Y25448D01*
X15748Y25638D01*
D02*
G37*
G36*
X349425Y104347D02*
X345973D01*
Y99909D01*
X349425D01*
Y104347D01*
D02*
G37*
G36*
X364657Y98909D02*
X361568D01*
Y98032D01*
X361690Y97102D01*
X362049Y96237D01*
X362619Y95493D01*
X363363Y94923D01*
X364229Y94564D01*
X364657Y94508D01*
Y98909D01*
D02*
G37*
G36*
X349425D02*
X345973D01*
Y94472D01*
X349425D01*
Y98909D01*
D02*
G37*
G36*
X274622D02*
X271169D01*
Y94472D01*
X274622D01*
Y98909D01*
D02*
G37*
G36*
X349425Y76788D02*
X345973D01*
Y72350D01*
X349425D01*
Y76788D01*
D02*
G37*
G36*
X274622D02*
X271169D01*
Y72350D01*
X274622D01*
Y76788D01*
D02*
G37*
G36*
X364657Y76752D02*
X364229Y76696D01*
X363363Y76337D01*
X362619Y75767D01*
X362049Y75023D01*
X361690Y74158D01*
X361568Y73228D01*
Y72350D01*
X364657D01*
Y76752D01*
D02*
G37*
G36*
Y71350D02*
X361568D01*
Y70473D01*
X361690Y69543D01*
X362049Y68678D01*
X362619Y67934D01*
X363363Y67364D01*
X364229Y67005D01*
X364657Y66949D01*
Y71350D01*
D02*
G37*
G36*
X349425D02*
X345973D01*
Y66913D01*
X349425D01*
Y71350D01*
D02*
G37*
G36*
X337598Y77795D02*
X336417Y77639D01*
X335315Y77183D01*
X334369Y76458D01*
X333644Y75512D01*
X333188Y74410D01*
X333032Y73228D01*
Y70473D01*
X333188Y69291D01*
X333644Y68189D01*
X334369Y67243D01*
X335315Y66518D01*
X336417Y66062D01*
X337598Y65906D01*
X338780Y66062D01*
X339882Y66518D01*
X340828Y67243D01*
X341046Y67528D01*
X341520Y67368D01*
Y66913D01*
X344973D01*
Y71850D01*
Y76788D01*
X341520D01*
Y76333D01*
X341046Y76173D01*
X340828Y76458D01*
X339882Y77183D01*
X338780Y77639D01*
X337598Y77795D01*
D02*
G37*
G36*
X274622Y71350D02*
X271169D01*
Y66913D01*
X274622D01*
Y71350D01*
D02*
G37*
G36*
X262795Y77795D02*
X261613Y77639D01*
X260512Y77183D01*
X259566Y76458D01*
X258840Y75512D01*
X258384Y74410D01*
X258229Y73228D01*
Y70473D01*
X258384Y69291D01*
X258840Y68189D01*
X259566Y67243D01*
X260512Y66518D01*
X261613Y66062D01*
X262795Y65906D01*
X263977Y66062D01*
X265079Y66518D01*
X266024Y67243D01*
X266243Y67528D01*
X266717Y67368D01*
Y66913D01*
X270169D01*
Y71850D01*
Y76788D01*
X266717D01*
Y76333D01*
X266243Y76173D01*
X266024Y76458D01*
X265079Y77183D01*
X263977Y77639D01*
X262795Y77795D01*
D02*
G37*
G36*
X335146Y36215D02*
Y30815D01*
X340546D01*
X340481Y31476D01*
X340142Y32592D01*
X339593Y33620D01*
X338853Y34522D01*
X337951Y35262D01*
X336923Y35812D01*
X335806Y36150D01*
X335146Y36215D01*
D02*
G37*
G36*
X334146D02*
X333485Y36150D01*
X332369Y35812D01*
X331340Y35262D01*
X330438Y34522D01*
X329698Y33620D01*
X329149Y32592D01*
X328810Y31476D01*
X328745Y30815D01*
X334146D01*
Y36215D01*
D02*
G37*
G36*
X287901Y33460D02*
Y28059D01*
X293302D01*
X293237Y28720D01*
X292899Y29836D01*
X292349Y30865D01*
X291609Y31766D01*
X290707Y32506D01*
X289679Y33056D01*
X288562Y33395D01*
X287901Y33460D01*
D02*
G37*
G36*
X286901D02*
X286241Y33395D01*
X285125Y33056D01*
X284096Y32506D01*
X283194Y31766D01*
X282454Y30865D01*
X281905Y29836D01*
X281566Y28720D01*
X281501Y28059D01*
X286901D01*
Y33460D01*
D02*
G37*
G36*
X340546Y29815D02*
X335146D01*
Y24414D01*
X335806Y24479D01*
X336923Y24818D01*
X337951Y25368D01*
X338853Y26108D01*
X339593Y27009D01*
X340142Y28038D01*
X340481Y29154D01*
X340546Y29815D01*
D02*
G37*
G36*
X334146D02*
X328745D01*
X328810Y29154D01*
X329149Y28038D01*
X329698Y27009D01*
X330438Y26108D01*
X331340Y25368D01*
X332369Y24818D01*
X333485Y24479D01*
X334146Y24414D01*
Y29815D01*
D02*
G37*
G36*
X354330Y37238D02*
X352980Y37105D01*
X351681Y36711D01*
X350484Y36071D01*
X349435Y35210D01*
X348574Y34161D01*
X347934Y32964D01*
X347540Y31666D01*
X347408Y30315D01*
X347540Y28964D01*
X347934Y27665D01*
X348574Y26469D01*
X349435Y25420D01*
X350484Y24558D01*
X351681Y23919D01*
X352980Y23525D01*
X354330Y23392D01*
X355681Y23525D01*
X356980Y23919D01*
X358177Y24558D01*
X359226Y25420D01*
X360087Y26469D01*
X360727Y27665D01*
X361121Y28964D01*
X361254Y30315D01*
X361121Y31666D01*
X360727Y32964D01*
X360087Y34161D01*
X359226Y35210D01*
X358177Y36071D01*
X356980Y36711D01*
X355681Y37105D01*
X354330Y37238D01*
D02*
G37*
G36*
X317421Y37243D02*
X312500D01*
X311344Y37091D01*
X310266Y36644D01*
X309341Y35934D01*
X308631Y35009D01*
X308185Y33932D01*
X308033Y32776D01*
Y27854D01*
X308185Y26698D01*
X308631Y25620D01*
X309341Y24695D01*
X310266Y23985D01*
X311344Y23539D01*
X312500Y23387D01*
X317421D01*
X318577Y23539D01*
X319655Y23985D01*
X320580Y24695D01*
X321290Y25620D01*
X321736Y26698D01*
X321888Y27854D01*
Y32776D01*
X321736Y33932D01*
X321290Y35009D01*
X320580Y35934D01*
X319655Y36644D01*
X318577Y37091D01*
X317421Y37243D01*
D02*
G37*
G36*
X270177Y34487D02*
X265256D01*
X264100Y34335D01*
X263022Y33889D01*
X262097Y33179D01*
X261387Y32253D01*
X260941Y31176D01*
X260789Y30020D01*
Y25098D01*
X260941Y23942D01*
X261387Y22865D01*
X262097Y21939D01*
X263022Y21230D01*
X264100Y20783D01*
X265256Y20631D01*
X270177D01*
X271333Y20783D01*
X272411Y21230D01*
X273336Y21939D01*
X274046Y22865D01*
X274492Y23942D01*
X274644Y25098D01*
Y30020D01*
X274492Y31176D01*
X274046Y32253D01*
X273336Y33179D01*
X272411Y33889D01*
X271333Y34335D01*
X270177Y34487D01*
D02*
G37*
G36*
X377953Y25638D02*
X376023Y25448D01*
X374168Y24885D01*
X372458Y23971D01*
X370959Y22741D01*
X369729Y21243D01*
X368815Y19533D01*
X368253Y17677D01*
X368063Y15748D01*
X368253Y13819D01*
X368815Y11963D01*
X369729Y10253D01*
X370959Y8755D01*
X372458Y7525D01*
X374168Y6611D01*
X376023Y6048D01*
X377953Y5858D01*
X379882Y6048D01*
X381737Y6611D01*
X383447Y7525D01*
X384946Y8755D01*
X386176Y10253D01*
X387090Y11963D01*
X387653Y13819D01*
X387843Y15748D01*
X387653Y17677D01*
X387090Y19533D01*
X386176Y21243D01*
X384946Y22741D01*
X383447Y23971D01*
X381737Y24885D01*
X379882Y25448D01*
X377953Y25638D01*
D02*
G37*
%LPD*%
D11*
X376969Y232283D02*
Y266563D01*
X379771Y229481D02*
X383708D01*
X376969Y232283D02*
X379771Y229481D01*
X383708D02*
X383858Y229331D01*
X388189Y227537D02*
Y231124D01*
X371323Y223685D02*
X384337D01*
X388189Y227537D01*
X380906Y238408D02*
Y332677D01*
Y238408D02*
X388189Y231124D01*
X369974Y213489D02*
X375992D01*
X377070Y214567D02*
X382874D01*
X375992Y213489D02*
X377070Y214567D01*
X382874D02*
X388779Y208661D01*
X362205Y188976D02*
Y222532D01*
X363358Y223685D01*
X372590Y224953D02*
Y258315D01*
X363358Y223685D02*
X371323D01*
X372590Y224953D01*
X316929Y265748D02*
Y278842D01*
X317323Y279235D01*
Y291090D01*
X283465Y262059D02*
X308661Y287256D01*
X314751Y293661D02*
X317323Y291090D01*
X308661Y287256D02*
X312846D01*
X312992Y287402D01*
X268526Y292913D02*
X268920Y293307D01*
X266732Y297244D02*
X299331D01*
X301316Y293661D02*
X314751D01*
X299331Y297244D02*
X299686Y297598D01*
X270157Y288976D02*
X270511Y289331D01*
X299686Y297598D02*
X333004D01*
X300962Y293307D02*
X301316Y293661D01*
X333004Y297598D02*
X337090Y301685D01*
X268920Y293307D02*
X300962D01*
X270511Y289331D02*
X303110D01*
X162441Y301142D02*
X170669Y292913D01*
X283465Y237205D02*
Y262059D01*
X254921Y321850D02*
X289370D01*
X251547Y317520D02*
X283471D01*
X288605Y312385D01*
X250000Y319067D02*
X251547Y317520D01*
X250000Y319067D02*
Y328695D01*
X264390Y343085D01*
X265789Y172285D02*
X300590D01*
X257874Y164370D02*
X265789Y172285D01*
X215564Y198909D02*
X232374D01*
X236221Y202756D01*
X217194Y202847D02*
X229429D01*
X234260Y207677D02*
X312008D01*
X229429Y202847D02*
X234260Y207677D01*
X312008D02*
X326772Y222441D01*
X218988Y207390D02*
X219488Y207890D01*
Y217520D01*
X218988Y207177D02*
Y207390D01*
X242941Y194973D02*
X252284Y185630D01*
X203740Y196850D02*
X212055D01*
X184724Y195419D02*
X190487Y201181D01*
X152559Y221142D02*
X199186D01*
X212055Y196850D02*
X213933Y194973D01*
X209449Y210592D02*
Y210879D01*
X213292Y201181D02*
X215564Y198909D01*
X190487Y201181D02*
X213292D01*
X213933Y194973D02*
X242941D01*
X209449Y210592D02*
X217194Y202847D01*
X199186Y221142D02*
X209449Y210879D01*
X205090Y209085D02*
X205118D01*
X165945Y288976D02*
X270157D01*
X162402Y285433D02*
X165945Y288976D01*
X170669Y292913D02*
X268526D01*
X19685Y51181D02*
X19685Y51181D01*
X7874Y51181D02*
X7874Y51181D01*
X19685D01*
X90551Y43012D02*
Y70132D01*
X109211Y80985D02*
X123444D01*
X90158Y70526D02*
Y94918D01*
X94488Y80709D02*
X108934D01*
X109211Y80985D01*
X90158Y70526D02*
X90551Y70132D01*
X68891Y116185D02*
X90158Y94918D01*
X123444Y80985D02*
X161417Y43012D01*
X66929Y253946D02*
Y294902D01*
X67893Y295866D01*
Y300217D01*
X89780Y166339D02*
X134843D01*
X88349Y164907D02*
X89780Y166339D01*
X51799Y160576D02*
X157624D01*
X24384Y187992D02*
X51799Y160576D01*
X44891Y142985D02*
X83121D01*
X88135Y164907D02*
X88349D01*
X157624Y160576D02*
X175197Y178150D01*
X134843Y166339D02*
X139764Y171260D01*
X62008Y108099D02*
X64961Y105146D01*
Y43012D02*
Y105146D01*
X64961Y43012D02*
X64961Y43012D01*
X55090Y105441D02*
X60039Y100492D01*
X55090Y105441D02*
Y113185D01*
X62008Y108099D02*
Y109252D01*
X336398Y253937D02*
X361122D01*
X361221Y254035D01*
X326772Y244311D02*
X336398Y253937D01*
X351378Y242126D02*
X366142D01*
X338583Y229331D02*
X351378Y242126D01*
X355484Y279528D02*
X364764D01*
X365748Y278543D02*
X370079D01*
X364764Y279528D02*
X365748Y278543D01*
X371457Y269783D02*
X371949D01*
X374016Y267717D01*
X375815D02*
X376969Y266563D01*
X374016Y267717D02*
X375815D01*
X362205Y271653D02*
X363456Y270402D01*
Y267449D02*
Y270402D01*
Y267449D02*
X372590Y258315D01*
X370079Y271161D02*
Y271653D01*
Y271161D02*
X371457Y269783D01*
X242126Y157480D02*
X276575Y191929D01*
X242126Y142885D02*
Y157480D01*
X276575Y191929D02*
X321851D01*
X242126Y142885D02*
X243279Y141732D01*
X251969D01*
X210630Y142717D02*
Y148622D01*
X239004Y114342D02*
X269516D01*
X210630Y142717D02*
X239004Y114342D01*
X269516D02*
X270669Y113189D01*
Y99409D02*
Y113189D01*
X362205Y188976D02*
X363189Y187992D01*
X346616Y366967D02*
X380906Y332677D01*
X388779Y160630D02*
Y208661D01*
X371850Y143701D02*
X388779Y160630D01*
X366534Y173228D02*
X379921Y186616D01*
Y200787D01*
X354331Y260827D02*
Y278374D01*
X355484Y279528D01*
X305991Y310485D02*
Y312120D01*
X141491Y378985D02*
X239125D01*
X305991Y312120D01*
X264390Y343085D02*
X264390D01*
X252284Y185039D02*
Y185630D01*
X66929Y253946D02*
X69734Y251142D01*
X63976Y308071D02*
X67047Y311142D01*
X82559D01*
X69734Y251142D02*
X82559D01*
X13780Y341535D02*
X22638D01*
X34449Y329724D01*
X53149D01*
X42323Y366142D02*
X71850D01*
X34691Y358509D02*
X42323Y366142D01*
X34691Y350785D02*
Y358509D01*
X76850Y361142D02*
X82559D01*
X71850Y366142D02*
X76850Y361142D01*
X91535Y263779D02*
Y368926D01*
X38584Y370079D02*
X90382D01*
X29491Y360985D02*
X38584Y370079D01*
X90382D02*
X91535Y368926D01*
X333661Y222441D02*
Y241457D01*
X261980Y203740D02*
X314961D01*
X333661Y222441D01*
X260827Y183071D02*
Y202587D01*
X261980Y203740D01*
X242126Y178150D02*
X255906D01*
X260827Y183071D01*
X175197Y178150D02*
X242126D01*
X242126Y178150D01*
X139764Y171260D02*
Y238189D01*
X127953Y250000D02*
Y258504D01*
Y250000D02*
X139764Y238189D01*
X158223Y281142D02*
X162402Y285320D01*
Y285433D01*
X152559Y281142D02*
X158223D01*
X152559Y301142D02*
X162441D01*
X127953Y258504D02*
X130591Y261142D01*
X133091Y251142D02*
X152559D01*
X130591Y261142D02*
X152559D01*
X345787Y371063D02*
X346616Y370234D01*
Y366967D02*
Y370234D01*
X338583Y208661D02*
Y229331D01*
X321851Y191929D02*
X338583Y208661D01*
X351378Y257874D02*
X354331Y260827D01*
X334767Y257874D02*
X351378D01*
X322835Y245941D02*
X334767Y257874D01*
X322835Y236220D02*
Y245941D01*
X317913Y231299D02*
X322835Y236220D01*
X152717Y231299D02*
X317913D01*
X326772Y222441D02*
Y244311D01*
X152559Y231142D02*
X152717Y231299D01*
X320866Y173228D02*
X366534D01*
X314961Y167323D02*
X320866Y173228D01*
X314961Y159449D02*
Y167323D01*
X303965Y161417D02*
X305118Y160264D01*
Y141732D02*
X312008Y134843D01*
X305118Y141732D02*
Y160264D01*
X268870Y161417D02*
X303965D01*
X312008Y134843D02*
X335630D01*
X346457Y124016D01*
Y116142D02*
Y124016D01*
X287402Y15917D02*
Y27559D01*
X286248Y14764D02*
X287402Y15917D01*
X125169Y14764D02*
X286248D01*
X287402Y27559D02*
X287402Y27559D01*
X124016Y15917D02*
X125169Y14764D01*
X124016Y15917D02*
Y31496D01*
X134674Y34449D02*
X135827Y35602D01*
X126969Y34449D02*
X134674D01*
X135827Y35602D02*
Y43012D01*
X124016Y31496D02*
X126969Y34449D01*
X135827Y43012D02*
X135827Y43012D01*
X376800Y129921D02*
X377953Y128768D01*
X373053Y129921D02*
X376800D01*
X377953Y118110D02*
Y128768D01*
X365158Y105315D02*
X377953Y118110D01*
X359083Y143891D02*
X373053Y129921D01*
X359083Y158296D02*
X363976Y163189D01*
X359083Y143891D02*
Y158296D01*
X363976Y163189D02*
X371653D01*
X371850Y163386D01*
X358885Y108885D02*
X363189Y113189D01*
Y120079D01*
X318091Y108885D02*
X358885D01*
X314961Y112015D02*
X318091Y108885D01*
X314961Y112015D02*
Y116142D01*
X365158Y99409D02*
Y105315D01*
X82559Y261142D02*
X88898D01*
X91535Y263779D01*
X71339Y211142D02*
X82559D01*
X65991Y216490D02*
X71339Y211142D01*
X65991Y216490D02*
Y240112D01*
X58937Y270669D02*
X60091Y269516D01*
X53149Y270669D02*
X58937D01*
X60091Y252185D02*
Y269516D01*
X62008Y204724D02*
X64996Y201736D01*
X62008Y204724D02*
Y222272D01*
X64996Y201736D02*
X81964D01*
X53149Y223425D02*
X53150Y223425D01*
X60855D01*
X62008Y222272D01*
X81964Y201736D02*
X82559Y201142D01*
X59055Y199803D02*
X76772Y182087D01*
X53149Y199803D02*
X59055D01*
X76772Y182087D02*
X81614D01*
X82559Y181142D01*
X76890Y171142D02*
X82559D01*
X53149Y176181D02*
X71851D01*
X76890Y171142D01*
X333661Y363189D02*
X335188Y364715D01*
Y370463D01*
X285759Y363189D02*
X333661D01*
X284606Y364342D02*
X285759Y363189D01*
X335188Y370463D02*
X335787Y371063D01*
X284606Y364342D02*
Y371063D01*
X53149Y247047D02*
X59055D01*
X65991Y240112D01*
X73988Y221142D02*
X82559D01*
X60091Y252185D02*
X72835Y239441D01*
Y222295D02*
Y239441D01*
Y222295D02*
X73988Y221142D01*
X25905Y126299D02*
X35391Y135785D01*
X185750D01*
X19685Y126299D02*
X25905D01*
X44517Y52920D02*
X59690Y36084D01*
X19685Y71181D02*
X26260D01*
X44447Y52994D02*
X44517Y52920D01*
X26260Y71181D02*
X44447Y52994D01*
X59690Y36084D02*
X60341Y35433D01*
X72591Y36586D02*
Y86585D01*
X61153Y35433D02*
X71437D01*
X72591Y36586D01*
X60341Y35433D02*
X61153Y35433D01*
X267717Y154528D02*
Y160264D01*
X267717Y154528D02*
X267717Y154528D01*
Y160264D02*
X268870Y161417D01*
X330709Y116142D02*
Y124016D01*
X299213Y128937D02*
X325787D01*
X330709Y124016D01*
X191240Y300185D02*
X211602D01*
X245079Y333661D01*
X219488Y335630D02*
X233268Y349410D01*
X242126D01*
X318791Y99385D02*
X337598D01*
X199803Y99409D02*
X262795D01*
X196850Y102362D02*
X199803Y99409D01*
X289290Y303785D02*
X327691D01*
X332090Y308185D01*
Y343130D01*
X29491Y349685D02*
Y360985D01*
Y349685D02*
X37640Y341535D01*
X53149D01*
X111791Y122685D02*
Y127485D01*
Y122685D02*
X132113Y102362D01*
X177165D01*
X307401Y179096D02*
Y185039D01*
X300590Y172285D02*
X307401Y179096D01*
Y185039D02*
X336473D01*
X337090Y301685D02*
Y312385D01*
X184724Y185039D02*
Y195419D01*
X55090Y113185D02*
X58091Y116185D01*
X68891D01*
X102190Y92885D02*
X184379D01*
X233268Y43996D01*
X13780Y187992D02*
X24384D01*
X219803Y364685D02*
Y371063D01*
X210603Y355485D02*
X219803Y364685D01*
X195291Y355485D02*
X210603D01*
X181991Y342185D02*
X195291Y355485D01*
X156547Y171142D02*
X180091Y194685D01*
X152559Y171142D02*
X156547D01*
X267717Y128937D02*
X274312D01*
X320864Y82385D01*
X370332D01*
X373032Y79685D01*
Y71850D02*
Y79685D01*
X337598Y99385D02*
Y99409D01*
X306591Y111585D02*
X318791Y99385D01*
X201391Y205385D02*
X205090Y209085D01*
X184491Y205385D02*
X201391D01*
X160247Y181142D02*
X184491Y205385D01*
X152559Y181142D02*
X160247D01*
X196850Y102362D02*
Y124685D01*
X185750Y135785D02*
X196850Y124685D01*
X135827Y25295D02*
X146591Y36059D01*
X199740D01*
X207677Y43996D01*
X291849Y154528D02*
X299213D01*
X289290Y151969D02*
X291849Y154528D01*
X281969Y151969D02*
X289290D01*
X261050Y128937D02*
X267717D01*
X258490Y131496D02*
X261050Y128937D01*
X251969Y131496D02*
X258490D01*
X232284Y185039D02*
X242284D01*
X287402D02*
X297401D01*
X274606Y371063D02*
X284606D01*
X330709Y159449D02*
X346457D01*
X291849Y128937D02*
X299213D01*
X289290Y131496D02*
X291849Y128937D01*
X281969Y131496D02*
X289290D01*
X261050Y154528D02*
X267717D01*
X258490Y151968D02*
X261050Y154528D01*
X251969Y151968D02*
X258490D01*
X194724Y185039D02*
X204724D01*
X199803Y371063D02*
X209803D01*
X39302Y306102D02*
X53149D01*
X27491Y317913D02*
X39302Y306102D01*
X13780Y317913D02*
X27491D01*
X39301Y282480D02*
X53149D01*
X27491Y270669D02*
X39301Y282480D01*
X13780Y270669D02*
X27491D01*
X39301Y258858D02*
X53149D01*
X27491Y247047D02*
X39301Y258858D01*
X13780Y247047D02*
X27491D01*
X39301Y235236D02*
X53149D01*
X27491Y223425D02*
X39301Y235236D01*
X13780Y223425D02*
X27491D01*
X39301Y211614D02*
X53149D01*
X27491Y199803D02*
X39301Y211614D01*
X13780Y199803D02*
X27491D01*
D37*
X204724Y185039D02*
D03*
X274606Y371063D02*
D03*
X199803D02*
D03*
X232284Y185039D02*
D03*
X287402D02*
D03*
D38*
X13780Y211614D02*
D03*
X53149Y199803D02*
D03*
Y187992D02*
D03*
Y176181D02*
D03*
Y341535D02*
D03*
Y329724D02*
D03*
Y306102D02*
D03*
X13780Y282480D02*
D03*
Y258858D02*
D03*
X53149Y353346D02*
D03*
Y317913D02*
D03*
Y294291D02*
D03*
Y270669D02*
D03*
Y247047D02*
D03*
X13780Y235236D02*
D03*
X53149Y223425D02*
D03*
X177165Y102362D02*
D03*
X207677Y43996D02*
D03*
X135827Y43012D02*
D03*
X64961D02*
D03*
X62008Y126968D02*
D03*
D39*
X314961Y116142D02*
D03*
X330709Y159449D02*
D03*
X346457Y116142D02*
D03*
X267717Y154528D02*
D03*
X299213D02*
D03*
D40*
X252284Y185039D02*
D03*
X242284D02*
D03*
X219803Y371063D02*
D03*
X209803D02*
D03*
X294606D02*
D03*
X284606D02*
D03*
X307401Y185039D02*
D03*
X297401D02*
D03*
D41*
X184724D02*
D03*
X194724D02*
D03*
D44*
X274606Y225394D02*
D03*
X191929Y249016D02*
D03*
X192913Y338583D02*
D03*
D45*
X274606Y217520D02*
D03*
X191929Y241142D02*
D03*
X192913Y330709D02*
D03*
D48*
X267717Y128937D02*
D03*
X299213D02*
D03*
D49*
X251969Y151968D02*
D03*
Y141732D02*
D03*
X281969Y131496D02*
D03*
Y141732D02*
D03*
X13780Y341535D02*
D03*
Y176181D02*
D03*
Y187992D02*
D03*
Y199803D02*
D03*
X53149Y211614D02*
D03*
X13780Y223425D02*
D03*
X53149Y235236D02*
D03*
X13780Y247047D02*
D03*
Y270669D02*
D03*
Y294291D02*
D03*
Y317913D02*
D03*
Y353346D02*
D03*
X53149Y258858D02*
D03*
Y282480D02*
D03*
X13780Y306102D02*
D03*
Y329724D02*
D03*
D50*
X251969Y131496D02*
D03*
X281969Y151969D02*
D03*
D51*
X363189Y120079D02*
D03*
Y187992D02*
D03*
X239173Y241142D02*
D03*
X345472Y343504D02*
D03*
X219488Y335630D02*
D03*
Y241457D02*
D03*
X298228Y241142D02*
D03*
X333661Y241457D02*
D03*
X346457Y159449D02*
D03*
X330709Y116142D02*
D03*
X314961Y159449D02*
D03*
X196850Y102362D02*
D03*
X233268Y26279D02*
D03*
X207677D02*
D03*
X233268Y43996D02*
D03*
X161417Y25295D02*
D03*
X135827D02*
D03*
X161417Y43012D02*
D03*
X90551Y25295D02*
D03*
X64961D02*
D03*
X90551Y43012D02*
D03*
X87598Y109252D02*
D03*
X62008D02*
D03*
X87598Y126968D02*
D03*
D52*
X337598Y99409D02*
D03*
X365158D02*
D03*
Y71850D02*
D03*
X262795D02*
D03*
Y99409D02*
D03*
X337598Y71850D02*
D03*
D53*
X345473Y99409D02*
D03*
X373032D02*
D03*
Y71850D02*
D03*
X270669D02*
D03*
Y99409D02*
D03*
X345473Y71850D02*
D03*
D62*
X362205Y271653D02*
D03*
X370079D02*
D03*
D70*
X325787Y371063D02*
D03*
D71*
X335787D02*
D03*
X345787D02*
D03*
D72*
X19685Y51181D02*
D03*
Y126299D02*
D03*
D73*
Y61181D02*
D03*
Y71181D02*
D03*
Y116299D02*
D03*
Y106299D02*
D03*
Y96299D02*
D03*
D74*
X371850Y143701D02*
D03*
D75*
Y163386D02*
D03*
X334646Y30315D02*
D03*
X354330D02*
D03*
X287402Y27559D02*
D03*
D76*
X377953Y15748D02*
D03*
Y377953D02*
D03*
X15748Y15748D02*
D03*
X15748Y377953D02*
D03*
D77*
X314961Y30315D02*
D03*
X267717Y27559D02*
D03*
D78*
X383858Y229331D02*
D03*
X369974Y213489D02*
D03*
X316929Y265748D02*
D03*
X346941Y279528D02*
D03*
X312992Y287402D02*
D03*
X303110Y289331D02*
D03*
X283465Y237205D02*
D03*
X289370Y321850D02*
D03*
X254921D02*
D03*
X257874Y164370D02*
D03*
X236221Y202756D02*
D03*
X219488Y217520D02*
D03*
X218988Y207177D02*
D03*
X205118Y209085D02*
D03*
X203740Y196850D02*
D03*
X266732Y297244D02*
D03*
X7874Y51181D02*
D03*
X94488Y80709D02*
D03*
X67893Y300217D02*
D03*
X63976Y308071D02*
D03*
X83121Y142985D02*
D03*
X88135Y164907D02*
D03*
X60039Y100492D02*
D03*
X361221Y254035D02*
D03*
X366142Y242126D02*
D03*
X370079Y278543D02*
D03*
X275590Y237205D02*
D03*
X293307Y249016D02*
D03*
X210630Y148622D02*
D03*
X379921Y200787D02*
D03*
X197835Y321850D02*
D03*
X179134Y314961D02*
D03*
X254921Y248031D02*
D03*
X114173Y112205D02*
D03*
X151575Y125000D02*
D03*
X133091Y251142D02*
D03*
X275590Y308071D02*
D03*
X326272Y309055D02*
D03*
X296260Y335630D02*
D03*
X324803Y323819D02*
D03*
X288605Y312385D02*
D03*
X245079Y333661D02*
D03*
X242126Y349410D02*
D03*
X289290Y303785D02*
D03*
X332090Y343130D02*
D03*
X264390Y343085D02*
D03*
X305991Y310485D02*
D03*
X141491Y378985D02*
D03*
X111791Y127485D02*
D03*
X72591Y86585D02*
D03*
X336473Y185039D02*
D03*
X337090Y312385D02*
D03*
X102190Y92885D02*
D03*
X181991Y342185D02*
D03*
X180091Y194685D02*
D03*
X44891Y142985D02*
D03*
X306591Y111585D02*
D03*
X191240Y300185D02*
D03*
X34691Y350785D02*
D03*
D79*
X82559Y361142D02*
D03*
Y351142D02*
D03*
Y341142D02*
D03*
Y331142D02*
D03*
Y321142D02*
D03*
Y311142D02*
D03*
Y301142D02*
D03*
Y291142D02*
D03*
Y281142D02*
D03*
Y271142D02*
D03*
Y261142D02*
D03*
Y251142D02*
D03*
Y241142D02*
D03*
Y231142D02*
D03*
Y221142D02*
D03*
Y211142D02*
D03*
Y201142D02*
D03*
Y191142D02*
D03*
Y181142D02*
D03*
Y171142D02*
D03*
X152559Y361142D02*
D03*
Y351142D02*
D03*
Y341142D02*
D03*
Y331142D02*
D03*
Y321142D02*
D03*
Y311142D02*
D03*
Y301142D02*
D03*
Y291142D02*
D03*
Y281142D02*
D03*
Y271142D02*
D03*
Y261142D02*
D03*
Y251142D02*
D03*
Y241142D02*
D03*
Y231142D02*
D03*
Y221142D02*
D03*
Y211142D02*
D03*
Y201142D02*
D03*
Y191142D02*
D03*
Y181142D02*
D03*
Y171142D02*
D03*
M02*
